<svg xmlns="http://www.w3.org/2000/svg" width="500" height="500"><g fill="none" fill-rule="evenodd"><path fill="#FC0" d="M0 0h500v500H0z"/><path fill="#000" fill-rule="nonzero" d="M23 173 57.5 25.9h48.8l31.4 147H100l-5.8-29.7H60.2L53.8 173H23ZM78 57.3l-12.6 60H89l-10.7-60H78Zm133 18.3c0-10-2.4-25.3-15.6-25.3-15.6 0-17.8 22.1-17.8 49.3 0 30.2 1.4 49 18.6 49 13.5 0 14.8-11 14.8-30h34.6c0 32.2-19 57.3-51 57.3-44.6 0-57.7-38.2-57.7-76.5 0-35.3 12.9-76.4 57.6-76.4 35.2 0 51 22.2 51 52.6h-34.6Zm35.9 97.4 34.5-147.1H330l31.4 147H324l-5.8-29.7h-34l-6.5 29.8H247Zm55-115.7-12.7 60H313l-10.8-60h-.4ZM369.1 173V25.9h62c26.8 0 43.1 14.9 43.1 35.1a34.9 34.9 0 0 1-27.7 34.7v.4c19.2 4.8 30.4 17 30.4 36.4 0 24.8-19 40.5-48.1 40.5h-59.7Zm37.1-64v36.7H420c8 0 18.6-3.5 18.6-18.6 0-11-6.6-18.2-18.6-18.2h-13.7Zm0-57v32.2h12.2c13.5 0 18.6-7.3 18.6-16 0-14-9.3-16.3-17.7-16.3h-13Z"/></g></svg>