<?xml version="1.0" encoding="UTF-8"?>
<svg width="500px" height="500px" viewBox="0 0 500 500" version="1.1" xmlns="http://www.w3.org/2000/svg" xmlns:xlink="http://www.w3.org/1999/xlink">
    <!-- Generator: Sketch 53.2 (72643) - https://sketchapp.com -->
    <title>Artboard</title>
    <desc>Created with Sketch.</desc>
    <g id="Artboard" stroke="none" stroke-width="1" fill="none" fill-rule="evenodd">
        <rect id="Background" fill="#FFCC00" x="0" y="0" width="500" height="500"></rect>
        <path d="M23,172.985936 L57.5008972,25.8922908 L106.256656,25.8922908 L137.65867,172.985936 L100.05889,172.985936 L94.2743086,143.23666 L60.1865958,143.23666 L53.7822376,172.985936 L23,172.985936 Z M77.9535249,57.294305 L65.3514008,117.206043 L89.1095037,117.206043 L78.3667093,57.294305 L77.9535249,57.294305 Z M210.915886,75.5525 C210.915886,65.6153 208.645758,50.279525 195.37045,50.279525 C179.825014,50.279525 177.604237,72.39935 177.604237,99.6311 C177.604237,129.777125 179.035404,148.600475 196.20941,148.600475 C209.731471,148.600475 211.014587,137.66 211.014587,118.55 L245.56,118.55 C245.56,150.798125 226.560023,175.88 194.630191,175.88 C149.967906,175.88 136.89,137.66 136.89,99.44 C136.89,64.0865 149.770504,23 194.53149,23 C229.71846,23 245.461299,45.1676 245.461299,75.5525 L210.915886,75.5525 Z M246.85629,172.985936 L281.357188,25.8922908 L330.112947,25.8922908 L361.514961,172.985936 L323.915181,172.985936 L318.130599,143.23666 L284.042886,143.23666 L277.638528,172.985936 L246.85629,172.985936 Z M301.809815,57.294305 L289.207691,117.206043 L312.965794,117.206043 L302.223,57.294305 L301.809815,57.294305 Z M369.158872,172.985936 L369.158872,25.8922908 L431.136532,25.8922908 C457.993518,25.8922908 474.314301,40.7669291 474.314301,61.0129646 C474.314301,79.1930781 461.918769,92.4149788 446.630947,95.720454 L446.630947,96.1336384 C465.844021,100.885259 477,113.074199 477,132.493865 C477,157.284929 457.993518,172.985936 428.864018,172.985936 L369.158872,172.985936 Z M406.345468,108.942355 L406.345468,145.715766 L419.980553,145.715766 C428.037649,145.715766 438.573851,142.203699 438.573851,127.122468 C438.573851,116.173082 431.962901,108.942355 419.980553,108.942355 L406.345468,108.942355 Z M406.345468,51.9229078 L406.345468,84.1512909 L418.534408,84.1512909 C431.962901,84.1512909 437.127706,76.9205639 437.127706,68.2436916 C437.127706,54.195422 427.831057,51.9229078 419.360777,51.9229078 L406.345468,51.9229078 Z" id="Text" fill="#000000" fill-rule="nonzero"></path>
    </g>
</svg>