<?xml version="1.0" encoding="UTF-8"?>
<!DOCTYPE svg PUBLIC "-//W3C//DTD SVG 1.1//EN" "http://www.w3.org/Graphics/SVG/1.1/DTD/svg11.dtd">
<svg version="1.1" xmlns="http://www.w3.org/2000/svg" xmlns:xlink="http://www.w3.org/1999/xlink" x="0" y="0" width="800" height="564.187" viewBox="0, 0, 800, 564.187">
  <g id="Ebene_1">
    <g>
      <path d="M72.464,287.945 Q79.149,287.945 86.121,289.791 Q93.01,291.554 97.686,294.548 L86.08,316.653 Q83.619,315.792 80.728,315.34 Q77.836,314.889 74.884,314.889 Q70.414,314.889 68.219,316.119 Q66.026,317.349 66.026,319.687 Q66.026,322.025 68.466,323.296 Q70.906,324.567 75.5,324.567 Q78.452,324.567 81.159,323.993 Q83.865,323.418 86.08,322.353 L97.686,346.057 Q92.847,348.968 85.793,350.772 Q78.903,352.536 72.424,352.536 Q62.048,352.536 54.134,348.434 Q46.218,344.335 41.912,336.87 Q37.607,329.447 37.607,320.672 Q37.607,311.157 42.24,303.57 Q46.875,295.983 54.83,291.964 Q62.868,287.945 72.464,287.945 z" fill="#000000"/>
      <path d="M160.144,288.93 L181.879,351.51 L154.197,351.51 L150.588,340.93 L130.248,340.93 L126.639,351.51 L98.916,351.51 L120.651,288.93 z M135.291,326.166 L145.544,326.166 L140.5,310.87 L140.336,310.87 z" fill="#000000"/>
      <path d="M239.13,288.93 L239.13,316.653 L225.186,316.653 L225.186,351.51 L197.463,351.51 L197.463,316.653 L183.519,316.653 L183.519,288.93 z" fill="#000000"/>
      <path d="M274.234,288.93 L274.234,311.853 L288.341,311.853 L288.341,288.93 L316.064,288.93 L316.064,351.51 L288.341,351.51 L288.341,328.259 L274.234,328.259 L274.234,351.51 L246.511,351.51 L246.511,288.93 z" fill="#000000"/>
      <path d="M351.701,318.498 Q351.701,321.451 353.464,323.255 Q355.269,325.06 357.893,325.06 Q360.518,325.06 362.322,323.255 Q364.127,321.368 364.127,318.498 Q364.127,317.063 363.656,315.853 Q363.184,314.643 362.364,313.781 Q361.544,312.92 360.375,312.428 Q359.206,311.936 357.852,311.936 Q355.228,311.936 353.464,313.781 Q351.701,315.586 351.701,318.498 z M357.893,287.945 Q366.751,287.945 374.175,292.292 Q381.597,296.64 385.781,304.021 Q390.004,311.363 390.004,320.179 Q390.004,328.955 385.781,336.419 Q381.597,343.883 374.175,348.23 Q366.71,352.536 357.893,352.536 Q349.077,352.536 341.654,348.23 Q334.313,343.964 330.048,336.46 Q325.824,328.996 325.824,320.179 Q325.824,311.567 329.966,304.103 Q334.107,296.721 341.572,292.333 Q349.035,287.945 357.893,287.945 z" fill="#000000"/>
      <path d="M427.529,288.93 L427.529,335.804 L451.807,335.804 L451.807,351.51 L399.806,351.51 L399.806,288.93 z" fill="#000000"/>
      <path d="M486.419,288.93 L486.419,351.51 L458.737,351.51 L458.737,288.93 z" fill="#000000"/>
      <path d="M531.858,287.945 Q538.543,287.945 545.514,289.791 Q552.404,291.554 557.079,294.548 L545.473,316.653 Q543.013,315.792 540.122,315.34 Q537.23,314.889 534.277,314.889 Q529.807,314.889 527.613,316.119 Q525.419,317.349 525.419,319.687 Q525.419,322.025 527.859,323.296 Q530.299,324.567 534.893,324.567 Q537.845,324.567 540.551,323.993 Q543.258,323.418 545.473,322.353 L557.079,346.057 Q552.24,348.968 545.186,350.772 Q538.296,352.536 531.817,352.536 Q521.441,352.536 513.526,348.434 Q505.612,344.335 501.305,336.87 Q496.999,329.447 496.999,320.672 Q496.999,311.157 501.634,303.57 Q506.267,295.983 514.223,291.964 Q522.261,287.945 531.858,287.945 z" fill="#000000"/>
      <path d="M34.859,393.771 Q41.543,393.771 48.515,395.615 Q55.405,397.379 60.079,400.374 L48.473,422.477 Q46.013,421.616 43.122,421.165 Q40.231,420.714 37.278,420.714 Q32.807,420.714 30.614,421.944 Q28.42,423.175 28.42,425.512 Q28.42,427.85 30.86,429.121 Q33.3,430.392 37.893,430.392 Q40.845,430.392 43.552,429.819 Q46.259,429.244 48.473,428.177 L60.079,451.881 Q55.24,454.794 48.187,456.598 Q41.297,458.362 34.818,458.362 Q24.442,458.362 16.527,454.26 Q8.613,450.159 4.306,442.696 Q0,435.272 0,426.496 Q0,416.982 4.635,409.395 Q9.268,401.809 17.224,397.79 Q25.262,393.771 34.859,393.771 z" fill="#000000"/>
      <path d="M90.878,424.323 Q90.878,427.275 92.641,429.08 Q94.446,430.884 97.07,430.884 Q99.695,430.884 101.499,429.08 Q103.304,427.194 103.304,424.323 Q103.304,422.887 102.833,421.677 Q102.36,420.468 101.54,419.607 Q100.72,418.746 99.551,418.254 Q98.382,417.762 97.029,417.762 Q94.405,417.762 92.641,419.607 Q90.878,421.412 90.878,424.323 z M97.07,393.771 Q105.928,393.771 113.352,398.118 Q120.774,402.465 124.958,409.846 Q129.181,417.187 129.181,426.004 Q129.181,434.781 124.958,442.245 Q120.774,449.708 113.352,454.055 Q105.887,458.362 97.07,458.362 Q88.253,458.362 80.831,454.055 Q73.49,449.79 69.225,442.286 Q65,434.821 65,426.004 Q65,417.393 69.143,409.928 Q73.285,402.547 80.749,398.159 Q88.212,393.771 97.07,393.771 z" fill="#000000"/>
      <path d="M165.803,394.754 L177.122,407.796 L188.481,394.754 L215.343,394.754 L215.343,457.336 L187.62,457.336 L187.62,426.004 L177.122,438.102 L166.623,426.004 L166.623,457.336 L138.9,457.336 L138.9,394.754 z" fill="#000000"/>
      <path d="M290.432,415.916 Q290.432,421.698 287.603,426.537 Q284.732,431.459 279.975,434.207 Q275.136,436.996 269.599,436.996 Q265.868,436.996 262.546,435.764 Q259.183,434.452 255.286,431.541 L255.286,457.336 L227.605,457.336 L227.605,394.754 L265.99,394.754 Q269.395,394.754 272.511,395.349 Q275.628,395.945 278.355,397.175 Q281.081,398.404 283.317,400.27 Q285.552,402.137 287.152,404.638 Q290.432,409.724 290.432,415.916 z M255.286,421.903 Q256.518,422.232 257.583,422.232 Q259.101,422.232 260.392,421.718 Q261.684,421.206 262.607,420.284 Q263.53,419.361 264.042,418.028 Q264.556,416.695 264.556,415.096 Q264.556,411.897 262.895,410.093 Q261.233,408.288 258.281,408.288 L255.286,408.288 z" fill="#000000"/>
      <path d="M358.713,394.754 L358.713,423.707 Q358.713,429.244 357.811,433.838 Q356.909,438.43 355.085,442.142 Q353.26,445.854 350.491,448.786 Q347.723,451.718 343.95,453.933 Q336.445,458.362 327.546,458.362 Q319.221,458.362 311.676,454.26 Q304.171,450.159 300.274,442.941 Q296.461,435.764 296.461,422.56 L296.461,394.754 L324.184,394.754 L324.184,424.241 Q324.184,428.014 324.88,429.49 Q325.619,430.884 327.464,430.884 Q328.572,430.884 329.248,430.392 Q329.925,429.9 330.315,428.834 Q330.704,427.767 330.847,426.086 Q330.992,424.405 330.992,422.026 L330.992,394.754 z" fill="#000000"/>
      <path d="M421.048,394.754 L421.048,422.477 L407.106,422.477 L407.106,457.336 L379.383,457.336 L379.383,422.477 L365.439,422.477 L365.439,394.754 z" fill="#000000"/>
      <path d="M480.678,394.754 L480.678,410.461 L456.399,410.461 L456.399,418.213 L473.295,418.213 L473.295,433.919 L456.399,433.919 L456.399,441.629 L480.678,441.629 L480.678,457.336 L428.717,457.336 L428.717,394.754 z" fill="#000000"/>
      <path d="M530.422,394.754 Q537.107,394.754 542.315,397.298 Q547.524,399.799 550.148,404.146 Q552.773,408.412 552.773,413.496 Q552.773,417.844 550.948,421.371 Q549.123,424.897 545.637,427.357 Q550.764,433.14 553.777,440.666 Q556.792,448.19 557.735,457.336 L528.987,457.336 Q528.126,444.951 525.338,439.579 Q522.549,434.165 516.971,434.165 L516.808,434.165 L516.808,457.336 L489.126,457.336 L489.126,394.754 z M516.808,419.688 L517.463,419.688 Q521.441,419.688 523.245,418.295 Q525.05,416.901 525.05,413.825 Q525.05,410.995 523.369,409.314 Q521.688,407.631 518.448,407.631 L516.808,407.631 z" fill="#000000"/>
      <path d="M327.054,499.596 Q333.738,499.596 340.711,501.442 Q347.6,503.205 352.276,506.198 L340.67,528.303 Q338.209,527.442 335.317,526.991 Q332.426,526.54 329.474,526.54 Q325.004,526.54 322.809,527.77 Q320.616,529 320.616,531.338 Q320.616,533.676 323.056,534.947 Q325.496,536.218 330.09,536.218 Q333.042,536.218 335.749,535.643 Q338.455,535.069 340.67,534.003 L352.276,557.707 Q347.437,560.619 340.382,562.423 Q333.493,564.186 327.013,564.186 Q316.638,564.186 308.722,560.085 Q300.808,555.985 296.502,548.52 Q292.196,541.098 292.196,532.322 Q292.196,522.808 296.83,515.221 Q301.464,507.634 309.42,503.615 Q317.458,499.596 327.054,499.596 z" fill="#000000"/>
      <path d="M387.174,500.58 L387.174,547.455 L411.453,547.455 L411.453,563.161 L359.453,563.161 L359.453,500.58 z" fill="#000000"/>
      <path d="M479.529,500.58 L479.529,529.533 Q479.529,535.069 478.627,539.662 Q477.724,544.256 475.9,547.967 Q474.076,551.678 471.306,554.611 Q468.539,557.543 464.765,559.757 Q457.26,564.186 448.361,564.186 Q440.037,564.186 432.491,560.085 Q424.986,555.985 421.09,548.767 Q417.276,541.59 417.276,528.384 L417.276,500.58 L444.999,500.58 L444.999,530.067 Q444.999,533.839 445.696,535.316 Q446.435,536.71 448.279,536.71 Q449.387,536.71 450.064,536.218 Q450.74,535.726 451.13,534.659 Q451.519,533.593 451.663,531.912 Q451.806,530.23 451.806,527.852 L451.806,500.58 z" fill="#000000"/>
      <path d="M530.299,500.58 Q541.659,500.58 547.893,505.174 Q554.209,509.766 554.209,518.051 Q554.209,522.766 552.096,526.026 Q549.984,529.286 546.047,531.501 Q550.886,534.045 553.389,537.428 Q555.89,540.811 555.89,545.855 Q555.89,553.934 550.19,558.527 Q544.448,563.161 534.892,563.161 L490.766,563.161 L490.766,500.58 z M518.489,525.35 L519.268,525.35 Q521.523,525.35 523.082,525.022 Q524.64,524.694 525.625,523.955 Q526.609,523.218 527.039,522.049 Q527.47,520.88 527.47,519.24 Q527.47,516.041 525.603,514.605 Q523.738,513.171 520.293,513.171 L518.489,513.171 z M518.489,549.381 L519.636,549.381 Q524.148,549.381 526.158,547.906 Q528.167,546.429 528.167,542.903 Q528.167,535.849 520.417,535.849 L518.489,535.849 z" fill="#000000"/>
    </g>
    <path d="M636.714,0 C642.844,0.299 640.324,0.011 644.301,0.572 C650.658,1.773 655.373,3.758 662.078,8.062 C672.581,14.804 680.296,22.822 685.751,32.665 C688.428,37.493 691.206,44.418 691.631,47.319 C691.798,48.465 692.101,49.505 692.303,49.63 C692.765,49.915 694.181,47.814 693.869,47.309 C693.742,47.105 693.819,46.16 694.039,45.211 C695.943,36.997 696.42,32.816 696.409,24.449 C696.399,17.922 696.212,15.059 695.611,12.27 C695.179,10.263 694.891,8.556 694.971,8.478 C695.051,8.398 705.602,8.193 718.418,8.021 C738.782,7.749 741.721,7.79 741.721,8.354 C741.721,10.65 740.756,23.524 740.366,26.418 C739.07,36.056 737.754,41.679 734.629,50.924 C728.308,69.627 715.245,90.335 702.893,101.237 C696.217,107.13 685.302,112.836 685.302,124.119 L685.302,157.47 L800,157.47 L800,247.74 L685.302,247.74 L685.302,564.186 L595.033,564.186 L595.032,247.74 L478.518,247.74 L478.518,157.47 L595.032,157.47 L595.032,124.119 L595.031,124.119 C595.033,112.836 588.745,101.988 582.873,96.514 C570.956,85.409 563.334,73.331 557.179,55.798 C555.186,50.119 552.678,40.605 552.678,38.724 C552.678,38.166 552.49,37.137 552.26,36.439 C551.367,33.73 549.398,9.934 550.014,9.316 C550.115,9.215 555.543,9.133 562.074,9.133 L573.95,9.133 L573.527,12.524 C573.008,16.682 573.682,24.208 575.219,31.451 C576.608,37.991 580.676,50.705 581.38,50.705 C581.914,50.705 582.303,48.873 582.404,45.891 C582.433,45.049 583.032,42.194 583.736,39.546 C588.87,20.231 603.388,6.116 623.132,1.241 C627.575,0.147 632.173,0.144 636.714,0 z M643.094,106.823 C640.707,107.352 641.605,106.902 640.235,107.779 C639.567,108.383 639.461,109.345 639.442,115.011 C639.421,121.349 639.448,121.554 640.356,121.731 C642.009,122.055 647.84,122.031 648.341,121.699 C649.339,121.039 650.262,118.508 650.247,116.477 C650.227,113.677 649.188,109.456 648.27,108.443 C646.85,107.01 644.964,106.978 643.094,106.825 L643.094,106.823 z M656.163,108.909 C653.985,109.201 654.791,108.821 653.576,109.593 C653.048,110.12 652.888,111.237 652.888,114.379 C652.888,119.016 653.314,120.569 654.741,121.142 C656.527,121.859 658.95,121.661 659.89,120.721 C660.635,119.976 660.765,119.262 660.765,115.935 C660.765,113.785 660.582,111.544 660.359,110.957 C659.496,109.373 657.738,109.226 656.163,108.909 z M633.687,106.797 C632.626,106.97 631.686,107.51 630.742,107.989 C629.188,108.794 627.691,109.872 627.414,110.383 C626.87,111.388 625.817,116.697 625.781,118.627 C625.752,120.092 626.665,120.629 630.024,121.121 C634.024,121.706 635.228,121.655 635.878,120.872 C636.534,120.083 636.787,113.451 636.309,109.571 C636.077,107.681 635.877,107.335 634.804,106.958 C634.19,106.777 634.557,106.856 633.687,106.797 z M617.766,109.539 L617.764,109.539 C615.775,110.317 616.468,109.762 615.448,110.853 C614.595,112.153 614.16,117.094 614.761,118.636 C615.335,120.106 617.512,121.137 619.806,121.024 C621.107,120.96 621.728,120.651 622.418,119.722 C623.074,118.841 623.372,117.657 623.497,115.429 C623.652,112.702 623.559,112.233 622.68,111.298 C621.03,109.66 619.924,109.673 617.766,109.539 z M670.358,109.343 L670.357,109.343 C669.125,109.343 665.853,110.534 664.817,111.361 C663.69,112.259 663.609,112.545 663.609,115.63 C663.609,118.111 663.789,119.117 664.327,119.656 C665.162,120.492 667.599,121.166 668.86,120.91 C669.341,120.812 670.062,120.73 670.459,120.727 C672.103,120.714 672.7,115.071 671.446,111.391 C671.062,110.264 670.572,109.343 670.358,109.343 z M606.778,109.839 C604.291,109.913 603.764,110.459 603.719,112.856 C603.789,115.525 605.135,117.738 607.379,118.873 C610.167,120.286 610.988,120.05 611.609,117.658 C612.31,114.964 612.311,111.862 611.612,110.905 C611.182,110.317 610.248,110.057 607.989,109.895 L606.778,109.839 z M641.247,48.7 L640.916,48.936 C640.367,49.485 639.706,59.301 639.854,64.708 C639.957,68.516 639.869,69.303 639.336,69.303 C638.181,69.303 637.587,67.225 637.524,62.958 C637.436,56.852 636.992,52.768 636.397,52.572 C635.619,52.316 634.953,55.301 634.949,59.057 C634.948,61.037 634.419,64.922 633.637,68.684 C631.368,79.62 631.937,85.261 636.383,95.908 C637.689,99.035 638.606,98.584 638.886,94.68 C639.078,91.986 639.208,91.621 639.98,91.621 C640.589,91.621 640.891,91.953 640.977,92.715 C641.191,94.632 641.518,95.778 641.848,95.771 C642.758,95.751 643.419,94.796 643.703,93.087 C643.877,92.039 644.657,89.023 645.437,86.382 C646.536,82.653 646.807,81.04 646.647,79.161 C646.3,75.091 645.036,66.483 644.088,61.739 C643.594,59.263 643.022,55.443 642.815,53.248 C642.593,51.997 642.672,49.895 641.828,48.885 C641.698,48.73 641.441,48.761 641.247,48.7 z M583.266,56.831 C582.16,56.832 582.199,57.158 583.857,61.811 L585.279,65.802 L585.189,74.335 C585.073,85.368 585.686,88.848 588.564,93.526 C590.075,95.983 591.187,96.46 591.187,94.652 C591.187,94.034 590.676,92.655 590.052,91.589 C589.427,90.523 589.057,89.652 589.23,89.652 C589.403,89.652 589.333,89.398 589.077,89.088 C588.17,87.996 587.616,80.825 587.904,73.897 C588.17,67.507 588.124,66.912 587.114,63.614 C585.797,59.313 584.389,56.832 583.267,56.832 L583.266,56.831 z M690.015,53.782 C689.295,53.789 688.824,54.164 688.4,54.699 C686.755,57.334 685.975,65.575 686.955,69.959 C687.814,73.799 688.438,80.722 688.198,83.744 C687.814,88.558 686.845,91.151 684.819,92.778 C682.758,94.435 682.583,95.34 684.323,95.34 C685.208,95.34 685.993,94.861 687.059,93.671 C689.185,91.297 691.166,85.018 690.909,81.466 C690.843,80.54 690.928,79.553 691.099,79.276 C691.271,78.998 691.224,78.656 690.994,78.514 C690.766,78.372 690.564,77.916 690.548,77.499 C690.464,75.326 690.073,71.332 689.833,70.178 C688.741,64.956 688.946,57.611 690.21,56.613 C690.719,56.21 690.777,55.86 690.588,54.315 C690.429,53.867 690.577,54.084 690.015,53.782 z M624.064,38.898 C621.478,38.911 614.765,40.389 612.445,41.456 C611.463,41.908 609.085,42.818 607.16,43.478 C605.233,44.138 602.244,45.348 600.515,46.166 C597.592,47.55 597.286,47.83 596.139,50.164 C594.966,52.553 594.911,52.932 595.014,58.043 C595.145,64.609 595.574,65.768 598.821,68.316 C601.178,70.165 604.843,71.611 609.129,72.38 C609.97,72.531 612.191,73.53 614.061,74.6 C619.518,77.723 623.453,78.284 626.39,76.36 C626.997,75.961 627.786,75.193 628.14,74.651 C628.994,73.348 630.012,69.253 630.556,64.927 C630.798,63.002 631.283,59.162 631.633,56.394 C632.38,50.497 632.127,48.898 629.77,44.578 C627.004,39.507 626.383,38.888 624.064,38.9 L624.064,38.898 z M663.419,37.62 C657.293,37.703 652.577,39.661 648.951,44.681 C647.994,46.115 647.002,48.061 646.747,49.009 C646.073,51.512 646.659,55.619 648.299,59.895 C649.084,61.94 650.458,65.583 651.352,67.99 C653.22,73.018 654.092,74.659 655.053,74.944 C656.074,75.248 658.937,74.846 661.64,74.02 C662.964,73.615 664.933,72.658 666.016,71.893 C668.288,70.288 671.413,68.651 672.235,68.636 C673.534,68.613 677.881,66.477 679.752,64.943 C682.153,62.975 682.97,60.741 683.36,55.081 C683.617,51.362 683.617,51.361 681.79,47.86 C678.478,41.515 674.928,38.923 668.249,37.978 C665.528,37.652 667.136,37.804 663.419,37.621 L663.419,37.62 z" fill="#000000"/>
  </g>
</svg>
