<svg xmlns="http://www.w3.org/2000/svg" width="800" height="564.19"><path d="M72.46 287.94q6.69 0 13.66 1.85 6.89 1.76 11.57 4.76l-11.61 22.1q-2.46-.86-5.35-1.31-2.9-.45-5.85-.45-4.47 0-6.66 1.23-2.2 1.23-2.2 3.57 0 2.33 2.45 3.6 2.44 1.28 7.03 1.28 2.95 0 5.66-.58 2.7-.57 4.92-1.64l11.6 23.7q-4.83 2.92-11.89 4.72-6.89 1.77-13.37 1.77-10.37 0-18.29-4.1-7.91-4.1-12.22-11.57-4.3-7.42-4.3-16.2 0-9.51 4.63-17.1 4.63-7.59 12.59-11.6 8.04-4.03 17.63-4.03zM160.14 288.93l21.74 62.58H154.2l-3.61-10.58h-20.34l-3.61 10.58H98.92l21.73-62.58zm-24.85 37.24h10.25l-5.04-15.3h-.16zM239.13 288.93v27.72h-13.94v34.86h-27.73v-34.86h-13.94v-27.72zM274.23 288.93v22.92h14.11v-22.92h27.72v62.58h-27.72v-23.25h-14.1v23.25H246.5v-62.58zM351.7 318.5q0 2.95 1.76 4.75 1.8 1.81 4.43 1.81t4.43-1.8q1.8-1.9 1.8-4.76 0-1.44-.46-2.65-.48-1.2-1.3-2.07-.82-.86-1.99-1.35-1.16-.5-2.52-.5-2.62 0-4.39 1.85-1.76 1.8-1.76 4.72zm6.2-30.56q8.85 0 16.28 4.35 7.42 4.35 11.6 11.73 4.22 7.34 4.22 16.16 0 8.77-4.22 16.24-4.18 7.46-11.6 11.81-7.47 4.3-16.29 4.3-8.81 0-16.24-4.3-7.34-4.27-11.6-11.77-4.23-7.46-4.23-16.28 0-8.61 4.15-16.08 4.14-7.38 11.6-11.77 7.47-4.38 16.32-4.38zM427.53 288.93v46.87h24.28v15.71h-52v-62.58zM486.42 288.93v62.58h-27.68v-62.58zM531.86 287.94q6.68 0 13.65 1.85 6.9 1.76 11.57 4.76l-11.6 22.1q-2.47-.86-5.36-1.31-2.89-.45-5.84-.45-4.47 0-6.67 1.23t-2.2 3.57q0 2.33 2.45 3.6 2.44 1.28 7.03 1.28 2.96 0 5.66-.58 2.7-.57 4.92-1.64l11.6 23.7q-4.83 2.92-11.88 4.72-6.9 1.77-13.37 1.77-10.38 0-18.3-4.1-7.9-4.1-12.21-11.57-4.31-7.42-4.31-16.2 0-9.51 4.63-17.1 4.64-7.59 12.6-11.6 8.03-4.03 17.63-4.03zM34.86 393.77q6.68 0 13.66 1.85 6.88 1.76 11.56 4.75l-11.6 22.1q-2.47-.85-5.36-1.3-2.89-.46-5.84-.46-4.47 0-6.67 1.23-2.19 1.24-2.19 3.57 0 2.34 2.44 3.61t7.03 1.27q2.95 0 5.66-.57 2.7-.58 4.92-1.64l11.6 23.7q-4.83 2.91-11.88 4.72-6.9 1.76-13.37 1.76-10.38 0-18.3-4.1-7.9-4.1-12.21-11.56Q0 435.27 0 426.5q0-9.52 4.63-17.1 4.64-7.6 12.6-11.61 8.03-4.02 17.63-4.02zM90.88 424.32q0 2.95 1.76 4.76 1.8 1.8 4.43 1.8t4.43-1.8q1.8-1.89 1.8-4.76 0-1.43-.47-2.64-.47-1.21-1.29-2.07-.82-.86-1.99-1.36-1.17-.49-2.52-.49-2.63 0-4.39 1.85-1.76 1.8-1.76 4.71zm6.19-30.55q8.86 0 16.28 4.35 7.42 4.34 11.6 11.73 4.23 7.34 4.23 16.15 0 8.78-4.22 16.25-4.19 7.46-11.6 11.8-7.47 4.31-16.29 4.31t-16.24-4.3q-7.34-4.27-11.6-11.77Q65 434.82 65 426q0-8.6 4.14-16.07 4.14-7.38 11.6-11.77 7.47-4.39 16.33-4.39zM165.8 394.75l11.32 13.05 11.36-13.05h26.86v62.59h-27.72V426l-10.5 12.1-10.5-12.1v31.34H138.9v-62.59zM290.43 415.92q0 5.78-2.83 10.62-2.87 4.92-7.63 7.67-4.83 2.79-10.37 2.79-3.73 0-7.05-1.24-3.37-1.3-7.26-4.22v25.8H227.6v-62.59H266q3.4 0 6.52.6 3.12.6 5.85 1.82 2.72 1.23 4.96 3.1 2.23 1.87 3.83 4.37 3.28 5.08 3.28 11.28zm-35.14 5.98q1.23.33 2.3.33 1.51 0 2.8-.51 1.3-.51 2.22-1.44.92-.92 1.43-2.25.52-1.33.52-2.93 0-3.2-1.67-5-1.66-1.81-4.6-1.81h-3zM358.71 394.75v28.96q0 5.53-.9 10.13-.9 4.59-2.73 8.3-1.82 3.71-4.59 6.65-2.77 2.93-6.54 5.14-7.5 4.43-16.4 4.43-8.33 0-15.87-4.1-7.5-4.1-11.4-11.32-3.82-7.18-3.82-20.38v-27.8h27.72v29.48q0 3.77.7 5.25.74 1.4 2.58 1.4 1.11 0 1.79-.5.68-.49 1.06-1.56.4-1.06.54-2.74.14-1.69.14-4.06v-27.28zM421.05 394.75v27.73H407.1v34.86h-27.73v-34.86h-13.94v-27.73zM480.68 394.75v15.71H456.4v7.75h16.9v15.7h-16.9v7.72h24.28v15.7h-51.96v-62.58zM530.42 394.75q6.69 0 11.9 2.55 5.2 2.5 7.83 6.85 2.62 4.26 2.62 9.35 0 4.34-1.82 7.87-1.83 3.53-5.31 5.99 5.12 5.78 8.14 13.3 3.01 7.53 3.96 16.68h-28.75q-.86-12.39-3.65-17.76-2.8-5.41-8.37-5.41h-.16v23.17h-27.68v-62.59zm-13.61 24.94h.65q3.98 0 5.78-1.4 1.81-1.39 1.81-4.47 0-2.82-1.68-4.5-1.68-1.69-4.92-1.69h-1.64zM327.05 499.6q6.69 0 13.66 1.84 6.89 1.76 11.57 4.76l-11.61 22.1q-2.46-.86-5.35-1.3-2.9-.46-5.85-.46-4.47 0-6.66 1.23-2.2 1.23-2.2 3.57t2.45 3.6q2.44 1.28 7.03 1.28 2.95 0 5.66-.58 2.7-.57 4.92-1.64l11.6 23.7q-4.83 2.92-11.89 4.72-6.89 1.77-13.37 1.77-10.37 0-18.29-4.1-7.91-4.1-12.22-11.57-4.3-7.42-4.3-16.2 0-9.51 4.63-17.1 4.63-7.59 12.59-11.6 8.04-4.02 17.63-4.02zM387.17 500.58v46.88h24.28v15.7h-52v-62.58zM479.53 500.58v28.95q0 5.54-.9 10.13-.9 4.6-2.73 8.3-1.82 3.72-4.6 6.65-2.76 2.93-6.54 5.15-7.5 4.43-16.4 4.43-8.32 0-15.87-4.1-7.5-4.1-11.4-11.32-3.81-7.18-3.81-20.39v-27.8H445v29.49q0 3.77.7 5.25.74 1.39 2.58 1.39 1.1 0 1.78-.5.68-.48 1.07-1.55t.53-2.75q.15-1.68.15-4.06v-27.27zM530.3 500.58q11.36 0 17.6 4.6 6.3 4.59 6.3 12.87 0 4.72-2.1 7.98-2.12 3.26-6.05 5.47 4.84 2.54 7.34 5.93 2.5 3.38 2.5 8.43 0 8.07-5.7 12.67-5.74 4.63-15.3 4.63h-44.12v-62.58zm-11.81 24.77h.78q2.25 0 3.81-.33t2.54-1.06q.99-.74 1.42-1.91.43-1.17.43-2.81 0-3.2-1.87-4.63-1.86-1.44-5.3-1.44h-1.81zm0 24.03h1.15q4.5 0 6.52-1.47 2-1.48 2-5 0-7.06-7.74-7.06h-1.93z"/><path d="M636.71 0c6.13.3 3.61.01 7.6.57 6.35 1.2 11.06 3.19 17.77 7.5 10.5 6.73 18.22 14.75 23.67 24.6 2.68 4.82 5.46 11.75 5.88 14.65.17 1.15.47 2.19.67 2.31.47.28 1.88-1.82 1.57-2.32-.13-.2-.05-1.15.17-2.1 1.9-8.21 2.38-12.4 2.37-20.76-.01-6.53-.2-9.4-.8-12.18-.43-2-.72-3.71-.64-3.8.08-.07 10.63-.28 23.45-.45 20.36-.27 23.3-.23 23.3.33 0 2.3-.96 15.17-1.35 18.07a113.24 113.24 0 0 1-5.74 24.5c-6.32 18.7-19.38 39.41-31.74 50.32-6.67 5.89-17.59 11.6-17.59 22.88v33.35H800v90.27H685.3v316.45h-90.27V247.74H478.52v-90.27h116.51v-33.35c0-11.28-6.28-22.13-12.16-27.6-11.91-11.11-19.54-23.19-25.7-40.72-1.98-5.68-4.5-15.2-4.5-17.08 0-.55-.18-1.58-.41-2.28-.9-2.71-2.86-26.5-2.25-27.12.1-.1 5.53-.19 12.06-.19h11.88l-.42 3.4c-.52 4.15.15 11.68 1.69 18.92 1.39 6.54 5.46 19.25 6.16 19.25.53 0 .92-1.83 1.02-4.8.03-.85.63-3.7 1.34-6.35 5.13-19.32 19.65-33.43 39.4-38.3C627.57.14 632.16.14 636.7 0zm6.38 106.82c-2.38.53-1.49.08-2.86.96-.66.6-.77 1.56-.79 7.23-.02 6.34 0 6.54.92 6.72 1.65.33 7.48.3 7.98-.03 1-.66 1.92-3.2 1.9-5.22-.01-2.8-1.05-7.02-1.97-8.04-1.42-1.43-3.3-1.46-5.18-1.61zm13.07 2.09c-2.17.3-1.37-.09-2.58.68-.53.53-.7 1.65-.7 4.79 0 4.64.43 6.19 1.86 6.76 1.79.72 4.21.52 5.15-.42.75-.74.88-1.46.88-4.78 0-2.16-.19-4.4-.41-4.98-.86-1.59-2.62-1.73-4.2-2.05zm-22.47-2.11c-1.06.17-2 .71-2.95 1.19-1.55.8-3.05 1.88-3.33 2.4-.54 1-1.6 6.3-1.63 8.24-.03 1.46.88 2 4.24 2.5 4 .58 5.2.53 5.86-.26.65-.79.9-7.42.43-11.3-.23-1.89-.43-2.23-1.5-2.61-.62-.18-.25-.1-1.12-.16zm-15.92 2.74c-2 .78-1.3.22-2.32 1.31-.86 1.3-1.29 6.24-.69 7.79.58 1.47 2.75 2.5 5.05 2.38 1.3-.06 1.92-.37 2.6-1.3.66-.88.96-2.06 1.09-4.3.15-2.72.06-3.19-.82-4.12-1.65-1.64-2.76-1.63-4.91-1.76zm52.59-.2c-1.24 0-4.5 1.2-5.54 2.02-1.13.9-1.21 1.19-1.21 4.27 0 2.48.18 3.49.72 4.03.83.83 3.27 1.5 4.53 1.25.48-.1 1.2-.18 1.6-.18 1.64-.02 2.24-5.66.99-9.34-.39-1.13-.88-2.05-1.1-2.05zm-63.58.5c-2.49.07-3.02.62-3.06 3.02a6.72 6.72 0 0 0 3.66 6.01c2.79 1.42 3.6 1.18 4.23-1.21.7-2.7.7-5.8 0-6.75-.43-.6-1.36-.85-3.62-1.02l-1.21-.05zm34.47-61.14-.33.24c-.55.55-1.21 10.36-1.07 15.77.1 3.8.02 4.6-.51 4.6-1.16 0-1.75-2.09-1.82-6.35-.08-6.1-.53-10.2-1.12-10.39-.78-.25-1.45 2.73-1.45 6.49 0 1.98-.53 5.86-1.31 9.62-2.27 10.94-1.7 16.58 2.74 27.23 1.3 3.13 2.23 2.67 2.5-1.23.2-2.7.33-3.06 1.1-3.06.6 0 .91.33 1 1.1.21 1.91.54 3.06.87 3.05.9-.02 1.57-.97 1.85-2.68.18-1.05.96-4.07 1.74-6.7 1.1-3.74 1.37-5.35 1.2-7.23a207.98 207.98 0 0 0-2.55-17.42c-.5-2.48-1.07-6.3-1.27-8.5-.23-1.24-.15-3.34-1-4.36-.12-.15-.38-.12-.57-.18zm-57.98 8.13c-1.11 0-1.07.33.59 4.98l1.42 4-.1 8.52c-.1 11.04.5 14.52 3.38 19.2 1.52 2.45 2.63 2.93 2.63 1.12 0-.62-.51-2-1.14-3.06-.62-1.07-1-1.94-.82-1.94.17 0 .1-.25-.15-.56-.91-1.1-1.46-8.27-1.18-15.2.27-6.38.22-6.98-.79-10.28-1.31-4.3-2.72-6.78-3.84-6.78zm106.75-3.05c-.73 0-1.2.38-1.62.92-1.64 2.63-2.42 10.88-1.44 15.26.85 3.84 1.48 10.76 1.24 13.78-.39 4.82-1.36 7.41-3.38 9.04-2.06 1.66-2.24 2.56-.5 2.56.89 0 1.67-.48 2.74-1.67 2.13-2.37 4.1-8.65 3.85-12.2-.07-.93.02-1.92.19-2.2.17-.27.12-.61-.1-.76-.23-.14-.44-.6-.45-1.01a70.23 70.23 0 0 0-.72-7.32c-1.09-5.22-.88-12.57.38-13.57.5-.4.57-.75.38-2.3-.16-.44-.01-.23-.58-.53zM624.05 38.9c-2.58.01-9.3 1.49-11.61 2.56-.99.45-3.37 1.36-5.29 2.02a77.63 77.63 0 0 0-6.64 2.69c-2.93 1.38-3.23 1.66-4.38 4-1.17 2.38-1.23 2.76-1.13 7.87.13 6.57.56 7.73 3.81 10.28 2.36 1.85 6.02 3.3 10.3 4.06.85.15 3.07 1.15 4.94 2.22 5.46 3.12 9.4 3.68 12.33 1.76a7.2 7.2 0 0 0 1.75-1.7c.85-1.31 1.87-5.4 2.42-9.73l1.07-8.54c.75-5.9.5-7.5-1.86-11.81-2.77-5.07-3.39-5.7-5.7-5.68zm39.36-1.28c-6.13.08-10.84 2.04-14.47 7.06a19.23 19.23 0 0 0-2.2 4.33c-.68 2.5-.1 6.6 1.55 10.89.78 2.04 2.16 5.68 3.05 8.09 1.87 5.03 2.74 6.67 3.7 6.95 1.02.3 3.89-.1 6.59-.92 1.32-.4 3.3-1.36 4.38-2.13 2.27-1.6 5.4-3.24 6.22-3.25 1.3-.03 5.64-2.16 7.51-3.7 2.4-1.96 3.22-4.2 3.61-9.86.26-3.72.26-3.72-1.57-7.22-3.31-6.34-6.86-8.94-13.54-9.88-2.72-.33-1.11-.18-4.83-.36z"/></svg>