<svg xmlns="http://www.w3.org/2000/svg" width="605.02" height="432.14"><path d="M4.87 287.46A54.15 54.15 0 0 0 .74 297.8a16.5 16.5 0 0 0-.68 4.77c-.01 1.44 0 1.56.25 2.22.3.84.99 1.8 1.65 2.33a8.71 8.71 0 0 0 2.2 1.13c.2.05.18.01-.14-.29-.74-.66-.92-1.27-.77-2.58.18-1.6.71-3.32 1.8-5.72l.54-1.2.32.69a31.1 31.1 0 0 1 1.83 5.02c.49 2 .38 2.89-.41 3.68l-.45.45.38-.11a6.21 6.21 0 0 0 2.84-1.93 4.83 4.83 0 0 0 1.1-3.47c0-2.38-.93-5.94-2.72-10.38-.99-2.42-2.75-6.25-2.88-6.25-.01 0-.35.59-.73 1.31zM26.87 288.39c-2.73 5.5-4.2 10.13-4.42 13.92a5.68 5.68 0 0 0 .52 3 6.6 6.6 0 0 0 2.08 2.25c.49.3 1.72.8 1.72.7 0-.03-.18-.21-.4-.42a2.1 2.1 0 0 1-.56-.8c-.3-.88-.12-2.42.5-4.37.5-1.52 1.61-4.1 1.76-4.1.04 0 .13.16.21.34.07.2.33.81.57 1.38.99 2.32 1.63 4.6 1.63 5.76 0 .82-.15 1.2-.67 1.76l-.46.5.55-.2a5.79 5.79 0 0 0 3.57-3.56c.39-1.22.24-3.35-.4-5.88a62.87 62.87 0 0 0-2.96-8.26 53.5 53.5 0 0 0-2.05-4.27c-.04 0-.57 1.02-1.19 2.25zM50.09 286.9c-2.41 4.46-4.24 9.32-4.94 13.15-.2 1.08-.28 3.43-.14 4.1a5.7 5.7 0 0 0 3.86 4.03l.38.1-.44-.44c-.76-.76-.88-1.58-.5-3.52.29-1.36 1.15-3.7 1.95-5.31l.28-.54.66 1.56c1.17 2.74 1.71 4.67 1.72 6.05.01.86-.16 1.3-.73 1.83l-.42.39.35-.1c.6-.16 1.74-.8 2.28-1.28a5.2 5.2 0 0 0 1.74-4.01c0-3.34-1.74-8.76-5-15.59-.31-.65-.58-1.18-.6-1.18-.03 0-.23.35-.45.76z"/><path d="M125.65 95.91c1.92-.07 3.76.57 5.57 1.1 13.63 4.18 25.65 13.18 36.57 27.4 10.38 13.49 16.87 31 17.64 47.61.38 8.24-.7 13.03-3.84 17.12-2.41 3.15-4.53 3.26-6.73.36-2.4-3.17-3.51-7.35-4.3-16.1-2.45-27.13-13.52-47.67-33.75-62.58-3.17-2.34-3.33-2.39-2.08-.7 13.64 18.51 23.6 38.68 26.64 53.96.91 4.59 1.1 8 .83 14.9-.36 9.48-1.64 15.14-4.9 21.7-1.8 3.62-2.73 4.08-7.7 3.81l-2.9-.15-.33 49.85c-.2 27.41-.35 56.26-.35 64.1-.03 1.68.02 1.1-.04 1.77l-.02 4.72c-.03 11.19-.04 11.41-.53 15.3a72.58 72.58 0 0 1-20.88 42.55 72.9 72.9 0 0 1-45.18 21.15l-.72.06v11.73l1.23.06c2.57.13 6.38.51 9.27.94 10.2 1.5 18.17 4.35 21.51 7.68 1.05 1.05 1.52 1.91 1.6 2.92.03.6.02.64-.27.98-1.49 1.7-9.71 3.04-22.5 3.67-5.77.28-7.83.32-16.5.32-8.66 0-10.72-.04-16.48-.32-12.6-.62-20.83-1.94-22.5-3.6-.35-.37-.42-.66-.3-1.3.37-1.75 2.03-3.46 4.9-5.06 5.58-3.07 14.94-5.3 25.82-6.13a56.7 56.7 0 0 1 2.39-.14h.53v-11.75l-.72-.06a73.16 73.16 0 0 1-42.04-18.13c-1.43-1.25-5.1-4.92-6.35-6.36A72.63 72.63 0 0 1 .7 341.36C.07 337 0 335.18 0 324v-9.76h11.3v9.84c0 9.99.03 11.07.37 14.18a61.58 61.58 0 0 0 53.66 54.06c.82.1 1.6.18 2.02.18v-5.56l-.2-5.6c-.13-.03-.72-.11-1.33-.2a52.17 52.17 0 0 1-11.44-3.06 53.66 53.66 0 0 1-9.04-4.72 50.63 50.63 0 0 1-22.59-36.63c-.28-2.46-.33-4.48-.33-13.48v-9h11.3v9.19c0 5.58.04 9.7.1 10.5a40.46 40.46 0 0 0 2.45 11.18c.67 1.74 2.33 5.1 3.27 6.6a39.15 39.15 0 0 0 23.59 17.3c1.24.33 3.83.86 4.13.86.05 0 .08-2.19.08-5.6v-5.58l-.9-.22a28.36 28.36 0 0 1-21.43-24.67c-.05-.57-.08-4.61-.08-10.26v-9.3h11.2l.03 9.28c.04 9.99.04 9.87.54 11.8a16.78 16.78 0 0 0 9.73 11.36l.87.35.03-16.4.01-16.4v-.01c0-27.06-.23-62.74.19-67.13 1.95-20.57 6.56-37.04 14.4-51.38 3.8-6.95 4.43-7.73 10.34-12.68 11.12-9.33 25.99-18.36 38.72-23.53l5.8-2.35-4.16.22c-9.28.49-31.89 12.65-58.92 31.7-5.04 3.54-9.4 6.45-9.69 6.45-.98 0-2.65-2.7-2.65-4.27 0-2.78 5.42-9.94 10-13.2 23.32-16.6 42.31-26.97 58.25-31.8 3.57-1.09 7.25-2.62 8.18-3.4l1.69-1.44-2.06-1.84-2.07-1.84-6.11 1.58c-13.65 3.5-22.09 7.34-48.71 22.1C60.22 172.7 60 172.78 60 167.85c0-2.13.63-3.43 3.4-7.06 1.88-2.46 3.8-4.9 4.27-5.43 1.39-1.55 24.57-13.73 34.18-17.95a148.9 148.9 0 0 1 16.77-6.06c11.56-3.18 11.57-3.19 8.16-6.65-2.18-2.21-2.3-2.25-6-1.9-8.65.83-24.17 5.25-36.82 10.5-3.53 1.47-6.82 2.66-7.33 2.66-.5 0-1.9-.79-3.12-1.76-2.13-1.7-2.18-1.82-1.2-3.5 1.63-2.82 7.58-7.67 11.95-9.73 2.24-1.06 9.98-3.5 17.2-5.4 7.23-1.92 13.15-3.7 13.15-3.98 0-.26-1.28-1.39-2.84-2.5-7.19-5.1-8.2-6.94-5.14-9.5 1.97-1.64 4.55-1.67 9.68-.1 5.3 1.62 6.77 1.56 7.74-.33.44-.85.8-1.95.8-2.43.14-.66-.04-.33.8-.8zm8.98 91.84c-2.78 2.88-4.34 7.03-5.64 10.77-2.53 8.37-2.8 12.21-3.44 48.98-.22 13.37-.89 35.62-1.98 66.73v8.56c0 8.17-.06 11.23-.27 13.29a50.36 50.36 0 0 1-14.55 30.64 50.6 50.6 0 0 1-28.9 14.47c-.43.06-.88.12-1.2.19v11.15l.72-.06a61.87 61.87 0 0 0 30.68-11.99 61.53 61.53 0 0 0 24.03-40.55c.54-3.81.54-3.92.58-15.24l.04-10.45h.1v-.01c.01-15.89-.55-39.03-.8-57.92-.28-21.99-.17-40.44.32-51.3.42-9.34.64-17.1.47-17.24l-.16-.02zm-14.35-.06c-.96.28-1.79.89-2.62 1.42-3.16 2.15-6.67 6.91-8.76 11.9-.56 1.3-5.32 67.85-5.6 73.88-1.37 29.06-2.28 35.75-2.23 39.16v.2l-.03 9.75c-.04 10.47-.03 10.27-.53 12.74a28.58 28.58 0 0 1-12.05 17.81 28.61 28.61 0 0 1-8.9 3.93l-.91.21v5.6l.35 5.54c8.54-1.44 15.59-4.96 21.5-10.75 6.6-6.47 10.45-14.43 11.56-23.88.13-1.16.16-2.67.18-11.16v-.14c-.69-7.64-.6-15.33-.47-23 .92-46.68 1.5-92.11 6.24-105.43 1.47-4.13 2.54-7.62 2.38-7.76l-.1-.02zm-15-1.2c-2.8.53-5.17 2.83-7.24 4.69-9.26 8.82-15.03 21.95-16.86 38.39-.74 6.58-2.88 65.64-2.42 90.27 0 1.73.03.86-.1 2.6v8.2l.03 16.4.94-.4a16.71 16.71 0 0 0 10-13.14c.1-.77.13-2.61.13-10.1v-9.16h.07v-.19c-.94-61 1.95-90.45 4.58-99.98 2.1-7.61 5.74-16.96 8.89-22.8 1.32-2.46 2.29-4.59 2.14-4.72l-.15-.07z"/><path d="M140.08 90.08c2.82.5 5.55 1.4 8.29 2.2a100.7 100.7 0 0 1 55.97 40.78c3.05 4.5 3.34 5.35 6.55 19.09 3.62 15.45 3.68 15.99 2.41 20.58a17.8 17.8 0 0 1-5.57 9.2l-2.47 2.34-1.3-1.42c-2-2.2-3.34-6.96-4.4-15.6-.52-4.34-1.4-9.13-1.95-10.63-6.03-16.53-13.45-26.84-28.94-40.2-7.58-6.55-26.33-20.01-29.24-21-.6-.21-.94-1.3-.94-3 .06-.68-.28-2.1.7-2.33.3-.07.6-.01.9-.01zM357.3 135.9c.5.04 1.02 0 1.5.13 2.43.63 2.47 4.96 2.7 6.8.31 2.38.57 4.76.85 7.14.91 7.4.91 13.23 0 17.52-4.2-.5-9.8-.58-11.91-4.42-1.64-2.97-1.9-4.36-2.43-12.94-.33-5.3-.61-10.64-.63-11.9l-.02-2.28h6.47c2.04-.02.89 0 3.46-.05z"/><path d="M423.31 103.83c2.41.1 1.3.02 3.33.22 2.38.24 5.02.68 5.87.96 2.42.81 1.9 3.34-1.6 7.98-9 11.88-23.55 18.13-44.94 19.29-15.93.86-27.94-.56-56.36-6.66-25.38-5.45-30.46-6.18-45.5-6.53l-13.06-.3-3.48 1.69c-1.92.92-3.46 1.85-3.44 2.04.08.62 9.98 8.05 16.73 12.57 14.73 9.84 29.26 15.43 42.78 16.45l5.23.4.74 3.17c1.5 6.4 1.45 6.55-2.39 7.46-5.12 1.2-17.92.63-23.55-1.05-7.63-2.29-18.32-7.41-30.73-14.75-13.77-8.13-24.65-13.44-31.57-15.4-5.66-1.59-5.8-1.78-6.4-9.37l-.42-5.26 5.38-1.89c12.82-4.48 21.84-6.13 36.44-6.66 16.69-.62 31.58.95 67.92 7.14 31.49 5.37 30.77 5.3 40.56 3.7 16.92-2.75 26.71-6.54 35.31-13.64a5.12 5.12 0 0 1 3.15-1.56zM165.65 82c10.45 1 20.73 4.3 30.36 8.4 19.39 8.62 32.58 23.07 37.4 41 1.35 4.98 1.66 12.63.65 15.64-.31.91-1.23 2.62-2.05 3.8-1.22 1.75-1.89 2.13-3.76 2.13h-2.28l-.45-4.1c-1.13-10.25-4.93-18.53-12.25-26.68-7.81-8.7-19.08-16.23-42.59-28.48-7.57-3.95-11.67-6.44-11.69-7.1-.02-1.22 3.57-4.01 5.82-4.52l.84-.09z"/><path d="M264.6 24.16c2.78-.01 3.57 2.99 4.4 5.15 3.77 9.99 3.93 23.15.45 36.34-1.07 4.06-1.22 5.54-.63 6.08.9.8 6.78.84 16.43.12 5.4-.4 7.76-.27 14.21.83 19.6 3.35 33.96 9.9 45.24 20.63 4.44 4.23 5.62 5.77 6.51 8.55.6 1.87 1.99 4.96 3.06 6.88l1.97 3.48-1.74.39c-2.25.5-6.73-.14-9.34-1.35-3.13-1.44-7.8-5.51-12.14-10.57-4.46-5.2-9.67-9.73-12.95-11.23-7.06-3.25-30.4-5.45-42.52-4.02-16.53 1.97-34.92 9.58-47.12 19.51-2.06 1.67-4.04 3.04-4.4 3.04-.38 0-3.71-2.92-7.42-6.48-4.75-4.57-6.44-6.57-5.72-6.78 2.85-.8 24.1-10.95 27.71-13.22 7.83-4.94 13.4-11.48 15.26-17.9.43-1.5 1.23-3.76 1.78-5.02 1.43-3.32 1.22-7.88-.72-15.53-2.9-11.44-2.08-15.08 4-17.7 1.18-.58 2.41-.93 3.68-1.2zM252.4 1.67c4.53 4.16 7.55 7.96 9.11 11.41.5 1.13.67 1.95.6 2.98-.08.82-.6 2.17-1.14 2.85a6.3 6.3 0 0 1-1.35 1.28c-.01-.03.1-.27.23-.54.15-.32.24-.67.23-.95-.03-.93-.76-2.3-2.04-3.9-1.02-1.24-2.97-3.25-3.1-3.2-.04.02-.07.2-.08.4l-.05 1.49c-.08 2.52.14 4.87.56 5.96.29.77.57 1.08 1.25 1.4l.6.3-.58.02a5.78 5.78 0 0 1-4.6-2.05c-.8-1-1.43-3.04-1.73-5.63a62.8 62.8 0 0 1-.2-8.77c.09-1.89.3-4.7.38-4.72.03-.01.89.74 1.9 1.67zM435.18 81.3c1.4 5.88 1.82 10.68 1.3 14.43-.18 1.22-.47 2-1.04 2.85a6.42 6.42 0 0 1-2.29 1.85c-.5.2-1.69.48-1.67.4 0-.03.2-.18.44-.34.28-.2.52-.45.65-.7.44-.81.57-2.36.38-4.38-.16-1.58-.65-4.3-.78-4.32-.04-.01-.15.13-.26.3l-.77 1.24c-1.33 2.12-2.33 4.24-2.55 5.38-.16.8-.1 1.21.26 1.84l.32.57-.46-.29a5.56 5.56 0 0 1-2.51-4.11c-.12-1.27.42-3.33 1.48-5.7.91-2.02 2.69-5.22 4.22-7.6 1.01-1.56 2.58-3.84 2.65-3.83.03 0 .3 1.1.63 2.4zM351.28 190.4c-1.8-5.76-2.56-10.52-2.3-14.3.1-1.23.32-2.03.84-2.91a6.42 6.42 0 0 1 2.15-2.01c.48-.24 1.65-.6 1.64-.5 0 .02-.2.18-.42.36-.26.21-.48.48-.6.74-.38.84-.4 2.39-.07 4.4.27 1.56.95 4.24 1.08 4.25.04 0 .14-.14.24-.31l.68-1.3c1.18-2.2 2.03-4.39 2.17-5.55.1-.8.01-1.2-.39-1.81l-.36-.55.48.26a5.55 5.55 0 0 1 2.8 3.93c.2 1.26-.2 3.35-1.1 5.79a66.86 66.86 0 0 1-3.67 7.87c-.9 1.63-2.3 4.01-2.37 4-.03 0-.39-1.06-.8-2.35zM199.79 271.44c-4.63 0-8.9-.68-12.82-2.05a27.4 27.4 0 0 1-10.1-6.1c-2.82-2.7-5-6.08-6.55-10.13-1.55-4.04-2.32-8.71-2.32-14 0-4.94.74-9.42 2.22-13.44a28.71 28.71 0 0 1 6.44-10.33c2.7-2.76 6.06-4.9 10.06-6.4 4-1.5 8.37-2.26 13.11-2.26a49.02 49.02 0 0 1 12.93 1.59 41.3 41.3 0 0 1 5.08 1.78c1.52.66 2.85 1.26 4 1.82v15.1h-1.85a80.83 80.83 0 0 0-2.95-2.38 38.95 38.95 0 0 0-4.03-2.72c-1.54-.9-3.2-1.65-4.98-2.26a19.4 19.4 0 0 0-12.17.15 15.66 15.66 0 0 0-5.65 3.53 17.36 17.36 0 0 0-4 6.32c-1.01 2.62-1.52 5.8-1.52 9.53 0 3.9.55 7.17 1.65 9.8a17.05 17.05 0 0 0 4.16 6.18c1.7 1.53 3.6 2.63 5.7 3.28a19.65 19.65 0 0 0 11.98.1 22.44 22.44 0 0 0 5.29-2.38c1.36-.8 2.63-1.67 3.8-2.59a64.35 64.35 0 0 0 2.89-2.38h1.67v14.89c-1.56.7-3.05 1.35-4.47 1.96a36.86 36.86 0 0 1-4.48 1.6 53.92 53.92 0 0 1-5.73 1.33c-1.78.3-4.24.46-7.36.46zm76.17-1.21h-15.14v-23.3c0-1.9-.1-3.78-.3-5.67-.2-1.88-.53-3.27-1-4.16a5 5 0 0 0-2.45-2.26 11.43 11.43 0 0 0-4.5-.7c-1.36 0-2.75.22-4.16.66-1.4.45-2.93 1.16-4.58 2.13v33.3h-15.05v-65.09h15.05v23.3c2.68-2.09 5.25-3.7 7.72-4.8a19.74 19.74 0 0 1 8.22-1.68c5.08 0 9.04 1.48 11.9 4.43 2.86 2.96 4.29 7.38 4.29 13.26v30.58zm38.27-12.26v-9.78c-2.04.16-4.24.4-6.6.69-2.38.29-4.18.63-5.4 1.02a7.43 7.43 0 0 0-3.46 2.07c-.79.9-1.19 2.1-1.19 3.58 0 .97.09 1.77.25 2.38.17.61.59 1.2 1.26 1.76.64.56 1.4.97 2.3 1.23.9.27 2.29.4 4.18.4 1.5 0 3.03-.3 4.58-.92 1.55-.61 2.9-1.42 4.08-2.43zm0 7.28c-.8.62-1.81 1.35-3.01 2.22a22 22 0 0 1-3.39 2.05 21.4 21.4 0 0 1-4.6 1.48c-1.59.32-3.33.48-5.23.48-4.46 0-8.2-1.38-11.2-4.14a13.72 13.72 0 0 1-4.53-10.58c0-3.43.77-6.23 2.3-8.4a15.44 15.44 0 0 1 6.53-5.15 36.93 36.93 0 0 1 10.37-2.68c4.13-.53 8.41-.92 12.84-1.17v-.25c0-2.6-1.06-4.39-3.18-5.38-2.11-.99-5.24-1.48-9.36-1.48-2.49 0-5.13.44-7.95 1.32-2.82.88-4.84 1.55-6.07 2.03h-1.38v-11.34c1.6-.42 4.18-.91 7.76-1.48 3.58-.58 7.18-.86 10.77-.86 8.56 0 14.75 1.32 18.55 3.95 3.81 2.64 5.71 6.77 5.71 12.4v31.96h-14.93v-4.98zm71.94 4.98h-15.14v-23.3c0-1.9-.1-3.78-.29-5.67-.2-1.88-.53-3.27-1-4.16a5 5 0 0 0-2.45-2.26 11.43 11.43 0 0 0-4.5-.7c-1.36 0-2.75.22-4.16.66-1.4.45-2.93 1.16-4.58 2.13v33.3h-15.06v-46.97h15.06v5.18c2.68-2.09 5.25-3.7 7.72-4.8a19.73 19.73 0 0 1 8.22-1.68c5.07 0 9.04 1.48 11.9 4.43 2.86 2.96 4.28 7.38 4.28 13.26v30.58zm56.64 0h-15.06v-5.19a44.83 44.83 0 0 1-7.65 4.83 19.13 19.13 0 0 1-8.29 1.66c-5.18 0-9.18-1.5-11.98-4.48-2.8-2.98-4.2-7.39-4.2-13.22v-30.57h15.14v23.3c0 2.37.08 4.34.23 5.91.15 1.58.5 2.88 1.07 3.91a4.8 4.8 0 0 0 2.4 2.26c1.07.48 2.57.71 4.5.71 1.28 0 2.7-.23 4.26-.7a18.35 18.35 0 0 0 4.52-2.1v-33.3h15.06v46.98zm60.06 0h-17.52l-13.18-20.46-4.1 4.98v15.48h-15.06v-65.09h15.06V244l16.23-20.74h17.36l-16.9 20.24 18.11 26.73zm53.46 0H538.8l-13.17-20.46-4.1 4.98v15.48h-15.06v-65.09h15.06V244l16.23-20.74h17.36l-16.9 20.24 18.11 26.73zm32.04-12.26v-9.78c-2.03.16-4.24.4-6.6.69-2.38.29-4.18.63-5.4 1.02a7.43 7.43 0 0 0-3.46 2.07c-.79.9-1.19 2.1-1.19 3.58 0 .97.09 1.77.25 2.38.17.61.59 1.2 1.26 1.76.64.56 1.4.97 2.3 1.23.9.27 2.29.4 4.18.4 1.5 0 3.03-.3 4.58-.92 1.55-.61 2.9-1.42 4.08-2.43zm0 7.28c-.8.62-1.81 1.35-3.01 2.22a22 22 0 0 1-3.39 2.05 21.4 21.4 0 0 1-4.6 1.48c-1.59.32-3.33.48-5.23.48-4.46 0-8.2-1.38-11.2-4.14a13.72 13.72 0 0 1-4.53-10.58c0-3.43.77-6.23 2.3-8.4a15.44 15.44 0 0 1 6.53-5.15 36.91 36.91 0 0 1 10.37-2.68c4.13-.53 8.41-.92 12.84-1.17v-.25c0-2.6-1.06-4.39-3.18-5.38-2.11-.99-5.24-1.48-9.36-1.48-2.49 0-5.13.44-7.95 1.32-2.82.88-4.84 1.55-6.07 2.03h-1.38v-11.34c1.6-.42 4.18-.91 7.76-1.48 3.59-.58 7.18-.86 10.77-.86 8.56 0 14.75 1.32 18.55 3.95 3.81 2.64 5.71 6.77 5.71 12.4v31.96h-14.93v-4.98zm-388.58 86.5c-4.63 0-8.9-.68-12.82-2.05a27.38 27.38 0 0 1-10.1-6.1c-2.82-2.71-5-6.08-6.55-10.13-1.55-4.04-2.32-8.71-2.32-14 0-4.95.74-9.42 2.22-13.44a28.72 28.72 0 0 1 6.44-10.33c2.7-2.76 6.06-4.9 10.06-6.4 4-1.5 8.37-2.26 13.11-2.26a49.22 49.22 0 0 1 12.93 1.59c1.86.53 3.56 1.13 5.08 1.78 1.52.66 2.85 1.26 4 1.82v15.1h-1.85a80.73 80.73 0 0 0-2.95-2.38 38.95 38.95 0 0 0-4.03-2.72c-1.54-.9-3.2-1.65-4.98-2.26a19.4 19.4 0 0 0-12.17.15 15.65 15.65 0 0 0-5.65 3.53 17.35 17.35 0 0 0-4 6.32c-1.01 2.62-1.52 5.8-1.52 9.53 0 3.9.55 7.17 1.65 9.79a17.06 17.06 0 0 0 4.16 6.2c1.7 1.52 3.6 2.62 5.7 3.27a19.68 19.68 0 0 0 11.98.1 22.52 22.52 0 0 0 5.29-2.38c1.36-.8 2.63-1.67 3.8-2.59a63.67 63.67 0 0 0 2.89-2.38h1.67v14.89c-1.56.7-3.05 1.35-4.47 1.96a36.86 36.86 0 0 1-4.48 1.6 53.7 53.7 0 0 1-5.73 1.33c-1.78.3-4.24.46-7.36.46zm77-24.68c0 7.73-2.25 13.81-6.75 18.26-4.5 4.45-10.83 6.67-18.97 6.67-8.14 0-14.47-2.22-18.97-6.67-4.5-4.45-6.75-10.53-6.75-18.26 0-7.78 2.26-13.88 6.8-18.32 4.52-4.43 10.83-6.65 18.92-6.65 8.2 0 14.54 2.23 19.01 6.7 4.48 4.46 6.71 10.55 6.71 18.27zm-18.53 11.42c.98-1.2 1.71-2.64 2.2-4.33.49-1.68.73-4.02.73-7 0-2.76-.25-5.08-.75-6.95s-1.2-3.36-2.1-4.47a7.34 7.34 0 0 0-3.21-2.43 11.4 11.4 0 0 0-4.06-.7c-1.45 0-2.74.19-3.87.58a7.83 7.83 0 0 0-3.24 2.34 11.98 11.98 0 0 0-2.2 4.47c-.54 1.9-.81 4.28-.81 7.16 0 2.56.24 4.79.7 6.67.48 1.88 1.18 3.4 2.1 4.54a7.97 7.97 0 0 0 3.2 2.38c1.24.5 2.66.75 4.25.75 1.36 0 2.67-.23 3.9-.69a7.16 7.16 0 0 0 3.16-2.32zm71.24-21.25v33.3h-15.14v-23.47c0-2.28-.06-4.23-.17-5.83-.11-1.6-.42-2.9-.92-3.91a4.6 4.6 0 0 0-2.28-2.2 10.69 10.69 0 0 0-4.29-.69c-1.48 0-2.91.3-4.3.9-1.4.6-2.66 1.24-3.77 1.9v33.3h-15.06v-46.97h15.06v5.18a41.3 41.3 0 0 1 7.44-4.77c2.37-1.14 5-1.71 7.87-1.71a16 16 0 0 1 8.2 2.07 14.15 14.15 0 0 1 5.56 6.09 46.77 46.77 0 0 1 8.78-5.99 18.34 18.34 0 0 1 8.37-2.17c5.07 0 8.93 1.52 11.56 4.56 2.64 3.04 3.96 7.42 3.96 13.13v30.58h-15.14v-23.47c0-2.31-.05-4.26-.15-5.85-.1-1.6-.4-2.89-.9-3.9a4.4 4.4 0 0 0-2.26-2.19 10.97 10.97 0 0 0-4.35-.69c-1.25 0-2.48.22-3.68.65-1.2.43-2.66 1.15-4.4 2.15zm89.72 9.16c0 3.88-.6 7.4-1.78 10.59a23.3 23.3 0 0 1-4.66 7.86c-2.01 2.17-4.28 3.82-6.82 4.94a20.05 20.05 0 0 1-8.16 1.67c-2.68 0-4.95-.29-6.81-.86a32.9 32.9 0 0 1-5.74-2.4v19.57H370.2v-64.2h15.05v4.89a36.65 36.65 0 0 1 7.1-4.48 19.28 19.28 0 0 1 8.34-1.71c5.86 0 10.4 2.15 13.66 6.44 3.24 4.3 4.87 10.2 4.87 17.7zm-15.52.3c0-4.58-.78-7.9-2.34-9.96-1.56-2.06-4.03-3.1-7.4-3.1-1.43 0-2.9.22-4.4.65-1.5.44-2.94 1.06-4.3 1.87v23.63c1 .39 2.07.64 3.22.75 1.14.11 2.27.17 3.38.17 4 0 6.96-1.17 8.91-3.5 1.95-2.32 2.93-5.83 2.93-10.51zm69.18 23.84h-15.05v-5.19a44.8 44.8 0 0 1-7.66 4.83 19.1 19.1 0 0 1-8.28 1.65c-5.19 0-9.18-1.49-11.99-4.47-2.8-2.98-4.2-7.39-4.2-13.22v-30.57h15.14v23.3c0 2.36.08 4.34.23 5.91.16 1.58.51 2.88 1.07 3.91a4.8 4.8 0 0 0 2.4 2.26c1.08.48 2.58.71 4.5.71 1.28 0 2.7-.23 4.27-.7a18.38 18.38 0 0 0 4.52-2.1v-33.3h15.05v46.98zm40.24-.42c-1.62.42-3.33.75-5.14.98-1.81.24-4.03.36-6.65.36-5.86 0-10.22-1.19-13.07-3.56-2.86-2.37-4.3-6.42-4.3-12.17v-21.96h-6.18v-10.2h6.19v-13.43h15.06v13.43h14.1v10.2h-14.1v16.65c0 1.64.01 3.08.04 4.3.03 1.23.25 2.34.67 3.31a4.63 4.63 0 0 0 2.07 2.32c.99.57 2.43.86 4.33.86.78 0 1.8-.17 3.07-.5 1.27-.33 2.16-.64 2.66-.92h1.25v10.33zm51.24-20.29H529.9c.23 3.69 1.63 6.5 4.2 8.45 2.59 1.95 6.39 2.93 11.4 2.93 3.19 0 6.27-.57 9.25-1.71a28.94 28.94 0 0 0 7.07-3.69h1.67v12.1a55.9 55.9 0 0 1-9.62 2.96c-3 .62-6.34.92-10 .92-9.42 0-16.64-2.12-21.66-6.35-5.02-4.24-7.53-10.28-7.53-18.12 0-7.75 2.38-13.89 7.13-18.42 4.76-4.53 11.27-6.8 19.56-6.8 7.64 0 13.38 1.93 17.23 5.8 3.85 3.86 5.77 9.41 5.77 16.66v5.27zm-14.97-8.82c-.09-3.15-.87-5.52-2.35-7.11-1.47-1.6-3.77-2.39-6.9-2.39-2.9 0-5.28.76-7.15 2.26-1.87 1.5-2.91 3.92-3.14 7.24h19.54zm55.63-3.1h-1.34c-.64-.22-1.67-.39-3.1-.5-1.42-.11-2.6-.17-3.55-.17-2.15 0-4.04.14-5.69.42-1.64.28-3.42.75-5.31 1.42v31.46h-15.06v-46.97h15.06v6.9c3.32-2.85 6.2-4.74 8.66-5.67a19.19 19.19 0 0 1 8.57-1.36c.67.03 1.26.07 1.76.13v14.34zM199.79 432.06c-4.63 0-8.9-.68-12.82-2.05a27.4 27.4 0 0 1-10.1-6.1c-2.82-2.71-5-6.08-6.55-10.13-1.55-4.04-2.32-8.71-2.32-14.01 0-4.94.74-9.41 2.22-13.43a28.71 28.71 0 0 1 6.44-10.33c2.7-2.76 6.06-4.9 10.06-6.4 4-1.5 8.37-2.26 13.11-2.26a49.22 49.22 0 0 1 12.93 1.59 41.3 41.3 0 0 1 5.08 1.78c1.52.66 2.85 1.26 4 1.82v15.1h-1.85a80.83 80.83 0 0 0-2.95-2.38 38.95 38.95 0 0 0-4.03-2.72c-1.54-.9-3.2-1.65-4.98-2.26a19.4 19.4 0 0 0-12.17.15 15.66 15.66 0 0 0-5.65 3.53 17.36 17.36 0 0 0-4 6.31c-1.01 2.63-1.52 5.8-1.52 9.54 0 3.9.55 7.17 1.65 9.79a17.05 17.05 0 0 0 4.16 6.19c1.7 1.53 3.6 2.63 5.7 3.28a19.65 19.65 0 0 0 11.98.1 22.44 22.44 0 0 0 5.29-2.38c1.36-.8 2.63-1.67 3.8-2.59a63.67 63.67 0 0 0 2.89-2.38h1.67v14.89c-1.56.7-3.05 1.35-4.47 1.96a36.69 36.69 0 0 1-4.48 1.6 53.68 53.68 0 0 1-5.73 1.33c-1.78.3-4.24.46-7.36.46zm44.04-1.21h-15.05v-65.09h15.05v65.09zm57.02 0h-15.06v-5.19a44.83 44.83 0 0 1-7.66 4.83 19.13 19.13 0 0 1-8.28 1.65c-5.19 0-9.18-1.49-11.98-4.47-2.8-2.98-4.2-7.39-4.2-13.22v-30.57h15.14v23.3c0 2.36.07 4.34.23 5.91.15 1.58.5 2.88 1.06 3.91a4.8 4.8 0 0 0 2.4 2.26c1.08.48 2.58.71 4.5.71 1.29 0 2.7-.23 4.27-.7a18.36 18.36 0 0 0 4.52-2.1v-33.3h15.06v46.98zm59.22-24.14c0 7.4-2.04 13.42-6.12 18.07a19.5 19.5 0 0 1-15.3 6.99c-2.61 0-4.91-.28-6.9-.84a23.5 23.5 0 0 1-5.64-2.42l-.63 2.34h-14.43v-65.09h15.06v23a36.64 36.64 0 0 1 7.09-4.47 19.28 19.28 0 0 1 8.34-1.71c5.94 0 10.52 2.14 13.72 6.42 3.21 4.28 4.81 10.19 4.81 17.71zm-15.51.3c0-4.19-.72-7.4-2.14-9.67-1.42-2.25-3.96-3.38-7.61-3.38-1.42 0-2.89.21-4.4.64-1.5.44-2.93 1.06-4.3 1.87v23.59c1.09.39 2.12.65 3.1.8.97.13 2.14.2 3.5.2 4 0 6.97-1.17 8.92-3.51 1.95-2.35 2.93-5.86 2.93-10.54z"/></svg>