<?xml version="1.0" encoding="UTF-8"?>
<!DOCTYPE svg PUBLIC "-//W3C//DTD SVG 1.1//EN" "http://www.w3.org/Graphics/SVG/1.1/DTD/svg11.dtd">
<svg version="1.1" xmlns="http://www.w3.org/2000/svg" xmlns:xlink="http://www.w3.org/1999/xlink" x="0" y="0" width="605.018" height="432.145" viewBox="0, 0, 605.018, 432.145">
  <g id="Page-1" transform="translate(0, -0.855)">
    <path d="M4.873,288.317 C3.131,291.646 1.51,295.698 0.741,298.647 C0.213,300.696 0.056,301.744 0.056,303.413 C0.046,304.859 0.056,304.98 0.306,305.638 C0.611,306.473 1.297,307.428 1.964,307.966 C2.436,308.337 3.687,308.986 4.169,309.097 C4.363,309.143 4.345,309.106 4.02,308.81 C3.279,308.142 3.103,307.539 3.251,306.222 C3.427,304.618 3.965,302.903 5.058,300.501 L5.595,299.296 L5.91,299.991 C6.716,301.762 7.392,303.626 7.735,305.017 C8.226,307.02 8.124,307.901 7.327,308.698 L6.883,309.143 L7.262,309.032 C8.3,308.717 9.439,307.938 10.097,307.103 C10.931,306.065 11.209,305.175 11.209,303.635 C11.209,301.252 10.273,297.691 8.476,293.259 C7.494,290.839 5.734,287 5.604,287 C5.586,287 5.252,287.593 4.873,288.317 z" fill="#000000" id="Shape"/>
    <path d="M26.873,289.244 C24.14,294.752 22.677,299.379 22.454,303.162 C22.39,304.396 22.529,305.221 22.973,306.158 C23.334,306.899 24.307,307.966 25.048,308.411 C25.539,308.708 26.771,309.208 26.771,309.116 C26.771,309.088 26.586,308.902 26.364,308.698 C26.104,308.457 25.9,308.16 25.808,307.892 C25.502,307.011 25.687,305.471 26.317,303.524 C26.817,302.003 27.92,299.426 28.068,299.426 C28.105,299.426 28.198,299.583 28.281,299.769 C28.355,299.963 28.615,300.575 28.855,301.141 C29.837,303.468 30.476,305.74 30.476,306.909 C30.476,307.725 30.328,308.114 29.81,308.661 L29.346,309.162 L29.902,308.967 C31.551,308.411 32.968,306.992 33.469,305.406 C33.858,304.182 33.709,302.059 33.061,299.528 C32.505,297.376 31.264,293.89 30.106,291.265 C29.346,289.541 28.133,287 28.059,287 C28.022,287 27.494,288.011 26.873,289.244 z" fill="#000000" id="Shape"/>
    <path d="M50.087,287.76 C47.679,292.211 45.854,297.079 45.15,300.909 C44.955,301.985 44.872,304.34 45.011,304.998 C45.381,306.788 46.975,308.457 48.874,309.032 L49.253,309.143 L48.809,308.698 C48.049,307.938 47.929,307.113 48.318,305.175 C48.596,303.812 49.457,301.466 50.263,299.861 L50.541,299.324 L51.199,300.881 C52.366,303.626 52.912,305.555 52.922,306.936 C52.931,307.799 52.755,308.235 52.19,308.763 L51.773,309.153 L52.125,309.051 C52.727,308.893 53.857,308.253 54.404,307.771 C55.543,306.751 56.136,305.379 56.136,303.765 C56.136,300.427 54.395,295.002 51.143,288.178 C50.828,287.529 50.559,287 50.541,287 C50.513,287 50.309,287.343 50.087,287.76 z" fill="#000000" id="Shape"/>
    <path d="M125.647,96.769 C127.569,96.694 129.406,97.339 131.223,97.871 C144.85,102.046 156.872,111.049 167.794,125.258 C178.17,138.755 184.655,156.267 185.429,172.875 C185.812,181.113 184.739,185.906 181.593,189.998 C179.176,193.142 177.055,193.255 174.862,190.356 C172.465,187.189 171.346,183.003 170.558,174.264 C168.112,147.124 157.038,126.586 136.813,111.678 C133.639,109.338 133.483,109.285 134.726,110.973 C148.365,129.486 158.324,149.657 161.368,164.939 C162.282,169.524 162.473,172.928 162.204,179.832 C161.836,189.315 160.557,194.976 157.303,201.529 C155.504,205.153 154.572,205.615 149.598,205.349 L146.709,205.195 L146.365,255.042 C146.176,282.457 146.022,311.305 146.023,319.148 C145.99,320.824 146.038,320.237 145.979,320.914 L145.963,325.64 C145.926,336.823 145.917,337.045 145.435,340.94 C143.471,356.982 136.125,371.939 124.555,383.483 C113.856,394.147 100.433,401.157 85.677,403.781 C83.972,404.087 80.934,404.495 79.368,404.634 L78.646,404.69 L78.646,416.42 L79.878,416.485 C82.453,416.615 86.261,416.995 89.151,417.422 C99.35,418.924 107.316,421.771 110.66,425.109 C111.707,426.157 112.179,427.019 112.253,428.021 C112.291,428.633 112.281,428.67 111.994,429.003 C110.503,430.7 102.277,432.045 89.484,432.675 C83.722,432.954 81.657,433 72.995,433 C64.334,433 62.268,432.954 56.506,432.675 C43.908,432.054 35.683,430.737 34.015,429.068 C33.663,428.707 33.589,428.419 33.719,427.77 C34.08,426.027 35.738,424.311 38.619,422.716 C44.186,419.647 53.552,417.422 64.427,416.587 C65.446,416.513 66.52,416.448 66.817,416.448 L67.345,416.448 L67.345,404.69 L66.631,404.634 C51.078,403.262 36.553,396.994 24.594,386.506 C23.158,385.254 19.49,381.582 18.239,380.145 C8.68,369.231 2.733,356.351 0.704,342.219 C0.074,337.843 -0,336.034 -0,324.851 L-0,315.096 L11.301,315.096 L11.301,324.935 C11.301,334.922 11.329,336.007 11.672,339.113 C12.858,349.712 16.961,360.116 23.344,368.693 C33.496,382.324 48.522,391.087 65.334,393.173 C66.15,393.275 66.937,393.359 67.345,393.359 L67.345,387.795 L67.141,382.194 C67.02,382.167 66.428,382.083 65.816,382 C62.268,381.517 57.979,380.368 54.376,378.94 C51.541,377.818 48.058,376 45.344,374.211 C32.727,365.948 24.428,352.494 22.751,337.583 C22.473,335.126 22.417,333.104 22.417,324.11 L22.417,315.096 L33.719,315.096 L33.719,324.295 C33.719,329.877 33.756,334.004 33.82,334.792 C34.108,338.64 34.951,342.47 36.275,345.975 C36.942,347.718 38.6,351.084 39.545,352.568 C45.029,361.284 53.329,367.376 63.13,369.88 C64.371,370.205 66.956,370.733 67.261,370.733 C67.308,370.733 67.345,368.545 67.345,365.142 L67.345,359.55 L66.446,359.337 C61.398,358.15 56.34,355.22 52.718,351.39 C48.327,346.745 45.631,340.893 45.02,334.671 C44.964,334.096 44.927,330.054 44.927,324.406 L44.927,315.096 L56.127,315.096 L56.164,324.388 C56.201,334.375 56.201,334.254 56.701,336.192 C58.016,341.329 61.685,345.604 66.428,347.542 L67.298,347.894 L67.326,331.5 L67.34,315.096 L67.34,315.083 C67.333,288.024 67.109,252.346 67.525,247.958 C69.478,227.38 74.094,210.912 81.927,196.575 C85.725,189.624 86.356,188.849 92.268,183.891 C103.391,174.564 118.256,165.532 130.986,160.366 L136.788,158.011 L132.629,158.232 C123.353,158.722 100.74,170.888 73.708,189.93 C68.672,193.478 64.312,196.381 64.02,196.381 C63.039,196.381 61.365,193.692 61.365,192.115 C61.365,189.338 66.792,182.177 71.364,178.923 C94.687,162.318 113.683,151.945 129.621,147.11 C133.188,146.028 136.867,144.498 137.798,143.71 L139.49,142.277 L137.425,140.438 L135.36,138.599 L129.249,140.172 C115.6,143.684 107.161,147.514 80.538,162.282 C60.225,173.55 60,173.62 60,168.698 C60,166.568 60.626,165.269 63.406,161.63 C65.28,159.178 67.199,156.738 67.672,156.208 C69.058,154.654 92.239,142.478 101.854,138.255 C106.713,136.12 114.257,133.393 118.619,132.194 C130.181,129.016 130.194,129.005 126.784,125.546 C124.601,123.332 124.483,123.295 120.776,123.649 C112.129,124.474 96.609,128.899 83.961,134.147 C80.433,135.61 77.136,136.808 76.634,136.808 C76.131,136.808 74.725,136.016 73.509,135.048 C71.379,133.353 71.334,133.223 72.303,131.552 C73.943,128.726 79.893,123.879 84.258,121.813 C86.496,120.754 94.239,118.321 101.466,116.406 C108.692,114.491 114.605,112.706 114.605,112.439 C114.605,112.172 113.33,111.049 111.772,109.943 C104.58,104.842 103.579,102.992 106.629,100.441 C108.601,98.791 111.18,98.762 116.311,100.335 C121.613,101.959 123.082,101.896 124.051,100.002 C124.487,99.151 124.843,98.056 124.843,97.571 C124.988,96.913 124.814,97.249 125.647,96.769 z M134.63,188.601 C131.847,191.487 130.289,195.635 128.993,199.379 C126.459,207.748 126.189,211.585 125.555,248.355 C125.325,261.729 124.663,283.971 123.57,315.083 L123.566,315.096 L123.57,315.096 L123.573,323.646 C123.573,331.815 123.509,334.875 123.295,336.934 C122.082,348.636 117.052,359.244 108.752,367.58 C102.064,374.294 93.782,378.949 84.574,381.156 C83.129,381.508 81.119,381.888 79.85,382.046 C79.415,382.102 78.97,382.167 78.646,382.231 L78.646,393.387 L79.368,393.322 C82.685,393.025 87.363,392.079 91.068,390.957 C97.812,388.917 104.389,385.579 110.049,381.332 C123.157,371.484 131.762,356.963 134.078,340.782 C134.625,336.971 134.625,336.869 134.662,325.547 L134.699,315.096 L134.794,315.096 L134.794,315.083 C134.812,299.198 134.246,276.059 134.001,257.169 C133.715,235.178 133.831,216.721 134.321,205.856 C134.743,196.524 134.955,188.771 134.794,188.627 L134.63,188.601 z M120.283,188.548 C119.323,188.824 118.492,189.433 117.662,189.966 C114.505,192.111 110.993,196.876 108.897,201.858 C108.343,203.173 103.58,269.715 103.296,275.743 C101.927,304.8 101.019,311.498 101.07,314.905 L101.062,315.096 L101.07,315.096 L101.035,324.851 C100.999,335.33 101.008,335.126 100.507,337.592 C99.044,344.76 94.616,351.297 88.465,355.405 C85.76,357.204 82.537,358.632 79.554,359.337 L78.646,359.55 L78.646,365.142 L78.998,370.687 C87.539,369.25 94.588,365.726 100.498,359.94 C107.094,353.467 110.947,345.502 112.059,336.053 C112.189,334.894 112.216,333.382 112.244,324.898 L112.245,324.756 C111.553,317.112 111.648,309.423 111.772,301.756 C112.688,255.075 113.275,209.64 118.012,196.321 C119.479,192.197 120.549,188.706 120.391,188.565 L120.283,188.548 z M105.286,187.337 C102.477,187.875 100.107,190.171 98.044,192.034 C88.782,200.853 83.012,213.987 81.179,230.422 C80.444,237.007 78.305,296.065 78.76,320.694 C78.759,322.42 78.793,321.554 78.655,323.293 L78.664,331.5 L78.692,347.894 L79.628,347.496 C85.038,345.187 88.789,340.254 89.623,334.356 C89.734,333.586 89.762,331.741 89.762,324.249 L89.762,315.096 L89.827,315.096 L89.824,314.905 C88.895,253.903 91.776,224.451 94.408,214.921 C96.51,207.312 100.153,197.967 103.296,192.127 C104.622,189.663 105.588,187.54 105.442,187.409 L105.286,187.337 z" fill="#000000"/>
    <path d="M140.083,90.932 C142.899,91.44 145.628,92.338 148.369,93.14 C171.583,99.923 190.795,113.919 204.341,133.916 C207.387,138.412 207.679,139.264 210.894,153 C214.511,168.456 214.574,168.992 213.3,173.585 C212.2,177.546 210.759,179.927 207.726,182.791 L205.255,185.124 L203.962,183.701 C201.959,181.499 200.618,176.74 199.567,168.114 C199.038,163.768 198.156,158.98 197.608,157.476 C191.579,140.942 184.159,130.632 168.67,117.267 C161.09,110.726 142.342,97.264 139.425,96.267 C138.834,96.065 138.495,94.971 138.495,93.267 C138.549,92.594 138.212,91.166 139.19,90.943 C139.481,90.877 139.786,90.935 140.083,90.932 z" fill="#000000"/>
    <path d="M357.291,136.751 C357.796,136.795 358.316,136.756 358.806,136.884 C361.227,137.516 361.268,141.849 361.504,143.68 C361.811,146.06 362.068,148.446 362.354,150.828 C363.262,158.219 363.262,164.056 362.354,168.341 C358.157,167.839 352.548,167.769 350.439,163.929 C348.802,160.95 348.542,159.565 348.008,150.98 C347.68,145.693 347.399,140.341 347.385,139.087 L347.358,136.808 L353.83,136.808 C355.874,136.784 354.72,136.801 357.291,136.751 z" fill="#000000"/>
    <path d="M423.313,104.687 C425.722,104.787 424.612,104.704 426.645,104.903 C429.025,105.148 431.664,105.581 432.508,105.866 C434.925,106.68 434.416,109.21 430.904,113.848 C421.905,125.729 407.356,131.974 385.972,133.134 C370.037,133.998 358.028,132.579 329.612,126.475 C304.234,121.023 299.155,120.295 284.119,119.947 L271.047,119.645 L267.567,121.333 C265.652,122.26 264.106,123.181 264.13,123.379 C264.206,123.991 274.107,131.424 280.863,135.94 C295.594,145.787 310.125,151.376 323.643,152.393 L328.873,152.787 L329.614,155.965 C331.106,162.366 331.057,162.519 327.223,163.421 C322.099,164.627 309.302,164.058 303.675,162.373 C296.043,160.088 285.354,154.96 272.943,147.63 C259.166,139.493 248.286,134.187 241.368,132.234 C235.706,130.635 235.575,130.443 234.97,122.857 L234.55,117.593 L239.933,115.71 C252.752,111.228 261.767,109.577 276.372,109.041 C293.058,108.427 307.953,109.995 344.287,116.188 C375.779,121.555 375.059,121.489 384.853,119.894 C401.767,117.139 411.565,113.35 420.16,106.241 C421.359,105.166 421.774,105.004 423.313,104.687 z" fill="#000000"/>
    <path d="M165.654,82.857 C176.104,83.85 186.381,87.157 196.013,91.262 C215.397,99.873 228.588,114.328 233.416,132.249 C234.759,137.235 235.073,144.887 234.056,147.893 C233.747,148.808 232.827,150.518 232.012,151.693 C230.795,153.445 230.12,153.829 228.25,153.829 L225.971,153.829 L225.52,149.725 C224.393,139.475 220.593,131.199 213.269,123.046 C205.456,114.35 194.194,106.817 170.68,94.56 C163.112,90.615 159.01,88.126 158.995,87.471 C158.966,86.242 162.556,83.451 164.814,82.946 L165.654,82.857 z" fill="#000000"/>
    <path d="M264.603,25.017 C267.382,25.003 268.169,28.001 269.006,30.167 C272.768,40.154 272.93,53.314 269.454,66.502 C268.384,70.565 268.23,72.05 268.825,72.581 C269.719,73.379 275.602,73.422 285.245,72.702 C290.655,72.298 293.011,72.436 299.462,73.538 C319.069,76.886 333.419,83.429 344.695,94.163 C349.142,98.397 350.316,99.936 351.215,102.718 C351.819,104.583 353.196,107.677 354.275,109.593 L356.238,113.076 L354.496,113.465 C352.247,113.968 347.775,113.323 345.161,112.119 C342.032,110.678 337.354,106.605 333.021,101.55 C328.556,96.341 323.347,91.82 320.07,90.311 C313.014,87.061 289.676,84.86 277.546,86.3 C261.022,88.261 242.627,95.877 230.428,105.807 C228.375,107.478 226.392,108.845 226.022,108.845 C225.651,108.845 222.316,105.928 218.609,102.362 C213.858,97.791 212.172,95.793 212.894,95.589 C215.735,94.784 236.985,84.64 240.602,82.361 C248.428,77.43 254.006,70.886 255.861,64.459 C256.293,62.96 257.092,60.702 257.636,59.442 C259.068,56.124 258.858,51.568 256.919,43.919 C254.019,32.476 254.843,28.833 260.926,26.211 C262.1,25.638 263.332,25.286 264.603,25.017 z" fill="#000000"/>
    <path d="M252.399,2.526 C256.925,6.688 259.949,10.484 261.513,13.936 C262.015,15.064 262.181,15.884 262.102,16.918 C262.03,17.74 261.504,19.084 260.972,19.765 C260.62,20.218 259.649,21.127 259.616,21.041 C259.606,21.015 259.712,20.775 259.847,20.505 C260.003,20.187 260.087,19.837 260.077,19.553 C260.046,18.621 259.322,17.25 258.036,15.658 C257.024,14.418 255.071,12.406 254.933,12.459 C254.898,12.472 254.868,12.653 254.857,12.856 C254.857,13.064 254.834,13.728 254.812,14.343 C254.73,16.868 254.947,19.218 255.366,20.308 C255.658,21.07 255.936,21.381 256.617,21.705 L257.228,22.007 L256.64,22.024 C254.901,22.096 253.069,21.279 252.034,19.978 C251.232,18.975 250.61,16.939 250.308,14.344 C250.056,12.136 249.965,8.436 250.106,5.571 C250.197,3.689 250.419,0.882 250.488,0.856 C250.523,0.842 251.378,1.597 252.399,2.526 z" fill="#000000" id="Shape"/>
    <path d="M435.178,82.154 C436.571,88.036 436.996,92.832 436.473,96.585 C436.296,97.807 436.014,98.593 435.438,99.435 C434.973,100.1 433.9,100.978 433.153,101.286 C432.657,101.492 431.46,101.769 431.478,101.678 C431.483,101.651 431.684,101.501 431.922,101.34 C432.2,101.148 432.438,100.892 432.573,100.644 C433.014,99.833 433.142,98.289 432.95,96.268 C432.793,94.689 432.3,91.967 432.167,91.941 C432.134,91.934 432.021,92.073 431.911,92.241 C431.808,92.419 431.459,92.975 431.136,93.488 C429.814,95.602 428.809,97.721 428.586,98.868 C428.43,99.669 428.488,100.077 428.848,100.704 L429.166,101.276 L428.706,100.989 C427.338,100.156 426.342,98.517 426.197,96.873 C426.083,95.604 426.621,93.546 427.683,91.173 C428.591,89.158 430.366,85.951 431.902,83.577 C432.91,82.016 434.48,79.732 434.546,79.745 C434.579,79.752 434.859,80.836 435.178,82.154 z" fill="#000000" id="Shape"/>
    <path d="M351.282,191.262 C349.483,185.491 348.723,180.736 348.983,176.956 C349.075,175.725 349.301,174.921 349.817,174.041 C350.234,173.345 351.244,172.395 351.968,172.035 C352.448,171.795 353.623,171.435 353.611,171.527 C353.608,171.554 353.418,171.718 353.192,171.896 C352.928,172.106 352.708,172.378 352.591,172.635 C352.208,173.475 352.187,175.024 352.52,177.026 C352.787,178.591 353.469,181.272 353.603,181.289 C353.636,181.293 353.739,181.147 353.837,180.972 C353.928,180.787 354.237,180.208 354.524,179.673 C355.695,177.472 356.55,175.288 356.692,174.129 C356.792,173.319 356.705,172.916 356.303,172.315 L355.945,171.767 L356.424,172.022 C357.847,172.757 358.955,174.322 359.214,175.952 C359.417,177.21 359.024,179.301 358.129,181.742 C357.365,183.815 355.818,187.138 354.451,189.614 C353.554,191.242 352.147,193.629 352.08,193.621 C352.047,193.616 351.693,192.555 351.282,191.262 z" fill="#000000" id="Shape"/>
    <path d="M199.789,272.297 C195.16,272.297 190.887,271.614 186.969,270.248 C183.051,268.881 179.684,266.846 176.868,264.141 C174.051,261.436 171.869,258.062 170.321,254.018 C168.774,249.975 168,245.304 168,240.006 C168,235.07 168.739,230.595 170.217,226.579 C171.695,222.564 173.842,219.12 176.658,216.248 C179.363,213.487 182.716,211.354 186.718,209.848 C190.72,208.342 195.09,207.589 199.831,207.589 C202.452,207.589 204.816,207.736 206.921,208.029 C209.026,208.321 210.971,208.705 212.756,209.179 C214.624,209.709 216.318,210.301 217.838,210.957 C219.358,211.612 220.689,212.218 221.833,212.776 L221.833,227.876 L219.992,227.876 C219.211,227.207 218.228,226.412 217.043,225.492 C215.858,224.572 214.513,223.665 213.007,222.773 C211.473,221.881 209.814,221.128 208.029,220.514 C206.245,219.901 204.335,219.594 202.299,219.594 C200.04,219.594 197.893,219.95 195.857,220.661 C193.822,221.372 191.939,222.55 190.211,224.195 C188.565,225.785 187.234,227.89 186.216,230.511 C185.198,233.132 184.689,236.311 184.689,240.048 C184.689,243.952 185.24,247.214 186.342,249.836 C187.443,252.457 188.83,254.52 190.503,256.026 C192.204,257.56 194.101,258.654 196.192,259.31 C198.283,259.965 200.347,260.293 202.383,260.293 C204.335,260.293 206.266,260 208.176,259.414 C210.086,258.829 211.85,258.034 213.467,257.03 C214.833,256.221 216.102,255.357 217.273,254.437 C218.444,253.516 219.406,252.722 220.159,252.053 L221.833,252.053 L221.833,266.943 C220.271,267.64 218.779,268.296 217.357,268.909 C215.935,269.523 214.443,270.052 212.881,270.499 C210.846,271.084 208.936,271.53 207.151,271.837 C205.366,272.144 202.912,272.297 199.789,272.297 z M275.958,271.084 L260.816,271.084 L260.816,247.786 C260.816,245.89 260.719,244.001 260.523,242.118 C260.328,240.236 259.993,238.849 259.519,237.957 C258.962,236.925 258.146,236.172 257.073,235.698 C255.999,235.224 254.5,234.987 252.576,234.987 C251.21,234.987 249.822,235.21 248.414,235.656 C247.006,236.102 245.479,236.813 243.834,237.789 L243.834,271.084 L228.776,271.084 L228.776,206 L243.834,206 L243.834,229.298 C246.511,227.207 249.083,225.603 251.551,224.488 C254.019,223.373 256.759,222.815 259.77,222.815 C264.846,222.815 268.812,224.293 271.67,227.249 C274.529,230.204 275.958,234.624 275.958,240.508 L275.958,271.084 z M314.23,258.829 L314.23,249.041 C312.195,249.208 309.992,249.438 307.622,249.731 C305.251,250.024 303.453,250.365 302.226,250.756 C300.72,251.23 299.57,251.92 298.775,252.826 C297.98,253.733 297.583,254.925 297.583,256.403 C297.583,257.379 297.666,258.173 297.834,258.787 C298.001,259.4 298.419,259.986 299.089,260.544 C299.73,261.101 300.497,261.513 301.389,261.777 C302.281,262.042 303.676,262.175 305.572,262.175 C307.078,262.175 308.604,261.868 310.152,261.255 C311.7,260.641 313.059,259.833 314.23,258.829 z M314.23,266.107 C313.422,266.72 312.418,267.459 311.219,268.324 C310.02,269.188 308.89,269.871 307.831,270.373 C306.353,271.042 304.819,271.537 303.23,271.858 C301.64,272.179 299.897,272.339 298.001,272.339 C293.539,272.339 289.803,270.959 286.791,268.198 C283.78,265.437 282.274,261.91 282.274,257.616 C282.274,254.186 283.041,251.383 284.574,249.208 C286.108,247.033 288.283,245.318 291.099,244.063 C293.888,242.809 297.346,241.916 301.473,241.386 C305.6,240.857 309.88,240.466 314.314,240.215 L314.314,239.964 C314.314,237.371 313.254,235.579 311.135,234.589 C309.016,233.599 305.893,233.104 301.766,233.104 C299.284,233.104 296.635,233.544 293.818,234.422 C291.002,235.3 288.98,235.977 287.753,236.451 L286.373,236.451 L286.373,225.115 C287.962,224.697 290.549,224.202 294.132,223.63 C297.715,223.059 301.305,222.773 304.903,222.773 C313.464,222.773 319.647,224.091 323.453,226.726 C327.26,229.361 329.163,233.495 329.163,239.128 L329.163,271.084 L314.23,271.084 L314.23,266.107 z M386.174,271.084 L371.033,271.084 L371.033,247.786 C371.033,245.89 370.935,244.001 370.74,242.118 C370.545,240.236 370.21,238.849 369.736,237.957 C369.178,236.925 368.363,236.172 367.289,235.698 C366.215,235.224 364.717,234.987 362.793,234.987 C361.426,234.987 360.039,235.21 358.631,235.656 C357.222,236.102 355.696,236.813 354.05,237.789 L354.05,271.084 L338.992,271.084 L338.992,224.111 L354.05,224.111 L354.05,229.298 C356.727,227.207 359.3,225.603 361.768,224.488 C364.236,223.373 366.975,222.815 369.987,222.815 C375.062,222.815 379.029,224.293 381.887,227.249 C384.745,230.204 386.174,234.624 386.174,240.508 L386.174,271.084 z M442.809,271.084 L427.751,271.084 L427.751,265.898 C424.963,268.017 422.411,269.627 420.097,270.729 C417.782,271.83 415.022,272.381 411.815,272.381 C406.628,272.381 402.634,270.889 399.831,267.905 C397.029,264.922 395.627,260.516 395.627,254.688 L395.627,224.111 L410.769,224.111 L410.769,247.41 C410.769,249.78 410.846,251.753 410.999,253.328 C411.153,254.904 411.508,256.207 412.066,257.239 C412.596,258.271 413.397,259.024 414.471,259.498 C415.544,259.972 417.043,260.209 418.967,260.209 C420.25,260.209 421.672,259.972 423.234,259.498 C424.795,259.024 426.301,258.327 427.751,257.406 L427.751,224.111 L442.809,224.111 L442.809,271.084 z M502.874,271.084 L485.348,271.084 L472.172,250.63 L468.073,255.608 L468.073,271.084 L453.015,271.084 L453.015,206 L468.073,206 L468.073,244.858 L484.303,224.111 L501.661,224.111 L484.763,244.356 L502.874,271.084 z M556.33,271.084 L538.804,271.084 L525.629,250.63 L521.529,255.608 L521.529,271.084 L506.471,271.084 L506.471,206 L521.529,206 L521.529,244.858 L537.759,224.111 L555.117,224.111 L538.219,244.356 L556.33,271.084 z M588.37,258.829 L588.37,249.041 C586.335,249.208 584.132,249.438 581.762,249.731 C579.391,250.024 577.593,250.365 576.366,250.756 C574.86,251.23 573.71,251.92 572.915,252.826 C572.12,253.733 571.723,254.925 571.723,256.403 C571.723,257.379 571.807,258.173 571.974,258.787 C572.141,259.4 572.559,259.986 573.229,260.544 C573.87,261.101 574.637,261.513 575.529,261.777 C576.422,262.042 577.816,262.175 579.712,262.175 C581.218,262.175 582.745,261.868 584.292,261.255 C585.84,260.641 587.199,259.833 588.37,258.829 z M588.37,266.107 C587.562,266.72 586.558,267.459 585.359,268.324 C584.16,269.188 583.03,269.871 581.971,270.373 C580.493,271.042 578.959,271.537 577.37,271.858 C575.78,272.179 574.037,272.339 572.141,272.339 C567.68,272.339 563.943,270.959 560.931,268.198 C557.92,265.437 556.414,261.91 556.414,257.616 C556.414,254.186 557.181,251.383 558.714,249.208 C560.248,247.033 562.423,245.318 565.24,244.063 C568.028,242.809 571.486,241.916 575.613,241.386 C579.74,240.857 584.02,240.466 588.454,240.215 L588.454,239.964 C588.454,237.371 587.394,235.579 585.275,234.589 C583.156,233.599 580.033,233.104 575.906,233.104 C573.424,233.104 570.775,233.544 567.958,234.422 C565.142,235.3 563.12,235.977 561.893,236.451 L560.513,236.451 L560.513,225.115 C562.102,224.697 564.689,224.202 568.272,223.63 C571.855,223.059 575.446,222.773 579.043,222.773 C587.604,222.773 593.787,224.091 597.593,226.726 C601.4,229.361 603.303,233.495 603.303,239.128 L603.303,271.084 L588.37,271.084 L588.37,266.107 z M199.789,352.607 C195.16,352.607 190.887,351.924 186.969,350.557 C183.051,349.191 179.684,347.155 176.868,344.45 C174.051,341.745 171.869,338.371 170.321,334.328 C168.774,330.285 168,325.614 168,320.316 C168,315.38 168.739,310.904 170.217,306.889 C171.695,302.873 173.842,299.43 176.658,296.557 C179.363,293.797 182.716,291.664 186.718,290.158 C190.72,288.652 195.09,287.899 199.831,287.899 C202.452,287.899 204.816,288.045 206.921,288.338 C209.026,288.631 210.971,289.014 212.756,289.488 C214.624,290.018 216.318,290.611 217.838,291.266 C219.358,291.921 220.689,292.528 221.833,293.086 L221.833,308.186 L219.992,308.186 C219.211,307.516 218.228,306.722 217.043,305.801 C215.858,304.881 214.513,303.975 213.007,303.083 C211.473,302.19 209.814,301.437 208.029,300.824 C206.245,300.21 204.335,299.904 202.299,299.904 C200.04,299.904 197.893,300.259 195.857,300.97 C193.822,301.681 191.939,302.859 190.211,304.505 C188.565,306.094 187.234,308.199 186.216,310.821 C185.198,313.442 184.689,316.621 184.689,320.357 C184.689,324.261 185.24,327.524 186.342,330.145 C187.443,332.766 188.83,334.83 190.503,336.336 C192.204,337.869 194.101,338.964 196.192,339.619 C198.283,340.275 200.347,340.602 202.383,340.602 C204.335,340.602 206.266,340.309 208.176,339.724 C210.086,339.138 211.85,338.343 213.467,337.34 C214.833,336.531 216.102,335.666 217.273,334.746 C218.444,333.826 219.406,333.031 220.159,332.362 L221.833,332.362 L221.833,347.253 C220.271,347.95 218.779,348.605 217.357,349.219 C215.935,349.832 214.443,350.362 212.881,350.808 C210.846,351.394 208.936,351.84 207.151,352.147 C205.366,352.453 202.912,352.607 199.789,352.607 z M276.794,327.928 C276.794,335.653 274.543,341.738 270.039,346.186 C265.536,350.634 259.213,352.858 251.07,352.858 C242.928,352.858 236.605,350.634 232.101,346.186 C227.598,341.738 225.346,335.653 225.346,327.928 C225.346,320.148 227.612,314.041 232.143,309.608 C236.674,305.174 242.983,302.957 251.07,302.957 C259.268,302.957 265.605,305.188 270.081,309.65 C274.557,314.111 276.794,320.204 276.794,327.928 z M258.265,339.347 C259.241,338.148 259.973,336.705 260.461,335.018 C260.949,333.331 261.193,330.996 261.193,328.012 C261.193,325.251 260.942,322.937 260.44,321.069 C259.938,319.2 259.241,317.708 258.348,316.593 C257.456,315.45 256.382,314.641 255.128,314.167 C253.873,313.693 252.52,313.456 251.07,313.456 C249.62,313.456 248.33,313.651 247.201,314.041 C246.072,314.432 244.991,315.213 243.959,316.384 C243.039,317.471 242.307,318.963 241.763,320.859 C241.22,322.756 240.948,325.14 240.948,328.012 C240.948,330.577 241.185,332.801 241.659,334.684 C242.133,336.566 242.83,338.079 243.75,339.222 C244.643,340.309 245.709,341.104 246.95,341.606 C248.191,342.108 249.606,342.359 251.196,342.359 C252.562,342.359 253.866,342.129 255.107,341.669 C256.348,341.209 257.4,340.435 258.265,339.347 z M329.497,318.099 L329.497,351.394 L314.356,351.394 L314.356,327.928 C314.356,325.642 314.3,323.697 314.189,322.093 C314.077,320.49 313.77,319.186 313.268,318.182 C312.766,317.179 312.006,316.447 310.989,315.986 C309.971,315.526 308.542,315.296 306.701,315.296 C305.223,315.296 303.787,315.596 302.393,316.196 C300.999,316.795 299.744,317.43 298.629,318.099 L298.629,351.394 L283.57,351.394 L283.57,304.421 L298.629,304.421 L298.629,309.608 C301.222,307.572 303.704,305.983 306.074,304.839 C308.444,303.696 311.065,303.124 313.938,303.124 C317.033,303.124 319.766,303.815 322.136,305.195 C324.506,306.575 326.36,308.604 327.699,311.281 C330.711,308.743 333.638,306.749 336.483,305.299 C339.327,303.849 342.116,303.124 344.848,303.124 C349.923,303.124 353.779,304.644 356.414,307.684 C359.049,310.723 360.366,315.101 360.366,320.818 L360.366,351.394 L345.225,351.394 L345.225,327.928 C345.225,325.614 345.176,323.662 345.078,322.072 C344.981,320.483 344.681,319.186 344.179,318.182 C343.705,317.179 342.952,316.447 341.92,315.986 C340.889,315.526 339.439,315.296 337.57,315.296 C336.315,315.296 335.089,315.512 333.889,315.945 C332.69,316.377 331.226,317.095 329.497,318.099 z M419.218,327.259 C419.218,331.135 418.626,334.663 417.441,337.842 C416.256,341.02 414.701,343.642 412.777,345.705 C410.769,347.88 408.496,349.525 405.959,350.641 C403.421,351.756 400.703,352.314 397.802,352.314 C395.125,352.314 392.853,352.028 390.985,351.457 C389.116,350.885 387.206,350.083 385.254,349.051 L385.254,368.627 L370.196,368.627 L370.196,304.421 L385.254,304.421 L385.254,309.315 C387.569,307.474 389.932,305.983 392.344,304.839 C394.756,303.696 397.538,303.124 400.689,303.124 C406.545,303.124 411.097,305.272 414.345,309.566 C417.594,313.86 419.218,319.758 419.218,327.259 z M403.7,327.552 C403.7,322.979 402.919,319.66 401.358,317.597 C399.796,315.533 397.328,314.502 393.954,314.502 C392.532,314.502 391.068,314.718 389.562,315.15 C388.057,315.582 386.62,316.203 385.254,317.011 L385.254,340.644 C386.258,341.034 387.332,341.285 388.475,341.397 C389.618,341.508 390.747,341.564 391.863,341.564 C395.851,341.564 398.82,340.4 400.772,338.072 C402.724,335.743 403.7,332.237 403.7,327.552 z M472.884,351.394 L457.826,351.394 L457.826,346.207 C455.037,348.326 452.485,349.937 450.171,351.038 C447.857,352.14 445.096,352.69 441.889,352.69 C436.702,352.69 432.708,351.199 429.905,348.215 C427.103,345.231 425.702,340.825 425.702,334.997 L425.702,304.421 L440.843,304.421 L440.843,327.719 C440.843,330.089 440.92,332.062 441.073,333.638 C441.227,335.213 441.582,336.517 442.14,337.549 C442.67,338.581 443.472,339.333 444.545,339.807 C445.619,340.281 447.118,340.519 449.042,340.519 C450.324,340.519 451.746,340.281 453.308,339.807 C454.87,339.333 456.375,338.636 457.826,337.716 L457.826,304.421 L472.884,304.421 L472.884,351.394 z M513.122,350.975 C511.505,351.394 509.79,351.721 507.977,351.958 C506.165,352.195 503.948,352.314 501.327,352.314 C495.471,352.314 491.114,351.129 488.255,348.759 C485.397,346.388 483.968,342.331 483.968,336.587 L483.968,314.627 L477.777,314.627 L477.777,304.421 L483.968,304.421 L483.968,290.994 L499.026,290.994 L499.026,304.421 L513.122,304.421 L513.122,314.627 L499.026,314.627 L499.026,331.275 C499.026,332.92 499.04,334.356 499.068,335.583 C499.096,336.81 499.319,337.911 499.737,338.887 C500.127,339.863 500.818,340.637 501.808,341.209 C502.797,341.78 504.241,342.066 506.137,342.066 C506.918,342.066 507.942,341.899 509.211,341.564 C510.48,341.23 511.365,340.923 511.867,340.644 L513.122,340.644 L513.122,350.975 z M564.361,330.689 L529.895,330.689 C530.118,334.37 531.519,337.186 534.099,339.138 C536.678,341.09 540.477,342.066 545.497,342.066 C548.676,342.066 551.757,341.495 554.741,340.351 C557.724,339.208 560.081,337.981 561.81,336.67 L563.483,336.67 L563.483,348.759 C560.081,350.125 556.874,351.115 553.862,351.728 C550.851,352.342 547.518,352.649 543.865,352.649 C534.44,352.649 527.218,350.529 522.199,346.291 C517.179,342.052 514.67,336.015 514.67,328.179 C514.67,320.427 517.047,314.285 521.801,309.754 C526.556,305.223 533.074,302.957 541.356,302.957 C548.996,302.957 554.741,304.888 558.589,308.75 C562.437,312.612 564.361,318.168 564.361,325.419 L564.361,330.689 z M549.387,321.863 C549.303,318.712 548.522,316.342 547.044,314.753 C545.566,313.163 543.266,312.368 540.143,312.368 C537.243,312.368 534.859,313.121 532.99,314.627 C531.122,316.133 530.076,318.545 529.853,321.863 L549.387,321.863 z M605.018,318.768 L603.679,318.768 C603.038,318.545 602.006,318.378 600.584,318.266 C599.162,318.155 597.977,318.099 597.029,318.099 C594.882,318.099 592.985,318.238 591.34,318.517 C589.695,318.796 587.924,319.27 586.028,319.939 L586.028,351.394 L570.97,351.394 L570.97,304.421 L586.028,304.421 L586.028,311.323 C589.346,308.478 592.232,306.589 594.686,305.655 C597.14,304.721 599.399,304.254 601.463,304.254 C601.992,304.254 602.592,304.268 603.261,304.296 C603.93,304.323 604.516,304.365 605.018,304.421 L605.018,318.768 z M199.789,432.916 C195.16,432.916 190.887,432.233 186.969,430.867 C183.051,429.5 179.684,427.465 176.868,424.76 C174.051,422.055 171.869,418.681 170.321,414.638 C168.774,410.594 168,405.923 168,400.625 C168,395.689 168.739,391.214 170.217,387.198 C171.695,383.183 173.842,379.739 176.658,376.867 C179.363,374.106 182.716,371.973 186.718,370.467 C190.72,368.961 195.09,368.209 199.831,368.209 C202.452,368.209 204.816,368.355 206.921,368.648 C209.026,368.941 210.971,369.324 212.756,369.798 C214.624,370.328 216.318,370.92 217.838,371.576 C219.358,372.231 220.689,372.838 221.833,373.395 L221.833,388.495 L219.992,388.495 C219.211,387.826 218.228,387.031 217.043,386.111 C215.858,385.191 214.513,384.284 213.007,383.392 C211.473,382.5 209.814,381.747 208.029,381.133 C206.245,380.52 204.335,380.213 202.299,380.213 C200.04,380.213 197.893,380.569 195.857,381.28 C193.822,381.991 191.939,383.169 190.211,384.814 C188.565,386.404 187.234,388.509 186.216,391.13 C185.198,393.751 184.689,396.93 184.689,400.667 C184.689,404.571 185.24,407.834 186.342,410.455 C187.443,413.076 188.83,415.139 190.503,416.645 C192.204,418.179 194.101,419.273 196.192,419.929 C198.283,420.584 200.347,420.912 202.383,420.912 C204.335,420.912 206.266,420.619 208.176,420.033 C210.086,419.448 211.85,418.653 213.467,417.649 C214.833,416.84 216.102,415.976 217.273,415.056 C218.444,414.136 219.406,413.341 220.159,412.672 L221.833,412.672 L221.833,427.562 C220.271,428.26 218.779,428.915 217.357,429.528 C215.935,430.142 214.443,430.672 212.881,431.118 C210.846,431.703 208.936,432.15 207.151,432.456 C205.366,432.763 202.912,432.916 199.789,432.916 z M243.834,431.703 L228.776,431.703 L228.776,366.619 L243.834,366.619 L243.834,431.703 z M300.845,431.703 L285.787,431.703 L285.787,426.517 C282.999,428.636 280.447,430.246 278.133,431.348 C275.818,432.449 273.058,433 269.851,433 C264.664,433 260.67,431.508 257.867,428.524 C255.065,425.541 253.664,421.135 253.664,415.307 L253.664,384.731 L268.805,384.731 L268.805,408.029 C268.805,410.399 268.882,412.372 269.035,413.947 C269.189,415.523 269.544,416.827 270.102,417.858 C270.632,418.89 271.433,419.643 272.507,420.117 C273.581,420.591 275.079,420.828 277.004,420.828 C278.286,420.828 279.708,420.591 281.27,420.117 C282.832,419.643 284.337,418.946 285.787,418.026 L285.787,384.731 L300.845,384.731 L300.845,431.703 z M360.074,407.569 C360.074,414.958 358.031,420.981 353.946,425.638 C349.861,430.295 344.765,432.624 338.658,432.624 C336.037,432.624 333.736,432.345 331.756,431.787 C329.776,431.229 327.894,430.421 326.109,429.361 L325.482,431.703 L311.051,431.703 L311.051,366.619 L326.109,366.619 L326.109,389.624 C328.424,387.784 330.787,386.292 333.199,385.149 C335.611,384.006 338.393,383.434 341.544,383.434 C347.484,383.434 352.057,385.574 355.263,389.855 C358.47,394.135 360.074,400.04 360.074,407.569 z M344.556,407.861 C344.556,403.679 343.844,400.458 342.422,398.199 C341,395.94 338.463,394.811 334.81,394.811 C333.387,394.811 331.924,395.027 330.418,395.459 C328.912,395.892 327.476,396.512 326.109,397.321 L326.109,420.912 C327.197,421.302 328.229,421.567 329.205,421.706 C330.181,421.846 331.352,421.916 332.718,421.916 C336.706,421.916 339.676,420.744 341.628,418.402 C343.58,416.06 344.556,412.546 344.556,407.861 z" fill="#000000" id="Chanukka-Computer-Cl"/>
  </g>
</svg>
