<svg xmlns="http://www.w3.org/2000/svg" width="551.49" height="518.64"><path d="M97.82 221.76q-2.59.8-4.55 1.3-1.96.48-3.7.75-1.74.27-3.48.36-1.74.09-3.97.09-6.68 0-10.96-1.38-4.28-1.39-7.76-4.78-4.73-4.54-7.31-10.7-2.59-6.15-2.59-13.1 0-6.6 2.1-12.09 2.1-5.48 5.93-9.4 3.83-3.93 9.14-6.07 5.3-2.14 11.72-2.14 2.32 0 4.2.18 1.87.18 3.74.67 1.87.5 3.92 1.3t4.82 2.13v13.56l-1.88.62q-2.85-7.58-6.15-10.7-.71-.71-1.83-1.38-1.11-.67-2.36-1.16-1.25-.5-2.5-.8-1.24-.31-2.31-.31-3.3 0-6.25 1.96-2.94 1.96-5.17 5.3-2.23 3.35-3.52 7.76-1.3 4.41-1.3 9.32 0 5.44 1.43 10.25 1.43 4.82 3.88 8.43 2.45 3.61 5.7 5.75 3.26 2.14 6.92 2.14 4.55 0 8.16-3.57 3.61-3.56 7.18-11.5l2.4 1.25zM133.49 220.51q-1.79 1.07-3.12 1.83-1.34.76-2.55 1.16-1.2.4-2.45.58-1.25.18-2.76.18-5.53 0-8.38-2.68-2.86-2.67-2.86-7.76L112 191l-4.28-5.53v-2.4q1.33-.54 2.36-.99 1.03-.45 1.83-.98t1.6-1.2q.8-.67 1.79-1.65 1.24-1.25 2.05-2.19.8-.94 2.05-2.9l4.28 1.88-1.25 8.29 7.4-.63q1.7 0 2.68.85.98.85.98 2.28 0 1.78-1.34 2.9-1.34 1.1-3.57 1.1h-6.15v20.87q0 2.86.53 4.28.54 1.43 1.79 2.32 1.25.8 2.9 1.12 1.65.3 5.21.3zM158.63 223v-1.86q1.43-.54 2.32-1.12.9-.58 1.43-1.56.53-.98.8-2.54t.36-3.97l.62-14.8v-.71q0-4.55-1.65-6.51t-5.4-1.96q-1.6 0-3.07.4-1.47.4-4.06 1.47v22.11q0 2.41.18 3.97t.58 2.59q.4 1.02 1.11 1.6.72.58 1.79 1.03V223h-19.62v-1.87q1.6-.36 2.5-.8.89-.45 1.42-1.39.54-.93.72-2.58.18-1.65.27-4.42l.62-17.2v-23.1q0-3.84-1.03-5.49-1.02-1.65-3.87-2.8v-1.88l14.09-2.4 2.5 2.4-1.26 25.24q2.23-1.6 4.02-2.72 1.78-1.12 3.34-1.74 1.56-.63 3.12-.9 1.56-.26 3.43-.26 4.82 0 7.85 2.5 1.52 1.25 2.19 3.2.66 1.97.66 5.45v19.7q0 2.68.14 4.33.13 1.65.58 2.58.44.94 1.29 1.43.85.49 2.27.85V223zM213.92 224.88l-2.41-1.25v-4.28q-2.05 1.43-3.7 2.37-1.65.93-3.21 1.51t-3.12.8q-1.56.23-3.44.23-10.52 0-10.52-11.42v-20.6q0-6.33-4.9-7.4v-1.78l14.09-1.6 1.87 2.85-.62 23.36v.63q0 5.26 1.65 7.3 1.64 2.06 5.84 2.06 1.51 0 2.76-.27 1.25-.27 3.3-1.16l.62-22.74q0-3.65-1.33-5.52-1.34-1.88-4.82-3.13v-1.78l15.34-1.87 1.25 1.87-.63 28.9v.62q0 1.96.18 3.2.18 1.25.71 2.06.54.8 1.52 1.3.98.48 2.5.84v1.78zM230.6 223v-1.86q1.42-.27 2.31-.8.9-.54 1.43-1.52.53-.98.8-2.63t.36-4.24l.62-17.2v-16.6q0-2.67-.04-4.45-.05-1.78-.14-2.99-.09-1.2-.26-2.1-.18-.89-.45-1.78-.36-1.25-.9-1.91-.53-.67-1.96-1.56v-1.88l13.3-2.4 2.13 1.78q-.44 2.85-.67 4.9-.22 2.05-.35 4.28-.14 2.23-.18 5.18-.05 2.94-.05 7.49v29.24q0 2.68.23 4.33.22 1.65.8 2.67.58 1.03 1.47 1.47.9.45 2.23.72V223zM279.28 223v-1.86q1.43-.54 2.32-1.12.89-.58 1.42-1.56.54-.98.8-2.54.27-1.56.36-3.97l.63-14.8v-.71q0-4.55-1.65-6.51t-5.4-1.96q-1.6 0-3.07.4-1.48.4-4.06 1.47v22.11q0 2.41.18 3.97t.58 2.59q.4 1.02 1.11 1.6.71.58 1.79 1.03V223h-19.62v-1.87q1.6-.36 2.5-.8.89-.45 1.42-1.39.54-.93.72-2.58.17-1.65.26-4.42l.63-17.2v-23.1q0-3.84-1.03-5.49-1.03-1.65-3.88-2.8v-1.88l14.1-2.4 2.49 2.4-1.25 25.24q2.23-1.6 4.01-2.72 1.79-1.12 3.35-1.74 1.56-.63 3.12-.9 1.56-.26 3.43-.26 4.81 0 7.85 2.5 1.51 1.25 2.18 3.2.67 1.97.67 5.45v19.7q0 2.68.13 4.33.14 1.65.58 2.58.45.94 1.3 1.43.84.49 2.27.85V223zM408.79 0c1.7 0 3.41.07 5.12.13 21.36.96 27.38 4.57 30.7 18.46 2.8 11.78 16.31 45.6 22.54 56.45 9.45 16.47 9.38 16.84-4.92 26.13-8.46 5.5-20.5 16.66-20.5 19 0 .81 1.8 4.32 3.99 7.8 9.85 15.6 13.15 33.25 11.77 51.02l-.1 1.2v.07c-.04 1.48-.06 2.96-.13 4.44-.4 9-1.16 17.97-1.53 26.97-.42 9.9-.55 19.8-.56 29.7 0 23.98-7.48 62.95-9.05 68.45-5.03 17.6-16.13 44.1-22.31 56.8-3 6.17-3.5 6.85-8.16 11.25-8.78 8.26-20.5 16.26-30.55 20.84l-4.58 2.08 3.28-.2c7.32-.43 25.16-11.2 46.5-28.07 3.97-3.15 7.4-5.72 7.64-5.72.77 0 2.1 2.38 2.1 3.78 0 2.46-4.29 8.8-7.9 11.69-18.4 14.7-33.39 23.9-45.96 28.18-2.82.96-5.72 2.32-6.46 3.02l-1.33 1.26 3.26 3.26 4.82-1.39c10.77-3.11 17.43-6.5 38.43-19.59 16.03-9.98 16.21-10.05 16.21-5.68 0 1.88-.5 3.03-2.69 6.26-1.48 2.17-2.99 4.33-3.36 4.8-1.1 1.38-19.39 12.17-26.97 15.9-3.84 1.9-9.8 4.32-13.23 5.38-9.13 2.81-9.14 2.82-6.45 5.89 1.73 1.96 1.82 2 4.74 1.68 6.83-.73 19.07-4.65 29.06-9.3 2.78-1.3 5.38-2.36 5.78-2.36.4 0 1.5.7 2.46 1.56 1.68 1.5 1.72 1.62.95 3.1-1.3 2.5-5.98 6.8-9.43 8.63-1.77.94-7.88 3.09-13.58 4.79-5.7 1.7-10.37 3.27-10.37 3.51 0 .24 1.01 1.23 2.24 2.21 5.67 4.52 6.46 6.16 4.06 8.42-1.56 1.46-3.6 1.49-7.64.1-4.19-1.44-5.35-1.39-6.11.3a6.93 6.93 0 0 0-.63 2.15c0 1.05-1.4.98-5.03-.27-10.75-3.7-20.24-11.68-28.86-24.27-8.18-11.95-13.3-27.47-13.91-42.19-.3-7.3.54-11.54 3.03-15.17 1.9-2.78 3.58-2.88 5.3-.31 1.9 2.8 2.78 6.51 3.4 14.25 1.93 24.05 10.67 42.25 26.63 55.46 2.5 2.07 2.63 2.12 1.65.62-10.76-16.4-18.62-34.27-21.02-47.81-.73-4.07-.88-7.08-.67-13.2.3-8.4 1.3-13.42 3.87-19.22 1.42-3.21 2.16-3.62 6.08-3.39l2.28.14.27-44.17c.15-24.28.27-49.84.27-56.8-.16-13.68-1.3-27.34-2.58-40.97-.94-6.04-2.16-12.04-3.37-18.03-5.35-25.78-5.55-27.7-4.08-40.6.84-7.44 1.25-13.82.9-14.18-1.02-1.08-14.15 12.33-16.56 16.93-1.23 2.34-3.32 9.33-3.8 15.08-.2 2.24-.34 4.5-.58 6.73l.05.08-.62 28.9v.62q0 1.96.18 3.2.18 1.25.71 2.06.54.8 1.52 1.3.98.48 2.5.84v1.78l-12.94 3.12-2.4-1.25v-4.28q-2.06 1.43-3.7 2.37-1.65.93-3.21 1.51t-3.13.8q-1.56.23-3.43.23-10.52 0-10.52-11.42v-20.6q0-6.33-4.9-7.4v-1.78l14.08-1.6 1.88 2.85-.63 23.36v.63q0 5.26 1.65 7.3 1.65 2.06 5.84 2.06 1.52 0 2.77-.27t3.3-1.16l.62-22.74q0-3.65-1.34-5.52-1.33-1.88-4.81-3.13v-1.78l11.34-1.38c-1.65-5.07-2.1-10.44-2.2-15.74-.05-15.03 2.08-19.62 15.87-34.2 5.68-6 10.34-11.35 10.36-11.9.04-1.06-21.05-19.75-27.56-24.4-4.91-3.5-4.92-4.58-.15-13.82 11-21.3 20.63-44.09 24.5-57.97 3.8-13.59 4.94-15.92 8.88-18.24C378.01.8 392.2.4 403.37 0L408.8 0zm20.54 142-.29.06c-.67.38-.37 1.5-.28 2.08.41 2.07.3 13.75 2 19.5 2.47 9.19 2.5 18.87 1.87 28.3.02.7-.04 1.41-.15 2.11-.31 5.18-.9 10.34-1.43 15.5-.16 1.36-.28 2.74-.62 4.08a482.59 482.59 0 0 1-2.01 21.78c-1.96 14.87-1.02 74.2-3.1 82.64-1.66 6.74-15.9 47.34-18.37 52.52-1.05 2.18-1.81 4.06-1.7 4.18.5.5 3.51-1.6 5.84-4.1 7.31-7.81 29.25-70.65 30.7-85.22.58-5.83 3.6-24.25 3.24-46.07-.11-6.81-.2-20.38-.2-30.16 0-8.32.27-16.64.64-24.95.3-6.9-.9-13.73-2.2-20.47-1.44-6.25-7.35-19.1-13.63-21.77h-.31zm-21.6 10.33c-.54.16-1.14.19-1.62.48-3.14 1.9-4.25 7.02-5 10.23-1.44 6.14-1.89 12.41-2.14 18.7 1.1 14.53 1.8 29.1 2.38 43.67.36 5.66.46 6.74.6 13.78.03 2.11-.03 4.22-.05 6.34.48 19.97-.08 39.93-1.38 59.86-.2 3.15-.54 6.29-.82 9.44-4.07 41.16-.63 40.22-4.36 52.02-1.16 3.66-2 6.75-1.88 6.87.12.13 1.1-.43 2.15-1.24 2.5-1.9 5.26-6.12 6.92-10.53 2.76-7.38 14.3-42.2 14.92-84.3.56-37.95 1.57-92.78 1.57-92.78l-.1-1.55c-.4-8.24-2.37-16.28-4.43-24.24-1.32-2.26-2.62-4.86-4.98-6.23-.53-.3-1.18-.34-1.77-.52zm-23.76-.35c-1.06.8-.6.37-1.43 1.24-2.64 3.91-2.78 10.24-3.01 14.8-.21 4.11-.24 9.15-.17 13.1.14 8.96.61 17.9 1.22 26.82.75 5.88 1.3 11.81 1.26 17.74.33 3.22.57 16.66.55 31.24-.01 14.07.14 39.28.33 56.02.22 19.49.13 35.84-.25 45.46-.34 8.27-.5 15.14-.38 15.27.54.53 3.56-5.76 4.58-9.53 2-7.41 2.21-10.81 2.71-43.39.28-17.77.78-46.62 1.13-64.1.28-14.34.4-28.69.16-43.04-.53-4.93-.9-9.88-1.24-14.84-1.58-24.59-4.84-38.68-4.84-44.36 0-.53.02-1.71-.18-2.17-.06-.16-.3-.18-.44-.26zM362.6 65.97c-3.97-.02-14.1 4.1-14.1 5.73 0 2.27 3.78 6.16 8.28 8.54 3.6 1.9 7.2 2.19 18.04 1.42 7.44-.53 14.13-1.53 14.86-2.23 2.97-2.8-18.44-13.44-27.08-13.47zm77.62 2.24-11.8.53s-6.64 1.5-8.15 3.51c-5.52 5.02-5.79 8-5.79 8s3.91.9 7.24.97c3.32.06 22.88.5 27.6-1.68 2.12-.97 4.71-3.15 5.77-4.85 3.16-5.06-.09-6.48-14.87-6.48zM44.32 278.83q-2.59.8-4.55 1.3-1.96.48-3.7.75-1.74.27-3.48.36-1.74.09-3.97.09-6.68 0-10.96-1.39-4.29-1.38-7.76-4.77-4.73-4.54-7.31-10.7Q0 258.32 0 251.37q0-6.6 2.1-12.09 2.1-5.48 5.92-9.4 3.84-3.93 9.14-6.07 5.31-2.14 11.73-2.14 2.32 0 4.2.18 1.86.18 3.74.67 1.87.49 3.92 1.3 2.05.8 4.82 2.13v13.56l-1.88.62q-2.85-7.58-6.15-10.7-.71-.71-1.83-1.38-1.11-.67-2.36-1.16-1.25-.5-2.5-.8-1.25-.32-2.32-.32-3.3 0-6.24 1.97-2.94 1.96-5.17 5.3t-3.52 7.76q-1.3 4.41-1.3 9.32 0 5.44 1.43 10.25 1.43 4.82 3.88 8.43 2.45 3.6 5.7 5.75 3.26 2.14 6.92 2.14 4.55 0 8.16-3.57 3.6-3.56 7.18-11.5l2.4 1.25zM83.73 261.08q0-4.1-.67-7.48-.67-3.4-1.87-5.8-1.2-2.4-2.9-3.75-1.7-1.33-3.74-1.33-3.93 0-6.3 4.54-2.35 4.55-2.35 11.95 0 8.56 2.31 13.33 2.32 4.77 6.78 4.77 4.2 0 6.47-4.37 2.27-4.37 2.27-11.86zm11.68-3.2q0 5.7-1.6 10.16t-4.5 7.53q-2.9 3.08-7.05 4.73-4.15 1.65-9.23 1.65-9.36 0-14.09-5.04-4.72-5.04-4.72-14.84 0-5.53 1.6-10 1.6-4.45 4.6-7.57 2.98-3.12 7.17-4.82 4.2-1.69 9.45-1.69 8.92 0 13.64 5.08 4.73 5.09 4.73 14.8zM150.7 280.08v-1.88q1.25-.26 1.7-.7.97-.72 1.37-2.6.4-1.87.58-5.88l.63-15.42q0-.18.04-.32.05-.13.05-.31 0-4.19-1.65-6.1-1.65-1.93-5.3-1.93-1.97 0-3.44.5-1.47.49-3.8 2v21.58q0 2.4.14 3.97.13 1.56.58 2.5.45.93 1.3 1.56.84.62 2.27 1.15v1.88h-19.7v-1.88q1.5-.26 2.13-.7 1.87-1.35 2.23-8.48l.63-15.42v-.63q0-4.37-1.66-6.24-1.64-1.87-5.57-1.87-1.87 0-3.3.53-1.42.54-3.65 2.05v21.58q0 2.85.09 4.55.08 1.7.49 2.63.4.94 1.11 1.34.72.4 1.96.66v1.88h-19.61v-1.88q1.42-.26 2.31-.75.9-.5 1.43-1.47.54-.99.8-2.68.27-1.7.36-4.28l.62-17.2V251q0-1.96-.22-3.3-.22-1.34-.76-2.27-.53-.94-1.51-1.6-.98-.68-2.5-1.3v-1.79l15.43-2.5v5.54q2.14-1.7 3.88-2.77 1.73-1.07 3.34-1.7 1.6-.62 3.3-.84 1.7-.22 3.92-.22 3.93 0 6.07 1.38t3.47 4.77q2.32-1.78 4.15-2.99 1.83-1.2 3.48-1.91 1.65-.72 3.3-.98 1.65-.27 3.7-.27 4.9 0 7.93 2.76 1.43 1.34 2.05 3.26.63 1.91.63 5.03v19.71q0 2.5.18 4.15.17 1.65.62 2.63.45.98 1.3 1.51.84.54 2.18.9v1.87zM205.45 261.44q0-7.94-2.95-12.4-2.94-4.45-8.29-4.45-1.25 0-2.23.35-.98.36-2.5 1.34v20.24q0 4.82 1.7 7.32t4.9 2.5q4.2 0 6.78-4.1 2.59-4.11 2.59-10.8zm11.05-3.2q0 5.07-1.51 9.31-1.52 4.24-4.24 7.31-2.72 3.08-6.46 4.77-3.75 1.7-8.2 1.7-1.97 0-3.22-.27-1.25-.27-3.38-.98v4.9q0 3.3.35 5.49.36 2.18 1.2 3.6.85 1.43 2.28 2.15 1.43.71 3.57 1.07v2.14h-22.74v-2.14q1.42-.36 2.4-.9.99-.53 1.52-1.55.54-1.03.76-2.68.22-1.65.22-4.06v-37.54q0-3.74-.98-5.53-.98-1.78-3.39-2.5v-1.78l12.93-3.12 1.88 1.88v3.65q1.69-1.42 3.07-2.36t2.68-1.52q1.29-.58 2.54-.8 1.25-.22 2.85-.22 3.57 0 6.51 1.42 2.94 1.43 5 4.06 2.05 2.63 3.2 6.33 1.16 3.7 1.16 8.16zM252.08 281.95l-2.4-1.25v-4.28q-2.06 1.43-3.7 2.37-1.66.93-3.22 1.51-1.56.58-3.12.8-1.56.23-3.43.23-10.52 0-10.52-11.42v-20.6q0-6.33-4.9-7.4v-1.78l14.08-1.6 1.88 2.85-.63 23.36v.63q0 5.26 1.65 7.3 1.65 2.06 5.84 2.06 1.52 0 2.76-.27 1.25-.27 3.3-1.16l.63-22.74q0-3.65-1.34-5.53-1.34-1.87-4.81-3.12v-1.78l15.33-1.87 1.25 1.87-.62 28.9v.62q0 1.96.18 3.2.17 1.25.7 2.06.54.8 1.52 1.29.99.49 2.5.85v1.78zM295.15 277.58q-1.78 1.07-3.12 1.83t-2.54 1.16q-1.2.4-2.45.58-1.25.18-2.77.18-5.53 0-8.38-2.68-2.85-2.67-2.85-7.76l.62-22.82-4.28-5.53v-2.41q1.34-.53 2.36-.98 1.03-.45 1.83-.98.8-.54 1.6-1.2.81-.67 1.79-1.66 1.25-1.24 2.05-2.18.8-.94 2.05-2.9l4.28 1.88-1.25 8.29 7.4-.63q1.7 0 2.68.85.98.85.98 2.27 0 1.79-1.34 2.9-1.33 1.12-3.56 1.12h-6.16v20.86q0 2.86.54 4.28.53 1.43 1.78 2.32 1.25.8 2.9 1.12 1.65.3 5.22.3z"/><path d="M320.83 251.81q0-2.85-.13-4.06-.14-1.2-.67-2.36-.54-1.34-1.83-2.1-1.3-.75-2.99-.75-3.65 0-6.06 3.12-1.07 1.43-1.56 2.94-.49 1.52-.85 4.46h12.93zm10.08-.98q0 2.76-.8 7.13h-23.37V261.35q0 .9.1 1.6l.17 1.39q.09.67.36 1.56.98 4.1 4.14 6.38 3.17 2.27 8.25 2.27 1.25 0 2.32-.09 1.07-.09 2.19-.36 1.1-.26 2.36-.75 1.25-.5 2.85-1.2l1.25.62q-.45.98-.71 1.74-.27.75-.54 1.02-3.3 3.21-7.4 4.68-4.1 1.47-8.83 1.47-3.74 0-6.82-1.51-3.07-1.52-5.35-4.2-2.27-2.67-3.52-6.37t-1.25-8.07q0-5.08 1.43-9.36 1.42-4.28 4.05-7.4t6.2-4.86q3.57-1.74 7.85-1.74 6.86 0 10.97 3.43 4.1 3.43 4.1 9.23zM365.68 244.68q0 2.14-.53 3.83-.54 1.7-2.32 4.55-4.28-3.48-7.49-3.48-1.96 0-4.2 3.12v16.32q0 2.4.32 3.92.31 1.52 1.2 2.55.9 1.02 2.46 1.6 1.56.58 4.06 1.12v1.87h-24v-1.88q1.52-.53 2.42-1.1.89-.59 1.42-1.57.54-.98.76-2.54.22-1.56.31-3.97l.63-18.46v-.44q0-3.21-1.07-4.82-1.07-1.6-3.93-2.76v-1.79l15.43-2.58-.36 9.27h.36q2.67-4.9 5-7.04 2.31-2.14 4.9-2.14 2.05 0 3.34 1.78 1.3 1.78 1.3 4.64zM132.6 353.73q-2.6.8-4.55 1.3-1.96.49-3.7.75-1.74.27-3.48.36-1.74.09-3.97.09-6.69 0-10.97-1.38-4.28-1.39-7.75-4.77-4.73-4.55-7.32-10.7-2.58-6.16-2.58-13.11 0-6.6 2.1-12.08 2.09-5.49 5.92-9.41 3.84-3.93 9.14-6.07 5.3-2.14 11.73-2.14 2.32 0 4.19.18 1.87.18 3.75.67 1.87.5 3.92 1.3t4.81 2.13v13.56l-1.87.62q-2.85-7.58-6.15-10.7-.71-.71-1.83-1.38-1.11-.67-2.36-1.16-1.25-.49-2.5-.8-1.25-.31-2.32-.31-3.3 0-6.24 1.96-2.94 1.96-5.17 5.3-2.23 3.35-3.52 7.76-1.3 4.42-1.3 9.32 0 5.44 1.43 10.25 1.43 4.82 3.88 8.43 2.45 3.61 5.7 5.75 3.26 2.14 6.92 2.14 4.54 0 8.16-3.56 3.6-3.57 7.17-11.5l2.41 1.24zM141.87 354.98v-1.87q1.42-.27 2.32-.8.89-.54 1.42-1.52.54-.98.8-2.63.27-1.65.36-4.24l.63-17.2v-16.6q0-2.67-.05-4.45-.04-1.78-.13-2.99-.09-1.2-.27-2.1-.18-.88-.44-1.78-.36-1.25-.9-1.91-.53-.67-1.96-1.56v-1.88l13.29-2.4 2.14 1.78q-.45 2.85-.67 4.9-.22 2.05-.36 4.28-.13 2.23-.18 5.18-.04 2.94-.04 7.49v29.24q0 2.68.22 4.33.23 1.65.8 2.67.59 1.03 1.48 1.47.89.45 2.23.72v1.87zM197.24 356.85l-2.4-1.25v-4.28q-2.06 1.43-3.7 2.37-1.65.93-3.21 1.51-1.57.58-3.13.8-1.56.23-3.43.23-10.52 0-10.52-11.42v-20.6q0-6.32-4.9-7.4v-1.78l14.08-1.6 1.88 2.85-.63 23.36v.63q0 5.26 1.65 7.3 1.65 2.06 5.84 2.06 1.52 0 2.77-.27 1.24-.26 3.3-1.16l.62-22.74q0-3.65-1.34-5.52-1.34-1.88-4.81-3.12v-1.79l15.33-1.87 1.25 1.87-.62 28.9v.62q0 1.96.18 3.2.18 1.26.71 2.06t1.52 1.3q.98.48 2.5.84v1.78zM245.3 336.08q0-3.3-.7-6.7-.72-3.38-1.8-5.16-.62-.98-1.6-1.83-.98-.85-2.18-1.52-1.2-.67-2.5-1.02-1.3-.36-2.45-.36-.98 0-1.87.18-.9.18-2.94.9v21.48q0 9.27 6.42 9.27 2.05 0 3.83-1.15 1.78-1.16 3.08-3.22 1.29-2.05 2-4.81.72-2.76.72-6.06zm11.06-2.86q0 4.9-1.56 9.1-1.56 4.19-4.32 7.27-2.77 3.07-6.56 4.86-3.79 1.78-8.16 1.78-1.87 0-3.12-.27-1.24-.27-3.38-.98-2.06-.9-3.04-.9-1.78 0-4.99 2.15l-3.66-2.77 1.25-17.56V307q0-3.56-.53-6.95-.36-2.05-.9-2.9-.53-.84-2.31-1.82v-1.88l12.3-2.4 3.12 1.78-1.25 19.08v6.15q1.61-1.42 2.9-2.4 1.3-.98 2.54-1.52 1.25-.53 2.55-.76 1.29-.22 2.98-.22 3.66 0 6.65 1.43 2.98 1.42 5.08 4.05t3.25 6.34q1.16 3.7 1.16 8.24zM209.47 440.14c2.3-.12 4.54.38 6.63 1.31 2.47 1.28 6.16 4.89 9.58 9.37 3.52 4.61 7.63 8.62 10.22 9.96 5.57 2.88 23.98 4.83 33.55 3.55 13.04-1.74 27.56-8.48 37.18-17.28 1.62-1.48 3.19-2.7 3.48-2.7.3 0 2.92 2.6 5.85 5.75 3.75 4.05 5.08 5.82 4.5 6-2.23.71-19 9.7-21.86 11.72-6.17 4.37-10.57 10.17-12.04 15.86a49.44 49.44 0 0 1-1.4 4.45c-1.13 2.94-.96 6.97.57 13.75 2.29 10.14 1.64 13.37-3.16 15.69-3.98 1.93-4.69 1.54-6.38-3.5-2.97-8.85-3.1-20.51-.35-32.2.84-3.6.96-4.91.5-5.38-.71-.71-5.35-.75-12.96-.11-4.27.36-6.13.23-11.22-.74-15.47-2.97-26.8-8.77-35.7-18.28-3.5-3.75-4.43-5.11-5.14-7.57a43.04 43.04 0 0 0-2.41-6.1l-1.55-3.08 1.37-.35.75-.12zM310.15 404.5l.36 3.64c.88 9.08 3.88 16.41 9.66 23.63 6.17 7.7 15.05 14.38 33.6 25.24 5.98 3.5 9.22 5.7 9.23 6.28.02 1.1-2.81 3.56-4.6 4.01-2.87.72-16.7-3.42-24.61-7.37-15.3-7.63-25.7-20.43-29.52-36.31-1.06-4.42-1.3-11.2-.5-13.86.24-.81.97-2.33 1.61-3.37.96-1.55 1.5-1.89 2.97-1.89h1.8z"/><path d="m326.5 376.77 1.02 1.26c1.58 1.96 2.63 6.17 3.46 13.81.42 3.85 1.12 8.1 1.55 9.43 4.76 14.65 10.61 23.78 22.83 35.62 5.98 5.8 20.78 17.73 23.08 18.61.47.18.73 1.15.73 2.66 0 2.78.32 2.77-7.79.11-18.31-6.01-33.48-18.41-44.16-36.13-2.4-3.98-2.64-4.74-5.17-16.9-2.86-13.7-2.9-14.17-1.9-18.24.87-3.51 2-5.62 4.4-8.16l1.94-2.07zM236.74 395.43c4.06.1 8.18.33 12.1 1.5 6.02 2.02 14.45 6.57 24.24 13.06 10.88 7.21 19.46 11.91 24.92 13.64 4.47 1.42 4.57 1.59 5.05 8.31l.33 4.67-4.25 1.66c-10.11 3.98-17.23 5.44-28.75 5.91-13.17.55-24.92-.84-53.59-6.33-24.85-4.75-24.28-4.7-32-3.28-13.36 2.44-21.09 5.8-27.87 12.1-1.63 1.51-1.84 1.56-5.12 1.18-1.87-.22-3.96-.6-4.62-.86-1.91-.72-1.5-2.96 1.26-7.07 7.1-10.52 18.58-16.06 35.46-17.08 12.57-.77 22.05.49 44.47 5.9 20.03 4.83 24.03 5.47 35.9 5.78l10.31.27 2.75-1.5c1.5-.82 2.73-1.64 2.7-1.81-.05-.54-7.86-7.13-13.2-11.13-11.62-8.73-23.08-13.68-33.75-14.58l-4.13-.35-.58-2.81c-1.18-5.67-1.14-5.8 1.88-6.6 2.12-.55 4.32-.5 6.49-.58z"/><path d="m202.05 389.29 2.16.29c3.3.44 6.06 2.57 7.73 5.97 1.29 2.64 1.5 3.87 1.91 11.47.26 4.69.48 9.43.5 10.54l.02 2.02h-5.11c-6.04 0-5.2 1.55-6.73-12.42-1.07-9.82-1.11-10.78-.7-15.52l.22-2.35zM499.36 77.62l6.9.82c10.29 1.22 24 6.84 29.64 12.15 7.2 6.76 15.59 21.58 15.59 27.53 0 5.07-1.9 6.5-4.06 3.07-1.91-3.03-11.03-10.13-13-10.13-1.28 0-1.8 4.29-1.8 14.66 0 11.14-.63 15.84-2.63 19.55-1.46 2.69-2.83 4.89-3.05 4.89-.22 0-2.18-3.9-4.37-8.65-2.25-4.66-4.93-9.2-8.5-12.98l-4.53-4.34-.97 4.34c-1.88 8.38-2.44 9.65-6.2 14.12-4.77 5.67-5.92 5.64-7.08-.19-1.5-7.5-10.91-15.7-21.31-18.56-4.93-1.35-10.92-3.3-13.31-4.35l-4.36-1.9 8.49-4.16c11.15-5.45 24.2-17.52 29.94-27.7l4.6-8.17zM303.71 78.14c2.38.01 3.18 1.99 4 3.89 3.1 7.46 22.95 26.67 32.3 31.24 4.67 2.29 8.5 4.38 8.5 4.65 0 .26-5.9 2.28-13.1 4.48-14.7 4.48-23.74 11.61-25.43 20.06-.52 2.58-1.88 4.69-3.03 4.69-2.78 0-7.73-8.2-9.8-16.24l-1.66-6.47-3.42 3.22c-1.88 1.77-5.56 7.21-8.16 12.1-2.61 4.9-5.35 8.9-6.1 8.9s-2.4-3.51-3.67-7.8c-2.63-8.85-2.96-17.8-.91-24.92 1.99-6.95-1.75-6.5-11.2 1.33l-7.5 6.2-.48-4.94c-.7-7 6.5-20.18 14.88-27.26 7.18-6.07 19.57-11.24 30.53-12.74a32.9 32.9 0 0 1 4.25-.39zM419.02 70.75z"/></svg>