<?xml version="1.0" encoding="UTF-8"?>
<!DOCTYPE svg PUBLIC "-//W3C//DTD SVG 1.1//EN" "http://www.w3.org/Graphics/SVG/1.1/DTD/svg11.dtd">
<svg version="1.1" xmlns="http://www.w3.org/2000/svg" xmlns:xlink="http://www.w3.org/1999/xlink" x="0" y="0" width="551.489" height="518.643" viewBox="0, 0, 551.489, 518.643">
  <g id="Motiv" transform="translate(-0, 0)">
    <path d="M97.819,221.761 Q95.233,222.564 93.271,223.054 Q91.309,223.545 89.571,223.812 Q87.832,224.08 86.093,224.169 Q84.354,224.258 82.125,224.258 Q75.437,224.258 71.157,222.876 Q66.877,221.494 63.399,218.105 Q58.673,213.558 56.087,207.405 Q53.502,201.252 53.502,194.297 Q53.502,187.698 55.597,182.214 Q57.692,176.731 61.527,172.807 Q65.361,168.884 70.667,166.744 Q75.972,164.603 82.392,164.603 Q84.711,164.603 86.583,164.782 Q88.456,164.96 90.329,165.451 Q92.201,165.941 94.252,166.744 Q96.303,167.546 99.067,168.884 L99.067,182.437 L97.195,183.062 Q94.341,175.482 91.042,172.361 Q90.329,171.648 89.214,170.979 Q88.099,170.31 86.851,169.82 Q85.603,169.329 84.354,169.017 Q83.106,168.705 82.036,168.705 Q78.736,168.705 75.794,170.667 Q72.851,172.629 70.622,175.973 Q68.393,179.316 67.1,183.73 Q65.807,188.144 65.807,193.049 Q65.807,198.488 67.234,203.303 Q68.66,208.118 71.112,211.73 Q73.565,215.341 76.819,217.481 Q80.074,219.621 83.73,219.621 Q88.278,219.621 91.889,216.054 Q95.5,212.487 99.067,204.551 L101.475,205.8 z" fill="#000000"/>
    <path d="M133.486,220.513 Q131.703,221.583 130.366,222.341 Q129.028,223.099 127.824,223.5 Q126.62,223.901 125.372,224.08 Q124.124,224.258 122.608,224.258 Q117.079,224.258 114.226,221.583 Q111.372,218.908 111.372,213.825 L111.997,190.998 L107.717,185.469 L107.717,183.062 Q109.054,182.527 110.08,182.081 Q111.105,181.635 111.907,181.1 Q112.71,180.565 113.513,179.896 Q114.315,179.227 115.296,178.246 Q116.544,176.998 117.347,176.062 Q118.149,175.125 119.398,173.164 L123.678,175.036 L122.429,183.329 L129.831,182.705 Q131.525,182.705 132.506,183.552 Q133.486,184.399 133.486,185.826 Q133.486,187.609 132.149,188.724 Q130.811,189.838 128.582,189.838 L122.429,189.838 L122.429,210.704 Q122.429,213.558 122.965,214.984 Q123.5,216.411 124.748,217.303 Q125.996,218.105 127.646,218.417 Q129.296,218.729 132.862,218.729 z" fill="#000000"/>
    <path d="M158.632,223.009 L158.632,221.137 Q160.059,220.602 160.951,220.022 Q161.842,219.443 162.377,218.462 Q162.912,217.481 163.18,215.921 Q163.448,214.36 163.537,211.952 L164.161,197.15 L164.161,196.437 Q164.161,191.889 162.511,189.928 Q160.862,187.966 157.116,187.966 Q155.511,187.966 154.04,188.367 Q152.569,188.768 149.983,189.838 L149.983,211.952 Q149.983,214.36 150.161,215.921 Q150.34,217.481 150.741,218.506 Q151.142,219.532 151.855,220.111 Q152.569,220.691 153.639,221.137 L153.639,223.009 L134.022,223.009 L134.022,221.137 Q135.627,220.78 136.518,220.334 Q137.41,219.889 137.945,218.952 Q138.48,218.016 138.658,216.366 Q138.837,214.717 138.926,211.952 L139.55,194.743 L139.55,171.648 Q139.55,167.814 138.525,166.164 Q137.499,164.514 134.646,163.355 L134.646,161.483 L148.735,159.075 L151.231,161.483 L149.983,186.718 Q152.212,185.112 153.996,183.998 Q155.779,182.883 157.339,182.259 Q158.9,181.635 160.46,181.367 Q162.021,181.1 163.893,181.1 Q168.708,181.1 171.74,183.597 Q173.256,184.845 173.925,186.807 Q174.594,188.768 174.594,192.246 L174.594,211.952 Q174.594,214.628 174.727,216.277 Q174.861,217.927 175.307,218.863 Q175.753,219.799 176.6,220.29 Q177.447,220.78 178.874,221.137 L178.874,223.009 z" fill="#000000"/>
    <path d="M213.917,224.882 L211.51,223.634 L211.51,219.354 Q209.459,220.78 207.809,221.717 Q206.16,222.653 204.599,223.232 Q203.039,223.812 201.478,224.035 Q199.918,224.258 198.045,224.258 Q187.523,224.258 187.523,212.844 L187.523,192.246 Q187.523,185.915 182.619,184.845 L182.619,183.062 L196.708,181.457 L198.58,184.31 L197.956,207.672 L197.956,208.297 Q197.956,213.558 199.606,215.608 Q201.255,217.659 205.446,217.659 Q206.962,217.659 208.211,217.392 Q209.459,217.124 211.51,216.233 L212.134,193.494 Q212.134,189.838 210.796,187.966 Q209.459,186.093 205.981,184.845 L205.981,183.062 L221.318,181.189 L222.567,183.062 L221.943,211.952 L221.943,212.577 Q221.943,214.538 222.121,215.787 Q222.299,217.035 222.834,217.838 Q223.369,218.64 224.35,219.131 Q225.331,219.621 226.847,219.978 L226.847,221.761 z" fill="#000000"/>
    <path d="M230.592,223.009 L230.592,221.137 Q232.019,220.869 232.911,220.334 Q233.802,219.799 234.337,218.819 Q234.872,217.838 235.14,216.188 Q235.407,214.538 235.496,211.952 L236.121,194.743 L236.121,178.157 Q236.121,175.482 236.076,173.699 Q236.031,171.915 235.942,170.712 Q235.853,169.508 235.675,168.616 Q235.496,167.724 235.229,166.833 Q234.872,165.584 234.337,164.916 Q233.802,164.247 232.375,163.355 L232.375,161.483 L245.662,159.075 L247.802,160.858 Q247.356,163.712 247.133,165.763 Q246.91,167.814 246.776,170.043 Q246.643,172.272 246.598,175.215 Q246.553,178.157 246.553,182.705 L246.553,211.952 Q246.553,214.628 246.776,216.277 Q246.999,217.927 247.579,218.952 Q248.159,219.978 249.05,220.424 Q249.942,220.869 251.279,221.137 L251.279,223.009 z" fill="#000000"/>
    <path d="M279.279,223.009 L279.279,221.137 Q280.705,220.602 281.597,220.022 Q282.489,219.443 283.024,218.462 Q283.559,217.481 283.826,215.921 Q284.094,214.36 284.183,211.952 L284.807,197.15 L284.807,196.437 Q284.807,191.889 283.157,189.928 Q281.508,187.966 277.763,187.966 Q276.158,187.966 274.686,188.367 Q273.215,188.768 270.629,189.838 L270.629,211.952 Q270.629,214.36 270.808,215.921 Q270.986,217.481 271.387,218.506 Q271.788,219.532 272.502,220.111 Q273.215,220.691 274.285,221.137 L274.285,223.009 L254.668,223.009 L254.668,221.137 Q256.273,220.78 257.165,220.334 Q258.056,219.889 258.591,218.952 Q259.126,218.016 259.305,216.366 Q259.483,214.717 259.572,211.952 L260.196,194.743 L260.196,171.648 Q260.196,167.814 259.171,166.164 Q258.145,164.514 255.292,163.355 L255.292,161.483 L269.381,159.075 L271.878,161.483 L270.629,186.718 Q272.858,185.112 274.642,183.998 Q276.425,182.883 277.986,182.259 Q279.546,181.635 281.107,181.367 Q282.667,181.1 284.54,181.1 Q289.355,181.1 292.387,183.597 Q293.902,184.845 294.571,186.807 Q295.24,188.768 295.24,192.246 L295.24,211.952 Q295.24,214.628 295.374,216.277 Q295.507,217.927 295.953,218.863 Q296.399,219.799 297.246,220.29 Q298.093,220.78 299.52,221.137 L299.52,223.009 z" fill="#000000"/>
    <path d="M408.788,-0 C410.497,-0.005 412.205,0.074 413.913,0.131 C435.272,1.086 441.287,4.704 444.604,18.594 C447.417,30.374 460.92,64.186 467.147,75.039 C476.598,91.515 476.53,91.88 462.233,101.173 C453.769,106.675 441.729,117.831 441.729,120.17 C441.729,120.983 443.525,124.493 445.72,127.97 C455.571,143.575 458.872,161.221 457.489,178.99 L457.39,180.191 C457.39,180.212 457.39,180.234 457.39,180.256 C457.348,181.736 457.328,183.216 457.263,184.696 C456.869,193.694 456.102,202.672 455.725,211.674 C455.31,221.569 455.183,231.471 455.166,241.373 C455.171,265.348 447.691,304.318 446.117,309.825 C441.091,327.419 429.99,353.924 423.81,366.627 C420.813,372.786 420.315,373.472 415.65,377.865 C406.873,386.129 395.143,394.131 385.098,398.708 L380.52,400.794 L383.802,400.599 C391.121,400.164 408.964,389.386 430.294,372.515 C434.269,369.371 437.709,366.799 437.939,366.799 C438.714,366.799 440.034,369.181 440.034,370.579 C440.034,373.039 435.752,379.384 432.145,382.267 C413.741,396.978 398.751,406.169 386.175,410.453 C383.361,411.412 380.458,412.767 379.724,413.466 L378.388,414.735 L381.647,417.994 L386.469,416.6 C397.239,413.489 403.898,410.095 424.905,397.01 C440.934,387.027 441.111,386.965 441.111,391.326 C441.111,393.213 440.618,394.364 438.424,397.588 C436.945,399.761 435.431,401.923 435.057,402.393 C433.964,403.769 415.673,414.557 408.086,418.299 C404.251,420.19 398.299,422.606 394.857,423.669 C385.734,426.485 385.723,426.494 388.414,429.559 C390.136,431.52 390.23,431.553 393.155,431.24 C399.978,430.509 412.224,426.588 422.205,421.938 C424.988,420.642 427.59,419.581 427.986,419.581 C428.382,419.581 429.492,420.283 430.452,421.14 C432.133,422.642 432.168,422.757 431.403,424.237 C430.109,426.741 425.415,431.036 421.97,432.866 C420.204,433.805 414.094,435.96 408.392,437.657 C402.69,439.353 398.024,440.935 398.024,441.172 C398.024,441.408 399.03,442.403 400.26,443.383 C405.934,447.903 406.724,449.542 404.318,451.802 C402.762,453.264 400.727,453.289 396.678,451.896 C392.494,450.457 391.335,450.513 390.57,452.191 C390.227,452.945 389.945,453.915 389.945,454.345 C389.945,455.403 388.546,455.329 384.911,454.079 C374.159,450.379 364.673,442.403 356.054,429.814 C347.867,417.855 342.75,402.34 342.14,387.625 C341.837,380.326 342.684,376.08 345.166,372.454 C347.073,369.669 348.747,369.569 350.477,372.137 C352.368,374.943 353.252,378.652 353.873,386.395 C355.804,410.441 364.541,428.637 380.5,441.846 C383.005,443.919 383.128,443.966 382.147,442.471 C371.385,426.068 363.527,408.197 361.125,394.656 C360.404,390.594 360.253,387.578 360.465,381.461 C360.756,373.059 361.765,368.043 364.332,362.238 C365.752,359.027 366.488,358.618 370.412,358.853 L372.692,358.99 L372.963,314.825 C373.113,290.535 373.234,264.976 373.233,258.027 C373.074,244.336 371.921,230.675 370.65,217.049 C369.706,211.008 368.488,205.015 367.282,199.022 C361.927,173.238 361.734,171.317 363.198,158.426 C364.044,150.983 364.453,144.597 364.108,144.236 C363.08,143.158 349.953,156.575 347.539,161.17 C346.311,163.506 344.217,170.496 343.734,176.249 C343.539,178.494 343.402,180.743 343.161,182.984 L343.213,183.062 L342.589,211.952 L342.589,212.577 Q342.589,214.538 342.767,215.787 Q342.946,217.035 343.481,217.838 Q344.016,218.64 344.997,219.131 Q345.977,219.621 347.493,219.978 L347.493,221.761 L334.564,224.882 L332.156,223.634 L332.156,219.353 Q330.105,220.78 328.456,221.717 Q326.806,222.653 325.246,223.232 Q323.685,223.812 322.125,224.035 Q320.564,224.258 318.692,224.258 Q308.17,224.258 308.17,212.844 L308.169,192.246 Q308.17,185.915 303.265,184.845 L303.265,183.062 L317.354,181.456 L319.227,184.31 L318.602,207.672 L318.602,208.297 Q318.602,213.558 320.252,215.608 Q321.902,217.659 326.093,217.659 Q327.608,217.659 328.857,217.392 Q330.105,217.124 332.156,216.233 L332.78,193.494 Q332.78,189.838 331.443,187.966 Q330.105,186.093 326.628,184.845 L326.628,183.062 L337.969,181.677 C336.32,176.608 335.874,171.243 335.763,165.943 C335.718,150.912 337.849,146.325 351.643,131.74 C357.315,125.743 361.975,120.391 361.998,119.846 C362.043,118.775 340.947,100.092 334.441,95.441 C329.53,91.931 329.518,90.855 334.285,81.623 C345.287,60.319 354.921,37.534 358.798,23.646 C362.59,10.06 363.725,7.729 367.674,5.406 C378.012,0.799 392.193,0.418 403.373,0.005 C405.178,0.009 406.983,0.005 408.788,-0 z M429.33,142.004 L429.043,142.06 C428.37,142.445 428.673,143.556 428.762,144.142 C429.174,146.209 429.062,157.886 430.763,163.638 C433.225,172.825 433.263,182.508 432.626,191.941 C432.647,192.648 432.588,193.352 432.484,194.05 L432.483,194.058 C432.168,199.233 431.587,204.388 431.05,209.543 C430.888,210.909 430.767,212.292 430.434,213.63 C429.923,220.903 429.255,228.162 428.415,235.405 C426.46,250.283 427.399,309.606 425.322,318.049 C423.664,324.791 409.428,365.394 406.948,370.568 C405.901,372.751 405.139,374.632 405.255,374.748 C405.757,375.25 408.762,373.141 411.092,370.65 C418.4,362.837 440.344,299.996 441.79,285.434 C442.369,279.6 445.388,261.182 445.029,239.362 C444.917,232.548 444.831,218.976 444.838,209.201 C444.83,200.88 445.102,192.563 445.469,184.252 C445.777,177.347 444.578,170.522 443.268,163.776 C441.829,157.532 435.924,144.673 429.636,142.008 L429.33,142.004 z M407.739,152.332 C407.195,152.492 406.594,152.52 406.109,152.812 C402.968,154.702 401.865,159.829 401.112,163.036 C399.671,169.177 399.223,175.451 398.967,181.733 C400.061,196.274 400.762,210.838 401.354,225.406 C401.707,231.065 401.814,232.151 401.941,239.187 C401.979,241.3 401.915,243.414 401.903,245.527 C402.383,265.496 401.823,285.463 400.52,305.389 C400.314,308.54 399.975,311.68 399.702,314.825 C395.629,355.991 399.074,355.051 395.336,366.852 C394.179,370.506 393.334,373.599 393.459,373.724 C393.584,373.849 394.553,373.29 395.612,372.482 C398.103,370.582 400.874,366.361 402.528,361.946 C405.291,354.573 416.824,319.751 417.446,277.655 C418.007,239.695 419.018,184.869 419.018,184.869 L418.914,183.318 C418.512,175.077 416.553,167.039 414.492,159.081 C413.174,156.819 411.871,154.221 409.508,152.853 C408.976,152.545 408.328,152.506 407.739,152.333 z M383.971,151.979 C382.906,152.771 383.378,152.351 382.536,153.217 C379.905,157.135 379.758,163.464 379.527,168.027 C379.318,172.133 379.29,177.167 379.355,181.123 C379.503,190.077 379.973,199.012 380.583,207.944 C381.327,213.824 381.886,219.75 381.841,225.683 C382.171,228.902 382.409,242.342 382.394,256.921 C382.38,270.995 382.526,296.204 382.72,312.94 C382.945,332.425 382.854,348.778 382.467,358.404 C382.134,366.672 381.967,373.542 382.094,373.669 C382.63,374.205 385.655,367.908 386.671,364.142 C388.671,356.727 388.883,353.329 389.384,320.75 C389.657,302.977 390.164,274.135 390.512,256.658 C390.785,242.312 390.905,227.961 390.67,213.614 C390.144,208.677 389.775,203.726 389.432,198.773 C387.846,174.182 384.593,160.088 384.593,154.408 C384.585,153.882 384.606,152.698 384.413,152.235 C384.347,152.078 384.118,152.065 383.971,151.979 z M362.599,65.965 L362.599,65.965 C358.635,65.954 348.508,70.079 348.508,71.704 C348.508,73.97 352.278,77.861 356.778,80.239 C360.388,82.147 363.988,82.429 374.82,81.656 C382.263,81.125 388.952,80.125 389.684,79.434 C392.651,76.637 371.237,65.988 362.599,65.965 z M440.222,68.212 L428.415,68.739 C428.415,68.739 421.778,70.245 420.273,72.252 C414.753,77.27 414.484,80.241 414.484,80.241 C414.484,80.241 418.392,81.152 421.716,81.218 C425.04,81.284 444.596,81.722 449.328,79.541 C451.44,78.568 454.032,76.386 455.089,74.694 C458.253,69.629 455.003,68.212 440.222,68.212 z" fill="#000000"/>
    <g>
      <path d="M44.317,278.83 Q41.731,279.632 39.77,280.123 Q37.808,280.613 36.069,280.881 Q34.33,281.148 32.591,281.237 Q30.853,281.326 28.623,281.326 Q21.936,281.326 17.656,279.944 Q13.375,278.562 9.898,275.174 Q5.172,270.626 2.586,264.473 Q0,258.321 0,251.365 Q0,244.767 2.095,239.283 Q4.191,233.799 8.025,229.876 Q11.86,225.952 17.165,223.812 Q22.471,221.672 28.891,221.672 Q31.209,221.672 33.082,221.85 Q34.954,222.029 36.827,222.519 Q38.7,223.01 40.75,223.812 Q42.801,224.615 45.566,225.952 L45.566,239.506 L43.693,240.13 Q40.84,232.551 37.54,229.43 Q36.827,228.716 35.712,228.048 Q34.598,227.379 33.349,226.888 Q32.101,226.398 30.853,226.086 Q29.604,225.774 28.534,225.774 Q25.235,225.774 22.292,227.736 Q19.35,229.697 17.121,233.041 Q14.891,236.385 13.598,240.799 Q12.305,245.213 12.305,250.117 Q12.305,255.556 13.732,260.372 Q15.159,265.187 17.611,268.798 Q20.063,272.409 23.318,274.549 Q26.573,276.69 30.228,276.69 Q34.776,276.69 38.387,273.123 Q41.999,269.556 45.566,261.62 L47.973,262.868 z" fill="#000000"/>
      <path d="M83.73,261.085 Q83.73,256.983 83.061,253.595 Q82.393,250.206 81.189,247.799 Q79.985,245.391 78.291,244.054 Q76.597,242.716 74.546,242.716 Q70.622,242.716 68.259,247.264 Q65.896,251.811 65.896,259.212 Q65.896,267.773 68.215,272.543 Q70.533,277.314 74.992,277.314 Q79.182,277.314 81.456,272.944 Q83.73,268.575 83.73,261.085 z M95.411,257.875 Q95.411,263.582 93.806,268.04 Q92.201,272.499 89.303,275.575 Q86.405,278.651 82.259,280.301 Q78.112,281.951 73.03,281.951 Q63.667,281.951 58.941,276.913 Q54.215,271.874 54.215,262.066 Q54.215,256.537 55.82,252.079 Q57.425,247.62 60.412,244.499 Q63.4,241.378 67.59,239.684 Q71.781,237.99 77.042,237.99 Q85.959,237.99 90.685,243.073 Q95.411,248.155 95.411,257.875 z" fill="#000000"/>
      <path d="M150.696,280.078 L150.696,278.205 Q151.945,277.938 152.391,277.492 Q153.372,276.779 153.773,274.906 Q154.174,273.034 154.352,269.021 L154.977,253.595 Q154.977,253.416 155.021,253.283 Q155.066,253.149 155.066,252.97 Q155.066,248.78 153.416,246.862 Q151.766,244.945 148.111,244.945 Q146.149,244.945 144.677,245.436 Q143.206,245.926 140.888,247.442 L140.888,269.021 Q140.888,271.429 141.022,272.989 Q141.155,274.549 141.601,275.486 Q142.047,276.422 142.894,277.046 Q143.741,277.67 145.168,278.205 L145.168,280.078 L125.461,280.078 L125.461,278.205 Q126.977,277.938 127.602,277.492 Q129.474,276.155 129.831,269.021 L130.455,253.595 L130.455,252.97 Q130.455,248.601 128.805,246.729 Q127.156,244.856 123.232,244.856 Q121.36,244.856 119.933,245.391 Q118.506,245.926 116.277,247.442 L116.277,269.021 Q116.277,271.874 116.366,273.569 Q116.455,275.263 116.857,276.199 Q117.258,277.135 117.971,277.537 Q118.685,277.938 119.933,278.205 L119.933,280.078 L100.316,280.078 L100.316,278.205 Q101.742,277.938 102.634,277.448 Q103.526,276.957 104.061,275.976 Q104.596,274.995 104.863,273.301 Q105.131,271.607 105.22,269.021 L105.844,251.811 L105.844,251.009 Q105.844,249.047 105.621,247.709 Q105.398,246.372 104.863,245.436 Q104.328,244.499 103.347,243.831 Q102.367,243.162 100.851,242.538 L100.851,240.754 L116.277,238.258 L116.277,243.786 Q118.417,242.092 120.156,241.022 Q121.895,239.952 123.5,239.328 Q125.105,238.703 126.799,238.48 Q128.493,238.258 130.722,238.258 Q134.646,238.258 136.786,239.64 Q138.926,241.022 140.264,244.41 Q142.582,242.627 144.41,241.423 Q146.238,240.219 147.888,239.506 Q149.537,238.793 151.187,238.525 Q152.837,238.258 154.887,238.258 Q159.792,238.258 162.823,241.022 Q164.25,242.359 164.874,244.276 Q165.499,246.194 165.499,249.315 L165.499,269.021 Q165.499,271.518 165.677,273.167 Q165.855,274.817 166.301,275.798 Q166.747,276.779 167.594,277.314 Q168.441,277.849 169.779,278.205 L169.779,280.078 z" fill="#000000"/>
      <path d="M205.446,261.442 Q205.446,253.505 202.504,249.047 Q199.561,244.589 194.211,244.589 Q192.963,244.589 191.982,244.945 Q191.001,245.302 189.485,246.283 L189.485,266.524 Q189.485,271.339 191.179,273.836 Q192.874,276.333 196.084,276.333 Q200.275,276.333 202.861,272.231 Q205.446,268.129 205.446,261.442 z M216.503,258.231 Q216.503,263.314 214.988,267.55 Q213.472,271.785 210.752,274.862 Q208.032,277.938 204.287,279.632 Q200.542,281.326 196.084,281.326 Q194.122,281.326 192.874,281.059 Q191.625,280.791 189.485,280.078 L189.485,284.982 Q189.485,288.282 189.842,290.466 Q190.198,292.651 191.046,294.078 Q191.893,295.504 193.319,296.218 Q194.746,296.931 196.886,297.288 L196.886,299.428 L174.148,299.428 L174.148,297.288 Q175.575,296.931 176.556,296.396 Q177.536,295.861 178.071,294.836 Q178.606,293.81 178.829,292.16 Q179.052,290.511 179.052,288.103 L179.052,250.563 Q179.052,246.818 178.071,245.034 Q177.091,243.251 174.683,242.538 L174.683,240.754 L187.613,237.633 L189.485,239.506 L189.485,243.162 Q191.179,241.735 192.561,240.799 Q193.944,239.863 195.237,239.283 Q196.53,238.703 197.778,238.48 Q199.026,238.258 200.631,238.258 Q204.198,238.258 207.141,239.684 Q210.083,241.111 212.134,243.741 Q214.185,246.372 215.344,250.072 Q216.503,253.773 216.503,258.231 z" fill="#000000"/>
      <path d="M252.082,281.951 L249.675,280.702 L249.675,276.422 Q247.624,277.849 245.974,278.785 Q244.324,279.721 242.764,280.301 Q241.203,280.881 239.643,281.103 Q238.083,281.326 236.21,281.326 Q225.688,281.326 225.688,269.913 L225.688,249.315 Q225.688,242.984 220.784,241.913 L220.784,240.13 L234.872,238.525 L236.745,241.378 L236.121,264.741 L236.121,265.365 Q236.121,270.626 237.77,272.677 Q239.42,274.728 243.611,274.728 Q245.127,274.728 246.375,274.46 Q247.624,274.193 249.675,273.301 L250.299,250.563 Q250.299,246.907 248.961,245.034 Q247.624,243.162 244.146,241.913 L244.146,240.13 L259.483,238.258 L260.732,240.13 L260.107,269.021 L260.107,269.645 Q260.107,271.607 260.286,272.855 Q260.464,274.104 260.999,274.906 Q261.534,275.709 262.515,276.199 Q263.496,276.69 265.012,277.046 L265.012,278.83 z" fill="#000000"/>
      <path d="M295.151,277.581 Q293.368,278.651 292.03,279.409 Q290.692,280.167 289.489,280.568 Q288.285,280.97 287.037,281.148 Q285.788,281.326 284.272,281.326 Q278.744,281.326 275.89,278.651 Q273.037,275.976 273.037,270.894 L273.661,248.066 L269.381,242.538 L269.381,240.13 Q270.719,239.595 271.744,239.149 Q272.769,238.703 273.572,238.168 Q274.374,237.633 275.177,236.965 Q275.98,236.296 276.96,235.315 Q278.209,234.067 279.011,233.13 Q279.814,232.194 281.062,230.232 L285.342,232.105 L284.094,240.398 L291.495,239.773 Q293.189,239.773 294.17,240.621 Q295.151,241.468 295.151,242.894 Q295.151,244.678 293.813,245.792 Q292.476,246.907 290.247,246.907 L284.094,246.907 L284.094,267.773 Q284.094,270.626 284.629,272.053 Q285.164,273.479 286.412,274.371 Q287.661,275.174 289.31,275.486 Q290.96,275.798 294.527,275.798 z" fill="#000000"/>
      <path d="M320.832,251.811 Q320.832,248.958 320.698,247.754 Q320.564,246.55 320.029,245.391 Q319.494,244.054 318.201,243.296 Q316.908,242.538 315.214,242.538 Q311.558,242.538 309.151,245.659 Q308.081,247.085 307.59,248.601 Q307.1,250.117 306.743,253.06 L319.673,253.06 z M330.908,250.83 Q330.908,253.595 330.105,257.964 L306.743,257.964 L306.743,258.945 Q306.743,260.461 306.743,261.352 Q306.743,262.244 306.832,262.957 Q306.921,263.671 307.011,264.34 Q307.1,265.008 307.367,265.9 Q308.348,270.002 311.514,272.276 Q314.679,274.55 319.762,274.55 Q321.01,274.55 322.08,274.46 Q323.15,274.371 324.265,274.104 Q325.379,273.836 326.628,273.346 Q327.876,272.855 329.481,272.142 L330.73,272.766 Q330.284,273.747 330.016,274.505 Q329.749,275.263 329.481,275.53 Q326.182,278.74 322.08,280.212 Q317.978,281.683 313.252,281.683 Q309.507,281.683 306.431,280.167 Q303.355,278.651 301.081,275.976 Q298.807,273.301 297.559,269.601 Q296.31,265.9 296.31,261.531 Q296.31,256.448 297.737,252.168 Q299.164,247.888 301.794,244.767 Q304.425,241.646 307.991,239.907 Q311.558,238.168 315.838,238.168 Q322.704,238.168 326.806,241.601 Q330.908,245.034 330.908,250.83 z" fill="#000000"/>
      <path d="M365.684,244.678 Q365.684,246.818 365.149,248.512 Q364.614,250.206 362.831,253.06 Q358.55,249.582 355.34,249.582 Q353.379,249.582 351.149,252.703 L351.149,269.021 Q351.149,271.429 351.461,272.944 Q351.774,274.46 352.665,275.486 Q353.557,276.511 355.117,277.091 Q356.678,277.67 359.175,278.205 L359.175,280.078 L335.188,280.078 L335.188,278.205 Q336.704,277.67 337.596,277.091 Q338.487,276.511 339.022,275.53 Q339.557,274.549 339.78,272.989 Q340.003,271.429 340.092,269.021 L340.717,250.563 L340.717,250.117 Q340.717,246.907 339.647,245.302 Q338.577,243.697 335.723,242.538 L335.723,240.754 L351.149,238.168 L350.793,247.442 L351.149,247.442 Q353.824,242.538 356.143,240.398 Q358.461,238.258 361.047,238.258 Q363.098,238.258 364.391,240.041 Q365.684,241.824 365.684,244.678 z" fill="#000000"/>
    </g>
    <g>
      <path d="M132.595,353.732 Q130.009,354.535 128.047,355.025 Q126.086,355.515 124.347,355.783 Q122.608,356.05 120.869,356.14 Q119.13,356.229 116.901,356.229 Q110.214,356.229 105.933,354.847 Q101.653,353.465 98.176,350.076 Q93.45,345.528 90.864,339.376 Q88.278,333.223 88.278,326.268 Q88.278,319.669 90.373,314.185 Q92.469,308.701 96.303,304.778 Q100.137,300.854 105.443,298.714 Q110.749,296.574 117.169,296.574 Q119.487,296.574 121.36,296.753 Q123.232,296.931 125.105,297.421 Q126.977,297.912 129.028,298.714 Q131.079,299.517 133.843,300.854 L133.843,314.408 L131.971,315.032 Q129.117,307.453 125.818,304.332 Q125.105,303.619 123.99,302.95 Q122.876,302.281 121.627,301.791 Q120.379,301.3 119.13,300.988 Q117.882,300.676 116.812,300.676 Q113.513,300.676 110.57,302.638 Q107.628,304.6 105.398,307.943 Q103.169,311.287 101.876,315.701 Q100.583,320.115 100.583,325.019 Q100.583,330.459 102.01,335.274 Q103.437,340.089 105.889,343.7 Q108.341,347.312 111.596,349.452 Q114.85,351.592 118.506,351.592 Q123.054,351.592 126.665,348.025 Q130.277,344.458 133.843,336.522 L136.251,337.771 z" fill="#000000"/>
      <path d="M141.869,354.98 L141.869,353.108 Q143.295,352.84 144.187,352.305 Q145.079,351.77 145.614,350.789 Q146.149,349.809 146.416,348.159 Q146.684,346.509 146.773,343.923 L147.397,326.714 L147.397,310.128 Q147.397,307.453 147.353,305.67 Q147.308,303.886 147.219,302.682 Q147.13,301.479 146.951,300.587 Q146.773,299.695 146.506,298.804 Q146.149,297.555 145.614,296.886 Q145.079,296.218 143.652,295.326 L143.652,293.453 L156.938,291.046 L159.078,292.829 Q158.633,295.683 158.41,297.734 Q158.187,299.784 158.053,302.014 Q157.919,304.243 157.875,307.186 Q157.83,310.128 157.83,314.676 L157.83,343.923 Q157.83,346.598 158.053,348.248 Q158.276,349.898 158.855,350.923 Q159.435,351.949 160.327,352.394 Q161.218,352.84 162.556,353.108 L162.556,354.98 z" fill="#000000"/>
      <path d="M197.243,356.853 L194.835,355.605 L194.835,351.324 Q192.784,352.751 191.135,353.687 Q189.485,354.624 187.925,355.203 Q186.364,355.783 184.804,356.006 Q183.243,356.229 181.371,356.229 Q170.849,356.229 170.849,344.815 L170.849,324.217 Q170.849,317.886 165.944,316.816 L165.944,315.032 L180.033,313.427 L181.906,316.281 L181.282,339.643 L181.282,340.267 Q181.282,345.528 182.931,347.579 Q184.581,349.63 188.772,349.63 Q190.288,349.63 191.536,349.363 Q192.784,349.095 194.835,348.203 L195.46,325.465 Q195.46,321.809 194.122,319.937 Q192.784,318.064 189.307,316.816 L189.307,315.032 L204.644,313.16 L205.892,315.032 L205.268,343.923 L205.268,344.548 Q205.268,346.509 205.447,347.758 Q205.625,349.006 206.16,349.809 Q206.695,350.611 207.676,351.101 Q208.657,351.592 210.173,351.949 L210.173,353.732 z" fill="#000000"/>
      <path d="M245.305,336.076 Q245.305,332.777 244.592,329.389 Q243.879,326 242.809,324.217 Q242.184,323.236 241.203,322.389 Q240.223,321.542 239.019,320.873 Q237.815,320.204 236.522,319.848 Q235.229,319.491 234.07,319.491 Q233.089,319.491 232.197,319.669 Q231.306,319.848 229.255,320.561 L229.255,342.051 Q229.255,351.324 235.675,351.324 Q237.726,351.324 239.509,350.165 Q241.293,349.006 242.586,346.955 Q243.879,344.904 244.592,342.14 Q245.305,339.376 245.305,336.076 z M256.362,333.223 Q256.362,338.127 254.802,342.318 Q253.241,346.509 250.477,349.586 Q247.713,352.662 243.923,354.445 Q240.133,356.229 235.764,356.229 Q233.892,356.229 232.643,355.961 Q231.395,355.694 229.255,354.98 Q227.204,354.089 226.223,354.089 Q224.44,354.089 221.23,356.229 L217.574,353.465 L218.822,335.898 L218.822,307.007 Q218.822,303.44 218.287,300.052 Q217.93,298.001 217.395,297.154 Q216.86,296.307 215.077,295.326 L215.077,293.453 L227.382,291.046 L230.503,292.829 L229.255,311.912 L229.255,318.064 Q230.86,316.638 232.153,315.657 Q233.446,314.676 234.694,314.141 Q235.943,313.606 237.235,313.383 Q238.528,313.16 240.223,313.16 Q243.879,313.16 246.866,314.587 Q249.853,316.013 251.948,318.644 Q254.044,321.274 255.203,324.975 Q256.362,328.675 256.362,333.223 z" fill="#000000"/>
    </g>
    <path d="M209.475,440.142 C211.775,440.016 214.011,440.516 216.1,441.455 C218.569,442.731 222.26,446.34 225.679,450.819 C229.202,455.434 233.313,459.44 235.898,460.777 C241.466,463.656 259.881,465.607 269.453,464.331 C282.491,462.593 297.006,455.846 306.632,447.048 C308.252,445.567 309.817,444.356 310.109,444.356 C310.401,444.356 313.033,446.941 315.958,450.1 C319.707,454.149 321.037,455.92 320.468,456.101 C318.226,456.814 301.458,465.802 298.604,467.821 C292.429,472.189 288.027,477.987 286.564,483.682 C286.222,485.01 285.592,487.01 285.163,488.127 C284.033,491.067 284.199,495.103 285.729,501.88 C288.017,512.019 287.367,515.246 282.567,517.57 C278.587,519.497 277.884,519.11 276.192,514.064 C273.223,505.216 273.095,493.557 275.838,481.871 C276.683,478.272 276.804,476.956 276.334,476.485 C275.629,475.779 270.987,475.741 263.377,476.379 C259.109,476.737 257.25,476.614 252.16,475.638 C236.688,472.671 225.365,466.874 216.468,457.364 C212.958,453.613 212.033,452.249 211.323,449.785 C210.847,448.132 209.76,445.391 208.908,443.693 L207.36,440.607 L208.734,440.262 L209.475,440.142 z" fill="#000000"/>
    <path d="M310.149,404.5 L310.505,408.136 C311.394,417.217 314.393,424.551 320.172,431.773 C326.337,439.479 335.223,446.153 353.777,457.013 C359.749,460.508 362.985,462.713 362.997,463.293 C363.02,464.382 360.188,466.855 358.406,467.302 C355.534,468.023 341.707,463.884 333.788,459.934 C318.493,452.305 308.084,439.497 304.274,423.62 C303.214,419.203 302.967,412.422 303.769,409.759 C304.013,408.949 304.739,407.434 305.383,406.393 C306.342,404.84 306.875,404.5 308.35,404.5 L310.149,404.5 z" fill="#000000"/>
    <path d="M326.495,376.772 L327.516,378.033 C329.096,379.985 330.155,384.2 330.983,391.843 C331.401,395.694 332.097,399.936 332.529,401.269 C337.287,415.918 343.141,425.053 355.363,436.894 C361.344,442.689 376.138,454.616 378.439,455.5 C378.906,455.679 379.174,456.648 379.174,458.158 C379.174,460.936 379.494,460.931 371.382,458.27 C353.065,452.26 337.905,439.86 327.216,422.143 C324.813,418.159 324.582,417.405 322.046,405.234 C319.191,391.54 319.142,391.066 320.148,386.996 C321.015,383.487 322.152,381.377 324.545,378.84 L326.495,376.772 z" fill="#000000"/>
    <path d="M236.739,395.432 C240.803,395.525 244.92,395.758 248.836,396.93 C254.857,398.954 263.292,403.498 273.085,409.992 C283.956,417.202 292.541,421.902 298,423.633 C302.468,425.05 302.571,425.22 303.048,431.941 L303.379,436.605 L299.132,438.273 C289.017,442.245 281.903,443.707 270.379,444.182 C257.213,444.726 245.46,443.337 216.79,437.85 C191.941,433.095 192.509,433.153 184.781,434.567 C171.434,437.008 163.702,440.364 156.92,446.663 C155.286,448.18 155.083,448.227 151.804,447.848 C149.926,447.632 147.844,447.248 147.177,446.995 C145.27,446.274 145.672,444.033 148.443,439.923 C155.544,429.397 167.024,423.864 183.897,422.836 C196.471,422.07 205.947,423.327 228.369,428.736 C248.395,433.566 252.402,434.211 264.266,434.519 L274.581,434.787 L277.327,433.292 C278.838,432.47 280.058,431.654 280.039,431.479 C279.979,430.936 272.166,424.351 266.836,420.35 C255.211,411.625 243.746,406.674 233.079,405.772 L228.952,405.423 L228.368,402.608 C227.19,396.937 227.229,396.801 230.254,396.001 C232.373,395.459 234.573,395.509 236.739,395.432 z" fill="#000000"/>
    <path d="M202.047,389.287 L204.205,389.577 C207.518,390.021 210.271,392.149 211.936,395.552 C213.227,398.191 213.432,399.418 213.853,407.024 C214.113,411.709 214.334,416.45 214.345,417.561 L214.366,419.581 L209.259,419.581 C203.224,419.581 204.061,421.126 202.533,407.159 C201.459,397.337 201.416,396.38 201.837,391.643 L202.047,389.287 z" fill="#000000"/>
    <path d="M499.355,77.624 L506.268,78.443 C516.55,79.661 530.252,85.275 535.901,90.586 C543.093,97.347 551.489,112.175 551.489,118.117 C551.489,123.187 549.595,124.619 547.428,121.187 C545.519,118.162 536.401,111.063 534.424,111.063 C533.152,111.063 532.628,115.349 532.633,125.723 C532.637,136.861 532.004,141.557 529.997,145.269 C528.543,147.957 527.174,150.156 526.954,150.156 C526.734,150.156 524.767,146.265 522.584,141.51 C520.33,136.85 517.654,132.303 514.081,128.526 L509.549,124.186 L508.577,128.526 C506.701,136.908 506.142,138.181 502.385,142.646 C497.607,148.325 496.462,148.295 495.296,142.464 C493.793,134.951 484.387,126.759 473.988,123.905 C469.063,122.554 463.073,120.594 460.675,119.549 L456.317,117.649 L464.81,113.494 C475.957,108.04 489.003,95.967 494.748,85.787 L499.355,77.624 z" fill="#000000"/>
    <path d="M303.712,78.145 C306.09,78.153 306.888,80.127 307.719,82.029 C310.809,89.491 330.663,108.7 340.011,113.273 C344.684,115.56 348.508,117.649 348.508,117.915 C348.508,118.181 342.611,120.198 335.404,122.396 C320.708,126.879 311.666,134.015 309.977,142.464 C309.461,145.041 308.099,147.149 306.95,147.149 C304.174,147.149 299.224,138.942 297.154,130.909 L295.488,124.443 L292.067,127.657 C290.185,129.425 286.513,134.872 283.907,139.762 C281.3,144.652 278.557,148.652 277.811,148.652 C277.064,148.652 275.413,145.147 274.14,140.862 C271.51,132.007 271.182,123.064 273.225,115.94 C275.217,108.994 271.479,109.437 262.026,117.268 L254.535,123.473 L254.046,118.528 C253.353,111.525 260.545,98.353 268.929,91.271 C276.113,85.201 288.504,80.031 299.462,78.529 C300.871,78.297 302.287,78.193 303.712,78.145 z" fill="#000000"/>
    <path d="M419.018,70.746 L419.018,70.746 L419.018,70.746 z" fill="#000000"/>
  </g>
</svg>
