<svg xmlns="http://www.w3.org/2000/svg" viewBox="0 0 842 595"><defs/><g fill="none" fill-rule="evenodd"><path fill="#FFD800" d="M0 0h872v639H0z"/><g transform="rotate(-2 5357.58 -906.15)"><g transform="rotate(-5 1718.96 -1575.36)"><path fill="#811C62" d="M0 0h438.83v104.62H0z"/><path fill="#FFD800" fill-rule="nonzero" d="M61.15 47.72c.37 2.48.46 5.05.37 7.8-.1.74-.55 1.1-1.2 1.1H31.97c-.28 0-.46.19-.37.46.19 1.38.55 2.57 1.01 3.67 1.47 3.12 4.4 5.14 9.73 5.14a11.23 11.23 0 0 0 9.28-4.77c.45-.64.91-.73 1.46-.18l6.61 6.51c.56.55.56 1.01.1 1.56-4.13 5.14-10.93 7.99-18.64 7.9-10.47 0-17.72-5.23-20.84-13.59-1.28-3.12-1.93-6.88-1.93-11.2-.09-3.48.37-6.88 1.38-9.72 2.75-8.63 10.19-14.23 19.92-14.23 12.58 0 19.92 8.08 21.48 19.55zm-21.39-8.35c-3.94 0-6.42 1.93-7.62 5.42-.27.91-.46 1.83-.64 2.93 0 .28.18.46.46.46h15.88c.28 0 .46-.18.37-.46-.18-1-.28-1.83-.46-2.57-1.1-3.67-3.86-5.78-7.99-5.78zm54.35-11.1c9.64 0 16.34 6.24 16.34 16.7v30.1c0 .64-.46 1.1-1.1 1.1H98.61c-.64 0-1.1-.46-1.1-1.1V47.63c0-4.86-3.03-8.26-7.53-8.26s-7.53 3.3-7.53 8.26v27.44c0 .64-.46 1.1-1.1 1.1H70.61c-.64 0-1.1-.46-1.1-1.1V30.1c0-.64.46-1.1 1.1-1.1h10.74c.64 0 1.1.46 1.1 1.1v3.21c0 .37.28.55.46.28 2.57-3.67 6.34-5.32 11.2-5.32zm52.7 10c0 .64-.46 1.1-1.1 1.1h-8.82c-.27 0-.46.18-.46.46v19.46c0 4.03 1.56 5.96 5.24 5.96h3.03c.64 0 1.1.46 1.1 1.1v8.72c0 .64-.37 1.1-1.1 1.2-1.93.09-3.77.18-5.51.18-9.37 0-15.15-2.2-15.24-12.02v-24.6c0-.28-.19-.46-.46-.46h-5.23c-.65 0-1.1-.46-1.1-1.1V30.1c0-.64.45-1.1 1.1-1.1h5.23c.27 0 .46-.18.46-.46V17.62c0-.64.46-1.1 1.1-1.1h10.28c.64 0 1.1.46 1.1 1.1v10.92c0 .28.19.46.46.46h8.82c.64 0 1.1.46 1.1 1.1v8.17zm48.93 9.45c.37 2.48.46 5.05.37 7.8-.1.74-.55 1.1-1.2 1.1h-28.36c-.28 0-.46.19-.37.46.18 1.38.55 2.57 1 3.67 1.48 3.12 4.41 5.14 9.74 5.14a11.22 11.22 0 0 0 9.27-4.77c.46-.64.92-.73 1.47-.18l6.61 6.51c.55.55.55 1.01.1 1.56-4.14 5.14-10.93 7.99-18.64 7.9-10.47 0-17.72-5.23-20.84-13.59-1.29-3.12-1.93-6.88-1.93-11.2-.1-3.48.37-6.88 1.38-9.72 2.75-8.63 10.19-14.23 19.92-14.23 12.57 0 19.92 8.08 21.48 19.55zm-21.4-8.35c-3.94 0-6.42 1.93-7.61 5.42-.28.91-.46 1.83-.64 2.93 0 .28.18.46.46.46h15.88c.27 0 .46-.18.36-.46-.18-1-.27-1.83-.45-2.57-1.1-3.67-3.86-5.78-8-5.78zm36.73-15.7a7.04 7.04 0 0 1-7.25-7.24c0-4.32 3.03-7.25 7.25-7.25 4.22 0 7.25 2.93 7.25 7.25a7.1 7.1 0 0 1-7.25 7.25zm-5.5 52.5c-.65 0-1.1-.46-1.1-1.1V30.01c0-.64.45-1.1 1.1-1.1h10.73c.65 0 1.1.46 1.1 1.1v45.06c0 .64-.45 1.1-1.1 1.1h-10.74zm50.76-46.07c0-.64.46-1.1 1.1-1.1h10.74c.65 0 1.1.46 1.1 1.1v41.85c0 20.65-17.07 23.77-31.94 21.84-.65-.09-.92-.55-.92-1.19l.37-9.45c0-.83.55-1.1 1.28-1.01 11.02 1.65 18.27-.46 18.27-10.28 0-.37-.27-.46-.55-.18-2.11 2.29-5.42 3.76-10.2 3.76-6.88 0-15.05-2.85-18.08-12.2-1.1-3.4-1.37-7.44-1.37-10.93 0-4.13.36-8.17 1.65-11.65 2.57-7.35 8.9-12.4 17.17-12.4 4.95 0 8.44 1.57 10.83 4.23.28.27.55.18.55-.19v-2.2zm-.73 29.64c.46-1.74.73-3.48.73-7.52 0-4.04-.27-5.6-.83-7.34a7.5 7.5 0 0 0-7.52-5.5c-3.86 0-6.34 2.38-7.53 5.5-.83 1.74-1.29 4.13-1.29 7.43 0 3.4.37 5.87 1.1 7.34a8.03 8.03 0 0 0 7.8 5.5c4.14 0 6.62-2.38 7.54-5.4zm47.55-31.47c9.64 0 16.34 6.24 16.34 16.7v30.1c0 .64-.46 1.1-1.1 1.1h-10.74c-.64 0-1.1-.46-1.1-1.1V47.63c0-4.86-3.03-8.26-7.53-8.26s-7.53 3.3-7.53 8.26v27.44c0 .64-.46 1.1-1.1 1.1h-10.74c-.64 0-1.1-.46-1.1-1.1V30.1c0-.64.46-1.1 1.1-1.1h10.74c.64 0 1.1.46 1.1 1.1v3.21c0 .37.28.55.46.28 2.57-3.67 6.34-5.32 11.2-5.32zm67.11 19.45c.37 2.48.46 5.05.37 7.8-.1.74-.55 1.1-1.2 1.1h-28.36c-.28 0-.46.19-.37.46.18 1.38.55 2.57 1 3.67 1.48 3.12 4.42 5.14 9.74 5.14a11.2 11.2 0 0 0 9.27-4.77c.46-.64.92-.73 1.47-.18l6.61 6.51c.55.55.55 1.01.1 1.56-4.14 5.14-10.93 7.99-18.64 7.9-10.47 0-17.72-5.23-20.84-13.59-1.29-3.12-1.93-6.88-1.93-11.2-.1-3.48.37-6.88 1.38-9.72 2.75-8.63 10.19-14.23 19.92-14.23 12.58 0 19.92 8.08 21.48 19.55zm-21.39-8.35c-3.95 0-6.43 1.93-7.62 5.42-.28.91-.46 1.83-.64 2.93 0 .28.18.46.46.46h15.88c.27 0 .46-.18.37-.46-.19-1-.28-1.83-.46-2.57-1.1-3.67-3.86-5.78-7.99-5.78zm54.35-11.1c9.64 0 16.34 6.24 16.34 16.7v30.1c0 .64-.46 1.1-1.1 1.1h-10.74c-.65 0-1.1-.46-1.1-1.1V47.63c0-4.86-3.03-8.26-7.53-8.26s-7.53 3.3-7.53 8.26v27.44c0 .64-.46 1.1-1.1 1.1h-10.74c-.65 0-1.1-.46-1.1-1.1V30.1c0-.64.45-1.1 1.1-1.1h10.74c.64 0 1.1.46 1.1 1.1v3.21c0 .37.27.55.46.28 2.57-3.67 6.33-5.32 11.2-5.32z"/></g><g transform="rotate(3 1.17 122.2)"><path fill="#811C62" d="M0 0h758.31v104.62H0z"/><path fill="#FFD800" fill-rule="nonzero" d="M19.55 84.43c-.64 0-1.1-.46-1.1-1.1V21.29c0-.64.46-1.1 1.1-1.1h22.96c13.86 0 22.95 7.7 22.95 19.46v25.33c0 11.74-9.1 19.45-22.95 19.45H19.55zM31.4 72.87c0 .27.18.46.46.46h11.1c5.7 0 9.46-4.13 9.55-10.47v-21.1c0-6.34-3.76-10.47-9.64-10.47H31.86c-.28 0-.46.19-.46.46v41.12zm84.73-16.89c.37 2.48.46 5.05.37 7.8-.1.74-.55 1.1-1.2 1.1H86.95c-.28 0-.46.19-.37.46.19 1.38.55 2.57 1.01 3.67 1.47 3.12 4.4 5.14 9.73 5.14a11.23 11.23 0 0 0 9.28-4.77c.45-.64.91-.73 1.46-.18l6.61 6.51c.56.55.56 1.01.1 1.56-4.14 5.14-10.93 7.99-18.64 7.9-10.47 0-17.72-5.24-20.84-13.59-1.29-3.12-1.93-6.88-1.93-11.2-.09-3.48.37-6.88 1.38-9.72 2.75-8.63 10.19-14.23 19.92-14.23 12.58 0 19.92 8.08 21.48 19.55zm-21.39-8.35c-3.94 0-6.42 1.93-7.62 5.42-.27.91-.46 1.83-.64 2.93 0 .28.18.46.46.46h15.88c.28 0 .46-.18.37-.46-.18-1-.28-1.83-.46-2.57-1.1-3.67-3.86-5.78-7.99-5.78zm57.29-9.27c0-.64.46-1.1 1.1-1.1h10.74c.64 0 1.1.46 1.1 1.1v44.97c0 .64-.46 1.1-1.1 1.1h-10.74c-.64 0-1.1-.46-1.1-1.1v-3.12c0-.37-.28-.46-.55-.1-2.39 3.22-6.15 4.96-11.39 4.96-8.9 0-15.97-5.5-15.97-16.06V38.36c0-.64.46-1.1 1.1-1.1h10.65c.64 0 1.1.46 1.1 1.1V65.8c0 4.87 2.76 8.26 7.44 8.26 4.22 0 7.07-2.75 7.62-6.79v-28.9zm49.57 8.17c0 .64-.46 1.1-1.1 1.1h-8.81c-.28 0-.46.18-.46.46v19.46c0 4.03 1.56 5.96 5.23 5.96h3.03c.64 0 1.1.46 1.1 1.1v8.72c0 .64-.36 1.1-1.1 1.2-1.93.09-3.76.18-5.5.18-9.37 0-15.15-2.2-15.25-12.03v-24.6c0-.27-.18-.45-.45-.45h-5.24c-.64 0-1.1-.46-1.1-1.1v-8.17c0-.64.46-1.1 1.1-1.1h5.24c.27 0 .45-.18.45-.46V25.88c0-.64.46-1.1 1.1-1.1h10.29c.64 0 1.1.46 1.1 1.1V36.8c0 .28.18.46.46.46h8.81c.64 0 1.1.46 1.1 1.1v8.17zm26.63 38.54c-12.49 0-20.38-5.69-20.38-13.67v-.92c0-.64.46-1.1 1.1-1.1h10.19c.64 0 1.1.18 1.1.55v.64c0 2.67 3.3 4.87 7.9 4.87 4.13 0 6.97-1.84 6.97-4.32 0-3.67-7.07-3.57-13.86-6.33-6.24-2.1-12.85-5.23-12.85-13.4 0-9.17 7.8-14.77 19.28-14.77 11.84 0 19.55 6.15 19.55 14.86 0 .65-.46 1.1-1.1 1.1h-9.82c-.65 0-1.1-.18-1.1-.54v-.56c0-2.66-2.85-4.77-7.53-4.77-3.95 0-6.89 1.47-6.89 4.13 0 3.67 6.34 3.95 13.22 6.06 7.16 2.11 14.05 5.32 14.05 13.77 0 9.26-7.99 14.4-19.83 14.4zm48.01.1c-9.82 0-17.35-5.33-20.38-13.77a33.56 33.56 0 0 1-1.56-10.83c0-4.59.64-7.98 1.56-10.65 2.94-8.25 10.56-13.4 20.38-13.4 10.1 0 17.9 5.7 20.29 12.95.46 1.37.73 2.47.73 3.3.1.64-.27 1.1-.91 1.2l-10.56 1.55c-.64.1-1.1-.18-1.29-.91l-.27-1.47c-.83-3.03-3.86-5.51-8.08-5.51-3.95 0-6.7 2.11-7.8 5.5-.65 1.75-1.01 4.32-1.01 7.53 0 3.4.36 5.88.91 7.53 1.1 3.58 3.86 5.87 7.9 5.87 3.85 0 6.88-2.2 7.99-5.69.09-.18.09-.37.09-.55.09-.1.09-.18.09-.27.1-.74.64-1.01 1.28-.92l10.56 1.65c.65.1 1.01.55.92 1.2-.1.73-.27 1.64-.55 2.56-2.66 8.26-10.74 13.13-20.29 13.13zm53.16-48.64c9.64 0 16.34 6.24 16.34 16.7v30.1c0 .64-.46 1.1-1.1 1.1h-10.75c-.64 0-1.1-.46-1.1-1.1V55.89c0-4.86-3.03-8.26-7.53-8.26s-7.52 3.3-7.52 8.26v27.44c0 .64-.46 1.1-1.1 1.1h-10.75c-.64 0-1.1-.46-1.1-1.1V21.29c0-.64.46-1.1 1.1-1.1h10.74c.65 0 1.1.46 1.1 1.1v20.28c0 .37.28.55.47.28 2.57-3.67 6.33-5.32 11.2-5.32zm67.1 19.45c.37 2.48.46 5.05.37 7.8-.09.74-.55 1.1-1.2 1.1h-28.36c-.27 0-.46.19-.37.46.19 1.38.55 2.57 1.01 3.67 1.47 3.12 4.41 5.14 9.74 5.14a11.22 11.22 0 0 0 9.27-4.77c.46-.64.92-.73 1.47-.18l6.6 6.51c.56.55.56 1.01.1 1.56-4.13 5.14-10.93 7.99-18.64 7.9-10.46 0-17.72-5.24-20.84-13.59-1.28-3.12-1.93-6.88-1.93-11.2-.09-3.48.37-6.88 1.38-9.72 2.76-8.63 10.2-14.23 19.92-14.23 12.58 0 19.92 8.08 21.49 19.55zm-21.39-8.35c-3.94 0-6.42 1.93-7.62 5.42-.27.91-.45 1.83-.64 2.93 0 .28.19.46.46.46h15.88c.28 0 .46-.18.37-.46-.18-1-.27-1.83-.46-2.57-1.1-3.67-3.85-5.78-7.99-5.78zm63.17 36.8c-.65 0-1.1-.27-1.29-.92l-16.25-62.13c-.18-.82.19-1.19.92-1.19h11.38c.65 0 1.01.28 1.2.92l8.72 37.35c.09.46.46.46.55 0l8.45-37.26c.18-.64.55-1.01 1.19-1.01h11.1c.65 0 1.1.28 1.3.92l9.17 37.35c.1.37.46.46.55 0l8.45-37.26c.18-.64.55-1.01 1.2-1.01h10.83c.73 0 1.19.37 1 1.2L481.7 83.5c-.18.65-.64.92-1.29.92H469.5c-.64 0-1.01-.27-1.2-.92l-9.36-39.73c-.09-.46-.46-.46-.55 0l-8.72 39.64c-.1.64-.55 1.01-1.2 1.01h-10.18zm80.6.74c-10.37 0-18.08-5.79-20.75-15.06a33.44 33.44 0 0 1-1.28-9.36c0-3.48.46-6.97 1.28-9.72 2.85-9 10.47-14.5 20.84-14.5 10.2 0 17.54 5.5 20.38 14.4a32.13 32.13 0 0 1 1.47 9.64c0 3.3-.46 6.52-1.28 9.27-2.67 9.45-10.29 15.33-20.66 15.33zm0-11.1c4.13 0 6.98-2.67 8.17-6.9.46-1.83.74-4.12.74-6.42 0-2.47-.28-4.86-.74-6.51-1.28-4.13-4.13-6.61-8.26-6.61-4.22 0-6.98 2.57-8.17 6.6-.55 1.66-.74 4.05-.74 6.52 0 2.39.19 4.78.65 6.43 1.19 4.22 4.13 6.88 8.35 6.88zm54.9-37.54c9.64 0 16.34 6.24 16.34 16.7v30.1c0 .64-.46 1.1-1.1 1.1h-10.74c-.64 0-1.1-.46-1.1-1.1V55.89c0-4.86-3.03-8.26-7.53-8.26s-7.53 3.3-7.53 8.26v27.44c0 .64-.46 1.1-1.1 1.1h-10.74c-.64 0-1.1-.46-1.1-1.1V21.29c0-.64.46-1.1 1.1-1.1h10.74c.64 0 1.1.46 1.1 1.1v20.28c0 .37.28.55.46.28 2.57-3.67 6.33-5.32 11.2-5.32zm50.22 0c9.64 0 16.34 6.24 16.34 16.7v30.1c0 .64-.46 1.1-1.1 1.1H628.5c-.65 0-1.1-.46-1.1-1.1V55.89c0-4.86-3.04-8.26-7.53-8.26-4.5 0-7.53 3.3-7.53 8.26v27.44c0 .64-.46 1.1-1.1 1.1H600.5c-.65 0-1.1-.46-1.1-1.1V38.36c0-.64.45-1.1 1.1-1.1h10.74c.64 0 1.1.46 1.1 1.1v3.21c0 .37.27.55.46.28 2.57-3.67 6.33-5.32 11.2-5.32zm67.1 19.45c.37 2.48.47 5.05.37 7.8-.09.74-.55 1.1-1.19 1.1h-28.37c-.27 0-.46.19-.36.46.18 1.38.55 2.57 1 3.67 1.47 3.12 4.41 5.14 9.74 5.14a11.22 11.22 0 0 0 9.27-4.77c.46-.64.92-.73 1.47-.18l6.6 6.51c.56.55.56 1.01.1 1.56-4.13 5.14-10.92 7.99-18.64 7.9-10.46 0-17.71-5.24-20.84-13.59-1.28-3.12-1.92-6.88-1.92-11.2-.1-3.48.36-6.88 1.37-9.72 2.76-8.63 10.2-14.23 19.92-14.23 12.58 0 19.93 8.08 21.49 19.55zm-21.38-8.35c-3.95 0-6.43 1.93-7.62 5.42-.28.91-.46 1.83-.65 2.93 0 .28.19.46.46.46h15.89c.27 0 .45-.18.36-.46-.18-1-.27-1.83-.46-2.57-1.1-3.67-3.85-5.78-7.98-5.78zm54.34-11.1c9.64 0 16.35 6.24 16.35 16.7v30.1c0 .64-.46 1.1-1.1 1.1h-10.75c-.64 0-1.1-.46-1.1-1.1V55.89c0-4.86-3.03-8.26-7.53-8.26s-7.52 3.3-7.52 8.26v27.44c0 .64-.46 1.1-1.1 1.1h-10.75c-.64 0-1.1-.46-1.1-1.1V38.36c0-.64.46-1.1 1.1-1.1h10.74c.65 0 1.1.46 1.1 1.1v3.21c0 .37.28.55.46.28 2.58-3.67 6.34-5.32 11.2-5.32z"/></g></g><g fill="#811C62" fill-rule="nonzero" transform="translate(672 20)"><path d="M34.1 30c6.87 0 10.06 3.1 10.06 9.77v4.24c0 6.48-3.38 9.77-10.06 9.77-6.92 0-10.14-3.1-10.14-9.77v-4.24c0-6.48 3.41-9.77 10.14-9.77zm48.29 0c6.86 0 10.06 3.1 10.06 9.77v4.24c0 6.48-3.39 9.77-10.06 9.77-6.92 0-10.15-3.1-10.15-9.77v-4.24c0-6.48 3.42-9.77 10.15-9.77zm-60.9.46l-4.45 17.38c-.6 2.27-1.28 3.79-2.08 4.65-.82.83-2.24 1.25-4.21 1.25-1.96 0-3.4-.42-4.26-1.24a7.47 7.47 0 0 1-1.35-2.34h5.61c1.26 0 1.93-.33 2.48-2.36l4.38-17.34h3.88zm94.94 0l-4.45 17.38c-.6 2.27-1.28 3.79-2.09 4.65-.82.83-2.23 1.25-4.2 1.25-1.97 0-3.4-.42-4.26-1.24-.5-.53-.94-1.3-1.35-2.34h5.6c1.27 0 1.93-.33 2.49-2.36l4.38-17.34h3.88zM58.23 30c6.47 0 9.79 2.85 9.79 8.72v14.6h-3.83v-14.6c0-3.76-1.69-5.1-5.95-5.1h-8.55c1.54-2.4 4.42-3.62 8.55-3.62zm65.96.46v22.86h-3.92V34.25a3.8 3.8 0 0 1 3.77-3.8h.15zM49.13 34.7a3.8 3.8 0 0 1 3.05 4.02v14.6h-3.77v-14.6c0-1.54.24-2.88.72-4.02zm89.8-4.7c1.96 0 3.15.46 4.02 1.28.46.5.86 1.22 1.23 2.17h-5.25c-1.2 0-1.55.32-2.1 2.36l-4.76 17.51h-3.97l4.85-17.38c.6-2.27 1.19-3.79 2-4.65.81-.83 2-1.29 3.98-1.29zm5.64 4.6c.13.4.26.85.38 1.34l4.81 17.38h-3.92L144.1 47h-8.71a3.79 3.79 0 0 1 3.77-3.57h3.96l-1.14-4.16-.06-.24a3.8 3.8 0 0 1 2.65-4.42zM34.1 33.61c-4.7 0-6.37 1.61-6.37 6.15V44c0 4.48 1.73 6.15 6.37 6.15 4.58 0 6.28-1.67 6.28-6.15v-4.24c0-4.48-1.7-6.15-6.28-6.15zm48.29 0c-4.7 0-6.37 1.61-6.37 6.15V44c0 4.48 1.73 6.15 6.37 6.15 4.58 0 6.28-1.67 6.28-6.15v-4.24c0-4.48-1.7-6.15-6.28-6.15zM3.83 30.46L7.4 44.4l.05.23a3.8 3.8 0 0 1-2.7 4.38c-.12-.37-.23-.76-.34-1.17L0 30.45h3.83zm94.94 0l3.56 13.95.05.23a3.8 3.8 0 0 1-2.7 4.38c-.12-.37-.23-.76-.34-1.17l-4.4-17.4h3.83z"/><path d="M6.4 18.16C2.46 18.16 0 16.2 0 13.2v-.73c0-.16.1-.26.26-.26h1.86c.15 0 .25.1.25.26v.6c0 1.68 1.53 2.97 4.21 2.97 2.43 0 3.55-1.14 3.55-2.66 0-1.6-1.38-2.3-4.36-3.5C2.86 8.77.3 7.76.3 4.67.3 1.72 2.58 0 6.12 0c3.83 0 6.3 2.03 6.3 5.05v.5c0 .16-.1.26-.25.26h-1.91c-.15 0-.26-.1-.26-.26v-.38c0-1.7-1.4-3.07-3.98-3.07-2.12 0-3.31.9-3.31 2.52 0 1.7 1.32 2.25 4.33 3.4 2.84 1.08 5.54 2.2 5.54 5.3 0 2.93-2.32 4.84-6.17 4.84zm19.73-9.87c.33.94.49 2 .49 3.25 0 1.14-.13 2.18-.41 3.07a4.75 4.75 0 0 1-4.9 3.55 3.95 3.95 0 0 1-2.99-1.32c-.07-.08-.12-.03-.12.05v5.65c0 .16-.1.26-.26.26H16c-.15 0-.25-.1-.25-.26V5.3c0-.15.1-.25.25-.25h1.94c.15 0 .26.1.26.25v.84c0 .07.05.12.12.05a3.89 3.89 0 0 1 2.99-1.35c2.5 0 4.1 1.32 4.82 3.45zm-2.8 6.54c.5-.76.81-1.85.81-3.34 0-1.37-.23-2.39-.64-3.15a2.58 2.58 0 0 0-2.42-1.4c-1.02 0-1.76.52-2.25 1.38a6.7 6.7 0 0 0-.6 3.2c0 1.44.22 2.5.66 3.24.48.84 1.2 1.3 2.16 1.3 1 0 1.8-.44 2.28-1.23zm11.66 3.33c-2.53 0-4.52-1.35-5.26-3.6-.28-.84-.46-1.98-.46-3.1 0-1.11.16-2.23.44-3.04.74-2.23 2.7-3.58 5.3-3.58a5.2 5.2 0 0 1 5.16 3.55c.3.87.46 1.98.46 3.05a9.7 9.7 0 0 1-.46 3.12 5.22 5.22 0 0 1-5.18 3.6zm0-2.1c1.38 0 2.45-.82 2.88-2.19.18-.6.28-1.52.28-2.38 0-.94-.1-1.8-.25-2.36a2.96 2.96 0 0 0-2.96-2.18c-1.4 0-2.48.81-2.91 2.18a8.4 8.4 0 0 0-.28 2.36c0 .91.1 1.8.28 2.38a2.94 2.94 0 0 0 2.96 2.18zm14.65-11.2c2.78 0 4.54 1.73 4.54 4.47v8.37c0 .15-.1.25-.26.25H52c-.16 0-.26-.1-.26-.25V9.81c0-1.67-1.07-2.84-2.7-2.84-1.61 0-2.74 1.14-2.74 2.82v7.91c0 .15-.1.25-.25.25H44.1c-.15 0-.26-.1-.26-.25V5.3c0-.15.1-.25.26-.25h1.94c.15 0 .25.1.25.25v.91c0 .08.06.13.1.05.77-.96 1.9-1.4 3.25-1.4zm12.6 13.25c-3.1 0-5.12-1.55-5.12-3.48v-.28c0-.15.1-.25.25-.25h1.84c.15 0 .25.08.25.18v.2c0 .91 1.13 1.77 2.76 1.77 1.56 0 2.58-.76 2.58-1.75 0-1.09-1.28-1.44-2.81-1.87-2.25-.61-4.77-1.4-4.77-4 0-2.32 1.99-3.71 4.9-3.71 3 0 4.97 1.55 4.97 3.65v.08c0 .15-.1.25-.25.25h-1.79c-.15 0-.25-.08-.25-.18v-.15c0-.94-1-1.72-2.7-1.72-1.49 0-2.53.58-2.53 1.6 0 1.08 1.22 1.47 2.85 1.92 2.2.58 4.83 1.32 4.83 3.98 0 2.31-2 3.76-5 3.76zm13.17.05c-2.52 0-4.51-1.35-5.25-3.6-.28-.84-.46-1.98-.46-3.1 0-1.11.15-2.23.43-3.04.74-2.23 2.7-3.58 5.3-3.58A5.2 5.2 0 0 1 80.6 8.4c.31.87.46 1.98.46 3.05a9.7 9.7 0 0 1-.46 3.12 5.22 5.22 0 0 1-5.18 3.6zm0-2.1c1.38 0 2.45-.82 2.89-2.19.18-.6.28-1.52.28-2.38 0-.94-.1-1.8-.26-2.36a2.96 2.96 0 0 0-2.96-2.18c-1.4 0-2.47.81-2.9 2.18a8.4 8.4 0 0 0-.29 2.36c0 .91.1 1.8.28 2.38a2.94 2.94 0 0 0 2.96 2.18zM89.96 4.91c.69 0 1.12.15 1.48.33.13.05.15.18.13.3l-.41 1.9c-.03.18-.13.2-.3.16-.34-.13-.82-.2-1.38-.15a2.73 2.73 0 0 0-2.76 2.84v7.4c0 .15-.1.25-.26.25h-1.94c-.15 0-.25-.1-.25-.25V5.3c0-.15.1-.25.25-.25h1.94c.16 0 .26.1.26.25v1.34c0 .1.05.13.1.05a3.6 3.6 0 0 1 3.14-1.77zm14.09 4.97c.07.71.1 1.4.07 2.33 0 .18-.1.26-.25.26h-8.14c-.05 0-.1.02-.1.1 0 .56.05 1.01.15 1.32.36 1.31 1.48 2.13 3.21 2.15a3.32 3.32 0 0 0 2.99-1.55c.08-.15.2-.17.33-.07l1.46.96c.12.1.15.2.07.33-.97 1.55-2.83 2.49-5.08 2.46-2.47-.05-4.13-1.16-4.97-3.12a9.48 9.48 0 0 1-.61-3.62c0-1.12.05-2.03.28-2.82.6-2.3 2.52-3.78 5.18-3.78 3.57 0 5.05 1.9 5.4 5.05zm-5.41-2.94c-1.5 0-2.45.81-2.78 2-.13.38-.2.86-.23 1.42 0 .08.05.1.1.1h5.84c.05 0 .1-.02.1-.1-.02-.5-.07-.96-.15-1.24a2.8 2.8 0 0 0-2.88-2.18zm16.64-6.5c0-.15.1-.25.25-.25h1.94c.15 0 .26.1.26.26V17.7c0 .15-.1.25-.26.25h-1.94c-.15 0-.25-.1-.25-.25v-.84c0-.07-.05-.12-.13-.05a3.89 3.89 0 0 1-2.99 1.35c-2.5 0-4.1-1.32-4.82-3.45-.33-.92-.49-2-.49-3.25 0-1.14.13-2.18.41-3.07a4.76 4.76 0 0 1 4.9-3.55c1.18 0 2.25.49 2.99 1.32.08.08.13.03.13-.05V.46zm-.64 14.23c.4-.73.59-1.8.59-3.2 0-1.44-.2-2.48-.64-3.24a2.38 2.38 0 0 0-2.17-1.3c-1 0-1.79.44-2.27 1.23a6 6 0 0 0-.82 3.34c0 1.37.23 2.39.64 3.15.48.91 1.33 1.4 2.42 1.4 1.02 0 1.76-.52 2.25-1.38zm22.28-6.29c.28.9.4 1.93.4 3.07 0 1.24-.15 2.33-.48 3.25a4.75 4.75 0 0 1-4.82 3.45 3.89 3.89 0 0 1-2.99-1.35c-.07-.07-.13-.02-.13.05v.84c0 .15-.1.25-.25.25h-1.94c-.15 0-.26-.1-.26-.25V.46c0-.16.1-.26.26-.26h1.94c.15 0 .25.1.25.26V6.1c0 .08.06.13.13.05a3.95 3.95 0 0 1 2.99-1.32c2.6 0 4.2 1.37 4.9 3.55zm-2.7 6.27c.4-.76.63-1.78.63-3.15a6 6 0 0 0-.82-3.34 2.54 2.54 0 0 0-2.27-1.22c-.97 0-1.68.45-2.17 1.3a6.5 6.5 0 0 0-.66 3.24c0 1.4.2 2.46.61 3.2a2.46 2.46 0 0 0 2.25 1.36c1.1 0 1.94-.48 2.42-1.4zM139.8 23c-.1 0-.18-.1-.18-.25v-1.5c0-.15.05-.25.16-.25h.15c1.96-.03 2.63-.54 3.32-2.97.02-.05 0-.13 0-.15l-4.26-12.55c-.06-.18.02-.28.2-.28h2.07a.3.3 0 0 1 .3.2l2.89 9.56c.02.08.12.08.15 0l2.86-9.56a.3.3 0 0 1 .3-.2h2.02c.18 0 .26.1.2.28l-4.64 13.51c-1.12 3.3-2 4.16-5.36 4.16h-.18z" opacity=".6"/></g></g></svg>