<?xml version="1.0" encoding="UTF-8"?>
<svg width="500px" height="500px" viewBox="0 0 500 500" version="1.1" xmlns="http://www.w3.org/2000/svg" xmlns:xlink="http://www.w3.org/1999/xlink">
    <!-- Generator: Sketch 52.5 (67469) - http://www.bohemiancoding.com/sketch -->
    <title>Logo</title>
    <desc>Created with Sketch.</desc>
    <g id="Logo" stroke="none" stroke-width="1" fill="none" fill-rule="evenodd">
        <rect id="Background" fill="#001727" x="0" y="0" width="500" height="500"></rect>
        <g transform="translate(25.000000, 51.000000)">
            <g id="CCC" transform="translate(0.000000, 158.333333)">
                <path d="M311.81063,171.19071 L311.81063,66.574165 C311.81063,21.6149886 340.509261,0 379.826386,0 C419.143511,0 447.842142,21.6149886 447.842142,66.574165 L447.842142,87.9009538 L395.03666,87.9009538 L395.03666,61.9629674 C395.03666,54.1815715 395.03666,40.9243785 379.826386,40.9243785 C364.616111,40.9243785 364.616111,54.1815715 364.616111,61.9629674 L364.616111,175.801908 C364.616111,181.854104 364.616111,196.840496 379.826386,196.840496 C395.03666,196.840496 395.03666,181.854104 395.03666,175.801908 L395.03666,142.082525 L447.842142,142.082525 L447.842142,171.19071 C447.842142,212.115088 421.726388,237.764875 379.826386,237.764875 C337.926384,237.764875 311.81063,212.115088 311.81063,171.19071 Z" id="C" fill="#02ABEB"></path>
                <path d="M154.255143,171.19071 L154.255143,66.574165 C154.255143,21.6149886 182.953775,0 222.2709,0 C261.588025,0 290.286656,21.6149886 290.286656,66.574165 L290.286656,87.9009538 L237.481174,87.9009538 L237.481174,61.9629674 C237.481174,54.1815715 237.481174,40.9243785 222.2709,40.9243785 C207.060625,40.9243785 207.060625,54.1815715 207.060625,61.9629674 L207.060625,175.801908 C207.060625,181.854104 207.060625,196.840496 222.2709,196.840496 C237.481174,196.840496 237.481174,181.854104 237.481174,175.801908 L237.481174,142.082525 L290.286656,142.082525 L290.286656,171.19071 C290.286656,212.115088 264.170902,237.764875 222.2709,237.764875 C180.370898,237.764875 154.255143,212.115088 154.255143,171.19071 Z" id="C" fill="#E91B24"></path>
                <path d="M0,171.19071 L0,66.574165 C0,21.6149886 28.0023565,0 66.365585,0 C104.728813,0 132.73117,21.6149886 132.73117,66.574165 L132.73117,87.9009538 L81.2068339,87.9009538 L81.2068339,61.9629674 C81.2068339,54.1815715 81.2068339,40.9243785 66.365585,40.9243785 C51.524336,40.9243785 51.524336,54.1815715 51.524336,61.9629674 L51.524336,175.801908 C51.524336,181.854104 51.524336,196.840496 66.365585,196.840496 C81.2068339,196.840496 81.2068339,181.854104 81.2068339,175.801908 L81.2068339,142.082525 L132.73117,142.082525 L132.73117,171.19071 C132.73117,212.115088 107.249026,237.764875 66.365585,237.764875 C25.4821444,237.764875 0,212.115088 0,171.19071 Z" id="C" fill="#FEFEFE"></path>
            </g>
            <path d="M27.455109,20.2188831 L27.455109,97.418255 L31.4611375,97.418255 C38.2299443,97.418255 42.0978338,94.3419992 42.0978338,87.4570457 L42.0978338,30.1800924 C42.0978338,23.2951389 38.2299443,20.2188831 31.4611375,20.2188831 L27.455109,20.2188831 Z M1.42108547e-14,115.799058 L1.42108547e-14,-1.42108547e-14 L39.1476646,-1.42108547e-14 C61.5789907,-1.42108547e-14 67.7226023,13.1886286 67.7226023,31.0150167 L67.7226023,86.0884109 C67.7226023,107.248189 53.0065094,115.799058 39.1476646,115.799058 L1.42108547e-14,115.799058 Z M82.3653271,115.799058 L82.3653271,22.0569634 L107.990096,22.0569634 L107.990096,115.799058 L82.3653271,115.799058 Z M82.3653271,16.5427225 L82.3653271,-1.42108547e-14 L107.990096,-1.42108547e-14 L107.990096,16.5427225 L82.3653271,16.5427225 Z M120.80248,90.9752999 L120.80248,46.8807213 C120.80248,35.8937001 126.384585,20.2188831 151.0031,20.2188831 C175.621615,20.2188831 181.20372,35.8937001 181.20372,46.8807213 L181.20372,72.6635978 L145.420995,72.6635978 L145.420995,92.7332233 C145.420995,95.9560829 145.420995,100.350891 151.0031,100.350891 C156.585205,100.350891 156.585205,95.9560829 156.585205,92.7332233 L156.585205,81.013734 L181.20372,81.013734 L181.20372,90.9752999 C181.20372,101.962321 175.621615,117.637138 151.0031,117.637138 C126.384585,117.637138 120.80248,101.962321 120.80248,90.9752999 Z M144.596908,46.4341265 L144.596908,56.9804888 L155.578951,56.9804888 L155.578951,46.4341265 C155.578951,43.1195555 155.578951,38.5996859 150.087929,38.5996859 C144.596908,38.5996859 144.596908,43.1195555 144.596908,46.4341265 Z M289.193815,-1.42108547e-14 L289.193815,115.753785 L264.5753,115.753785 L264.5753,106.481892 L264.289039,106.481892 C261.28329,113.580685 255.128661,117.637138 247.11333,117.637138 C235.519728,117.637138 228.792575,107.351132 228.792575,89.9663334 L228.792575,44.7658567 C228.792575,29.9887778 234.660942,21.2963784 246.683938,21.2963784 C255.558054,21.2963784 260.567635,24.4835916 264.289039,31.5823844 L264.5753,31.5823844 L264.5753,-1.42108547e-14 L289.193815,-1.42108547e-14 Z M265.399387,84.1523077 L265.399387,52.20148 C265.399387,46.5374697 264.273024,40.4377662 259.204388,40.4377662 C256.951661,40.4377662 254.417344,42.3257697 254.417344,46.1017766 L254.417344,93.1566318 C254.417344,97.949256 256.810866,99.2563353 259.204388,99.2563353 C265.399387,99.2563353 265.399387,90.5424732 265.399387,84.1523077 Z M300.175859,115.799058 L300.175859,22.1246228 L324.002063,22.1246228 L324.002063,38.6898985 L324.294409,38.6898985 C327.802562,30.0407722 330.872196,20.2188831 342.273693,20.2188831 L342.273693,50.710718 L336.426771,50.710718 C327.802562,50.710718 325.317621,56.1347463 325.317621,62.5849421 L325.317621,115.799058 L300.175859,115.799058 Z M349.595055,90.9752999 L349.595055,46.8807213 C349.595055,35.8937001 355.17716,20.2188831 379.795675,20.2188831 C404.41419,20.2188831 409.996295,35.8937001 409.996295,46.8807213 L409.996295,72.6635978 L374.21357,72.6635978 L374.21357,92.7332233 C374.21357,95.9560829 374.21357,100.350891 379.795675,100.350891 C385.37778,100.350891 385.37778,95.9560829 385.37778,92.7332233 L385.37778,81.013734 L409.996295,81.013734 L409.996295,90.9752999 C409.996295,101.962321 404.41419,117.637138 379.795675,117.637138 C355.17716,117.637138 349.595055,101.962321 349.595055,90.9752999 Z M373.389483,46.4341265 L373.389483,56.9804888 L384.371526,56.9804888 L384.371526,46.4341265 C384.371526,43.1195555 384.371526,38.5996859 378.880505,38.5996859 C373.389483,38.5996859 373.389483,43.1195555 373.389483,46.4341265 Z M422.808679,115.799058 L422.808679,22.0569634 L448.433448,22.0569634 L448.433448,115.799058 L422.808679,115.799058 Z M422.808679,16.5427225 L422.808679,-1.42108547e-14 L448.433448,-1.42108547e-14 L448.433448,16.5427225 L422.808679,16.5427225 Z" id="Die-drei" fill="#FEFEFE"></path>
        </g>
    </g>
</svg>