<svg xmlns="http://www.w3.org/2000/svg" width="700" height="700"><g fill="none" fill-rule="evenodd"><path fill="#000" d="M0 0h700v700H0z"/><path fill="#02ABEB" d="M457.4 510.8V382.5c0-55.1 35.2-81.6 83.4-81.6 48.3 0 83.5 26.5 83.5 81.6v26.2h-64.8v-31.8c0-9.6 0-25.8-18.7-25.8-18.6 0-18.6 16.2-18.6 25.8v139.6c0 7.4 0 25.8 18.6 25.8 18.7 0 18.7-18.4 18.7-25.8V475h64.8v35.7c0 50.2-32 81.6-83.5 81.6-51.3 0-83.4-31.4-83.4-81.6Z"/><path fill="#E91B24" d="M264.2 510.8V382.5c0-55.1 35.2-81.6 83.4-81.6s83.4 26.5 83.4 81.6v26.2h-64.7v-31.8c0-9.6 0-25.8-18.7-25.8-18.6 0-18.6 16.2-18.6 25.8v139.6c0 7.4 0 25.8 18.6 25.8 18.7 0 18.7-18.4 18.7-25.8V475H431v35.7c0 50.2-32 81.6-83.4 81.6-51.4 0-83.4-31.4-83.4-81.6Z"/><path fill="#FEFEFE" d="M75 510.8V382.5c0-55.1 34.3-81.6 81.4-81.6 47 0 81.4 26.5 81.4 81.6v26.2h-63.2v-31.8c0-9.6 0-25.8-18.2-25.8s-18.2 16.2-18.2 25.8v139.6c0 7.4 0 25.8 18.2 25.8s18.2-18.4 18.2-25.8V475h63.2v35.7c0 50.2-31.3 81.6-81.4 81.6-50.1 0-81.4-31.4-81.4-81.6Zm33.7-379.1v94.4h4.9c8.3 0 13-3.8 13-12.2v-70c0-8.4-4.7-12.2-13-12.2h-5ZM75 248.5V107h48c27.5 0 35 16.1 35 37.9v67.3c0 25.9-18 36.3-35 36.3H75Zm101 0V134h31.4v114.5H176Zm0-121.3V107h31.4v20.2H176Zm47.2 91v-54c0-13.3 6.8-32.5 37-32.5s37 19.2 37 32.6v31.5h-43.8v24.5c0 4 0 9.3 6.8 9.3 6.9 0 6.9-5.3 6.9-9.3V206h30.1v12.2c0 13.4-6.8 32.6-37 32.6s-37-19.2-37-32.6Zm29.1-54.5v13h13.5v-13c0-4 0-9.5-6.7-9.5-6.8 0-6.8 5.5-6.8 9.5ZM429.7 107v141.5h-30.2V237h-.4a21.7 21.7 0 0 1-21 13.7c-14.2 0-22.5-12.6-22.5-33.9v-55.2c0-18 7.2-28.7 22-28.7 10.8 0 17 4 21.5 12.6h.4V107h30.2Zm-29.2 102.8v-39c0-7-1.4-14.4-7.6-14.4-2.8 0-5.9 2.3-5.9 7v57.4c0 5.9 3 7.5 6 7.5 7.5 0 7.5-10.6 7.5-18.5Zm42.7 38.7V134h29.2v20.3h.3c4.3-10.6 8.1-22.6 22.1-22.6V169h-7.2c-10.6 0-13.6 6.6-13.6 14.5v65h-30.8Zm60.6-30.3v-54c0-13.3 6.8-32.5 37-32.5s37 19.2 37 32.6v31.5H534v24.5c0 4 0 9.3 6.8 9.3 6.9 0 6.9-5.3 6.9-9.3V206h30.2v12.2c0 13.4-6.9 32.6-37 32.6-30.3 0-37.1-19.2-37.1-32.6Zm29.2-54.5v13h13.4v-13c0-4 0-9.5-6.7-9.5s-6.7 5.5-6.7 9.5Zm60.6 84.8V134H625v114.5h-31.4Zm0-121.3V107H625v20.2h-31.4Z"/></g></svg>