<svg xmlns="http://www.w3.org/2000/svg" viewBox="0 0 595 842"><defs/><g fill="none" fill-rule="evenodd"><path fill="#FFF" d="M0 0h595v842H0z"/><g fill="#000" transform="translate(98 204)"><path d="M319.53 89.39c-1.05.1-1.98.67-1.98 1.22 0 1.35 2.92 4.12 4.36 4.12.25 0 .76.25 1.15.55.38.3 1.5 1.04 2.46 1.66.97.62 2.04 1.39 2.38 1.7.74.7 2.61 2.1 3.76 2.83.45.3 1.4 1.07 2.1 1.72a16 16 0 0 0 1.75 1.46c.25.14 1.2 1.06 2.11 2.04a27.5 27.5 0 0 0 3.35 2.99 7.9 7.9 0 0 1 1.7 1.42c0 .12.5.55 1.12.97 1.2.8 1.88 1.38 3.39 2.87.52.52 1.15.94 1.41.94s.53.24.6.53c.08.3.3.53.5.53s.44.15.56.34c.12.18.55.55.97.82.42.26.82.7.9.98.06.28.29.5.49.5s.36.11.36.25c0 .26-1.4 1.34-1.73 1.34-.2 0-2.6 1.43-5.54 3.3-.72.46-1.97 1.16-2.77 1.56-.8.4-1.93 1-2.51 1.33l-2.65 1.48c-.87.47-1.78 1.03-2.02 1.24-.24.2-1.2.64-2.13.97-1.9.66-3.23 1.41-4.97 2.81-.65.53-1.72 1.2-2.37 1.47-.65.28-1.48.76-1.85 1.06-.37.3-1.44.96-2.39 1.44-.94.5-2.13 1.2-2.64 1.6-.51.38-1.31.82-1.78.98-.47.16-1.39.66-2.03 1.1-.65.45-1.28.8-1.4.8-.12 0-.64.35-1.14.76-.5.4-1.73 1.15-2.72 1.65a21.4 21.4 0 0 0-3.04 1.88c-.68.54-2.07 1.49-3.1 2.1a34.64 34.64 0 0 0-4.02 2.77c-.4.3-1.03.65-1.4.76-.36.11-1.07.55-1.58.97-3.76 3.13-7.42 5.7-9.53 6.73-.66.32-1.73.98-2.38 1.47a58.78 58.78 0 0 1-5.94 3.63c-.44.23-1.69 1.03-2.77 1.77a47.87 47.87 0 0 1-3.83 2.33 87.62 87.62 0 0 0-3.57 2 57.7 57.7 0 0 1-3.17 1.76c-.8.4-2 1.1-2.65 1.56a31 31 0 0 1-2.38 1.5c-.65.36-1.77 1.06-2.47 1.56a100.53 100.53 0 0 1-6.17 3.94c-.08 0-.5.3-.92.66-.43.36-1.09.66-1.46.66-.71 0-3.82 1.57-4.7 2.37-.3.26-1.55 1.04-2.78 1.72a24.82 24.82 0 0 0-2.78 1.7c-.7.63-4.02 2.4-4.48 2.4-.2 0-.59.28-.86.62-.26.34-.8.78-1.17.99a66.62 66.62 0 0 0-5.39 3.25 40.72 40.72 0 0 0-3.17 2.17c-.35.4-3.43 2.45-4 2.68-.59.22-3.72 2.26-4.6 2.98a25.37 25.37 0 0 1-4.75 3.07c-3.04 1.42-3.78 1.84-4.43 2.53-.38.39-1.06.78-1.53.86a2.9 2.9 0 0 0-1.34.72c-.62.7-2.05 1.67-4.2 2.87-4.55 2.53-10.77 6.56-13.12 8.5a8.97 8.97 0 0 1-1.37 1.02c-.3 0-4.5 2.92-5.17 3.6a15.6 15.6 0 0 1-2.07 1.59c-.75.48-1.43 1-1.52 1.12-.08.14-1.01.74-2.06 1.34a40.6 40.6 0 0 0-5.3 3.37c-1 .9-5.28 3.78-5.62 3.78-.18 0-.47.18-.65.4-.32.38-5.7 4.1-5.94 4.1a53.8 53.8 0 0 0-4.24 3.17c-.8.73-7.9 4.46-8.55 4.5-.1 0-.58.37-1.09.8-.5.43-1.04.78-1.2.78-.16 0-.94.55-1.73 1.22-.79.68-1.73 1.41-2.1 1.64-.36.23-1.67 1.07-2.9 1.88a58.8 58.8 0 0 1-3.7 2.23c-.8.42-1.65.92-1.88 1.12-.23.2-.55.37-.72.37-.36 0-1.79.78-3.62 1.98-.73.48-1.74 1.1-2.26 1.36-.51.27-1.1.64-1.32.82-2.54 2.13-3.32 2.71-3.61 2.71-.19 0-.35.1-.35.22 0 .13-.53.5-1.18.84-.65.33-1.38.82-1.63 1.1-.24.27-.58.49-.76.49-.17 0-.84.45-1.48 1.01-1.2 1.06-5.38 3.74-5.81 3.74-.14 0-.37-.31-.52-.7a74.5 74.5 0 0 0-2.97-5.5 15.2 15.2 0 0 0-1.05-1.4 3.72 3.72 0 0 1-.74-1.2c-.08-1.18-.57-2.03-1.19-2.03-.19 0-.41-.23-.5-.5a3.7 3.7 0 0 0-.93-1.18 6.3 6.3 0 0 1-1.21-1.56 13.22 13.22 0 0 0-4.24-4.31 16.3 16.3 0 0 0-5.04-2.27c-2.22-.62-2.65-.66-10.08-.92a44 44 0 0 0-6.97.15c-2.74.4-2.92.17-2.52-3.16l.31-2.91c.11-1.1.31-2.19.44-2.43.12-.25.34-1.14.48-1.98.14-.85.38-2.13.54-2.86.38-1.68.38-2.14.03-3.47-.2-.77-.2-1.63-.01-2.9.29-1.94.29-2.03.2-4.47-.02-.87.05-3.67.17-6.21.28-5.81.34-7.39.38-10.82.02-1.56.16-2.91.32-3.1.21-.26.2-.46-.03-.74-.18-.23-.25-.7-.16-1.13.1-.4.21-2.28.27-4.17.05-1.9.23-3.76.38-4.15.15-.4.29-2 .3-3.57.03-1.57.1-4.4.2-6.3.07-1.88.13-5.81.11-8.72-.06-11.77-.02-17.2.1-17.61.07-.24.02-.71-.1-1.06-.14-.36-.14-1.86-.01-3.54.12-1.6.27-5.04.33-7.66.05-2.62.24-5.28.41-5.9.23-.86.23-1.5.01-2.58a21.6 21.6 0 0 1-.15-4.48c.11-2.14.06-3.2-.16-3.55-.7-1.12-.17-1.23 6.98-1.32 10.88-.14 15.66.19 17.95 1.23.82.37 1.83.67 2.24.67.42 0 1.2.28 1.75.63 2.31 1.46 7.26.53 8.44-1.59.56-.99.53-2.07-.06-2.7-.52-.56-.6-.97-.7-3.35-.07-2.18-.22-2.97-.74-4.1l-1.31-2.8a7.64 7.64 0 0 1-.66-1.82c0-1.1-5.27-5.76-7.95-7.05-.65-.3-1.35-.67-1.57-.8-2.86-1.76-7.26-2.4-17.8-2.55-6.8-.1-10.78.42-16.43 2.14-1.6.49-3.63 1.08-4.5 1.32-.87.24-2 .6-2.51.8-.5.2-1.4.5-1.98.67-.58.17-1.48.53-1.99.8-.5.27-2 .92-3.3 1.45-1.3.52-2.57 1.2-2.8 1.48-.29.38-.89.59-2.05.72-1.39.17-1.77.33-2.42 1.04-.42.46-.98.84-1.26.84-.57 0-2.79 1.34-3.83 2.32-2.14 2.01 1.16 5.8 3.63 4.18.36-.23 1-.42 1.44-.42a4.3 4.3 0 0 0 1.45-.3c.5-.23.85-.22 1.5.04.96.4 1.56-.08 1.56-1.25 0-.62 1.94-2.98 2.45-2.98.55 0 3.52-1.46 3.82-1.88.18-.24.7-.5 1.15-.6.45-.1 1.13-.4 1.5-.7.37-.29.88-.53 1.13-.53.26 0 1.26-.3 2.22-.66.97-.36 2-.66 2.29-.66.3 0 1.1-.28 1.78-.63.68-.35 2.02-.82 2.96-1.04 1.68-.4 2.17-.48 5.95-.96l4.36-.56c2.97-.38 3.3-.39 9.12-.15 2.53.1 5.02.35 5.69.55.65.2 1.74.44 2.43.54.68.09 1.53.4 1.89.68.36.28.72.51.81.51.7 0 6.5 4.63 6.5 5.18 0 .17.48.9 1.06 1.64a4.93 4.93 0 0 1 1.06 1.9c0 .33.16.9.36 1.29.66 1.3.9 2.33.63 2.8-.14.25-.19.7-.11.99.13.5.05.52-1.37.36a59.2 59.2 0 0 0-3.08-.24 25.4 25.4 0 0 1-3.08-.4c-2.64-.57-10.53-.78-19-.53-4.92.15-5.64-.09-7.62-2.53-.8-.98-2.02-.43-2.1.94l-.09 1.22-2.3.17c-2.22.16-7.37.05-10.36-.22-.8-.08-4.22-.2-7.6-.3a68.8 68.8 0 0 1-7-.39c-2.58-.74-6.02-.1-6.02 1.1 0 1.31 3.55 3.73 5.36 3.66.62-.03 2.1.1 3.32.27 1.54.22 2.3.23 2.53.03.24-.2 1-.19 2.56.01 1.71.22 8.97.37 12.14.25 2.57-.1 6.64.18 6.92.46.2.2.33.9.32 1.72l-.14 9.22a99.96 99.96 0 0 1-.27 8.02c-.1.1-.12.8-.04 1.54a7.9 7.9 0 0 1-.14 2.4c-.21.76-.21 1.15 0 1.4.2.24.2.44 0 .68-.15.19-.28.75-.28 1.26 0 .5-.08 2.4-.18 4.22-.1 1.82-.18 3.72-.17 4.23l.02 3.7c.03 4.38.07 7.24.16 11.37.04 2.25-.03 3.97-.18 4.16a.84.84 0 0 0-.1.75c.08.23.03.65-.13.94-.2.38-.2.63.03.9.18.21.23.59.13.85-.11.25-.24 2.48-.29 4.96a69.46 69.46 0 0 1-.36 6.34 23.16 23.16 0 0 0-.27 2.25c.08 2.15-.1 5.47-.31 5.73-.18.2-.18.48 0 .82.17.31.2 1.08.05 2.06a21.3 21.3 0 0 0 0 3.91c.11 1.3.12 2.6 0 2.91-.12.31-.2 2.29-.2 4.4 0 2.1-.13 5.55-.3 7.66-.18 2.11-.38 5.2-.46 6.88-.16 3.76-.3 5.25-.54 5.79-.1.23-.28 1.13-.39 2-.86 6.73-.93 7.1-1.53 7.64-.59.53-3.76.88-11.13 1.23-3.69.17-6.9.45-7.87.69a7.36 7.36 0 0 1-2.75.22c-1.06-.18-1.08-.16-.93.47.18.69-.58 1.26-1.67 1.26-.28 0-.57.11-.66.26-.1.14-.8.44-1.6.67-1.37.4-3.94 1.96-5.9 3.57-.52.43-1.04.78-1.16.78-.11 0-.89.46-1.72 1.03a29.5 29.5 0 0 1-2.45 1.5 4.2 4.2 0 0 0-1.27.95c-.19.27-.7.67-1.13.9-1.37.7-9.03 8.6-9.36 9.65-.1.27-.51.83-.94 1.23-.43.4-.78.89-.78 1.07 0 .3-.18.73-.77 1.8-.08.17-.5.82-.92 1.46-.42.63-1.07 1.75-1.43 2.48-.36.73-.94 1.74-1.28 2.25-.34.5-.62 1.24-.62 1.62 0 .39-.18.85-.4 1.03-.22.18-.4.64-.4 1.03s-.17.95-.38 1.26a8.5 8.5 0 0 0-.81 1.84l-.53 1.62c-.15.46-.15.45-.42 1.66-.14.6-.5 1.43-.8 1.84-.42.56-.52.98-.4 1.57.09.45.06 1.08-.07 1.4-.13.33-.38 1.14-.57 1.8-.19.64-.4 1.3-.49 1.45-.08.14-.29.85-.46 1.58l-.57 2.38c-.63 2.48-.34 16.02.36 16.8.26.29.4.73.31 1.03-.16.62.91 5.58 1.52 7.03.22.54.4 1.24.4 1.57 0 .32.09.66.2.76.1.1.38.93.63 1.83.24.9.7 2.3 1 3.1.3.8.56 1.9.56 2.46 0 .74.18 1.19.72 1.72a14 14 0 0 1 1.78 2.8c1.68 3.28 2.02 3.86 2.26 3.86.12 0 .92.7 1.77 1.55.99.99 1.87 1.63 2.42 1.75.47.1.93.35 1 .55.15.4 1.8 1.44 2.27 1.44.28 0 1.14.51 3.14 1.87.38.26.93.41 1.22.34.65-.17 3.2 1.11 3.86 1.94.26.33.71.6 1 .6.28 0 1.1.3 1.82.67.72.36 1.64.66 2.05.66.75 0 2.03.55 3.23 1.4.36.24.93.45 1.27.45.33 0 1.05.22 1.6.5.53.26 1.63.64 2.43.82.8.19 1.75.55 2.11.8.38.27 1.35.52 2.25.6 1.6.12 4.51.86 6.21 1.58.5.21 1.07.34 1.25.27.18-.06 1.46.08 2.84.31 1.8.31 2.66.35 3.03.15.28-.15.91-.27 1.4-.27.5 0 1-.11 1.14-.25.14-.13 1.03-.3 1.97-.37a23.9 23.9 0 0 0 3.04-.43c.73-.17 2.4-.4 3.7-.5 1.31-.1 2.84-.4 3.4-.65a5.6 5.6 0 0 1 1.73-.46c.38 0 .99-.17 1.35-.38a3.1 3.1 0 0 1 1.26-.39c.34 0 1.4-.41 2.38-.9a27.8 27.8 0 0 1 2.44-1.1 6.05 6.05 0 0 0 1.48-.82c.45-.35 1-.63 1.22-.63.21 0 .6-.23.87-.52.26-.3.66-.53.9-.53.22 0 .65-.25.94-.55.75-.76 4.12-3.15 4.44-3.15.14 0 .83-.48 1.52-1.06.7-.58 1.4-1.06 1.55-1.06.4 0 1.41-1.42 1.74-2.45.25-.77.42-.86 1.8-1.11 1.43-.25 1.59-.36 2.23-1.43.38-.64.9-1.39 1.18-1.66.27-.27.49-.71.49-.98 0-.76.96-2.76 1.7-3.57.37-.4.75-1.01.84-1.37.09-.36.27-.65.4-.65s.23-.24.23-.53a4 4 0 0 1 .62-1.52c.74-1.19 1.5-3.34 1.5-4.27 0-.63 1.52-3.93 2.17-4.71.15-.18.2-.65.13-1.03a5.2 5.2 0 0 1 .91-3.33c.38-.54.5-1.12.48-2.25-.05-2.14.72-5.62 1.51-6.8.2-.3.35-.89.35-1.33 0-.44.16-1.1.35-1.47.56-1.06.68-1.8.43-2.66-.46-1.61.26-2.08 3.71-2.39 3.72-.34 5.62-.64 6.97-1.13.7-.25 1.72-.43 2.25-.39.53.04 1.44-.05 2.02-.21a25.5 25.5 0 0 1 3.56-.47c1.37-.1 2.63-.28 2.8-.42.16-.13 1.3-.43 2.52-.67 1.22-.23 2.34-.51 2.49-.63.14-.12 1.15-.3 2.24-.4 1.1-.11 2.28-.32 2.65-.46 1.25-.48 8.52-1.54 9.43-1.37.5.1 1.4.04 2.01-.13.61-.17 2.72-.55 4.68-.85 5.42-.84 5.89-.92 6.74-1.28.48-.2 2.11-.32 4.1-.33 1.82 0 4.32-.18 5.55-.4 1.23-.22 2.9-.34 3.7-.27a4.64 4.64 0 0 0 2.51-.37 7.3 7.3 0 0 1 2.71-.49c.9 0 2.16-.12 2.78-.26 2.49-.57 7.18-1.44 10.51-1.96 1.38-.2 3.82-.64 5.42-.95 5.73-1.1 10.21-1.3 17.32-.76 5.4.41 7.36.45 9.38.2a50.8 50.8 0 0 1 8.07-.6c3.07.03 22.77.08 24.05.06.51-.01 2.81.1 5.12.25 2.83.18 4.43.19 4.95 0 1.1-.37 4.63.13 5.5.8.76.56.81 1.12.3 3.35-.22 1-.22 1.56.02 2.3.17.52.23 1.3.13 1.71-.1.41-.17.87-.15 1.01.12 1.52.15 9.85.04 10.04-.08.14-.12.68-.08 1.2.33 4.9.59 7.36.96 9.38.24 1.31.47 2.71.51 3.11.04.4.44 1.2.9 1.77.59.73.86 1.4.95 2.28.07.69.25 1.37.4 1.53.16.15.28.76.28 1.35 0 .94.19 1.28 1.46 2.64.8.86 1.45 1.72 1.45 1.91 0 .2.19.56.42.81.23.26.97 1.3 1.65 2.31a9.41 9.41 0 0 0 2.56 2.7c.72.48 1.76 1.28 2.3 1.8.53.5 1.15.93 1.37.93.23 0 .67.35 1 .79.32.44.82.8 1.1.8.3 0 .73.17.97.4.4.36 2.35 1.02 3.96 1.34.64.12 2 .5 4.42 1.18.62.18 1.45.35 1.85.38 1.26.08 1.34.11 2.18.82.73.62.9.66 1.58.37.5-.2.93-.23 1.25-.06.83.43 5.3.76 7.56.56a17.3 17.3 0 0 1 1.78 0c2.4.14 6.5-.19 7.43-.57.52-.22 1.71-.49 2.64-.6.94-.1 2.6-.42 3.68-.71 1.1-.29 2.85-.56 3.92-.6 1.06-.03 2.06-.2 2.23-.36.17-.17.78-.31 1.37-.31.67 0 1.48-.26 2.13-.66a4.49 4.49 0 0 1 1.49-.66c.23 0 1.17-.24 2.08-.53.91-.29 1.95-.53 2.31-.53.37 0 1.4-.51 2.28-1.14a10.5 10.5 0 0 1 2.35-1.33c.4-.1 1.12-.53 1.62-.97a3.62 3.62 0 0 1 1.18-.79c.16 0 .42-.24.58-.55.16-.3.73-.73 1.27-.95a10.1 10.1 0 0 0 2.02-1.25c.59-.46 1.5-1.05 2.04-1.3.53-.25 1.04-.66 1.12-.9a6 6 0 0 1 1.36-1.53 6.9 6.9 0 0 0 1.56-1.88c.2-.46.6-.92.9-1.01.4-.13.56-.4.56-.96 0-.57.17-.86.64-1.07.35-.16.7-.57.8-.9.08-.33.62-1.12 1.2-1.75.97-1.05 2.16-2.4 3.02-3.4.65-.75 2.07-4.2 1.9-4.62-.16-.44.67-2.34 1.16-2.64.15-.1.27-.38.27-.65 0-.26.18-.63.41-.82.82-.68 1.46-2.63 1.56-4.75.08-1.88 1.2-4.77 1.95-5.05.5-.2.6-.37.46-.83-.43-1.43-.42-3.73.02-4.2.26-.3.36-.7.27-1.07-.1-.34 0-.77.22-1 .47-.53.64-1.7.8-5.56.08-1.67.25-3.93.37-5.02.25-2.1.1-4.68-.27-4.91-.12-.07-.16-.46-.08-.85.08-.4-.06-1.61-.3-2.7-.74-3.4-1.16-5.9-1.02-6.13.07-.12-.11-.57-.41-1a6.07 6.07 0 0 1-.8-1.9c-.38-1.88-.47-2.17-.91-3a3.62 3.62 0 0 1-.42-1.2c0-.22-.6-1.23-1.31-2.25a29.95 29.95 0 0 1-2-3.23c-1.33-2.67-10.6-12.26-14.24-14.74a257.3 257.3 0 0 1-2.38-1.63c-.45-.32-1.78-.96-2.94-1.43a15.9 15.9 0 0 1-2.53-1.2c-.23-.2-.65-.36-.93-.37-.28 0-1.09-.18-1.8-.4a9.68 9.68 0 0 0-2.28-.39c-1.25 0-1.7-.51-1.46-1.65.1-.47.24-1.6.29-2.52a7.8 7.8 0 0 1 .48-2.44c.4-.8.61-2.93.83-8.45.08-1.82.2-4.26.27-5.42a636 636 0 0 0 .37-6.88c.12-2.65.37-5.06.55-5.45.24-.52.24-.83.02-1.26-.22-.4-.22-.71-.03-1.07a7 7 0 0 0 .27-2.23c0-.94.18-2.4.4-3.25.53-2.1 1-5.2 1.29-8.58.06-.68.36-1.92.68-2.76.5-1.33.98-5.07 1-7.78 0-.37.19-1.44.4-2.38.22-.95.4-2.08.42-2.51.01-.44.15-1.63.31-2.65s.32-2.34.35-2.94c.03-.6.18-1.25.34-1.45.16-.2.3-.82.32-1.37.02-.55.1-1.12.19-1.27.19-.3.43-2.4.41-3.52 0-.43.12-.94.28-1.13.16-.19.33-.97.4-1.73.18-2.53.38-6.93.36-8.09 0-.63.11-1.63.27-2.23.16-.6.34-3.59.4-6.65.1-5.97.41-9.85.9-11.12.3-.8.6-4.52.58-7.24-.01-2.51.82-3.4 2.04-2.18.51.51 1.64 1.2 2.46 1.5.25.1.48.41.53.7.05.34.41.66.94.84.47.16 1.66 1.02 2.65 1.9.98.9 2.17 1.82 2.64 2.06.47.25.86.55.86.68s.54.54 1.2.91c1.38.77 2.22 1.42 4.94 3.83 1.04.93 2.35 1.97 2.9 2.32.55.35 1 .8 1 1.01 0 .5.83.94 1.8.94.54 0 .84.17 1.04.6.31.7 3.2 2.57 3.97 2.57.29 0 .8.22 1.15.48.35.27.82.55 1.06.64.74.27 2.88 3.36 2.88 4.16 0 2.2 2.7 3.5 3.3 1.6.09-.27.41-.82.73-1.22.31-.4.6-.91.63-1.14.04-.23.15-.76.25-1.17.43-1.8-.96-4.15-3.01-5.12-.78-.37-1.48-.84-1.56-1.05-.08-.2-.6-.6-1.15-.89-.55-.28-1.08-.75-1.17-1.04-.12-.36-.64-.65-1.74-.96-.86-.24-1.57-.58-1.57-.75 0-.18-.42-.52-.92-.76-.51-.24-.93-.55-.93-.69 0-.14-.25-.33-.57-.43-.31-.1-1.06-.7-1.67-1.32a7.9 7.9 0 0 0-2.02-1.52 8.9 8.9 0 0 1-2.14-1.6 12.17 12.17 0 0 0-2.58-1.92c-.75-.37-1.44-.88-1.53-1.12a1.78 1.78 0 0 0-1.45-1.1c-.26 0-.67-.24-.92-.53-.25-.29-.6-.53-.78-.53-.17 0-.7-.36-1.19-.8-.47-.43-1.05-.78-1.27-.78-.38 0-3.2-2.27-4.38-3.53-.7-.74-2.37-2.02-3.62-2.79-.81-.49-.94-.69-.74-1.07.2-.36.1-.61-.37-1.06a3.2 3.2 0 0 1-.79-1.2c-.2-.78-1.3-1.18-3.8-1.38-1.73-.14-1.97-.23-2.18-.78-.13-.34-.34-.62-.46-.62-.23 0-3.98-3.1-5.02-4.16-.32-.33-.75-.6-.94-.6-.2 0-.64-.3-.99-.68a8.08 8.08 0 0 0-1.6-1.22 3.8 3.8 0 0 1-1.28-1.12 3.27 3.27 0 0 0-1.16-1.04 18.08 18.08 0 0 1-2.56-2.05 62.3 62.3 0 0 0-3.25-2.83c-.85-.68-2.1-1.77-2.78-2.41a13.2 13.2 0 0 0-2.16-1.68 5 5 0 0 1-1.21-.87 9.5 9.5 0 0 0-2.41-1.7c-.1 0-.42-.23-.73-.52a10.2 10.2 0 0 0-1.64-1.12c-5.81-3.23-6.14-3.36-8.15-3.17m36.96 35.88c.3 1.35.04 5.14-.64 9.51l-.68 4.5c-.09.58-.2 2.54-.27 4.36-.2 6.2-.34 8.6-.5 8.99-.09.22-.28 1.7-.42 3.3-.65 7.37-1.21 12.13-1.55 13.25a3.88 3.88 0 0 0-.1 1.58c.09.43-.04 1.85-.28 3.15-.6 3.32-.94 5.51-1.2 7.67-.12 1.02-.4 3.04-.64 4.5a71.18 71.18 0 0 0-.53 3.96 17.4 17.4 0 0 1-.41 2.5c-.17.66-.41 1.85-.55 2.65-.13.8-.35 2.05-.49 2.78-.13.73-.25 1.94-.26 2.7a7.42 7.42 0 0 1-.3 2.08c-.14.39-.31 1.2-.38 1.8-.54 5.2-.96 8.38-1.22 9.2-.2.63-.26 1.9-.16 3.52.08 1.39.04 3.68-.1 5.1a88.33 88.33 0 0 0-.27 6.66c0 2.63-.15 4.72-.4 5.82-.8 3.48-.86 3.9-.87 5.57 0 .93-.1 2.06-.23 2.5l-.23.78-2.75-.04-7.25-.14c-6.98-.15-12.07.4-14.73 1.62-.68.3-1.93.69-2.77.84a8.6 8.6 0 0 0-2.7 1.05c-.65.43-1.37.77-1.6.77-.25 0-.7.36-1.03.8-.32.43-.8.79-1.06.79-.7 0-6.93 4.8-8.1 6.24a5.53 5.53 0 0 1-1.72 1.47c-.4.13-.85.54-1.02.9-.16.35-.41.64-.56.64-.15 0-.7.66-1.21 1.46-.51.8-1.17 1.6-1.45 1.78-.29.18-.52.48-.52.66 0 .18-.54.9-1.2 1.59-.65.69-1.45 1.64-1.78 2.11-.32.47-.8.86-1.05.86-.31 0-.46.2-.46.62 0 .34-.24.84-.53 1.1-.3.26-.53.62-.53.8 0 .17-.24.52-.53.79-.29.26-.53.68-.53.93s-.18.61-.41.8c-.23.19-.6.7-.83 1.16-.22.44-.81 1.3-1.3 1.91-.5.6-.9 1.24-.9 1.41 0 .18-.16.7-.35 1.15-.78 1.8-.97 2.33-.97 2.72 0 .22-.23.71-.53 1.08-.29.37-.52.96-.52 1.3 0 .36-.24 1.11-.53 1.68-.3.57-.53 1.33-.53 1.7 0 .35-.12.72-.27.81-.14.1-.26.5-.26.93 0 .42-.12.83-.26.92-.14.08-.33.75-.43 1.47-.2 1.48-.82 1.87-2.16 1.35-.9-.35-13.88-.73-20.15-.59-1.1.03-3.53.02-5.42 0-1.9-.04-4.15.04-5.02.18a19 19 0 0 1-3.97 0c-3.14-.3-5.72-.27-9.25.1-3.78.4-6.26.44-9.52.13-7.32-.7-18.8-.12-22.47 1.15-.9.3-2.7.62-4.1.72-2.43.17-4.48.48-8.33 1.27-1.01.21-3.87.57-6.34.8l-6.08.58c-3.1.3-5.04.44-6.18.42a4.8 4.8 0 0 0-1.9.36c-.42.22-1.13.39-1.59.39-.46 0-1.52.18-2.37.4-.84.22-2.52.51-3.74.65a71.3 71.3 0 0 0-3.65.53c-.8.15-2.65.38-4.1.52-1.46.15-3.57.5-4.7.8-1.14.3-2.19.48-2.33.4-.24-.16-1.8 0-7.13.68-1.1.14-2.64.5-3.44.8-1.3.5-3.24.97-6.59 1.58l-2.64.5c-.8.15-2.41.4-3.57.55-1.17.15-2.77.4-3.57.53a85.2 85.2 0 0 1-6.48.88l-.8.04.1-1.59c.05-.87.2-1.72.34-1.9.46-.55.56-4.1.15-5.37-.21-.66-.39-1.87-.4-2.7a4.1 4.1 0 0 0-.43-2.1 3.8 3.8 0 0 1-.41-1.83c0-.68-.17-1.7-.37-2.28a7.3 7.3 0 0 1-.37-2.03 3.5 3.5 0 0 0-.37-1.56c-.2-.32-.54-1.1-.73-1.71a4.04 4.04 0 0 0-.72-1.42c-.2-.16-.35-.52-.35-.8 0-.27-.15-.73-.33-1.02-.41-.66 0-1.41.81-1.54.31-.04.9-.47 1.3-.95s1.09-1.1 1.52-1.37c.44-.27 1-.69 1.26-.92.26-.23.8-.58 1.2-.78.4-.2 1.07-.61 1.5-.92.44-.3 1.8-1.15 3.01-1.86a19.4 19.4 0 0 0 3.3-2.43c.6-.62 1.33-1.2 1.62-1.3.53-.17 2-1.12 2.27-1.47.07-.1.6-.38 1.18-.62a8.83 8.83 0 0 0 1.68-.94c.35-.27.86-.5 1.14-.5a5 5 0 0 0 2.61-1.33c.28-.29.65-.52.8-.52.17 0 1.01-.6 1.88-1.32a7.4 7.4 0 0 1 1.95-1.32c.21 0 .82-.4 1.37-.89.92-.82 1.5-1.18 3.24-2.06a55 55 0 0 0 2.8-1.7 35.48 35.48 0 0 1 3.31-1.91c.64-.3 1.4-.8 1.69-1.1.28-.32.87-.75 1.31-.96.44-.2 1.28-.73 1.86-1.17a19.3 19.3 0 0 1 2.03-1.31 31.9 31.9 0 0 0 2.68-1.78 40.9 40.9 0 0 1 3.08-2.06c.75-.43 2.1-1.33 3-1.99.9-.65 2.08-1.47 2.63-1.8.54-.34.99-.7.99-.82 0-.11.98-.78 2.18-1.48 1.2-.7 2.52-1.55 2.94-1.9.42-.34 1.13-.8 1.59-1.01.45-.22 1.06-.55 1.35-.73l1.38-.87c.47-.3 1.6-1.22 2.51-2.05a26.18 26.18 0 0 1 4.27-3.28 88.24 88.24 0 0 0 6.38-4.42 49.52 49.52 0 0 1 3.61-2.52c.1 0 .75-.45 1.46-1 .7-.55 1.7-1.17 2.2-1.38 1.35-.54 3.97-2.1 3.97-2.36 0-.13.33-.34.74-.49.4-.14 1.7-.9 2.88-1.67a91.18 91.18 0 0 1 3.5-2.22c.75-.43 2.07-1.24 2.93-1.78.86-.55 1.68-1 1.84-1 .15 0 .65-.35 1.1-.79.46-.43.95-.79 1.1-.79.82 0 4.36-2.02 5.38-3.07a8.24 8.24 0 0 1 2.15-1.6 43.5 43.5 0 0 0 6.53-4.06c1.11-.98 2.4-1.84 2.77-1.84.17 0 .87-.39 1.54-.86.68-.48 1.71-1.11 2.3-1.42 2.78-1.46 3.24-1.76 4.13-2.72a4.48 4.48 0 0 1 1.76-1.2 2.8 2.8 0 0 0 1.26-.7c.26-.27.61-.5.79-.5.18 0 1.02-.48 1.87-1.06a12 12 0 0 1 1.75-1.06c.72 0 7.31-3.75 10.53-5.97 1.18-.82 2.6-1.63 6.33-3.63a46.1 46.1 0 0 0 3.04-1.77c.59-.39 1.86-1.15 2.84-1.7.98-.54 1.85-1.1 1.94-1.23.08-.14 1-.68 2.03-1.2a33.14 33.14 0 0 0 3.18-1.84 7.1 7.1 0 0 1 1.56-.9c.34 0 4.09-2.26 5.24-3.16.5-.4 1.94-1.23 3.17-1.85 1.24-.62 2.5-1.35 2.8-1.63.3-.27.68-.5.85-.5.17 0 1.11-.69 2.1-1.53.98-.84 2.62-2.08 3.65-2.76a17.62 17.62 0 0 0 2.37-1.8 5 5 0 0 1 1.43-.94c.5-.21 1.07-.62 1.27-.9.2-.3.52-.53.7-.53.2 0 .66-.36 1.05-.8.39-.43.86-.79 1.04-.79.18 0 .75-.33 1.25-.73 1-.8 4.02-2.68 6.12-3.8.72-.39 1.58-1 1.93-1.37.55-.6 5.9-3.35 6.5-3.35.14 0 .7-.39 1.24-.87a7.35 7.35 0 0 1 2.05-1.22c.59-.2 1.24-.5 1.46-.69.22-.18.88-.57 1.47-.87a5.7 5.7 0 0 0 1.42-.96c.2-.23 1.61-1.05 3.16-1.83 5.43-2.72 6.21-3.14 7.44-4 .68-.49 1.7-1.13 2.27-1.44.56-.3 1.5-.83 2.08-1.16.58-.33 1.77-1 2.65-1.48.87-.49 1.76-1.03 1.98-1.21a33.8 33.8 0 0 1 2.25-1.46c4.64-2.84 5.37-2.99 5.76-1.18M339.6 247.83c3.2.36 3.8 1.28 2.64 4.06-.22.54-.33 1.2-.24 1.47.08.28.03.74-.13 1.04-.16.3-.34 1.46-.4 2.59a21.3 21.3 0 0 1-.36 3.1c-.15.59-.27 1.91-.26 2.95 0 1.04-.12 2.11-.26 2.38-.3.57-.7 3.18-.6 3.88.15 1.13-.6 7.53-1.02 8.63-.32.85-.48 2.14-.52 4.37-.05 2.21-.18 3.3-.43 3.57-.2.22-.49 1.23-.65 2.25a17.6 17.6 0 0 1-.52 2.38l-.5 1.25c-.22.55-.47.73-1.03.73-.4 0-1.15.22-1.66.5-1.35.72-6.69 1.22-10.24.96a380.4 380.4 0 0 0-14.74-.25c-9.03-.04-12.04-.12-12.5-.38-.43-.23-1.75-.32-4.37-.28-6.15.08-7.18-.73-5.35-4.21.35-.68.7-1.62.79-2.09.38-2.18.53-2.63 1.11-3.4a3 3 0 0 0 .63-1.52c0-.4.16-.78.36-.85.2-.08.52-.7.71-1.38a12.2 12.2 0 0 1 1.87-3.8c.27-.38.5-.86.5-1.05.01-.53 1.13-1.7 2.1-2.2.62-.33.82-.58.72-.95-.07-.28.1-.8.37-1.15.28-.35.5-.74.5-.87 0-.14.36-.5.8-.83a4.8 4.8 0 0 0 1.19-1.37c.22-.43.58-.79.79-.79.21 0 .58-.38.82-.86.39-.75 1.39-2.04 2.63-3.39.21-.23.38-.55.38-.72 0-.17.31-.5.69-.75.38-.25.77-.65.86-.9.26-.68 5.53-4.84 7.18-5.67.8-.4 1.95-1.19 2.57-1.75a4.81 4.81 0 0 1 1.42-1.03c.17 0 1.28-.46 2.46-1.03a16.4 16.4 0 0 1 3.32-1.22c.65-.1 1.36-.29 1.59-.4.46-.24 2.72-.7 4.55-.92a3.32 3.32 0 0 1 2.07.27c.74.38.93.39 1.93.03.6-.22 1.87-.46 2.8-.54a7.42 7.42 0 0 0 1.84-.3c.08-.08.4-.07.69.02.3.09 1.6.28 2.9.42m11.8 1.55c1.08.29 2.26.53 2.64.53.37 0 .78.12.92.25.14.14 1.2.75 2.36 1.36 2.42 1.28 4.47 2.98 9.16 7.64 1.84 1.82 4.16 4.11 5.16 5.08 1 .97 2.05 2.22 2.33 2.78.29.55.85 1.44 1.26 1.97.4.53.74 1.07.74 1.19 0 .12.24.52.52.89.29.36.52.86.53 1.1 0 .24.34 1.13.76 1.98.81 1.65 1.49 3.72 1.4 4.25-.04.18.1.65.31 1.05.32.64.68 3.36 1.37 10.52.23 2.4.23 2.49-.27 4.76a39.2 39.2 0 0 0-.65 4.76c-.2 2.9-1.6 10.02-2.4 12.23a8.4 8.4 0 0 0-.52 2.17c0 .42-.12.84-.26.93-.15.09-.27.5-.27.89 0 .4-.1.84-.22.97a5.9 5.9 0 0 0-.55 1.45 15 15 0 0 1-1.1 2.57 8.9 8.9 0 0 0-.77 1.62c0 .13-.48.95-1.06 1.82a7.46 7.46 0 0 0-1.06 2c0 .22-.09.44-.2.49-.12.05-.49.53-.82 1.08-.33.54-.71.99-.85.99-.13 0-.24.18-.24.4 0 .56-2.97 4.16-3.8 4.6-.38.2-.75.58-.83.84-.08.25-.47.58-.87.72s-1.3.82-2.04 1.5c-.72.67-1.82 1.58-2.44 2.01a5.71 5.71 0 0 0-1.4 1.3c-.15.3-.4.53-.55.53a4 4 0 0 0-1.25.72 12.7 12.7 0 0 1-2.55 1.63c-.3.12-1.14.59-1.89 1.03-.74.44-2.05.95-2.9 1.14-.86.18-1.91.55-2.35.81-.43.27-.97.48-1.19.48-.22 0-1.17.22-2.11.5a41.02 41.02 0 0 1-5.82 1.37c-.94.15-2.17.45-2.71.66-.55.2-1.5.38-2.13.38a3.5 3.5 0 0 0-1.64.36c-1.15.8-17.08 1.13-18.86.38a6.4 6.4 0 0 0-1.98-.47c-1.55 0-5.26-.93-6.72-1.69a4 4 0 0 0-1.49-.43c-.36 0-.72-.1-.8-.23-.08-.13-.83-.5-1.67-.84a15.75 15.75 0 0 1-3.11-1.83 63.35 63.35 0 0 0-3.1-2.23 5.6 5.6 0 0 1-1.53-1.24c0-.13-.4-.68-.88-1.23a13.75 13.75 0 0 1-1.52-2.18c-.35-.66-.96-1.65-1.36-2.22a3.96 3.96 0 0 1-.73-1.77c0-.4-.3-1.1-.69-1.55-.4-.49-.62-.98-.52-1.24.09-.23-.07-.8-.35-1.25-.55-.9-1.2-4.12-1.47-7.3-.26-2.99-.37-3.67-.69-4.27-.16-.3-.2-.73-.1-.98.35-.8.41-13.04.08-13.44-.3-.36-.07-2.49.53-4.98l.2-.79 2.62.07c1.45.04 5.5.2 8.98.34 3.78.15 6.63.16 7.03.02a4.26 4.26 0 0 1 1.76-.04c.59.1 1.25.1 1.46-.03.21-.11 1.91-.1 3.78.03 1.87.13 3.51.16 3.66.07.5-.3 5-.03 5.73.35.72.37 5.81.5 8.83.21.73-.06 2.7-.17 4.37-.24 6.17-.25 8.43-.93 9.1-2.76.07-.22.24-.58.37-.8.62-1.07.74-1.5.57-1.98a.96.96 0 0 1 .14-.92c.25-.3.28-.77.1-1.85a5.74 5.74 0 0 1 .02-2.25c.13-.44.31-2.7.4-5.02.14-4.2.37-5.94.87-6.55.15-.18.34-.98.42-1.78.44-4.08.73-7.16.8-8.46.05-.8.17-1.65.27-1.89s.23-1.07.28-1.85c.22-3.66.48-5.13 1-5.7.39-.42.45-.68.25-1.04-.3-.54-.1-4.33.25-4.71.12-.14.23-.63.23-1.1 0-1.3.73-1.43 3.72-.64m-268.98 8.09c2.88.1 3.9.24 4.78.65.62.29 1.29.52 1.49.52.2 0 .52.19.71.42.2.23.83.66 1.41.96 1.36.7 5.45 4.44 5.45 5 0 .23.54 1 1.2 1.71.65.71 1.4 1.77 1.67 2.35a5 5 0 0 0 .92 1.43c.24.2.44.5.44.68 0 .17.36.64.8 1.02.53.49.79.96.79 1.49 0 .43.36 1.31.8 1.98.53.78.74 1.33.6 1.57-.25.45-3.88 3.71-4.84 4.35-.36.24-1 .73-1.4 1.09-.4.35-1.13.89-1.61 1.19l-2.57 1.64c-3.07 2.02-4.04 2.6-5.35 3.2a8.2 8.2 0 0 0-1.68 1 6 6 0 0 1-1.23.82c-.46.24-1.2.74-1.65 1.12-.45.38-1.2.9-1.66 1.14a2.6 2.6 0 0 0-1.05 1.03c-.12.32-.63.83-1.15 1.13-.51.31-1.66 1.07-2.54 1.68-.89.62-1.7 1.14-1.82 1.15-.12 0-.75.42-1.4.92-.66.5-1.8 1.27-2.52 1.71-.73.44-2.03 1.34-2.9 1.98-.88.65-1.89 1.33-2.25 1.5a9.9 9.9 0 0 0-1.3.8c-1.24.93-1.35.72-1.2-2.37.2-4.87.33-6.16.6-6.49.14-.18.34-1.69.44-3.36.25-4.11.3-4.56.48-5.02.1-.22.16-.81.14-1.32-.07-2.14.28-5 .69-5.62.52-.8.6-2.25.17-3.06a3.27 3.27 0 0 1-.17-1.71c.08-.61.2-1.95.28-2.96.07-1.02.35-2.45.62-3.18.5-1.33.55-3.01.18-6.12-.1-.84-.05-1.43.11-1.54.16-.1.28-.43.28-.76s.11-.7.25-.84c.13-.14.28-.79.33-1.44l.08-1.2 4.04-.16c2.22-.09 4.13-.25 4.23-.35.1-.1.74-.12 1.42-.03.68.09 2.88.22 4.9.3m-20.85.93c.88.3.96 1.27.3 3.55-.13.43-.23 2.57-.22 4.76.01 2.18-.11 4.62-.28 5.42-.4 1.92-.48 2.53-.66 5.81a48.19 48.19 0 0 1-.34 3.83c-.1.59-.15 1.56-.1 2.16.04.6-.07 1.36-.24 1.68-.18.34-.35 2.14-.4 4.32-.12 4.52-.32 5.92-.96 6.75-.31.4-.48 1.03-.46 1.72.02.6-.08 1.38-.23 1.75-.14.36-.2.8-.14.97.06.18-.01.55-.16.83-.2.35-.18.75.03 1.31.23.61.23 1.06 0 1.82-.16.56-.37 1.57-.46 2.24l-.15 1.23-2.04.66a7.86 7.86 0 0 1-2.9.53c-2.16-.34-4.73 4.15-3.1 5.43.67.53 4.9 1.05 6.95.87.48-.04 1.06.08 1.28.26.92.76 7.67 1.26 9.88.73a19.8 19.8 0 0 1 3.04-.35c1.02-.05 2.27-.2 2.78-.36 2.92-.9 4.03-1.1 6.02-1.1 1.21 0 2.41-.12 2.67-.25a11.3 11.3 0 0 1 2.56-.43c1.15-.1 2.44-.34 2.87-.55.46-.22 1.12-.3 1.63-.2.46.08 1.09.02 1.39-.14.32-.17 2.1-.3 4.32-.3 2.08 0 4.23-.13 4.78-.27 2.56-.67 9.35-1.1 9.25-.6l-.47 2.33a8.99 8.99 0 0 0-.3 2.2c.15.24-.32 2.4-1.3 5.87l-.95 3.57c-.15.58-.45 1.44-.67 1.9-.22.46-.33.95-.25 1.09.09.14-.13.8-.49 1.48-.35.67-.6 1.22-.53 1.22.17 0-.8 2.45-1.74 4.35a9.82 9.82 0 0 0-.77 1.9c0 .35-2.48 4.23-3.51 5.51a6.64 6.64 0 0 0-.97 1.78c-.38 1.17-4.24 5.15-6.35 6.55-.77.5-1.83 1.31-2.35 1.78a3.9 3.9 0 0 1-1.22.86c-.16 0-.7.34-1.2.75-.51.4-1.52 1-2.25 1.32-.72.33-1.45.68-1.6.78-1.86 1.22-2.47 1.67-2.6 1.88-.3.48-3.12 1.62-4 1.62-.48 0-1.98.36-3.34.81-1.55.51-2.78.76-3.3.68a2.13 2.13 0 0 0-1.32.21c-.45.3-4.82.86-8.55 1.08-.8.05-1.9.17-2.45.27-.65.12-1.45.03-2.3-.25a8.6 8.6 0 0 0-1.87-.42c-.3 0-.78-.12-1.05-.27a9.8 9.8 0 0 0-2.5-.38 15.6 15.6 0 0 1-2.86-.38l-1.78-.52c-1.2-.33-2.58-.81-3.57-1.24-.44-.19-1.64-.65-2.68-1.04a11.13 11.13 0 0 1-2.49-1.2 2.46 2.46 0 0 0-1.4-.52c-1.44 0-4.4-1.17-5.96-2.36-.9-.68-2.46-1.35-3.16-1.35-.18 0-1.06-.47-1.95-1.05-.9-.59-1.73-1.06-1.86-1.06-.13 0-.6-.28-1.07-.63-.46-.34-1.26-.82-1.77-1.06-1.32-.61-3.5-2.32-3.85-3.01a5.7 5.7 0 0 0-.73-1.07c-.24-.27-.44-.63-.44-.81 0-.18-.46-.89-1.03-1.57-.98-1.19-2.19-4.08-2.17-5.2 0-.29-.17-.8-.38-1.11a2.62 2.62 0 0 1-.39-1.2c0-.35-.13-.76-.3-.93a4.3 4.3 0 0 1-.5-1.63c-.12-.72-.4-1.71-.62-2.2-.43-.93-.96-3.66-1.05-5.36a4.25 4.25 0 0 0-.22-1.33c-.52-.83-1.04-10-.6-10.7.08-.15.02-.93-.15-1.73-.23-1.11-.23-1.55 0-1.84.18-.2.43-1.23.56-2.27.22-1.8.45-2.75 1.09-4.6.15-.44.36-1.39.47-2.11.11-.73.4-2.01.63-2.86.24-.84.43-2.08.43-2.76 0-.9.16-1.4.6-1.9.56-.62 1.38-2.78 1.58-4.11.04-.3.4-.69.8-.88.4-.19.72-.53.72-.77 0-.54 1.27-3.23 1.75-3.71.2-.2.36-.52.36-.7 0-.2.32-.67.7-1.05.76-.75 1.42-1.88 1.42-2.4 0-.17.36-.65.8-1.07.43-.42.79-.9.79-1.07 0-.17.3-.63.66-1.02.36-.4.66-.8.66-.9 0-.26 1.96-2.26 4.25-4.35l3.26-2.97a6.55 6.55 0 0 1 1.57-1.2c.15 0 .94-.52 1.76-1.16.82-.65 2.16-1.5 2.98-1.88a9.52 9.52 0 0 0 2.12-1.33c.35-.35 1.1-.84 1.66-1.1.57-.27 1.38-.7 1.8-.99.54-.36 1.17-.5 2.2-.48 1 .03 1.47-.07 1.57-.33.26-.66 6.75-2 9.35-1.91 1.2.04 6.2-.4 6.87-.61.98-.3 1.93-.28 2.86.04m44.83 24.16c.23.36.42.93.42 1.27 0 .34.15.76.32.93.56.56 1.18 3.14 1.78 7.41.15 1.06.36 2.08.47 2.25.1.17.16 1.18.11 2.24-.04 1.08.04 2.07.2 2.26.2.23.2 1.33.01 3.57-.14 1.78-.2 3.33-.13 3.45.35.56-.64 1.2-2.13 1.37-.85.1-2.32.32-3.27.47-.94.16-3.92.36-6.6.45a47.3 47.3 0 0 0-8.07.8 71.3 71.3 0 0 1-6.08.88c-1.6.14-3.45.37-4.1.5-.65.15-2.31.34-3.69.44-1.37.1-3.36.4-4.43.68-5.19 1.33-9.79-.03-6.36-1.88.68-.37 1.51-.91 1.85-1.21.33-.3.78-.63 1-.73a15.8 15.8 0 0 0 2.3-1.42c.45-.32.89-.59.97-.59.23 0 4.46-2.9 5.19-3.57a8.06 8.06 0 0 1 1.48-1.02 9.12 9.12 0 0 0 1.46-.93c3.5-2.9 4.37-3.58 5.47-4.23.7-.42 1.84-1.18 2.53-1.71a5.4 5.4 0 0 1 1.63-.96c.2 0 .49-.24.64-.52.15-.28.54-.58.86-.67 1.76-.47 2.58-.77 2.58-.95 0-.11.69-.6 1.52-1.06.84-.47 2.03-1.32 2.64-1.87a5.5 5.5 0 0 1 1.36-1.02c.13 0 .75-.48 1.39-1.07.64-.6 1.7-1.44 2.35-1.9.65-.44 1.46-1.15 1.8-1.56.8-.98 1.93-1.02 2.53-.1"/><path fill-rule="nonzero" d="M40.35 15.18a37.14 37.14 0 0 0-2.89-5.05 18.78 18.78 0 0 0-2.97-3.4 9.99 9.99 0 0 0-3.37-1.97 16.99 16.99 0 0 0-4.03-.82l-9.9-.67v26.5l9.9-.28c1.8-.06 3.25-.2 4.37-.43a7.36 7.36 0 0 0 2.79-1.1 5.1 5.1 0 0 0 1.73-2.17c.41-.93.78-2.13 1.1-3.6h2.02V41.4h-2.02c-.32-1.6-.67-2.91-1.06-3.94a5.52 5.52 0 0 0-1.63-2.4 6.23 6.23 0 0 0-2.83-1.2 27.7 27.7 0 0 0-3.6-.4l-10.76-.41v15.94c0 3.27.88 5.68 2.64 7.25 1.76 1.57 4.85 2.68 9.27 3.32v2.02H0v-2.02c1.92-.26 3.47-.61 4.66-1.06a6.82 6.82 0 0 0 2.78-1.82 6.44 6.44 0 0 0 1.4-2.98c.25-1.22.38-2.79.38-4.7V13.82a42 42 0 0 0-.24-4.94 8.94 8.94 0 0 0-.96-3.27A5.8 5.8 0 0 0 6 3.51c-.86-.55-2-1.08-3.4-1.59V0h38.42l1.34 13.83-2.01 1.35zm41.11 46.4v-2.02c2.69-.58 4.03-1.63 4.03-3.17 0-.51-.25-1.44-.76-2.79l-3.27-7.97h-19.6l-1.92 5.76a12.06 12.06 0 0 0-.96 4.13c0 .96.35 1.73 1.06 2.3.51.46 1.07.78 1.68.97l.5.14a51 51 0 0 0 3.3.63v2.02H46.3v-2.02a20.8 20.8 0 0 0 3.03-1.01 7.7 7.7 0 0 0 2.06-1.3 7.8 7.8 0 0 0 1.59-2.06c.48-.87 1-1.97 1.58-3.32l15.76-38.61h6.14l16.91 41.88a7.55 7.55 0 0 0 1.83 2.54c.7.61 1.85 1.24 3.46 1.88v2.02h-17.2zM71.28 19.5L63.2 42.07h16.52L71.28 19.5zm69.35 42.08v-2.02c1.6-.2 2.92-.45 3.94-.77a5.87 5.87 0 0 0 2.45-1.4 4.66 4.66 0 0 0 1.25-2.3c.23-.93.34-2.06.34-3.4V38.22h-25.84l-2.02 1.25v12.2c0 2.63.5 4.48 1.49 5.57 1 1.1 2.93 1.86 5.81 2.3v2.03h-22.86v-2.02c3-.45 5.04-1.2 6.1-2.26 1.05-1.06 1.58-2.93 1.58-5.62V24.6c0-1.4-.08-2.6-.24-3.6-.16-1-.46-1.83-.91-2.5a5.02 5.02 0 0 0-1.83-1.63 13.6 13.6 0 0 0-2.97-1.1v-2.12h21.13v2.02c-2.82.51-4.74 1.33-5.76 2.45-1.03 1.12-1.54 2.96-1.54 5.52V34.2h25.84l2.02-1.35V24.6c0-1.4-.08-2.6-.24-3.6-.16-1-.47-1.83-.92-2.5a5.02 5.02 0 0 0-1.82-1.63 13.6 13.6 0 0 0-2.98-1.1v-2.12h21.23v2.02c-2.88.51-4.82 1.33-5.81 2.45-1 1.12-1.49 2.96-1.49 5.52v28.05c0 2.63.48 4.48 1.44 5.57.96 1.1 2.91 1.86 5.86 2.3v2.03h-23.25zm89.63-1.35v1.25l-1.3.35a19.8 19.8 0 0 1-6.19.9c-2.3 0-4.5-.45-6.58-1.35a20.9 20.9 0 0 1-5.43-3.53l-.77-.7a23.5 23.5 0 0 1-2.55-2.54c-.8-.93-1.63-2-2.5-3.22a69.2 69.2 0 0 1-2.16-3.26l-.57-.92c-.96-1.56-2.05-3.4-3.27-5.52l-1.43.1-1.46.08-.66.01-1-.02-1.58-.09-1.17-.08v10.18c0 2.56.56 4.39 1.68 5.48 1.12 1.09 3.19 1.82 6.2 2.2v2.03H175.7v-2.02c3.13-.26 5.25-.93 6.34-2.02 1.09-1.09 1.63-2.98 1.63-5.67V24.88c0-1.47-.11-2.7-.34-3.7a6.4 6.4 0 0 0-1.15-2.54c-.54-.7-1.3-1.3-2.26-1.78a19.5 19.5 0 0 0-3.55-1.3v-2.02l13.26.77 3.5-.53c.75-.12 1.44-.2 2.07-.27l.62-.06c.54-.04 1.05-.08 1.54-.1l.72-.05c.7-.03 1.44-.04 2.2-.04 4.5 0 8.01 1 10.57 3.02 2.57 2.02 3.85 4.85 3.85 8.5 0 1.22-.16 2.47-.48 3.75-.32 1.28-.8 2.47-1.44 3.55a15.44 15.44 0 0 1-2.45 3.36c-.55.58-1.2 1.2-1.97 1.88l-2.7 2.35 1.49 2c1.19 1.6 2.26 3.01 3.22 4.25l1.55 1.96c.74.92 1.42 1.75 2.06 2.5l1.23 1.43c.6.67 1.16 1.28 1.7 1.84.9.93 1.79 1.78 2.69 2.55.64.57 1.28 1.07 1.92 1.48.64.42 1.36.77 2.16 1.06.8.29 1.73.55 2.78.77l1.37.28 2.43.44zm-22.77-31.8c0-1.53-.25-3.04-.77-4.51a8.17 8.17 0 0 0-2.69-3.75 22.9 22.9 0 0 0-1.96-1.44 9.24 9.24 0 0 0-2.21-.96c-.87-.25-1.94-.43-3.22-.53l-1.2-.07a84.75 84.75 0 0 0-3.8-.07v20.08l2.22.89.42.16c.68.26 1.72.39 3.13.39l1.17-.02c.52-.01.95-.04 1.28-.08.54-.06 1.32-.26 2.35-.58 3.52-2.37 5.28-5.54 5.28-9.5zm81.46 31.8v1.25l-1.3.35a19.8 19.8 0 0 1-6.19.9c-2.3 0-4.5-.45-6.58-1.35a20.9 20.9 0 0 1-5.43-3.53l-.77-.7c-.9-.76-1.74-1.61-2.54-2.54-.8-.93-1.63-2-2.5-3.22a69.2 69.2 0 0 1-2.17-3.26l-.57-.92a196.1 196.1 0 0 1-3.26-5.52l-1.43.1-1.47.08-.66.01-1-.02-1.58-.09-1.16-.08v10.18c0 2.56.56 4.39 1.68 5.48 1.12 1.09 3.18 1.82 6.2 2.2v2.03h-23.83v-2.02c3.14-.26 5.25-.93 6.34-2.02 1.09-1.09 1.63-2.98 1.63-5.67V24.88c0-1.47-.1-2.7-.33-3.7a6.4 6.4 0 0 0-1.16-2.54 6.5 6.5 0 0 0-2.25-1.78 19.5 19.5 0 0 0-3.56-1.3v-2.02l13.26.77 3.5-.53c.75-.12 1.44-.2 2.08-.27l.61-.06c.54-.04 1.05-.08 1.54-.1l.72-.05c.7-.03 1.44-.04 2.21-.04 4.48 0 8 1 10.57 3.02 2.56 2.02 3.84 4.85 3.84 8.5 0 1.22-.16 2.47-.48 3.75-.32 1.28-.8 2.47-1.44 3.55a15.44 15.44 0 0 1-2.45 3.36c-.54.58-1.2 1.2-1.97 1.88l-2.69 2.35 1.48 2c1.2 1.6 2.27 3.01 3.23 4.25a121.2 121.2 0 0 0 3.6 4.46 67.59 67.59 0 0 0 2.93 3.27c.9.93 1.8 1.78 2.69 2.55.64.57 1.28 1.07 1.92 1.48.64.42 1.36.77 2.16 1.06.8.29 1.73.55 2.79.77l1.37.28 2.42.44zm-22.76-31.8c0-1.53-.26-3.04-.77-4.51a8.17 8.17 0 0 0-2.7-3.75c-.7-.57-1.35-1.05-1.96-1.44a9.24 9.24 0 0 0-2.21-.96c-.87-.25-1.94-.43-3.22-.53l-1.2-.07a84.75 84.75 0 0 0-3.8-.07v20.08l2.22.89.43.16c.67.26 1.71.39 3.12.39l1.18-.02c.52-.01.94-.04 1.27-.08.54-.06 1.33-.26 2.35-.58 3.53-2.37 5.29-5.54 5.29-9.5zm56.1 33.15v-2.02c2.69-.58 4.03-1.63 4.03-3.17 0-.51-.26-1.44-.77-2.79l-3.26-7.97h-19.6l-1.92 5.76a12.06 12.06 0 0 0-.96 4.13c0 .96.35 1.73 1.05 2.3.52.46 1.08.78 1.69.97l.5.14c.7.17 1.8.38 3.29.63v2.02h-19.21v-2.02a20.8 20.8 0 0 0 3.02-1.01c.8-.35 1.5-.79 2.07-1.3a7.8 7.8 0 0 0 1.58-2.06c.48-.87 1.01-1.97 1.59-3.32l15.75-38.61h6.15l16.9 41.88a7.55 7.55 0 0 0 1.83 2.54c.7.61 1.86 1.24 3.46 1.88v2.02h-17.2zM312.1 19.5l-8.07 22.57h16.53L312.1 19.5zM400 37.85c0 3.65-.66 6.96-1.97 9.94a21.44 21.44 0 0 1-5.62 7.64 25.82 25.82 0 0 1-8.74 4.9 34.77 34.77 0 0 1-11.24 1.73l-2.03-.02c-1.07-.02-2.22-.04-3.45-.08-2.04-.06-4.35-.2-6.91-.38h-14.6v-2.02a21.8 21.8 0 0 0 4.27-.67c1.12-.32 2-.8 2.64-1.45a5.24 5.24 0 0 0 1.35-2.5c.25-1.02.38-2.33.38-3.93V24.5c0-1.54-.1-2.79-.29-3.75a5.1 5.1 0 0 0-1-2.3 4.35 4.35 0 0 0-2.02-1.3 15.3 15.3 0 0 0-3.32-.63v-2.01l7.2-.39 2.49-.16c4.38-.28 7.84-.42 10.4-.42 4.22 0 7.8.3 10.75.87 2.95.58 5.7 1.5 8.26 2.79 4.42 2.24 7.77 5.1 10.04 8.6A21.6 21.6 0 0 1 400 37.84zm-8.45.57c0-5.31-1.92-9.8-5.77-13.44a23.6 23.6 0 0 0-5.99-4.28l-.92-.43a33.92 33.92 0 0 0-3.51-1.44 23.69 23.69 0 0 0-3.6-.91c-1.28-.23-2.7-.39-4.28-.48-1.57-.1-3.4-.18-5.52-.24v33.62c0 5.31 2.82 7.97 8.45 7.97 3.01 0 5.81-.51 8.4-1.54a20.28 20.28 0 0 0 6.73-4.27 19.44 19.44 0 0 0 4.42-6.49 20.5 20.5 0 0 0 1.59-8.07zM13.78 425.28a9.64 9.64 0 0 1-1.62.16c-.8 0-1.37-.14-1.7-.4a3.2 3.2 0 0 1-.86-1.58c-.6.42-1.1.76-1.55 1.03-.44.27-.86.48-1.28.64-.4.15-.82.26-1.23.3-.42.06-.88.08-1.4.08-1.29 0-2.3-.32-3.04-.96a3.41 3.41 0 0 1-1.1-2.71c0-.98.3-1.78.89-2.38a8.7 8.7 0 0 1 3.1-1.73l5.88-2.16v-3.26c0-1.26-.2-2.12-.58-2.57-.39-.45-1.1-.68-2.17-.68-.49 0-.9.05-1.26.16-.34.1-.66.28-.94.52a3.5 3.5 0 0 0-.78.99c-.2.34-.39.77-.58 1.27l-.24.67-.09.2-.2.49-.13.27c-1.42-.18-2.13-.7-2.13-1.55 0-.33.13-.7.37-1.08.25-.39.59-.77 1.03-1.14a11.97 11.97 0 0 1 3.37-2c.59-.2 1.26-.38 2-.54a9.63 9.63 0 0 1 1.9-.23c1.24 0 2.13.28 2.68.85.54.57.8 1.47.8 2.71v.74l-.38 9.05v.31c0 .47.04.87.12 1.2.08.34.23.64.46.9.24.25.56.48.97.7.41.2.96.42 1.63.65v.85l-1.94.23zm-7.86-6.77c-1.75.72-2.63 1.68-2.63 2.86 0 .57.22 1.07.66 1.51.44.44.95.66 1.55.66a9 9 0 0 0 2.94-.7 9 9 0 0 1 .48-.17l.43-.14.25-.07.27-5.58-3.95 1.63zm24.74 7.43l-1.05-.54.27-2.13a14.74 14.74 0 0 1-3.01 1.9c-.8.33-1.66.5-2.56.5a4.16 4.16 0 0 1-3.35-1.43 5.84 5.84 0 0 1-1.22-3.91v-8.29c0-1.05-.15-1.82-.46-2.3-.31-.48-.88-.82-1.7-1.03v-.92l5.22-.7-.12 10.02-.03.43c0 .6 0 1.12.02 1.57l.01.25c.03.49.08.91.14 1.26.06.35.15.64.25.89.1.24.23.47.39.68.28.36.68.65 1.2.87a4.87 4.87 0 0 0 3.25.08c.5-.17 1.15-.49 1.97-.95l.28-9.88c0-.54-.05-1-.14-1.37a2.41 2.41 0 0 0-1.35-1.66 8.8 8.8 0 0 0-1.46-.57v-.92l6-.7-.38 13.24-.04.23c0 1.16.2 1.97.58 2.42.39.45 1.1.73 2.13.83v.78l-4.84 1.35zm19.94-5.84c0 .77-.16 1.49-.47 2.14a5.4 5.4 0 0 1-1.28 1.73c-.54.49-1.18.87-1.91 1.14-.74.27-1.53.4-2.38.4-.9 0-1.94-.1-3.1-.3l-2.63-.47-.54-5.77.8-.27.57.98 1.03 1.7c.61 1 1.21 1.7 1.8 2.08.58.39 1.3.58 2.14.58.9 0 1.64-.25 2.2-.75.55-.5.82-1.18.82-2.03 0-.67-.17-1.2-.52-1.59a5.87 5.87 0 0 0-1.88-1.2l-2.4-1.08a9.08 9.08 0 0 1-3.27-2.23 4.28 4.28 0 0 1-1.02-2.85c0-.72.15-1.4.46-2.05.31-.64.73-1.2 1.26-1.66a6.4 6.4 0 0 1 4.16-1.51 11.47 11.47 0 0 1 2.83.32l1.24.31.73.18.81 4.14-1.08.27a16.5 16.5 0 0 0-1.32-1.85 5.56 5.56 0 0 0-1.68-1.4 3.98 3.98 0 0 0-1.88-.5c-.77 0-1.44.25-2.01.75-.57.5-.85 1.1-.85 1.8 0 1.22.8 2.15 2.4 2.8l2.67 1.08a8.22 8.22 0 0 1 3.25 2.12c.7.83 1.05 1.82 1.05 2.99zm24.27 5.57l-.5-.54v-1.86a12.03 12.03 0 0 1-2.8 1.84c-.85.37-1.76.56-2.74.56-1 0-1.92-.21-2.75-.64a6.5 6.5 0 0 1-2.13-1.76 8.4 8.4 0 0 1-1.4-2.71c-.33-1.06-.5-2.22-.5-3.48 0-1.45.22-2.78.66-4.01a10.27 10.27 0 0 1 1.8-3.2 8.34 8.34 0 0 1 2.71-2.12 7.63 7.63 0 0 1 4.28-.74l.81.12c.29.05.59.13.91.25l1.14.4v-2.9c0-.98-.04-1.8-.13-2.46a4.75 4.75 0 0 0-.49-1.62 2.5 2.5 0 0 0-.94-.99 6.2 6.2 0 0 0-1.53-.58v-.93l6-.66.54.5-.54 9.37v12.55c0 .59.03 1.09.1 1.49a2.01 2.01 0 0 0 1.1 1.62c.3.17.72.33 1.24.49v.93l-4.84 1.08zm-.5-12.81c0-1.24-.32-2.24-.95-3a3.13 3.13 0 0 0-2.54-1.15c-.77 0-1.5.18-2.19.55-.68.36-1.27.85-1.78 1.47-.5.62-.9 1.35-1.2 2.2-.3.86-.44 1.76-.44 2.71 0 1.11.14 2.13.42 3.04.29.92.69 1.7 1.2 2.36a5.17 5.17 0 0 0 4.22 2.07c.31 0 .58 0 .81-.03a4.97 4.97 0 0 0 1.5-.41c.27-.12.58-.28.94-.48v-9.33zm22.25 8.94a3.1 3.1 0 0 1-.89 1.41 6.9 6.9 0 0 1-1.74 1.2 11.03 11.03 0 0 1-4.84 1.14c-1 0-1.93-.2-2.77-.64a6.43 6.43 0 0 1-2.15-1.76 8.4 8.4 0 0 1-1.39-2.7c-.33-1.06-.5-2.24-.5-3.53 0-1.52.2-2.89.6-4.1a8.8 8.8 0 0 1 1.72-3.1 7.42 7.42 0 0 1 2.73-1.95 9.13 9.13 0 0 1 3.58-.68c1.78 0 3.15.42 4.1 1.26a4.51 4.51 0 0 1 1.44 3.58 16.9 16.9 0 0 1-.27 2.9H85.28v1c0 2.2.5 3.91 1.51 5.14a5.16 5.16 0 0 0 4.22 1.84 8.14 8.14 0 0 0 2.01-.24c.36-.07.77-.2 1.22-.35l.9-.32c.23-.08.46-.16.7-.26l.78.16zm-3.06-10.03a2.7 2.7 0 0 0-.94-2.09 3.38 3.38 0 0 0-2.35-.85c-1.08 0-2.03.37-2.84 1.12a7.21 7.21 0 0 0-1.88 3.3h7.47l.54-.66v-.82zm26.56 13.36v-.93c.54-.08.97-.2 1.3-.35.32-.15.58-.38.77-.68.2-.3.34-.69.43-1.18.09-.49.15-1.13.17-1.93l.27-6.43v-.27c0-1.19-.28-2.13-.83-2.83a2.7 2.7 0 0 0-2.23-1.04 4.75 4.75 0 0 0-1.88.37c-.34.14-.74.33-1.2.58-.45.24-.98.56-1.6.95v8.67c0 1.36.09 2.3.27 2.78.26.65 1.06 1.1 2.4 1.36v.93h-8.55v-.93a5 5 0 0 0 1.31-.35c.34-.15.6-.38.8-.68.19-.3.32-.69.4-1.18.07-.42.12-.95.14-1.6l.29-6.76v-.27c0-1.19-.27-2.13-.82-2.83a2.69 2.69 0 0 0-2.24-1.04 5.48 5.48 0 0 0-2.35.5l-.53.21-1.8.76v9.1c0 1.36.09 2.3.27 2.78.25.65 1.05 1.1 2.4 1.36v.93h-8.29v-.93a5.8 5.8 0 0 0 1.18-.43c.3-.15.54-.38.72-.67a3 3 0 0 0 .37-1.17l.05-.44.12-1.43.23-6.43c.03-.13.04-.24.04-.35v-.35c0-.64-.02-1.18-.08-1.62a3 3 0 0 0-.3-1.09 2.22 2.22 0 0 0-.66-.73 8.1 8.1 0 0 0-1.13-.66v-.77l4.8-1.09.28.27v2.52a21.24 21.24 0 0 1 3.98-2.19 7.7 7.7 0 0 1 2.98-.6c.52 0 .96.05 1.32.16.36.1.68.27.97.52.28.24.53.57.75.99.22.41.45.93.68 1.55a27.7 27.7 0 0 1 2.03-1.55c.6-.42 1.17-.75 1.69-.99a6.7 6.7 0 0 1 3.1-.68c.61 0 1.2.12 1.73.35.55.23.99.57 1.32 1 .54.63.81 1.78.81 3.45v8.29c0 .77.03 1.4.08 1.87.05.48.16.86.31 1.15.16.28.4.5.72.65.32.16.75.31 1.3.47v.93h-8.29zm18.47 0v-.82c.72-.15 1.3-.32 1.74-.5.44-.18.78-.42 1.04-.73s.43-.7.52-1.18c.1-.48.14-1.1.14-1.84v-14.67c0-.7-.04-1.28-.12-1.75a2.4 2.4 0 0 0-1.32-1.94c-.38-.2-.88-.4-1.5-.61v-.78h9.37v.78c-.67.18-1.22.37-1.63.56-.41.2-.73.44-.97.75-.23.31-.4.7-.48 1.19a9.94 9.94 0 0 0-.14 1.8v14.67c0 .77.06 1.4.16 1.9.1.48.29.88.56 1.2.27.3.65.55 1.14.73.5.18 1.12.32 1.9.42v.82h-10.41zm23.72.27v.81l-1 .14a7.58 7.58 0 0 1-5.71-1.78 18.47 18.47 0 0 1-2.63-2.62c-.72-.84-1.5-1.84-2.34-3l-2.17-3.02-1.2-1.64-1.47-1.98 4.8-5.6 1.85-2.4c.73-.94 1.09-1.6 1.09-2.02 0-.29-.16-.54-.49-.76a3.19 3.19 0 0 0-1.37-.44v-.78H161v.78c-.96.33-1.76.65-2.42.95-.66.3-1.28.65-1.86 1.08-.58.43-1.18.95-1.8 1.57-.54.54-1.17 1.22-1.9 2.04l-4.02 4.66 6.11 7.58 1.7 2.05a35.25 35.25 0 0 0 2.39 2.62c.3.27.6.5.89.71.3.21.62.4.97.55.35.15.76.32 1.25.5zm18.32-10.1c0 1.6-.22 3.04-.64 4.33a8.92 8.92 0 0 1-1.86 3.27 8.14 8.14 0 0 1-2.96 2.05 10.2 10.2 0 0 1-3.91.72c-2.4 0-4.25-.73-5.54-2.19s-1.93-3.54-1.93-6.25c0-1.6.22-3.04.65-4.33a9.14 9.14 0 0 1 1.88-3.28 8.18 8.18 0 0 1 2.94-2.05c1.15-.48 2.45-.71 3.9-.71 2.4 0 4.24.72 5.53 2.16 1.29 1.45 1.94 3.54 1.94 6.28zm-3.49 1.2c0-1.17-.12-2.24-.37-3.24-.24-1-.59-1.84-1.04-2.55a5.37 5.37 0 0 0-1.6-1.67 3.64 3.64 0 0 0-3.96-.04 5 5 0 0 0-1.53 1.55 8.25 8.25 0 0 0-1 2.36 13.89 13.89 0 0 0 0 6.3c.24 1 .6 1.87 1.04 2.59a5.4 5.4 0 0 0 1.59 1.68c.6.4 1.28.6 2.03.6.7 0 1.34-.18 1.94-.56.6-.37 1.1-.9 1.53-1.57a8.5 8.5 0 0 0 1-2.4c.25-.93.37-1.95.37-3.05zm24.04-.86c0 1.47-.22 2.82-.66 4.05a9.46 9.46 0 0 1-1.86 3.17 8.43 8.43 0 0 1-8.82 2.4l-.97-.4.16 4.26c.02.56.1 1.03.2 1.4.12.38.32.7.59.96.27.25.63.46 1.08.62a9.9 9.9 0 0 0 1.73.38v.93h-9.6v-.93c1.1-.1 1.87-.44 2.3-1 .42-.57.64-1.58.64-3.02v-14.83c0-.8-.03-1.46-.08-1.97a4.25 4.25 0 0 0-.31-1.3 2.33 2.33 0 0 0-.66-.87 4.96 4.96 0 0 0-1.12-.66v-.77l5.07-1.09v2.4c.39-.36.66-.58.81-.66a8.4 8.4 0 0 1 4.76-1.74c.99 0 1.89.22 2.71.64a6.3 6.3 0 0 1 2.13 1.8c.6.78 1.06 1.7 1.4 2.75.33 1.06.5 2.22.5 3.48zm-3.21.82c0-1.01-.14-1.94-.4-2.8a6.64 6.64 0 0 0-1.15-2.18 5.53 5.53 0 0 0-1.72-1.43 4.6 4.6 0 0 0-2.2-.52 8.18 8.18 0 0 0-1.6.17c-.2.05-.42.12-.65.2l-.76.3-.62.26v9.87c0 1 .33 1.86.99 2.55a3.2 3.2 0 0 0 2.42 1.05 4.8 4.8 0 0 0 2.28-.56c.7-.38 1.3-.9 1.8-1.55.5-.66.9-1.45 1.18-2.36.29-.92.43-1.92.43-3zm22.68-17.35c0 .52-.17.94-.5 1.26-.34.32-.87.6-1.59.83-.88-.82-1.63-1.4-2.26-1.74a4.35 4.35 0 0 0-2.07-.5c-.75 0-1.4.2-1.96.58-.55.39-1.05 1-1.49 1.82a7.68 7.68 0 0 0-.66 1.9c-.07.36-.14.78-.2 1.25-.04.48-.08 1.06-.1 1.73l-.12 1.66 4.8-.27c.72 0 1.08.34 1.08 1 0 .52-.1.87-.29 1.03-.2.17-.63.25-1.3.25h-4.3l.28 10.15.03.58c.05.91.13 1.52.24 1.82.33.9 1.5 1.48 3.48 1.74v.93h-9.64v-.93c.55-.08.98-.2 1.32-.39.34-.18.6-.42.81-.73.21-.31.35-.71.43-1.2.08-.5.12-1.1.12-1.82v-9.14l-2.4-1.82v-.54l2.59-1.63c.05-.98.13-1.82.25-2.53.12-.71.27-1.35.46-1.92.2-.57.45-1.08.76-1.53.3-.45.7-.9 1.16-1.37 1.45-1.5 3.46-2.25 6.04-2.25 1.6 0 2.84.16 3.72.47.87.3 1.31.75 1.31 1.31zm19.51 10.8a6.39 6.39 0 0 1 .58 2.75c0 1.99-.7 3.56-2.1 4.7-1.41 1.15-3.33 1.73-5.76 1.73-.38 0-.74-.01-1.06-.04l-.37-.04c-.27-.03-.6-.08-1-.15a4.7 4.7 0 0 0-.87 1c-.15.26-.22.6-.22 1.01 0 .34.05.61.14.83.09.22.25.4.48.54.23.15.55.26.95.33.33.07.75.11 1.26.14l2.79.13c1.39.08 2.46.18 3.2.31.76.13 1.38.3 1.87.5.51.24.93.61 1.25 1.13.33.52.49 1.07.49 1.66 0 1.06-.25 2.03-.76 2.9-.5.88-1.2 1.65-2.1 2.3-.9.64-1.98 1.14-3.22 1.5a14.47 14.47 0 0 1-7.03.21 7.9 7.9 0 0 1-2.32-.94 4.97 4.97 0 0 1-1.53-1.44 3.2 3.2 0 0 1-.54-1.82c0-1.75 1.3-3.31 3.87-4.68-1.42-.67-2.13-1.46-2.13-2.36 0-.5.25-1 .74-1.51.49-.52 1.4-1.23 2.7-2.13a8.22 8.22 0 0 1-3.05-2.34 5.01 5.01 0 0 1-1.04-3.12c0-.82.18-1.6.56-2.32.37-.72.9-1.35 1.56-1.88a7.98 7.98 0 0 1 2.35-1.26 8.84 8.84 0 0 1 4.01-.38l.9.12 1.53.22 1.24.16.37.04a12.17 12.17 0 0 0 2.92-.04l1.06-.14 1.22-.17v2.17l-2.94.38zm-2.67 3.22c0-1.3-.4-2.31-1.18-3.06a4.44 4.44 0 0 0-3.2-1.12c-1.28 0-2.34.38-3.17 1.16a3.86 3.86 0 0 0-1.24 2.94c0 1.34.4 2.42 1.18 3.23a4.14 4.14 0 0 0 3.12 1.22c1.32 0 2.4-.41 3.23-1.24a4.22 4.22 0 0 0 1.26-3.13zm1.2 14.36c0-.72-.28-1.24-.85-1.55a6.32 6.32 0 0 0-2.5-.52l-.36-.02a50.3 50.3 0 0 0-1.4-.06c-.46-.01-.94-.04-1.43-.1l-.5-.03-.45-.02a6.48 6.48 0 0 1-.75-.08l-1.63-.25c-.46.75-.78 1.35-.95 1.8-.17.45-.25.93-.25 1.45 0 1.08.48 1.96 1.45 2.63.97.67 2.24 1 3.81 1 1.7 0 3.1-.39 4.19-1.17a3.64 3.64 0 0 0 1.62-3.08zm20.17-5.7a3.1 3.1 0 0 1-.89 1.42 6.9 6.9 0 0 1-1.74 1.2 11.03 11.03 0 0 1-4.84 1.14c-1 0-1.93-.2-2.77-.64a6.43 6.43 0 0 1-2.15-1.76 8.4 8.4 0 0 1-1.4-2.7c-.33-1.06-.5-2.24-.5-3.53 0-1.52.2-2.89.6-4.1a8.8 8.8 0 0 1 1.73-3.1 7.42 7.42 0 0 1 2.73-1.95 9.13 9.13 0 0 1 3.58-.68c1.78 0 3.15.42 4.1 1.26a4.51 4.51 0 0 1 1.43 3.58 16.9 16.9 0 0 1-.27 2.9h-10.95v1c0 2.2.5 3.91 1.5 5.14a5.16 5.16 0 0 0 4.23 1.84 8.14 8.14 0 0 0 2.01-.24c.36-.07.77-.2 1.22-.35l.9-.32c.22-.08.46-.16.7-.26l.78.16zm-3.06-10.02a2.7 2.7 0 0 0-.95-2.09 3.38 3.38 0 0 0-2.34-.85c-1.08 0-2.03.37-2.84 1.12a7.21 7.21 0 0 0-1.88 3.3h7.47l.54-.66v-.82zm18.82 13.36h-13.09l-.5-.78 10.64-14.44-.23-.27-3.75.12a5.9 5.9 0 0 0-3.08.89 5.83 5.83 0 0 0-2 2.48l-.8-.27 1.35-5.35 12.27.82.54.5-10.68 14.44.27.27 3.44-.27c3.33-.28 5.56-1.63 6.7-4.03l.81.27-1.9 5.62zm18.8-3.33a3.1 3.1 0 0 1-.88 1.41 6.9 6.9 0 0 1-1.74 1.2 11.03 11.03 0 0 1-4.84 1.14c-1 0-1.93-.2-2.77-.64a6.43 6.43 0 0 1-2.15-1.76 8.4 8.4 0 0 1-1.4-2.7c-.33-1.06-.5-2.24-.5-3.53 0-1.52.2-2.89.6-4.1a8.8 8.8 0 0 1 1.73-3.1 7.42 7.42 0 0 1 2.73-1.95 9.13 9.13 0 0 1 3.58-.68c1.78 0 3.15.42 4.1 1.26a4.51 4.51 0 0 1 1.43 3.58 16.9 16.9 0 0 1-.27 2.9H282.1v1c0 2.2.5 3.91 1.5 5.14a5.16 5.16 0 0 0 4.23 1.84 8.14 8.14 0 0 0 2-.24c.37-.07.78-.2 1.23-.35l.9-.32c.22-.08.46-.16.7-.26l.78.16zm-3.05-10.03a2.7 2.7 0 0 0-.95-2.09 3.38 3.38 0 0 0-2.34-.85c-1.08 0-2.03.37-2.85 1.12a7.21 7.21 0 0 0-1.87 3.3h7.47l.54-.66v-.82zm11.88-11.46c0 .62-.2 1.15-.61 1.6a2 2 0 0 1-1.51.65 2 2 0 0 1-1.51-.66 2.23 2.23 0 0 1-.62-1.59c0-.64.2-1.18.62-1.62a2 2 0 0 1 1.5-.66 2 2 0 0 1 1.52.66c.4.44.61.98.61 1.62zm-6.65 24.82v-.93c.54-.08.97-.2 1.3-.35.32-.15.57-.38.77-.68.2-.3.33-.69.4-1.18.08-.49.15-1.13.2-1.93l.23-6.43c.03-.1.04-.2.04-.3V413c0-.67-.03-1.23-.08-1.68a4.02 4.02 0 0 0-.29-1.16 2.15 2.15 0 0 0-.58-.8c-.24-.2-.56-.38-.95-.54v-.77l4.6-1.09.51.54-.3 5.04v8.15a7.5 7.5 0 0 0 .26 2.14c.26.65 1.06 1.1 2.4 1.36v.93h-8.51zm25.08-3.33a7.57 7.57 0 0 1-3.02 2.75 9.15 9.15 0 0 1-4.22.96 6.4 6.4 0 0 1-5.01-2.36 8.18 8.18 0 0 1-1.41-2.7c-.34-1.06-.5-2.24-.5-3.53 0-1.44.2-2.77.6-3.99.4-1.2.95-2.25 1.66-3.11a7.44 7.44 0 0 1 5.86-2.73 7.42 7.42 0 0 1 4.2 1.26c.56.37 1 .8 1.34 1.3.33.48.5 1 .5 1.54a2 2 0 0 1-.5 1.36 1.5 1.5 0 0 1-1.16.58c-.36 0-.68-.1-.95-.3a1.7 1.7 0 0 1-.6-.79l-.54-1.58c-.31-.98-1.14-1.47-2.48-1.47-1.5 0-2.66.58-3.49 1.76-.82 1.17-1.23 2.83-1.23 4.97 0 2.27.48 4.03 1.45 5.27a4.84 4.84 0 0 0 4.04 1.85 4.78 4.78 0 0 0 1.94-.29c.33-.11.7-.27 1.08-.46l.5-.25.86-.47 1.08.43zm12.54 3.33v-.93c.55-.08.98-.2 1.3-.35.32-.15.58-.38.77-.68.2-.3.34-.69.43-1.18.1-.49.15-1.13.17-1.93l.28-6.43v-.27c0-1.21-.28-2.16-.82-2.83-.54-.67-1.3-1-2.28-1a5.57 5.57 0 0 0-1.78.21 8.8 8.8 0 0 0-.92.3l-.75.27-1.2.46v9.29l.01.64a7.5 7.5 0 0 0 .26 2.14c.26.65 1.06 1.1 2.4 1.36v.93h-8.28v-.93c.5-.13.88-.28 1.18-.45.3-.16.54-.4.72-.7.18-.29.3-.68.38-1.15.08-.48.13-1.1.16-1.84l.23-7.47v-7.44c0-1.03-.02-1.87-.06-2.51a6.51 6.51 0 0 0-.25-1.57c-.13-.4-.31-.71-.56-.93a3.7 3.7 0 0 0-.99-.6v-1.12l4.8-.78.55.5-.55 11.54.82-.49 1.43-.8a16 16 0 0 1 1.76-.84c.53-.2 1.01-.35 1.45-.44.44-.1.88-.14 1.32-.14a4.44 4.44 0 0 1 2.86 1.09c.36.33.63.79.8 1.37.16.58.25 1.36.25 2.34v8.29c0 .77.02 1.4.08 1.87.05.48.15.86.3 1.13.16.27.4.49.72.65.32.17.76.33 1.3.49v.93h-8.29zm21.1 0v-.93c.54-.08.98-.2 1.3-.35.32-.15.58-.38.77-.68.2-.3.34-.69.43-1.18.09-.49.15-1.13.17-1.93l.27-6.43v-.23c0-1.21-.28-2.16-.85-2.85a2.86 2.86 0 0 0-2.32-1.02 7.34 7.34 0 0 0-1.92.27c-.35.1-.73.25-1.16.44l-.54.26-.95.46v9.1c0 1.36.1 2.3.27 2.78.26.65 1.06 1.1 2.4 1.36v.93h-8.28v-.93a5.8 5.8 0 0 0 1.18-.43c.3-.15.53-.38.71-.67a3 3 0 0 0 .37-1.17l.06-.44.12-1.43.23-6.43a11.87 11.87 0 0 0-.06-2.19 3.62 3.62 0 0 0-.35-1.16c-.17-.32-.4-.6-.67-.81a6.38 6.38 0 0 0-1.05-.64v-.77l4.68-1.2.4.23v2.67a42 42 0 0 1 2.22-1.34c.63-.34 1.2-.63 1.72-.85a7.5 7.5 0 0 1 2.83-.6 4.44 4.44 0 0 1 2.86 1.09c.7.7 1.05 1.93 1.05 3.71v8.29c0 .77.02 1.4.07 1.87a3 3 0 0 0 .31 1.13c.16.27.4.49.72.65.32.17.75.33 1.3.49v.93h-8.29zm25.24-3.33a3.1 3.1 0 0 1-.89 1.41 6.9 6.9 0 0 1-1.74 1.2 11.03 11.03 0 0 1-4.84 1.14c-1 0-1.93-.2-2.77-.64a6.43 6.43 0 0 1-2.15-1.76 8.4 8.4 0 0 1-1.39-2.7c-.34-1.06-.5-2.24-.5-3.53 0-1.52.2-2.89.6-4.1a8.8 8.8 0 0 1 1.72-3.1 7.42 7.42 0 0 1 2.73-1.95 9.13 9.13 0 0 1 3.58-.68c1.78 0 3.15.42 4.1 1.26a4.51 4.51 0 0 1 1.43 3.58 16.9 16.9 0 0 1-.27 2.9h-10.95v1c0 2.2.5 3.91 1.5 5.14a5.16 5.16 0 0 0 4.23 1.84 8.14 8.14 0 0 0 2.01-.24c.36-.07.77-.2 1.22-.35l.9-.32c.22-.08.46-.16.7-.26l.78.16zm-3.06-10.03a2.7 2.7 0 0 0-.95-2.09 3.38 3.38 0 0 0-2.34-.85c-1.08 0-2.03.37-2.84 1.12a7.21 7.21 0 0 0-1.88 3.3h7.47l.54-.66v-.82zm16.57 11.62c-.46.43-.88.8-1.26 1.08a4.91 4.91 0 0 1-2.38.97c-.44.05-.95.07-1.55.07-1.5 0-2.56-.32-3.21-.98-.64-.66-.97-1.78-.97-3.35l.23-10.57-1.81-2.05.11-1.05a9.48 9.48 0 0 0 2.14-1.47 8.6 8.6 0 0 0 1.29-1.66l.52-.85 1.05.38-.31 4.03 4.8-.31c.72 0 1.08.32 1.08.97 0 .44-.17.79-.52 1.04-.35.26-.8.4-1.34.4h-4.02v9.47c0 1.32.2 2.32.63 3a2.07 2.07 0 0 0 1.88 1.03c.88 0 2-.32 3.37-.97l.27.82zm6.93-.28c0 .7-.25 1.3-.75 1.8s-1.13.76-1.88.76a2.3 2.3 0 0 1-1.72-.74 2.46 2.46 0 0 1-.72-1.78c0-.72.25-1.33.75-1.82s1.13-.73 1.88-.73c.67 0 1.25.24 1.72.73.48.5.72 1.09.72 1.78z"/></g></g></svg>