<?xml version="1.0" encoding="UTF-8"?>
<!DOCTYPE svg PUBLIC "-//W3C//DTD SVG 1.1//EN" "http://www.w3.org/Graphics/SVG/1.1/DTD/svg11.dtd">
<svg version="1.1" xmlns="http://www.w3.org/2000/svg" xmlns:xlink="http://www.w3.org/1999/xlink" x="0" y="0" width="1024" height="768" viewBox="0, 0, 1024, 768">
  <g id="Background">
    <path d="M0,0 L1024,0 L1024,768 L0,768 L0,0 z" fill="#B20000"/>
  </g>
  <g id="Text">
    <g>
      <path d="M218.039,91.835 L207.364,92.334 Q206.865,81.858 198.485,81.858 L183.42,81.858 L183.42,101.213 L187.511,101.213 Q191.002,101.213 191.9,90.837 L202.475,90.837 L200.979,123.959 L190.603,123.959 Q189.506,113.185 186.812,113.185 L183.42,113.185 L183.42,128.449 Q183.42,133.038 193.896,133.038 L193.896,143.514 L149.3,143.514 L149.3,133.038 Q158.179,133.038 158.179,128.449 L158.179,84.452 Q158.179,79.863 149.3,79.863 L149.3,69.387 L218.039,69.387 z" fill="#FFFFFF"/>
      <path d="M269.419,79.863 Q260.539,79.863 260.539,84.452 L260.539,128.449 Q260.539,133.038 269.419,133.038 L269.419,143.514 L226.32,143.514 L226.32,133.038 Q235.299,133.038 235.299,128.449 L235.299,84.452 Q235.299,79.863 226.32,79.863 L226.32,69.387 L269.419,69.387 z" fill="#FFFFFF"/>
      <path d="M332.77,100.814 L351.027,127.95 Q352.025,129.447 352.923,130.444 Q353.821,131.442 354.868,132.041 Q355.916,132.639 357.263,132.839 Q358.61,133.038 360.405,133.038 L360.405,143.514 L314.712,143.514 L314.712,133.038 L319.102,133.038 Q321.696,133.038 321.696,130.744 Q321.696,129.846 321.197,128.848 Q320.698,127.85 319.9,126.753 L311.919,114.282 L302.74,126.853 Q301.144,128.748 301.144,130.444 Q301.144,131.741 302.092,132.39 Q303.04,133.038 305.334,133.038 L308.327,133.038 L308.327,143.514 L277.899,143.514 L277.899,133.038 Q280.493,132.938 283.186,132.041 Q285.88,131.143 288.474,128.15 L306.931,106.6 L291.666,84.851 Q290.769,83.554 289.921,82.606 Q289.072,81.659 288.125,81.06 Q287.177,80.461 285.88,80.162 Q284.583,79.863 282.687,79.863 L282.687,69.387 L324.689,69.387 L324.689,79.863 L322.694,79.863 Q319.8,79.863 319.8,82.058 Q319.8,82.556 320,83.405 Q320.2,84.253 320.998,85.25 L326.585,93.93 L333.169,86.148 Q334.666,84.352 334.666,82.457 Q334.666,79.863 330.575,79.863 L329.178,79.863 L329.178,69.387 L358.909,69.387 L358.909,79.863 Q356.514,79.863 353.222,81.06 Q349.93,82.257 347.635,84.751 z" fill="#FFFFFF"/>
      <path d="M367.788,69.387 L445.207,69.387 L445.207,99.916 L434.232,100.215 Q433.634,81.858 423.857,81.858 L419.168,81.858 L419.168,128.449 Q419.168,133.038 428.147,133.038 L428.147,143.514 L385.048,143.514 L385.048,133.038 Q393.927,133.038 393.927,128.449 L393.927,81.858 L389.138,81.858 Q379.361,81.858 378.762,100.215 L367.788,99.916 z" fill="#FFFFFF"/>
      <path d="M535.595,79.863 Q526.616,79.863 526.616,84.452 L526.616,113.284 Q526.616,120.468 525.219,126.354 Q523.822,132.24 520.331,136.38 Q516.839,140.521 510.853,142.815 Q504.867,145.11 495.588,145.11 Q486.111,145.11 479.576,142.815 Q473.041,140.521 469.001,136.38 Q464.96,132.24 463.164,126.354 Q461.369,120.468 461.369,113.284 L461.369,84.452 Q461.369,79.863 452.489,79.863 L452.489,69.387 L496.686,69.387 L496.686,79.863 Q490.999,79.863 488.804,81.01 Q486.61,82.157 486.61,84.452 L486.61,113.284 Q486.61,118.273 487.158,121.765 Q487.707,125.256 489.203,127.451 Q490.7,129.646 493.194,130.594 Q495.688,131.542 499.579,131.542 Q503.47,131.542 506.164,130.594 Q508.857,129.646 510.553,127.451 Q512.249,125.256 512.998,121.765 Q513.746,118.273 513.746,113.284 L513.746,84.452 Q513.746,82.157 511.501,81.01 Q509.256,79.863 503.57,79.863 L503.57,69.387 L535.595,69.387 z" fill="#FFFFFF"/>
      <path d="M613.412,144.212 Q607.825,144.212 603.885,142.765 Q599.944,141.319 597.4,138.874 Q594.856,136.43 593.708,133.138 Q592.561,129.846 592.561,126.154 L592.561,120.667 Q592.561,117.175 592.212,114.98 Q591.863,112.786 591.015,111.588 Q590.167,110.391 588.62,109.992 Q587.074,109.593 584.68,109.593 L576.798,109.593 L576.798,128.449 Q576.798,133.038 587.872,133.038 L587.872,143.514 L542.678,143.514 L542.678,133.038 Q551.557,133.038 551.557,128.449 L551.557,84.452 Q551.557,79.863 542.678,79.863 L542.678,69.387 L594.656,69.387 Q599.545,69.387 604.234,70.036 Q608.923,70.684 612.564,72.68 Q616.206,74.675 618.401,78.316 Q620.595,81.958 620.595,87.944 Q620.595,91.835 619.398,94.778 Q618.201,97.721 616.256,99.816 Q614.31,101.911 611.816,103.208 Q609.322,104.505 606.628,105.104 Q612.016,106.5 614.909,110.291 Q617.802,114.083 617.802,121.765 L617.802,128.648 Q617.802,130.843 618.7,131.891 Q619.598,132.938 620.995,132.938 Q622.491,132.938 623.389,131.891 Q624.287,130.843 624.287,128.648 L624.287,123.86 L631.57,123.86 L631.57,128.449 Q631.57,131.741 630.522,134.634 Q629.475,137.528 627.23,139.623 Q624.985,141.718 621.593,142.965 Q618.201,144.212 613.412,144.212 z M576.798,99.617 L585.877,99.617 Q588.571,99.617 590.316,99.118 Q592.062,98.619 593.11,97.472 Q594.157,96.324 594.557,94.379 Q594.956,92.433 594.956,89.54 Q594.956,86.148 593.06,84.253 Q591.164,82.357 585.877,82.357 L576.798,82.357 z" fill="#FFFFFF"/>
      <path d="M709.587,91.835 L696.617,92.334 Q696.617,81.858 687.14,81.858 L671.975,81.858 L671.975,99.617 L675.766,99.617 Q679.158,99.617 680.056,89.241 L691.23,89.241 L689.733,120.368 L678.759,120.368 Q677.662,109.593 675.068,109.593 L671.975,109.593 L671.975,131.043 L683.548,131.043 Q698.313,131.043 698.812,114.382 L711.981,115.08 L709.587,143.514 L637.855,143.514 L637.855,133.038 Q646.734,133.038 646.734,128.449 L646.734,84.452 Q646.734,79.863 637.855,79.863 L637.855,69.387 L709.587,69.387 z" fill="#FFFFFF"/>
      <path d="M798.778,79.863 Q789.899,79.863 789.899,84.452 L789.899,128.449 Q789.899,133.038 798.778,133.038 L798.778,143.514 L755.679,143.514 L755.679,133.038 Q764.658,133.038 764.658,128.449 L764.658,84.452 Q764.658,79.863 755.679,79.863 L755.679,69.387 L798.778,69.387 z" fill="#FFFFFF"/>
      <path d="M871.009,93.331 L859.735,94.229 Q859.037,90.338 857.141,87.744 Q855.245,85.15 852.402,83.604 Q849.559,82.058 845.818,81.359 Q842.076,80.661 837.786,80.661 Q835.492,80.661 833.496,80.91 Q831.501,81.16 830.005,81.808 Q828.508,82.457 827.61,83.654 Q826.712,84.851 826.712,86.647 Q826.712,89.44 829.805,90.887 Q832.898,92.334 837.687,93.331 Q842.475,94.329 848.312,95.327 Q854.148,96.324 859.635,98.22 Q867.517,100.913 871.557,106.251 Q875.598,111.588 875.598,120.567 Q875.598,126.454 873.453,130.993 Q871.308,135.532 867.517,138.675 Q863.726,141.818 858.588,143.464 Q853.45,145.11 847.464,145.11 Q841.378,145.11 837.387,144.312 Q833.397,143.514 830.753,142.516 Q828.109,141.518 826.313,140.72 Q824.518,139.922 822.921,139.922 Q821.525,139.922 820.477,140.72 Q819.429,141.518 818.631,143.514 L807.358,143.514 L807.358,118.073 L818.631,117.475 Q819.23,125.256 825.615,128.648 Q832,132.041 842.475,132.041 Q848.461,132.041 852.003,130.444 Q855.545,128.848 855.545,124.259 Q855.545,121.465 852.901,120.019 Q850.257,118.572 846.067,117.674 Q841.877,116.776 836.689,116.028 Q831.501,115.28 826.413,113.883 Q820.826,112.287 817.135,110.042 Q813.443,107.797 811.249,104.804 Q809.054,101.811 808.156,97.97 Q807.258,94.129 807.258,89.341 Q807.258,84.951 808.754,81.01 Q810.251,77.069 813.344,74.126 Q816.436,71.183 821.125,69.487 Q825.815,67.791 832.299,67.791 Q838.086,67.791 841.927,68.539 Q845.768,69.288 848.312,70.235 Q850.856,71.183 852.502,71.931 Q854.148,72.68 855.545,72.68 Q857.54,72.68 858.687,71.931 Q859.835,71.183 861.032,69.387 L871.009,69.387 z" fill="#FFFFFF"/>
      <path d="M269.02,232.106 L257.746,233.004 Q257.048,229.113 255.152,226.519 Q253.256,223.925 250.413,222.379 Q247.57,220.832 243.829,220.134 Q240.087,219.436 235.797,219.436 Q233.503,219.436 231.507,219.685 Q229.512,219.935 228.016,220.583 Q226.519,221.231 225.621,222.429 Q224.723,223.626 224.723,225.422 Q224.723,228.215 227.816,229.662 Q230.909,231.108 235.698,232.106 Q240.486,233.104 246.323,234.101 Q252.159,235.099 257.646,236.995 Q265.528,239.688 269.568,245.026 Q273.609,250.363 273.609,259.342 Q273.609,265.228 271.464,269.768 Q269.319,274.307 265.528,277.45 Q261.737,280.592 256.599,282.238 Q251.461,283.885 245.475,283.885 Q239.389,283.885 235.398,283.087 Q231.408,282.288 228.764,281.291 Q226.12,280.293 224.324,279.495 Q222.528,278.697 220.932,278.697 Q219.535,278.697 218.488,279.495 Q217.44,280.293 216.642,282.288 L205.369,282.288 L205.369,256.848 L216.642,256.249 Q217.241,264.031 223.626,267.423 Q230.011,270.815 240.486,270.815 Q246.472,270.815 250.014,269.219 Q253.556,267.623 253.556,263.034 Q253.556,260.24 250.912,258.793 Q248.268,257.347 244.078,256.449 Q239.888,255.551 234.7,254.803 Q229.512,254.055 224.424,252.658 Q218.837,251.062 215.146,248.817 Q211.454,246.572 209.26,243.579 Q207.065,240.586 206.167,236.745 Q205.269,232.904 205.269,228.115 Q205.269,223.726 206.765,219.785 Q208.262,215.844 211.355,212.901 Q214.447,209.958 219.136,208.262 Q223.825,206.566 230.31,206.566 Q236.097,206.566 239.938,207.314 Q243.779,208.062 246.323,209.01 Q248.867,209.958 250.513,210.706 Q252.159,211.454 253.556,211.454 Q255.551,211.454 256.698,210.706 Q257.846,209.958 259.043,208.162 L269.02,208.162 z" fill="#FFFFFF"/>
      <path d="M280.991,271.813 Q285.481,271.813 287.277,271.065 Q289.072,270.316 289.671,268.92 L309.425,208.162 L335.164,208.162 L353.521,268.82 Q354.719,271.813 361.503,271.813 L361.503,282.288 L318.005,282.288 L318.005,271.813 L324.589,271.813 Q327.482,271.813 327.482,270.117 Q327.482,269.818 327.383,269.518 Q327.283,269.219 327.183,268.82 L325.687,263.532 L302.341,263.532 L300.945,268.022 Q300.645,268.82 300.645,269.419 Q300.645,271.813 305.135,271.813 L310.422,271.813 L310.422,282.288 L281.091,282.288 z M305.434,253.356 L322.893,253.356 L314.712,223.426 z" fill="#FFFFFF"/>
      <path d="M437.624,230.609 L426.949,231.108 Q426.451,220.633 418.07,220.633 L403.005,220.633 L403.005,239.988 L407.096,239.988 Q410.588,239.988 411.486,229.612 L422.061,229.612 L420.564,262.734 L410.189,262.734 Q409.091,251.959 406.397,251.959 L403.005,251.959 L403.005,267.224 Q403.005,271.813 413.481,271.813 L413.481,282.288 L368.885,282.288 L368.885,271.813 Q377.765,271.813 377.765,267.224 L377.765,223.227 Q377.765,218.638 368.885,218.638 L368.885,208.162 L437.624,208.162 z" fill="#FFFFFF"/>
      <path d="M516.639,230.609 L503.67,231.108 Q503.67,220.633 494.192,220.633 L479.027,220.633 L479.027,238.391 L482.818,238.391 Q486.21,238.391 487.108,228.016 L498.282,228.016 L496.786,259.143 L485.811,259.143 Q484.714,248.368 482.12,248.368 L479.027,248.368 L479.027,269.818 L490.6,269.818 Q505.366,269.818 505.864,253.157 L519.034,253.855 L516.639,282.288 L444.907,282.288 L444.907,271.813 Q453.786,271.813 453.786,267.224 L453.786,223.227 Q453.786,218.638 444.907,218.638 L444.907,208.162 L516.639,208.162 z" fill="#FFFFFF"/>
      <path d="M561.733,271.813 Q566.223,271.813 568.019,271.065 Q569.815,270.316 570.413,268.92 L590.167,208.162 L615.906,208.162 L634.263,268.82 Q635.461,271.813 642.245,271.813 L642.245,282.288 L598.747,282.288 L598.747,271.813 L605.331,271.813 Q608.224,271.813 608.224,270.117 Q608.224,269.818 608.125,269.518 Q608.025,269.219 607.925,268.82 L606.429,263.532 L583.083,263.532 L581.687,268.022 Q581.387,268.82 581.387,269.419 Q581.387,271.813 585.877,271.813 L591.164,271.813 L591.164,282.288 L561.833,282.288 z M586.176,253.356 L603.635,253.356 L595.454,223.426 z" fill="#FFFFFF"/>
      <path d="M735.127,218.638 Q726.248,218.638 726.248,223.227 L726.248,282.288 L696.418,282.288 L671.476,230.41 L671.476,267.224 Q671.476,271.813 680.355,271.813 L680.355,282.288 L649.627,282.288 L649.627,271.813 Q658.507,271.813 658.507,267.224 L658.507,223.227 Q658.507,218.638 649.627,218.638 L649.627,208.162 L687.638,208.162 L713.278,261.437 L713.278,223.227 Q713.278,218.638 704.399,218.638 L704.399,208.162 L735.127,208.162 z" fill="#FFFFFF"/>
      <path d="M741.412,208.162 L782.416,208.162 Q792.293,208.162 799.277,209.409 Q806.26,210.656 810.65,214.397 Q815.04,218.139 817.085,225.023 Q819.13,231.906 819.13,243.28 Q819.13,255.152 817.085,262.734 Q815.04,270.316 810.65,274.656 Q806.26,278.996 799.277,280.642 Q792.293,282.288 782.416,282.288 L741.412,282.288 L741.412,271.813 Q750.292,271.813 750.292,267.224 L750.292,223.227 Q750.292,218.638 741.412,218.638 z M775.532,269.818 L784.013,269.818 Q787.305,269.818 789.2,268.521 Q791.096,267.224 791.994,264.131 Q792.892,261.038 793.141,256 Q793.391,250.962 793.391,243.579 Q793.391,236.196 793.141,231.657 Q792.892,227.118 791.994,224.673 Q791.096,222.229 789.2,221.431 Q787.305,220.633 784.013,220.633 L775.532,220.633 z" fill="#FFFFFF"/>
      <path d="M202.176,370.881 L190.903,371.779 Q190.204,367.888 188.309,365.294 Q186.413,362.7 183.57,361.154 Q180.726,359.607 176.985,358.909 Q173.244,358.21 168.954,358.21 Q166.659,358.21 164.664,358.46 Q162.669,358.709 161.172,359.358 Q159.676,360.006 158.778,361.203 Q157.88,362.401 157.88,364.196 Q157.88,366.99 160.973,368.436 Q164.065,369.883 168.854,370.881 Q173.643,371.878 179.479,372.876 Q185.316,373.874 190.803,375.769 Q198.684,378.463 202.725,383.8 Q206.765,389.138 206.765,398.117 Q206.765,404.003 204.62,408.542 Q202.475,413.082 198.684,416.224 Q194.893,419.367 189.755,421.013 Q184.617,422.659 178.631,422.659 Q172.546,422.659 168.555,421.861 Q164.564,421.063 161.92,420.065 Q159.277,419.068 157.481,418.27 Q155.685,417.472 154.089,417.472 Q152.692,417.472 151.645,418.27 Q150.597,419.068 149.799,421.063 L138.525,421.063 L138.525,395.623 L149.799,395.024 Q150.397,402.806 156.783,406.198 Q163.168,409.59 173.643,409.59 Q179.629,409.59 183.171,407.994 Q186.712,406.397 186.712,401.808 Q186.712,399.015 184.069,397.568 Q181.425,396.122 177.235,395.224 Q173.044,394.326 167.857,393.578 Q162.669,392.829 157.581,391.433 Q151.994,389.836 148.302,387.592 Q144.611,385.347 142.416,382.354 Q140.221,379.361 139.323,375.52 Q138.426,371.679 138.426,366.89 Q138.426,362.5 139.922,358.56 Q141.419,354.619 144.511,351.676 Q147.604,348.733 152.293,347.037 Q156.982,345.341 163.467,345.341 Q169.253,345.341 173.094,346.089 Q176.935,346.837 179.479,347.785 Q182.023,348.733 183.67,349.481 Q185.316,350.229 186.712,350.229 Q188.708,350.229 189.855,349.481 Q191.002,348.733 192.2,346.937 L202.176,346.937 z" fill="#FFFFFF"/>
      <path d="M297.253,357.412 Q288.274,357.412 288.274,362.002 L288.274,390.834 Q288.274,398.017 286.878,403.903 Q285.481,409.79 281.989,413.93 Q278.497,418.07 272.511,420.365 Q266.525,422.659 257.247,422.659 Q247.769,422.659 241.235,420.365 Q234.7,418.07 230.659,413.93 Q226.619,409.79 224.823,403.903 Q223.027,398.017 223.027,390.834 L223.027,362.002 Q223.027,357.412 214.148,357.412 L214.148,346.937 L258.345,346.937 L258.345,357.412 Q252.658,357.412 250.463,358.56 Q248.268,359.707 248.268,362.002 L248.268,390.834 Q248.268,395.822 248.817,399.314 Q249.366,402.806 250.862,405.001 Q252.359,407.196 254.853,408.143 Q257.347,409.091 261.238,409.091 Q265.129,409.091 267.822,408.143 Q270.516,407.196 272.212,405.001 Q273.908,402.806 274.656,399.314 Q275.405,395.822 275.405,390.834 L275.405,362.002 Q275.405,359.707 273.16,358.56 Q270.915,357.412 265.228,357.412 L265.228,346.937 L297.253,346.937 z" fill="#FFFFFF"/>
      <path d="M338.457,393.727 L338.457,405.998 Q338.457,410.588 349.531,410.588 L349.531,421.063 L304.337,421.063 L304.337,410.588 Q313.216,410.588 313.216,405.998 L313.216,362.002 Q313.216,357.412 304.337,357.412 L304.337,346.937 L349.83,346.937 Q356.415,346.937 361.403,347.835 Q366.391,348.733 369.733,351.127 Q373.076,353.521 374.722,357.712 Q376.368,361.902 376.368,368.586 Q376.368,381.955 369.733,387.841 Q363.099,393.727 349.83,393.727 z M338.457,380.758 L342.148,380.758 Q345.44,380.758 347.535,380.159 Q349.631,379.56 350.928,378.164 Q352.224,376.767 352.723,374.422 Q353.222,372.078 353.222,368.586 Q353.222,364.496 350.928,362.201 Q348.633,359.906 342.148,359.906 L338.457,359.906 z" fill="#FFFFFF"/>
      <path d="M417.771,393.727 L417.771,405.998 Q417.771,410.588 428.845,410.588 L428.845,421.063 L383.651,421.063 L383.651,410.588 Q392.53,410.588 392.53,405.998 L392.53,362.002 Q392.53,357.412 383.651,357.412 L383.651,346.937 L429.144,346.937 Q435.729,346.937 440.717,347.835 Q445.705,348.733 449.048,351.127 Q452.39,353.521 454.036,357.712 Q455.682,361.902 455.682,368.586 Q455.682,381.955 449.048,387.841 Q442.413,393.727 429.144,393.727 z M417.771,380.758 L421.462,380.758 Q424.755,380.758 426.85,380.159 Q428.945,379.56 430.242,378.164 Q431.539,376.767 432.037,374.422 Q432.536,372.078 432.536,368.586 Q432.536,364.496 430.242,362.201 Q427.947,359.906 421.462,359.906 L417.771,359.906 z" fill="#FFFFFF"/>
      <path d="M538.588,383.95 Q538.588,393.029 536.293,400.212 Q533.998,407.395 529.26,412.383 Q524.521,417.372 517.238,420.016 Q509.955,422.659 499.978,422.659 Q491.698,422.659 484.913,420.814 Q478.129,418.968 473.241,414.628 Q468.352,410.288 465.659,403.155 Q462.965,396.022 462.965,385.546 Q462.965,375.969 465.06,368.486 Q467.155,361.004 471.794,355.866 Q476.433,350.728 483.766,348.034 Q491.099,345.341 501.475,345.341 Q509.655,345.341 516.49,347.236 Q523.323,349.132 528.262,353.621 Q533.2,358.111 535.894,365.493 Q538.588,372.876 538.588,383.95 z M499.978,409.59 Q503.37,409.59 506.014,408.592 Q508.658,407.595 510.454,404.901 Q512.249,402.207 513.147,397.319 Q514.045,392.43 514.045,384.648 Q514.045,376.567 513.147,371.429 Q512.249,366.291 510.703,363.348 Q509.157,360.405 506.912,359.308 Q504.667,358.21 501.974,358.21 Q498.581,358.21 495.938,359.258 Q493.294,360.306 491.448,362.899 Q489.603,365.493 488.655,369.883 Q487.707,374.273 487.707,380.957 Q487.707,390.136 488.605,395.772 Q489.503,401.409 491.149,404.452 Q492.795,407.495 495.04,408.542 Q497.284,409.59 499.978,409.59 z" fill="#FFFFFF"/>
      <path d="M616.705,421.762 Q611.118,421.762 607.177,420.315 Q603.236,418.868 600.692,416.424 Q598.148,413.98 597.001,410.687 Q595.853,407.395 595.853,403.704 L595.853,398.217 Q595.853,394.725 595.504,392.53 Q595.155,390.335 594.307,389.138 Q593.459,387.941 591.913,387.542 Q590.366,387.143 587.972,387.143 L580.09,387.143 L580.09,405.998 Q580.09,410.588 591.164,410.588 L591.164,421.063 L545.97,421.063 L545.97,410.588 Q554.85,410.588 554.85,405.998 L554.85,362.002 Q554.85,357.412 545.97,357.412 L545.97,346.937 L597.949,346.937 Q602.837,346.937 607.526,347.585 Q612.215,348.234 615.857,350.229 Q619.498,352.224 621.693,355.866 Q623.888,359.507 623.888,365.493 Q623.888,369.384 622.691,372.327 Q621.493,375.27 619.548,377.366 Q617.602,379.461 615.108,380.758 Q612.614,382.055 609.921,382.653 Q615.308,384.05 618.201,387.841 Q621.094,391.632 621.094,399.314 L621.094,406.198 Q621.094,408.393 621.992,409.44 Q622.89,410.488 624.287,410.488 Q625.783,410.488 626.681,409.44 Q627.579,408.393 627.579,406.198 L627.579,401.409 L634.862,401.409 L634.862,405.998 Q634.862,409.291 633.815,412.184 Q632.767,415.077 630.522,417.172 Q628.277,419.267 624.885,420.514 Q621.493,421.762 616.705,421.762 z M580.09,377.166 L589.169,377.166 Q591.863,377.166 593.609,376.667 Q595.355,376.168 596.402,375.021 Q597.45,373.874 597.849,371.928 Q598.248,369.983 598.248,367.09 Q598.248,363.698 596.352,361.802 Q594.457,359.906 589.169,359.906 L580.09,359.906 z" fill="#FFFFFF"/>
      <path d="M641.147,346.937 L718.566,346.937 L718.566,377.465 L707.592,377.765 Q706.993,359.408 697.216,359.408 L692.527,359.408 L692.527,405.998 Q692.527,410.588 701.506,410.588 L701.506,421.063 L658.407,421.063 L658.407,410.588 Q667.286,410.588 667.286,405.998 L667.286,359.408 L662.497,359.408 Q652.72,359.408 652.122,377.765 L641.147,377.465 z" fill="#FFFFFF"/>
      <path d="M797.581,369.384 L784.611,369.883 Q784.611,359.408 775.133,359.408 L759.969,359.408 L759.969,377.166 L763.76,377.166 Q767.152,377.166 768.05,366.79 L779.224,366.79 L777.727,397.917 L766.753,397.917 Q765.656,387.143 763.062,387.143 L759.969,387.143 L759.969,408.592 L771.542,408.592 Q786.307,408.592 786.806,391.931 L799.975,392.63 L797.581,421.063 L725.849,421.063 L725.849,410.588 Q734.728,410.588 734.728,405.998 L734.728,362.002 Q734.728,357.412 725.849,357.412 L725.849,346.937 L797.581,346.937 z" fill="#FFFFFF"/>
      <path d="M808.256,346.937 L849.26,346.937 Q859.136,346.937 866.12,348.184 Q873.104,349.431 877.493,353.172 Q881.883,356.913 883.928,363.797 Q885.974,370.681 885.974,382.055 Q885.974,393.927 883.928,401.509 Q881.883,409.091 877.493,413.431 Q873.104,417.771 866.12,419.417 Q859.136,421.063 849.26,421.063 L808.256,421.063 L808.256,410.588 Q817.135,410.588 817.135,405.998 L817.135,362.002 Q817.135,357.412 808.256,357.412 z M842.376,408.592 L850.856,408.592 Q854.148,408.592 856.044,407.295 Q857.939,405.998 858.837,402.906 Q859.735,399.813 859.984,394.775 Q860.234,389.737 860.234,382.354 Q860.234,374.971 859.984,370.432 Q859.735,365.892 858.837,363.448 Q857.939,361.004 856.044,360.206 Q854.148,359.408 850.856,359.408 L842.376,359.408 z" fill="#FFFFFF"/>
      <path d="M401.758,508.159 L391.083,508.658 Q390.585,498.182 382.204,498.182 L367.14,498.182 L367.14,517.537 L371.23,517.537 Q374.722,517.537 375.62,507.161 L386.195,507.161 L384.698,540.284 L374.323,540.284 Q373.225,529.509 370.532,529.509 L367.14,529.509 L367.14,544.773 Q367.14,549.362 377.615,549.362 L377.615,559.838 L333.019,559.838 L333.019,549.362 Q341.899,549.362 341.899,544.773 L341.899,500.776 Q341.899,496.187 333.019,496.187 L333.019,485.712 L401.758,485.712 z" fill="#FFFFFF"/>
      <path d="M479.776,560.536 Q474.189,560.536 470.248,559.09 Q466.307,557.643 463.763,555.199 Q461.219,552.754 460.072,549.462 Q458.924,546.17 458.924,542.479 L458.924,536.991 Q458.924,533.5 458.575,531.305 Q458.226,529.11 457.378,527.913 Q456.53,526.715 454.984,526.316 Q453.437,525.917 451.043,525.917 L443.161,525.917 L443.161,544.773 Q443.161,549.362 454.235,549.362 L454.235,559.838 L409.041,559.838 L409.041,549.362 Q417.92,549.362 417.92,544.773 L417.92,500.776 Q417.92,496.187 409.041,496.187 L409.041,485.712 L461.019,485.712 Q465.908,485.712 470.597,486.36 Q475.286,487.009 478.927,489.004 Q482.569,490.999 484.764,494.641 Q486.959,498.282 486.959,504.268 Q486.959,508.159 485.761,511.102 Q484.564,514.045 482.619,516.14 Q480.673,518.235 478.179,519.532 Q475.685,520.829 472.991,521.428 Q478.379,522.825 481.272,526.616 Q484.165,530.407 484.165,538.089 L484.165,544.973 Q484.165,547.168 485.063,548.215 Q485.961,549.263 487.358,549.263 Q488.854,549.263 489.752,548.215 Q490.65,547.168 490.65,544.973 L490.65,540.184 L497.933,540.184 L497.933,544.773 Q497.933,548.065 496.885,550.959 Q495.838,553.852 493.593,555.947 Q491.348,558.042 487.956,559.289 Q484.564,560.536 479.776,560.536 z M443.161,515.941 L452.24,515.941 Q454.934,515.941 456.68,515.442 Q458.426,514.943 459.473,513.796 Q460.521,512.648 460.92,510.703 Q461.319,508.758 461.319,505.864 Q461.319,502.472 459.423,500.577 Q457.528,498.681 452.24,498.681 L443.161,498.681 z" fill="#FFFFFF"/>
      <path d="M579.841,522.725 Q579.841,531.804 577.546,538.987 Q575.252,546.17 570.513,551.158 Q565.774,556.147 558.491,558.79 Q551.208,561.434 541.232,561.434 Q532.951,561.434 526.167,559.589 Q519.383,557.743 514.494,553.403 Q509.606,549.063 506.912,541.93 Q504.218,534.797 504.218,524.321 Q504.218,514.744 506.313,507.261 Q508.408,499.779 513.048,494.641 Q517.687,489.503 525.019,486.809 Q532.352,484.115 542.728,484.115 Q550.909,484.115 557.743,486.011 Q564.577,487.906 569.515,492.396 Q574.454,496.885 577.147,504.268 Q579.841,511.651 579.841,522.725 z M541.232,548.365 Q544.624,548.365 547.267,547.367 Q549.911,546.369 551.707,543.676 Q553.503,540.982 554.401,536.094 Q555.299,531.205 555.299,523.423 Q555.299,515.342 554.401,510.204 Q553.503,505.066 551.956,502.123 Q550.41,499.18 548.165,498.083 Q545.921,496.985 543.227,496.985 Q539.835,496.985 537.191,498.033 Q534.547,499.08 532.701,501.674 Q530.856,504.268 529.908,508.658 Q528.96,513.048 528.96,519.732 Q528.96,528.91 529.858,534.547 Q530.756,540.184 532.402,543.227 Q534.048,546.27 536.293,547.317 Q538.538,548.365 541.232,548.365 z" fill="#FFFFFF"/>
      <path d="M624.137,559.838 L608.873,501.774 L608.873,544.773 Q608.873,549.362 617.752,549.362 L617.752,559.838 L587.224,559.838 L587.224,549.362 Q596.103,549.362 596.103,544.773 L596.103,500.776 Q596.103,496.187 587.224,496.187 L587.224,485.712 L630.123,485.712 L640.599,530.906 L651.074,485.712 L691.878,485.712 L691.878,496.187 Q682.899,496.187 682.899,500.776 L682.899,544.773 Q682.899,549.362 691.878,549.362 L691.878,559.838 L650.076,559.838 L650.076,549.362 Q658.956,549.362 658.956,544.773 L658.956,501.774 L643.691,559.838 z" fill="#FFFFFF"/>
      <path d="M191.751,648.43 L180.477,649.328 Q179.779,645.437 177.883,642.843 Q175.988,640.249 173.144,638.703 Q170.301,637.157 166.56,636.458 Q162.818,635.76 158.528,635.76 Q156.234,635.76 154.238,636.009 Q152.243,636.259 150.747,636.907 Q149.25,637.556 148.352,638.753 Q147.454,639.95 147.454,641.746 Q147.454,644.539 150.547,645.986 Q153.64,647.433 158.429,648.43 Q163.217,649.428 169.054,650.426 Q174.89,651.423 180.377,653.319 Q188.259,656.012 192.299,661.35 Q196.34,666.687 196.34,675.666 Q196.34,681.553 194.195,686.092 Q192.05,690.631 188.259,693.774 Q184.468,696.917 179.33,698.563 Q174.192,700.209 168.206,700.209 Q162.12,700.209 158.129,699.411 Q154.139,698.613 151.495,697.615 Q148.851,696.617 147.055,695.819 Q145.26,695.021 143.663,695.021 Q142.267,695.021 141.219,695.819 Q140.171,696.617 139.373,698.613 L128.1,698.613 L128.1,673.172 L139.373,672.574 Q139.972,680.355 146.357,683.747 Q152.742,687.139 163.217,687.139 Q169.203,687.139 172.745,685.543 Q176.287,683.947 176.287,679.358 Q176.287,676.564 173.643,675.118 Q170.999,673.671 166.809,672.773 Q162.619,671.875 157.431,671.127 Q152.243,670.379 147.155,668.982 Q141.568,667.386 137.877,665.141 Q134.186,662.896 131.991,659.903 Q129.796,656.91 128.898,653.069 Q128,649.228 128,644.44 Q128,640.05 129.496,636.109 Q130.993,632.168 134.086,629.225 Q137.178,626.282 141.867,624.586 Q146.557,622.89 153.041,622.89 Q158.828,622.89 162.669,623.638 Q166.51,624.387 169.054,625.334 Q171.598,626.282 173.244,627.03 Q174.89,627.779 176.287,627.779 Q178.282,627.779 179.429,627.03 Q180.577,626.282 181.774,624.486 L191.751,624.486 z" fill="#FFFFFF"/>
      <path d="M203.723,624.486 L281.141,624.486 L281.141,655.015 L270.167,655.314 Q269.568,636.957 259.791,636.957 L255.102,636.957 L255.102,683.548 Q255.102,688.137 264.081,688.137 L264.081,698.613 L220.982,698.613 L220.982,688.137 Q229.861,688.137 229.861,683.548 L229.861,636.957 L225.072,636.957 Q215.295,636.957 214.697,655.314 L203.723,655.015 z" fill="#FFFFFF"/>
      <path d="M359.158,699.311 Q353.571,699.311 349.631,697.864 Q345.69,696.418 343.146,693.974 Q340.602,691.529 339.454,688.237 Q338.307,684.945 338.307,681.253 L338.307,675.766 Q338.307,672.274 337.958,670.08 Q337.609,667.885 336.761,666.687 Q335.913,665.49 334.366,665.091 Q332.82,664.692 330.426,664.692 L322.544,664.692 L322.544,683.548 Q322.544,688.137 333.618,688.137 L333.618,698.613 L288.424,698.613 L288.424,688.137 Q297.303,688.137 297.303,683.548 L297.303,639.551 Q297.303,634.962 288.424,634.962 L288.424,624.486 L340.402,624.486 Q345.291,624.486 349.98,625.135 Q354.669,625.783 358.31,627.779 Q361.952,629.774 364.147,633.415 Q366.341,637.057 366.341,643.043 Q366.341,646.934 365.144,649.877 Q363.947,652.82 362.002,654.915 Q360.056,657.01 357.562,658.307 Q355.068,659.604 352.374,660.203 Q357.762,661.599 360.655,665.391 Q363.548,669.182 363.548,676.864 L363.548,683.747 Q363.548,685.942 364.446,686.99 Q365.344,688.037 366.74,688.037 Q368.237,688.037 369.135,686.99 Q370.033,685.942 370.033,683.747 L370.033,678.959 L377.316,678.959 L377.316,683.548 Q377.316,686.84 376.268,689.733 Q375.221,692.627 372.976,694.722 Q370.731,696.817 367.339,698.064 Q363.947,699.311 359.158,699.311 z M322.544,654.716 L331.623,654.716 Q334.316,654.716 336.062,654.217 Q337.808,653.718 338.856,652.571 Q339.903,651.423 340.302,649.478 Q340.701,647.532 340.701,644.639 Q340.701,641.247 338.806,639.352 Q336.91,637.456 331.623,637.456 L322.544,637.456 z" fill="#FFFFFF"/>
      <path d="M466.706,634.962 Q457.727,634.962 457.727,639.551 L457.727,668.383 Q457.727,675.567 456.331,681.453 Q454.934,687.339 451.442,691.479 Q447.95,695.62 441.964,697.914 Q435.978,700.209 426.7,700.209 Q417.222,700.209 410.687,697.914 Q404.153,695.62 400.112,691.479 Q396.072,687.339 394.276,681.453 Q392.48,675.567 392.48,668.383 L392.48,639.551 Q392.48,634.962 383.601,634.962 L383.601,624.486 L427.797,624.486 L427.797,634.962 Q422.111,634.962 419.916,636.109 Q417.721,637.256 417.721,639.551 L417.721,668.383 Q417.721,673.372 418.27,676.864 Q418.818,680.355 420.315,682.55 Q421.811,684.745 424.306,685.693 Q426.8,686.641 430.691,686.641 Q434.581,686.641 437.275,685.693 Q439.969,684.745 441.665,682.55 Q443.361,680.355 444.109,676.864 Q444.857,673.372 444.857,668.383 L444.857,639.551 Q444.857,637.256 442.613,636.109 Q440.368,634.962 434.681,634.962 L434.681,624.486 L466.706,624.486 z" fill="#FFFFFF"/>
      <path d="M531.055,649.727 Q529.06,635.361 516.589,635.361 Q511.9,635.361 508.658,636.857 Q505.415,638.354 503.42,641.496 Q501.425,644.639 500.577,649.528 Q499.729,654.416 499.729,661.3 Q499.729,667.885 500.876,672.524 Q502.023,677.163 503.919,680.106 Q505.814,683.049 508.309,684.346 Q510.803,685.643 513.496,685.643 Q517.687,685.643 520.829,685.044 Q523.972,684.446 526.316,682.949 Q528.661,681.453 530.257,679.009 Q531.853,676.564 533.051,672.873 L544.424,675.168 Q543.227,680.256 540.882,684.845 Q538.538,689.434 534.647,692.826 Q530.756,696.218 525.019,698.214 Q519.283,700.209 511.302,700.209 Q503.62,700.209 496.786,697.914 Q489.952,695.62 484.864,690.931 Q479.776,686.242 476.783,679.108 Q473.79,671.975 473.79,662.298 Q473.79,652.321 476.683,644.888 Q479.576,637.456 484.415,632.567 Q489.253,627.679 495.489,625.284 Q501.724,622.89 508.408,622.89 Q522.675,622.89 529.758,628.277 L531.754,624.486 L543.925,624.486 L543.925,648.729 z" fill="#FFFFFF"/>
      <path d="M551.807,624.486 L629.225,624.486 L629.225,655.015 L618.251,655.314 Q617.652,636.957 607.875,636.957 L603.186,636.957 L603.186,683.548 Q603.186,688.137 612.165,688.137 L612.165,698.613 L569.066,698.613 L569.066,688.137 Q577.945,688.137 577.945,683.548 L577.945,636.957 L573.157,636.957 Q563.38,636.957 562.781,655.314 L551.807,655.015 z" fill="#FFFFFF"/>
      <path d="M719.613,634.962 Q710.634,634.962 710.634,639.551 L710.634,668.383 Q710.634,675.567 709.238,681.453 Q707.841,687.339 704.349,691.479 Q700.857,695.62 694.871,697.914 Q688.885,700.209 679.607,700.209 Q670.129,700.209 663.595,697.914 Q657.06,695.62 653.019,691.479 Q648.979,687.339 647.183,681.453 Q645.387,675.567 645.387,668.383 L645.387,639.551 Q645.387,634.962 636.508,634.962 L636.508,624.486 L680.705,624.486 L680.705,634.962 Q675.018,634.962 672.823,636.109 Q670.628,637.256 670.628,639.551 L670.628,668.383 Q670.628,673.372 671.177,676.864 Q671.726,680.355 673.222,682.55 Q674.719,684.745 677.213,685.693 Q679.707,686.641 683.598,686.641 Q687.489,686.641 690.182,685.693 Q692.876,684.745 694.572,682.55 Q696.268,680.355 697.016,676.864 Q697.765,673.372 697.765,668.383 L697.765,639.551 Q697.765,637.256 695.52,636.109 Q693.275,634.962 687.588,634.962 L687.588,624.486 L719.613,624.486 z" fill="#FFFFFF"/>
      <path d="M797.431,699.311 Q791.844,699.311 787.903,697.864 Q783.963,696.418 781.419,693.974 Q778.875,691.529 777.727,688.237 Q776.58,684.945 776.58,681.253 L776.58,675.766 Q776.58,672.274 776.231,670.08 Q775.882,667.885 775.034,666.687 Q774.186,665.49 772.639,665.091 Q771.093,664.692 768.698,664.692 L760.817,664.692 L760.817,683.548 Q760.817,688.137 771.891,688.137 L771.891,698.613 L726.697,698.613 L726.697,688.137 Q735.576,688.137 735.576,683.548 L735.576,639.551 Q735.576,634.962 726.697,634.962 L726.697,624.486 L778.675,624.486 Q783.564,624.486 788.253,625.135 Q792.942,625.783 796.583,627.779 Q800.224,629.774 802.419,633.415 Q804.614,637.057 804.614,643.043 Q804.614,646.934 803.417,649.877 Q802.22,652.82 800.274,654.915 Q798.329,657.01 795.835,658.307 Q793.341,659.604 790.647,660.203 Q796.034,661.599 798.928,665.391 Q801.821,669.182 801.821,676.864 L801.821,683.747 Q801.821,685.942 802.719,686.99 Q803.617,688.037 805.013,688.037 Q806.51,688.037 807.408,686.99 Q808.306,685.942 808.306,683.747 L808.306,678.959 L815.589,678.959 L815.589,683.548 Q815.589,686.84 814.541,689.733 Q813.493,692.627 811.249,694.722 Q809.004,696.817 805.612,698.064 Q802.22,699.311 797.431,699.311 z M760.817,654.716 L769.896,654.716 Q772.589,654.716 774.335,654.217 Q776.081,653.718 777.129,652.571 Q778.176,651.423 778.575,649.478 Q778.974,647.532 778.974,644.639 Q778.974,641.247 777.079,639.352 Q775.183,637.456 769.896,637.456 L760.817,637.456 z" fill="#FFFFFF"/>
      <path d="M893.606,646.934 L880.636,647.433 Q880.636,636.957 871.158,636.957 L855.994,636.957 L855.994,654.715 L859.785,654.715 Q863.177,654.715 864.075,644.34 L875.249,644.34 L873.752,675.467 L862.778,675.467 Q861.68,664.692 859.087,664.692 L855.994,664.692 L855.994,686.142 L867.567,686.142 Q882.332,686.142 882.831,669.481 L896,670.179 L893.606,698.613 L821.874,698.613 L821.874,688.137 Q830.753,688.137 830.753,683.548 L830.753,639.551 Q830.753,634.962 821.874,634.962 L821.874,624.486 L893.606,624.486 z" fill="#FFFFFF"/>
    </g>
  </g>
</svg>
