<svg xmlns="http://www.w3.org/2000/svg" width="300" height="357"><g fill="none" fill-rule="nonzero"><rect width="300" height="357" fill="#D10A10" rx="8"/><path fill="#FFF" d="M230.39 232a8.98 8.98 0 0 1-6.62-2.8 9.2 9.2 0 0 1-2.77-6.7c0-2.62.93-4.86 2.79-6.72a9.16 9.16 0 0 1 6.71-2.78c2.62 0 4.85.93 6.71 2.78a9.12 9.12 0 0 1 2.79 6.7c0 2.65-.93 4.9-2.8 6.75a9.32 9.32 0 0 1-6.81 2.77Zm0-1.58c2.58 0 4.63-.95 6.16-2.85a7.93 7.93 0 0 0 1.87-5.08 7.9 7.9 0 0 0-1.87-5.06 7.37 7.37 0 0 0-6.05-2.85c-2.5 0-4.52.95-6.05 2.85a7.91 7.91 0 0 0-1.87 5.07c0 2.15.78 4 2.32 5.57a7.46 7.46 0 0 0 5.49 2.35Zm-3.85-2.38v-10.29h4.27c2.39 0 3.58.85 3.58 2.55 0 1.36-.76 2.34-2.27 2.94l3.13 4.8h-2.78l-2.4-4.2h-1.35v4.2h-2.18Zm2.38-5.54h.54c1.75 0 2.62-.61 2.62-1.83 0-.9-.78-1.34-2.35-1.34h-.81v3.17ZM25 263.7v-3.2h3.54l-.01-.66-.01-1.05c0-3.23.56-5.5 1.7-6.82 1.12-1.31 3.09-1.97 5.88-1.97a45.61 45.61 0 0 1 4.19.2v3.41l-.87-.05c-1.1-.03-1.87-.04-2.28-.04-1.95 0-3.24.29-3.88.87-.64.59-.96 2.05-.96 4.4v1.7h7.99v3.21h-8v22.15h-3.73V263.7H25Zm19.29 22.15V260.5h3.63v3.47a5.47 5.47 0 0 1 2.48-2.9 9.4 9.4 0 0 1 4.48-.9c2.76 0 4.7.66 5.82 1.99 1.11 1.33 1.67 3.7 1.67 7.08v.2h-3.78v-.76c0-2.02-.32-3.38-.96-4.08-.65-.7-1.86-1.04-3.64-1.04-2.09 0-3.6.59-4.53 1.77-.93 1.18-1.4 3.1-1.4 5.79v14.73H44.3Zm39.68-6.45v-2.67c0-1.2-.62-2.09-1.85-2.65-1.22-.56-3.18-.84-5.86-.84-2.45 0-4.1.3-4.92.92-.83.62-1.24 1.8-1.24 3.55 0 2 .44 3.32 1.31 3.99.87.66 2.63 1 5.26 1 2.36 0 4.17-.29 5.42-.86 1.25-.57 1.88-1.38 1.88-2.44Zm.19 3.78a5 5 0 0 1-2.76 2.3c-1.26.47-3 .7-5.23.7-3.97 0-6.63-.56-7.97-1.69-1.35-1.13-2.03-3.24-2.03-6.32 0-1.78.16-3.18.47-4.19a5.05 5.05 0 0 1 1.56-2.43c.6-.51 1.5-.88 2.68-1.1 1.18-.21 2.88-.32 5.1-.32 2.29 0 4.04.19 5.25.56 1.22.38 2.13 1.01 2.74 1.9v-4.39c0-2.07-.4-3.4-1.2-4.02-.81-.6-2.82-.91-6.05-.91-2.34 0-3.9.24-4.67.73-.77.5-1.17 1.41-1.2 2.76H67.1v-.58c0-2.17.7-3.71 2.1-4.63 1.41-.93 3.83-1.39 7.27-1.39 2.68 0 4.72.11 6.11.34 1.4.22 2.44.58 3.11 1.08.74.58 1.26 1.3 1.57 2.14.3.86.45 2.32.45 4.39v17.74H84.3l-.14-2.67Zm11.1 2.67V260.5h3.59v3.47a5.8 5.8 0 0 1 2.93-2.88c1.35-.62 3.13-.93 5.35-.93 3.32 0 5.65.67 6.98 2.01 1.33 1.34 2 3.7 2 7.07v16.61h-3.76v-15.82c0-2.65-.38-4.39-1.16-5.22-.78-.84-2.3-1.25-4.54-1.25-2.65 0-4.59.6-5.82 1.81-1.22 1.22-1.84 3.13-1.84 5.75v14.73h-3.73Zm27.38 0v-4.1l15.67-17.78h-14.93v-3.47h19.53V264l-16.23 18.45h16.23v3.4h-20.27Zm47.67 3.71c0 2-.43 3.5-1.28 4.5-.85 1-2.13 1.5-3.85 1.5a9.83 9.83 0 0 1-1.76-.15l-.02-2.96h1.3c.69 0 1.17-.29 1.43-.86.27-.57.4-1.92.4-4.05V260.5h3.78v29.06Zm-3.78-35.32V250h3.78v4.24h-3.78Zm28.7 21.11v-4.33c0-3.2-.4-5.23-1.22-6.1-.8-.88-2.51-1.32-5.11-1.32h-1.76c-2.58 0-4.27.44-5.07 1.3-.8.87-1.19 2.91-1.19 6.12v4.33c0 3.23.4 5.28 1.2 6.14.8.87 2.5 1.3 5.06 1.3h1.76c2.58 0 4.28-.44 5.1-1.32.82-.88 1.23-2.92 1.23-6.12Zm-8.04 10.84c-3.79 0-6.44-.74-7.95-2.22-1.5-1.47-2.26-4.07-2.26-7.77v-6.02c0-3.73.75-6.33 2.25-7.8 1.5-1.48 4.14-2.22 7.91-2.22h1.76c3.79 0 6.43.74 7.94 2.22 1.51 1.47 2.27 4.07 2.27 7.8v6.02c0 3.72-.75 6.32-2.25 7.79-1.5 1.46-4.14 2.2-7.91 2.2h-1.76Zm17.74-7.87h3.8v.57c0 1.56.49 2.63 1.45 3.22.97.58 2.9.88 5.8.88 3.26 0 5.27-.3 6.02-.9.76-.59 1.14-1.74 1.14-3.44 0-1.65-.31-2.75-.93-3.3-.62-.56-2.16-.9-4.64-1.03-.91-.05-2.15-.1-3.7-.15-3.4-.1-5.43-.32-6.07-.7a4.59 4.59 0 0 1-2.06-2.16 10 10 0 0 1-.61-3.95c0-2.8.71-4.71 2.14-5.7 1.43-1 4.57-1.5 9.44-1.5 3.77 0 6.33.47 7.67 1.42 1.34.95 2 2.61 2 4.99h-3.75v-.25c0-1.12-.48-1.9-1.46-2.32-.97-.42-2.9-.64-5.79-.64-2.79 0-4.57.26-5.34.77-.77.52-1.16 1.6-1.16 3.23 0 1 .07 1.7.22 2.1.14.4.4.7.77.91.75.4 2.42.63 5 .7a70.61 70.61 0 0 1 6.5.37 9 9 0 0 1 2.59.57 4.74 4.74 0 0 1 2.4 2.21c.46.97.7 2.36.7 4.2 0 1.85-.23 3.27-.7 4.23a6.32 6.32 0 0 1-2.5 2.55c-.55.35-1.44.6-2.67.76-1.24.15-2.96.23-5.16.23-4.5 0-7.46-.52-8.92-1.55-1.45-1.04-2.18-2.92-2.18-5.65v-.67Zm32.56-7.61h14.35v-.99c0-2.38-.43-3.99-1.28-4.84-.85-.85-2.54-1.28-5.06-1.28h-1.75c-2.5 0-4.18.43-5.01 1.28-.84.85-1.25 2.46-1.25 4.84v.99Zm6.3 15.48c-3.78 0-6.43-.74-7.94-2.22-1.5-1.47-2.26-4.07-2.26-7.77v-6.02c0-3.73.75-6.33 2.25-7.8 1.5-1.48 4.13-2.22 7.9-2.22h1.76c3.8 0 6.44.74 7.95 2.22 1.5 1.47 2.26 4.07 2.26 7.8V274l-18.22.02a23.43 23.43 0 0 0-.05 2.17c0 2.61.42 4.37 1.25 5.26.84.89 2.52 1.33 5.06 1.33h1.75c2.27 0 3.84-.32 4.72-.97.89-.65 1.4-1.79 1.54-3.4h3.9c-.19 2.74-1.07 4.72-2.64 5.94-1.58 1.22-4.06 1.83-7.47 1.83h-1.75Zm15.92-22.49v-3.2h3.54l-.01-.66-.01-1.05c0-3.23.56-5.5 1.7-6.82 1.13-1.31 3.09-1.97 5.88-1.97a45.61 45.61 0 0 1 4.19.2v3.41l-.87-.05c-1.1-.03-1.87-.04-2.28-.04-1.95 0-3.24.29-3.88.87-.64.59-.96 2.05-.96 4.4v1.7H275v3.21h-8v22.15h-3.73V263.7h-3.56ZM25 326.34h11c.2 1.23.6 2.08 1.2 2.54.6.47 1.68.7 3.22.7h1.44c1.67 0 2.82-.23 3.45-.7.62-.46.93-1.31.93-2.54 0-1.17-.29-1.98-.87-2.43-.58-.46-1.8-.78-3.64-.97l-6.84-.64c-2.9-.27-5.22-1.2-6.93-2.78a7.65 7.65 0 0 1-2.58-5.87v-2.67c0-2.95 1.07-5.18 3.2-6.71 2.13-1.53 5.23-2.3 9.3-2.3h6.58c3.8 0 6.65.74 8.56 2.19 1.9 1.45 2.86 3.63 2.86 6.53v.73H45.32c-.04-.93-.39-1.62-1.03-2.06-.65-.45-1.65-.67-3-.67h-1.37c-1.47 0-2.5.24-3.12.73-.62.49-.92 1.3-.92 2.45 0 .95.22 1.63.66 2.03.45.4 1.27.66 2.45.77l7.57.73c3.5.32 6.09 1.14 7.76 2.48 1.68 1.34 2.51 3.22 2.51 5.66v2.86c0 3.1-1.06 5.53-3.18 7.3-2.12 1.77-5.04 2.66-8.77 2.66h-7.13c-4.3 0-7.5-.79-9.6-2.36-2.1-1.56-3.15-3.97-3.15-7.22v-.44Zm49.8 10.02c-1.97 0-3.67-.28-5.09-.83a7.71 7.71 0 0 1-4.78-5.37c-.27-1.06-.4-2.62-.4-4.68v-15.3h-3.85v-7.76h3.85V296h10.62v6.42h14.19v7.76H75.15v13.68c0 2.03.23 3.33.69 3.88.45.55 1.37.83 2.75.83 1.3 0 2.17-.25 2.64-.74.46-.48.7-1.44.7-2.86v-2.8h8.84v3.79c0 3.56-.83 6.18-2.5 7.87-1.66 1.68-4.27 2.53-7.8 2.53H74.8Zm22.8-.45v-33.49h10.3l-.12 4.77a9.06 9.06 0 0 1 3.18-3.99 9.05 9.05 0 0 1 4.96-1.22c3.37 0 5.72.86 7.03 2.57 1.32 1.72 1.97 4.92 1.97 9.6v3h-9.98v-2.13c0-1.61-.24-2.74-.72-3.37-.47-.64-1.34-.96-2.59-.96-1.31 0-2.21.37-2.69 1.12-.47.74-.71 2.52-.71 5.34v18.76H97.6Zm45.36-6.84h2.92c1.06 0 1.86-.24 2.39-.73.53-.48.8-1.22.8-2.2v-1.74c0-1-.27-1.74-.8-2.23-.53-.48-1.33-.73-2.39-.73h-2.92c-1.09 0-1.9.25-2.45.75-.55.5-.83 1.23-.83 2.21v1.75c0 .97.28 1.7.83 2.2.55.48 1.36.72 2.45.72Zm-12.53-18.12c.04-3.2.93-5.5 2.67-6.89 1.74-1.39 4.63-2.08 8.68-2.08h5.06c4.7 0 8.04.84 10.01 2.51 1.98 1.68 2.96 4.5 2.96 8.5v22.92h-10.68v-3.05a8.38 8.38 0 0 1-3.18 2.64c-1.23.57-2.67.86-4.3.86h-3.85c-2.86 0-5.06-.8-6.61-2.42-1.55-1.61-2.32-3.91-2.32-6.9v-3.12c0-2.88.88-5.1 2.64-6.64 1.76-1.55 4.27-2.33 7.53-2.33h2.93c1.53 0 2.9.26 4.13.78a7.47 7.47 0 0 1 3.03 2.28v-6.52c0-1.04-.23-1.79-.69-2.24-.45-.46-1.2-.69-2.24-.69h-1.81c-1.3 0-2.18.18-2.64.53-.47.35-.7.98-.7 1.89l-10.62-.03Zm68.53-8.53v33.5h-10.3l.12-4.78a9 9 0 0 1-3.62 4c-1.49.8-3.43 1.22-5.82 1.22-4.05 0-6.84-.85-8.38-2.53-1.54-1.69-2.3-4.88-2.3-9.59v-21.82h10.61v19.44c0 2.43.29 4 .86 4.72.58.7 1.88 1.06 3.91 1.06 1.66 0 2.79-.38 3.4-1.16.6-.77.9-2.51.9-5.23v-18.83h10.62Zm7.03 23.92h11c.2 1.23.59 2.08 1.2 2.54.6.47 1.67.7 3.22.7h1.43c1.68 0 2.83-.23 3.45-.7.63-.46.94-1.31.94-2.54 0-1.17-.29-1.98-.87-2.43-.59-.46-1.8-.78-3.64-.97l-6.84-.64c-2.9-.27-5.22-1.2-6.93-2.78a7.65 7.65 0 0 1-2.58-5.87v-2.67c0-2.95 1.07-5.18 3.2-6.71 2.13-1.53 5.23-2.3 9.3-2.3h6.58c3.8 0 6.65.74 8.56 2.19 1.9 1.45 2.86 3.63 2.86 6.53v.73H226.3c-.04-.93-.39-1.62-1.03-2.06-.65-.45-1.65-.67-3-.67h-1.38c-1.46 0-2.5.24-3.11.73-.62.49-.93 1.3-.93 2.45 0 .95.23 1.63.67 2.03.45.4 1.26.66 2.45.77l7.57.73c3.5.32 6.09 1.14 7.76 2.48 1.68 1.34 2.51 3.22 2.51 5.66v2.86c0 3.1-1.06 5.53-3.18 7.3-2.12 1.77-5.04 2.66-8.77 2.66h-7.13c-4.3 0-7.5-.79-9.6-2.36-2.1-1.56-3.15-3.97-3.15-7.22v-.44Zm37.18 0h11c.19 1.23.59 2.08 1.2 2.54.6.47 1.67.7 3.22.7h1.43c1.68 0 2.83-.23 3.45-.7.63-.46.94-1.31.94-2.54 0-1.17-.3-1.98-.87-2.43-.59-.46-1.8-.78-3.65-.97l-6.83-.64c-2.9-.27-5.22-1.2-6.94-2.78a7.65 7.65 0 0 1-2.57-5.87v-2.67c0-2.95 1.06-5.18 3.2-6.71 2.12-1.53 5.22-2.3 9.3-2.3h6.58c3.8 0 6.65.74 8.55 2.19 1.91 1.45 2.87 3.63 2.87 6.53v.73h-10.56c-.04-.93-.39-1.62-1.04-2.06-.64-.45-1.64-.67-3-.67h-1.37c-1.46 0-2.5.24-3.12.73-.61.49-.92 1.3-.92 2.45 0 .95.22 1.63.67 2.03.45.4 1.26.66 2.45.77l7.57.73c3.5.32 6.08 1.14 7.76 2.48 1.67 1.34 2.51 3.22 2.51 5.66v2.86c0 3.1-1.06 5.53-3.18 7.3-2.12 1.77-5.05 2.66-8.78 2.66h-7.12c-4.3 0-7.5-.79-9.6-2.36-2.1-1.56-3.15-3.97-3.15-7.22v-.44ZM159.54 231.52c7.29-1.44 10.3-2.2 11.97-3.06 1.27-.7 1.9-.76 2.02-.3.35 1.05 6.76-3.64 10.58-7.7 1.85-2.02 3.87-4.8 4.5-6.24 1.33-3.01 7.52-9.32 13.53-13.77 3.58-2.6 4.5-3.7 6.18-7 3.88-7.76 6.25-18.24 7-30.91l.4-6.83h1.97c3 0 3.23-.58 8.26-18.8a207.84 207.84 0 0 0 3.59-14.94c.75-4.51.75-4.51-1.22-10.3-1.44-4.23-1.79-6.08-1.39-6.71 1.22-1.91-1.04-13.02-3.58-17.83-.98-1.9-2.37-4.51-3.06-5.79a89.55 89.55 0 0 1-3.3-8.04c-1.15-3.18-2.71-6.71-3.46-7.81a18.44 18.44 0 0 1-1.91-4.4c-1.5-6.13-3.47-12.96-4.28-14.82-1.1-2.48-4.62-5.73-6.18-5.73-.75 0-1.16-.4-1.16-1.15 0-.64-.23-1.16-.58-1.16-.29 0-1.21-.98-1.96-2.26-1.22-1.85-1.91-2.37-4.4-2.95-1.67-.4-3.23-1.16-3.64-1.8-.4-.63-1.1-1.1-1.61-1.1-.47 0-1.5-.8-2.2-1.79-1.27-1.67-1.56-1.79-3.82-1.5-1.9.29-2.65.11-3.29-.58-1.21-1.5-4.05-2.43-10.4-3.36-4-.63-6.01-.7-6.13-.29-.29.76-2.2.76-3.64 0-.87-.52-1.21-.4-1.45.3-.4.98-1.79 1.1-3.12.28-.75-.46-.7-.63.3-1.39 1.09-.86 1.09-.86-.41-.92-.81 0-1.91-.18-2.37-.35-.52-.17-.93.12-1.1.81-.35 1.22-2.43 1.27-5.26.17-.93-.34-3.35-.63-5.5-.63-2.13 0-5.6-.3-7.74-.58-3.64-.52-4.22-.46-8.67 1.21-2.6.93-5.66 2.32-6.76 2.96l-1.96 1.21-1.04-1.39c-.87-1.15-1.5-1.39-3.59-1.27-3.23.12-7.22 2.08-7.92 4a3.73 3.73 0 0 1-1.96 1.9c-1.04.4-1.45 1.16-1.73 3.13a12.43 12.43 0 0 1-1.85 4.51c-.87 1.1-1.97 3.01-2.55 4.28-.8 1.68-1.9 2.78-4.1 4.06-2.6 1.5-3.35 2.31-4.97 5.67-1.45 2.95-2.2 3.87-3.12 3.87-1.16 0-1.22.24-.93 2.9.18 1.56.12 3-.23 3.18-.29.23-.52-.46-.52-1.39 0-2.08-.46-2.2-2.54-.58-1.8 1.4-1.97 3.42-.35 3.82.64.18 1.16.75 1.16 1.28 0 1.5-1.68 3.53-2.95 3.53-1.5 0-1.39 1.27.35 3.12.92.98 1.96 1.5 3.18 1.5.92 0 1.73.3 1.73.58 0 .35-.58.58-1.27.58-2.08 0-3.12.93-2.31 1.91.4.47.57 1.57.34 2.67-.23 1.15-.17 1.79.3 1.79.86 0 .8 1.56-.07 1.85-.46.17-.11 1.45 1.16 4.05 1.56 3.3 1.73 4 1.1 5.33-.46.98-1.16 1.5-2.02 1.5-1.85 0-4.86 1.68-4.57 2.49.12.4.75.64 1.33.52.58-.12 1.96-.17 3-.23.99 0 2.03-.23 2.2-.52.17-.3.58-.52.93-.52.34 0 .23.46-.3 1.04-1.5 1.62-1.2 2.9.7 3.3 2.02.4 4.05-.64 4.33-2.32 1.5-8.04 4.1-14.93 6.94-18.11a13.2 13.2 0 0 1 4.16-3.01 20.4 20.4 0 0 0 4.34-2.78c1.67-1.45 2.66-1.73 6.59-2.14 8.67-.87 14.62-.58 19.36.93l4.33 1.44 2.31-1.27c1.28-.7 2.72-1.16 3.18-1.04 1.91.46 12.03-2.49 13.87-4.05 1.5-1.33 6.42-2.2 14-2.5 6.47-.28 7.39-.22 7.74.59.29.75.57.8 1.44.4.87-.46 1.5-.23 3.24 1.33 3.52 3.07 5.14 3.88 6.93 3.53 1.28-.23 2.32.12 4.45 1.62 1.57 1.1 3.01 2.32 3.24 2.78.23.46.7 1.4.98 2.03.35.7.81 2.08 1.04 3.18a9.9 9.9 0 0 0 .81 2.6c.18.35.35 1.5.4 2.6.07 1.1.53 3.2 1.05 4.58.75 1.91.8 2.66.29 3.3-.87 1.1-.3 3.24 1.56 5.44 2.08 2.43 7.16 17.01 7.16 20.43 0 .75-.28 1.62-.69 2.02-.52.52-.52.87 0 1.4 1.04 1.03.87 1.61-.46 1.61-.64 0-1.16.4-1.16.87 0 1.27-1.62 1.04-2.02-.23-.29-.93-.58-1.04-1.97-.46-.86.29-2.13.4-2.71.17-.98-.4-.98-.52.52-1.27 1.67-.93 2.08-2.38.75-2.9-.8-.29-2.6-3.53-3.87-7.11-.81-2.26-3.53-4.11-6.01-4.11-1.45 0-4.51-1.16-9.08-3.53-1.56-.81-4.74-.64-6 .34-.82.64-.93.87-.24.87.64 0 .58.18-.23.64-.64.4-2.2.52-3.87.29-2.43-.35-2.84-.23-2.84.63 0 .76-.17.81-.69.3-1.1-1.1-2.6-.82-6.59 1.04-2.71 1.33-3.81 2.2-4.04 3.24-.52 1.96-5.26 5.15-6.36 4.22-.46-.35-1.22-.52-1.68-.29-.75.3-.8 1.68-.63 9.43.17 5.04.29 10.02.29 11 .11 3.88 4.73 4.57 5.6.87a6.6 6.6 0 0 1 1.27-2.55c.58-.7.7-1.5.47-2.6a50.1 50.1 0 0 1-.76-3.42l-.28-1.8 5.14-.63c2.77-.34 6.41-.46 7.98-.29 3.4.35 4.04.35 6.53-.17 1.21-.23 1.85-.12 1.85.29 0 .35.52.64 1.15.64 1.27 0 1.56 1.27.46 2.2-.4.28-2.25.75-4.04.92-3.24.4-4.1.98-2.72 1.85.35.18.46.87.35 1.5-.29 1.05-.23 1.1.7.24.69-.64 2.07-.93 4.21-.93 3.47 0 6.53-.8 8.15-2.2 1.5-1.33 4.97-2.43 7.51-2.43 1.22 0 2.72-.23 3.3-.58.58-.29 3.3-.75 5.95-.92 3.93-.3 5.15-.23 5.78.46 1.04.99.23 2.37-1.79 3.01-1.56.52-1.62 1.27-.12 2.08 1.4.76.93 2.2-.98 2.96-1.33.46-1.33.57-.46 2.2.98 1.96 1.16 3.52.29 3.52-.29 0-.87 1.05-1.21 2.32a6.37 6.37 0 0 1-2.84 3.7 16.21 16.21 0 0 0-3.81 3.88c-2.14 3.13-3 3.42-3.47 1.16-.23-.99-.64-1.97-.98-2.2-.75-.46-2.14 1.45-2.14 3 0 .65-.58 1.51-1.27 1.98-1.04.63-1.27.63-1.74-.18-.69-1.27-1.61-1.15-1.61.23 0 1.45-1.68 2.32-4.45 2.32-1.74 0-2.32-.29-2.78-1.27-.75-1.8-2.2-1.68-2.37.11-.06.81-.29 1.97-.52 2.66-.4 1.22.06 1.5 3.93 2.78 2.14.7.29 1.62-2.48 1.27-2.49-.34-2.84-.23-4.74 1.63-1.5 1.5-2.37 1.9-3.47 1.67-1.68-.34-3.93.7-3.93 1.74 0 .75-1.5 1.04-5.9 1.1-1.62.06-2.77.35-2.77.7 0 .98-6.01 2.48-12.72 3.18-3.35.34-8.96 1.1-12.54 1.62-5.2.75-6.76.8-8.15.23-1.44-.64-1.96-.52-3.93.63l-2.25 1.34 2.89.63c1.62.4 3.47.75 4.22.75.69.06 2.3.58 3.58 1.22 1.27.64 2.43 1.16 2.6 1.16.17 0 .29-.52.29-1.16a4 4 0 0 1 1.16-2.31c1.04-1.05 1.96-1.16 8.26-1.22 3.87 0 9.13-.23 11.68-.58 2.54-.29 6.64-.7 9.13-.92l4.45-.35v1.73c0 1.97-.93 3.07-2.6 3.07-.7 0-1.74.4-2.37.87-.58.46-2.08.87-3.24.87-1.15 0-2.25.23-2.43.52-.17.23-2.25.58-4.56.75-6.24.4-6.88 1.27-1.27 1.62 2.54.17 4.97.06 5.31-.23.4-.23 1.5-.17 2.55.17 1.04.35 2.66.64 3.64.64 1.79 0 7.22-2.9 10.34-5.56.93-.75 2.03-1.38 2.49-1.38.46 0 1.27-.47 1.85-.99.52-.58 1.73-1.56 2.6-2.2 1.21-.92 1.68-1.85 2.14-4.45.86-5.44.75-5.33 7.57-5.15 10.98.23 11.27.46 10.63 7.8-.23 2.61-.57 4.81-.8 4.99-1.45 1.04-2.95 3.87-2.95 5.55 0 1.56-.47 2.43-2.26 4.05-1.27 1.1-2.6 2.9-2.94 3.94a8 8 0 0 1-1.8 3c-.69.64-1.56 1.8-2.02 2.67-.46.92-1.21 1.62-1.73 1.62-.47 0-1.1.64-1.39 1.39-.58 1.5-3.99 4.98-4.91 4.98-.35 0-.93.69-1.33 1.62-2.49 5.44-5.03 8.33-10.98 12.26-4.28 2.84-4.63 2.03-.81-1.96 3.58-3.7 4.56-5.5 2.6-4.7-.58.24-1.56.59-2.2.76-.63.12-1.44.52-1.79.81-.4.3-.92.12-1.39-.4-1.33-1.57-3.52-1.04-5.95 1.56-2.08 2.14-2.37 2.31-3 1.45-.64-.87-.99-.76-3.36 1.33-2.89 2.54-3.3 2.72-3.3 1.44 0-.98-.69-1.1-2.19-.34a18.84 18.84 0 0 1-7.51 1.8c-1.27 0-2.49.22-2.66.45-.35.52 3.06 3.48 7.22 6.31 3.7 2.55 9.71 5.38 11.45 5.44.8 0 2.02.23 2.66.52 1.5.64 6.24.64 9.53 0Zm-2.93-39.48c.82-1.1.29-3.27-1-3.78-1.17-.52-1.29-.39-1.58 1.6-.18 1.47.52 3.14 1.4 3.14.24 0 .77-.45 1.18-.96Zm5.8-4.31c3.3-4.04 5.08-7.13 4.47-7.67-.55-.59-4.53 3.1-5.7 5.3-.73 1.24-1.34 1.6-3 1.6-2.44 0-2.87 1.18-1.1 3.09 1.54 1.66 2.4 1.3 5.33-2.32Zm-52.98-20.95c3.09-3.35 5.37-6.59 6.63-9.2 1.83-3.8 2.46-6.58 1.49-6.58-.69 0-11.2 10.73-13.5 13.8-1.14 1.52-2.05 3.11-2.05 3.57 0 .96 1.66 3.63 2.29 3.63.22 0 2.51-2.33 5.14-5.22Zm43.11-.7c4.72-.87 5.18-1.1 5.18-2.22 0-.59 1.43-2.46 3.22-4.1 3.1-2.98 3.21-3.16 2.87-5.38a21.32 21.32 0 0 0-1.61-4.92c-.69-1.4-1.1-2.75-.92-2.99.17-.17 1.15.12 2.18.65.98.52 2.13.82 2.48.7.92-.3-8.45-5.1-9.95-5.1-1.55 0-1.43.42.58 2.35 3.04 2.87 1.6 7.96-2.13 7.5-1.9-.24-2.76-2.82-1.9-5.4.35-.93.58-2.28.58-3.04 0-1.76-2.47-4.68-3.45-4.04-.69.47-.69 1.23.34 9.13l.35 2.64-4.66 3.63c-2.64 2.05-5.57 3.75-6.66 3.98-1.1.18-2.02.64-2.02.94 0 .35-.8.46-2 .29-1.5-.24-2.02-.12-2.02.53 0 .46.23.82.57.82.3 0 1.38.87 2.42 1.99 1.72 1.81 2.36 2.05 6.5 2.57 2.52.3 5.11.47 5.74.35.63-.17 2.59-.52 4.31-.87Zm-42.57-27.9c1.91-1.41 1.04-1.6-1.58-.33-2.24 1.09-3.33 2.68-1.37 1.98.71-.26 2.08-1.02 2.95-1.66Zm13.6-.1c1.36-1.7-.78-1.28-2.26.5L120 140l1.37-.5a4.85 4.85 0 0 0 2.2-1.42Zm45.39-2.58c.21-.3-.38-.5-1.3-.5-.9 0-1.66.25-1.66.5 0 .3.6.5 1.29.5.75 0 1.5-.2 1.67-.5Zm-54.49-2.3c-2.24 1.3-3.92 1.8-5.76 1.8-2.25 0-2.42-.11-1.73-.8.46-.44 2.25-1.18 3.98-1.57 3.11-.8 4.26-1.76 2.76-2.32-.4-.17-1.9 0-3.22.34-1.85.5-2.65.45-3.4-.06-2.02-1.41-2.6-1.36-7.15.96-2.6 1.24-4.78 2.2-4.9 2.1-.34-.35 1.04-3.4 2.02-4.53 1.61-1.7 7.15-4.19 11.12-4.92 4.96-.9 5.25-.96 4.9-1.58-.17-.29.23-.63.86-.8 1.44-.4 1.16-1.75-.4-1.97-1.27-.23-7.66-4.19-7.72-4.75 0-.17.86-.57 1.9-.74a8.1 8.1 0 0 0 2.6-1.02c.97-.79 9.27-.11 11.92 1.02 1.15.45 2.25 1.36 2.42 1.98.29 1.13.29 1.13 1.96-.06l1.67-1.13.58 1.42c.29.79.8 1.47 1.1 1.47.28 0 .68.5.92 1.13.63 1.98 1.32 7 1.03 7.74-.17.34-1.55 1.08-3.1 1.59-2.14.73-2.83 1.24-2.83 2.09 0 1.02-.35 1.13-4.15.96-3.8-.17-4.5 0-7.38 1.64Zm64.47.3c-.2.3-1.36.5-2.46.5-1.56 0-1.82-.15-1.1-.5 1.3-.66 4.07-.66 3.56 0Zm-27.23-9.85c-2.42-.96 1.84-5.73 5.75-6.4 3-.48 3.92-1.38 3.28-3.07-.63-1.87.23-3.2 2.48-3.68a7.45 7.45 0 0 0 2.65-1.15c.63-.48.86-.48 1.1.12.4 1.27 1.83 2.53 2.93 2.53.57 0 1.72-.54 2.59-1.26 1.15-.97 1.5-1.03 1.5-.37 0 1.57-.7 2.84-1.5 2.84-1.5 0-.8 1.7 1.38 3.56l2.13 1.81-4.09.06c-5.98 0-9.73.9-13.41 3.32-3 1.94-5.07 2.48-6.8 1.7Zm-68.53-15.38c-.12 5.82-.9 10.1-1.5 8.33-.18-.52-1.68-.8-4.74-.86-4.55-.11-7.55-1.08-6.83-2.11.18-.29 1.38-.97 2.7-1.48 2.27-.86 3.23-2.46 1.43-2.46-1.25 0-1.13-.9.36-3.2 1.2-1.87 3.3-3.64 4.26-3.64.9 0 .48 1.48-.72 2.45-1.26.97-1.62 2.68-.66 2.68.78 0 3.06-2.85 3.06-3.82 0-.46.54-1.6 1.26-2.51 1.32-1.83 2.76-2.28 1.98-.63-.24.52-.48 3.82-.6 7.25Zm22.98-75.04c-2.84-1.5-2.9-5.6-.07-5.6.5 0 1.42-.6 2.04-1.32l1.04-1.31 1.11 2.03c.93 1.73.93 2.09.19 2.62-.5.36-.87 1.43-.87 2.45.07 2.08-1.04 2.44-3.44 1.13Zm58.29-7.15c-1.81-1.1-1.95-2.08-.27-2.08 1.41 0 2.82 1.1 2.82 2.26 0 1.04-.74.98-2.55-.18ZM134 112.34c0-2.6-.2-3.5-.82-3.32-1.1.3-1.5 3.56-.9 6.46.7 3.08 1.72 1.2 1.72-3.14Z"/></g></svg>