<?xml version="1.0" encoding="UTF-8"?>
<svg width="300px" height="357px" viewBox="0 0 300 357" version="1.1" xmlns="http://www.w3.org/2000/svg" xmlns:xlink="http://www.w3.org/1999/xlink">
    <!-- Generator: Sketch 52.1 (67048) - http://www.bohemiancoding.com/sketch -->
    <title>franz josef strauss</title>
    <desc>Created with Sketch.</desc>
    <g id="Page-1" stroke="none" stroke-width="1" fill="none" fill-rule="evenodd">
        <g id="franz-josef-strauss">
            <rect id="Background" fill="#D10A10" x="0" y="0" width="300" height="357" rx="8"></rect>
            <path d="M230.389961,232 C227.822381,232 225.615518,231.064681 223.769305,229.194015 C221.923092,227.32335 221,225.092034 221,222.5 C221,219.875362 221.929206,217.635895 223.787645,215.781532 C225.646084,213.927168 227.883513,213 230.5,213 C233.116487,213 235.353916,213.927168 237.212355,215.781532 C239.070794,217.635895 240,219.867211 240,222.475547 C240,225.132789 239.068757,227.384482 237.206242,229.230695 C235.343727,231.076908 233.071656,232 230.389961,232 Z M230.390046,230.416667 C232.971935,230.416667 235.024384,229.467816 236.547454,227.570087 C237.793602,226.022583 238.416667,224.328499 238.416667,222.487783 C238.416667,220.663357 237.793602,218.977417 236.547454,217.429913 C235.024384,215.532184 233.008586,214.583333 230.5,214.583333 C227.991414,214.583333 225.975616,215.532184 224.452546,217.429913 C223.206398,218.977417 222.583333,220.667429 222.583333,222.5 C222.583333,224.650217 223.355038,226.507194 224.89847,228.070988 C226.441902,229.634781 228.272409,230.416667 230.390046,230.416667 Z M226.541667,228.041667 L226.541667,217.75 L230.81344,217.75 C233.196518,217.75 234.38804,218.599462 234.38804,220.298413 C234.38804,221.662474 233.63172,222.642623 232.119056,223.238889 L235.25,228.041667 L232.473981,228.041667 L230.078239,223.839236 L228.721919,223.839236 L228.721919,228.041667 L226.541667,228.041667 Z M228.916667,222.5 L229.46056,222.5 C231.209084,222.5 232.083333,221.888895 232.083333,220.666667 C232.083333,219.777773 231.297718,219.333333 229.726463,219.333333 L228.916667,219.333333 L228.916667,222.5 Z" id="Registered-Trademark" fill="#FFFFFF"></path>
            <path d="M25,263.700279 L25,260.497929 L28.5394395,260.497929 C28.5394395,260.305306 28.5354265,260.084595 28.5274006,259.835789 C28.5193746,259.586984 28.5153616,259.237859 28.5153616,258.788404 C28.5153616,255.56196 29.0811847,253.290642 30.2128479,251.974381 C31.3445111,250.65812 33.3068338,250 36.0998748,250 C36.822213,250 37.5284886,250.016052 38.2187229,250.048156 C38.9089572,250.08026 39.5991811,250.128415 40.2894154,250.192623 L40.2894154,253.611673 C40.0807399,253.595621 39.791809,253.579569 39.4226139,253.563517 C38.3150287,253.531413 37.552572,253.515362 37.135221,253.515362 C35.1929339,253.515362 33.9007705,253.808306 33.2586921,254.394202 C32.6166137,254.980099 32.2955793,256.444818 32.2955793,258.788404 L32.2955793,260.497929 L40.2894154,260.497929 L40.2894154,263.700279 L32.2955793,263.700279 L32.2955793,285.851873 L28.5635173,285.851873 L28.5635173,263.700279 L25,263.700279 Z M44.2863334,285.851873 L44.2863334,260.497929 L47.9220842,260.497929 L47.9220842,263.965135 C48.4517989,262.648875 49.2784624,261.685771 50.4020996,261.075797 C51.5257368,260.465822 53.0185467,260.16084 54.880574,260.16084 C57.6415111,260.16084 59.5797562,260.826986 60.6953674,262.159299 C61.8109786,263.491612 62.3687759,265.851214 62.3687759,269.238178 L62.3687759,269.4308 L58.5885582,269.4308 L58.5885582,268.684388 C58.5885582,266.661841 58.2675238,265.301458 57.6254454,264.603198 C56.983367,263.904937 55.7714622,263.555812 53.9896947,263.555812 C51.9029399,263.555812 50.3940783,264.145713 49.4630646,265.325532 C48.5320509,266.505351 48.0665511,268.43557 48.0665511,271.116248 L48.0665511,285.851873 L44.2863334,285.851873 Z M83.96658,279.399018 L83.96658,276.72638 C83.96658,275.522483 83.3526017,274.639638 82.1246268,274.07782 C80.8966519,273.516001 78.9423551,273.235096 76.2616777,273.235096 C73.8057279,273.235096 72.1644396,273.544091 71.3377637,274.162092 C70.5110877,274.780092 70.0977559,275.963907 70.0977559,277.71357 C70.0977559,279.704013 70.5351653,281.032293 71.4099971,281.698449 C72.2848289,282.364606 74.0384792,282.697679 76.6710007,282.697679 C79.0306388,282.697679 80.8364572,282.412761 82.0885101,281.842916 C83.3405629,281.273072 83.96658,280.458447 83.96658,279.399018 Z M84.1592025,283.179235 C83.581332,284.238665 82.6623711,285.005134 81.4022922,285.478667 C80.1422134,285.9522 78.3965889,286.188963 76.1653665,286.188963 C72.2005324,286.188963 69.5439728,285.62314 68.1956082,284.491476 C66.8472436,283.359813 66.1730714,281.253025 66.1730714,278.171049 C66.1730714,276.389281 66.3295756,274.992782 66.6425888,273.981508 C66.9556021,272.970235 67.47327,272.159623 68.1956082,271.549648 C68.8055827,271.035986 69.700466,270.670809 70.8802851,270.454108 C72.0601041,270.237406 73.7575734,270.129057 75.9727439,270.129057 C78.2681742,270.129057 80.0218245,270.317665 81.2337475,270.694886 C82.4456704,271.072107 83.3566055,271.702137 83.96658,272.584995 L83.96658,268.202832 C83.96658,266.132129 83.565287,264.79181 82.762689,264.181836 C81.960091,263.571861 79.9456003,263.266879 76.7191563,263.266879 C74.3755702,263.266879 72.8185534,263.511667 72.0480593,264.001252 C71.2775653,264.490837 70.8762723,265.409798 70.8441684,266.758162 L67.1121063,266.758162 L67.1121063,266.180295 C67.1121063,264.01328 67.814369,262.468302 69.2189155,261.545314 C70.623462,260.622327 73.0432587,260.16084 76.4783781,260.16084 C79.1590554,260.16084 81.1976238,260.273202 82.5941443,260.497929 C83.9906648,260.722657 85.0260007,261.08382 85.700183,261.581431 C86.4385731,262.159302 86.960254,262.873603 87.2652413,263.724357 C87.5702285,264.575111 87.7227198,266.035817 87.7227198,268.10652 L87.7227198,285.851873 L84.3036695,285.851873 L84.1592025,283.179235 Z M95.2590773,285.851873 L95.2590773,260.497929 L98.8466724,260.497929 L98.8466724,263.965135 C99.4566469,262.664927 100.435802,261.705836 101.784166,261.087836 C103.132531,260.469835 104.914272,260.16084 107.129442,260.16084 C110.452198,260.16084 112.779697,260.830999 114.11201,262.171338 C115.444323,263.511676 116.110469,265.867266 116.110469,269.238178 L116.110469,285.851873 L112.354329,285.851873 L112.354329,270.032746 C112.354329,267.384172 111.965075,265.642561 111.186555,264.807859 C110.408035,263.973157 108.89516,263.555812 106.647886,263.555812 C103.999313,263.555812 102.061067,264.161765 100.833093,265.373688 C99.6051176,266.585611 98.9911394,268.499778 98.9911394,271.116248 L98.9911394,285.851873 L95.2590773,285.851873 Z M122.635558,285.851873 L122.635558,281.758644 L138.310219,263.965135 L123.381971,263.965135 L123.381971,260.497929 L142.909082,260.497929 L142.909082,264.013291 L126.680632,282.456901 L142.909082,282.456901 L142.909082,285.851873 L122.635558,285.851873 Z M170.309641,289.559857 C170.309641,291.566352 169.88427,293.067188 169.033516,294.06241 C168.182762,295.057631 166.898625,295.555235 165.181065,295.555235 C164.956338,295.555235 164.695497,295.543196 164.398536,295.519118 C164.101575,295.49504 163.776527,295.458923 163.423384,295.410768 L163.399307,292.449196 L164.699509,292.449196 C165.389743,292.449196 165.867282,292.164278 166.132139,291.594433 C166.396996,291.024589 166.529423,289.672231 166.529423,287.537321 L166.529423,260.497929 L170.309641,260.497929 L170.309641,289.559857 Z M166.529423,254.237696 L166.529423,250 L170.309641,250 L170.309641,254.237696 L166.529423,254.237696 Z M195.230184,275.353944 L195.230184,271.019936 C195.230184,267.825596 194.824878,265.791041 194.014254,264.916209 C193.20363,264.041377 191.498135,263.603968 188.897717,263.603968 L187.140037,263.603968 C184.555671,263.603968 182.866228,264.037364 182.071656,264.90417 C181.277084,265.770976 180.879804,267.809544 180.879804,271.019936 L180.879804,275.353944 C180.879804,278.580388 181.281097,280.626982 182.083695,281.493788 C182.886292,282.360594 184.571723,282.79399 187.140037,282.79399 L188.897717,282.79399 C191.482083,282.79399 193.183565,282.352568 194.002215,281.46971 C194.820865,280.586852 195.230184,278.548284 195.230184,275.353944 Z M187.188192,286.188963 C183.39993,286.188963 180.751396,285.450584 179.242512,283.973803 C177.733628,282.497023 176.979197,279.90467 176.979197,276.196668 L176.979197,270.177213 C176.979197,266.453158 177.729615,263.85278 179.230473,262.375999 C180.731331,260.899219 183.367826,260.16084 187.140037,260.16084 L188.897717,260.16084 C192.68598,260.16084 195.334514,260.899219 196.843398,262.375999 C198.352282,263.85278 199.106713,266.453158 199.106713,270.177213 L199.106713,276.196668 C199.106713,279.920722 198.356295,282.517088 196.855437,283.985842 C195.354579,285.454597 192.718084,286.188963 188.945873,286.188963 L187.188192,286.188963 Z M204.933545,278.315516 L208.737841,278.315516 L208.737841,278.893383 C208.737841,280.450424 209.219392,281.521876 210.18251,282.107772 C211.145627,282.693669 213.07986,282.986613 215.985264,282.986613 C219.243812,282.986613 221.250277,282.689656 222.004719,282.095733 C222.759161,281.501811 223.136377,280.354113 223.136377,278.652605 C223.136377,276.999253 222.827381,275.895698 222.209381,275.341905 C221.59138,274.788112 220.046402,274.447013 217.5744,274.318598 C216.659439,274.270442 215.423456,274.222287 213.866416,274.174131 C210.463401,274.077819 208.440884,273.845069 207.798806,273.475874 C206.835688,272.946159 206.149477,272.223832 205.740152,271.30887 C205.330827,270.393909 205.126168,269.077668 205.126168,267.360108 C205.126168,264.551015 205.840469,262.648886 207.269094,261.653665 C208.697718,260.658443 211.843855,260.16084 216.707599,260.16084 C220.47981,260.16084 223.036046,260.634366 224.376384,261.581431 C225.716723,262.528497 226.386882,264.18985 226.386882,266.56554 L222.630743,266.56554 L222.630743,266.324762 C222.630743,265.201124 222.145178,264.426629 221.174034,264.001252 C220.202891,263.575875 218.272672,263.36319 215.383319,263.36319 C212.590278,263.36319 210.808537,263.620017 210.038043,264.13368 C209.267549,264.647343 208.882308,265.722808 208.882308,267.360108 C208.882308,268.355329 208.95454,269.053579 209.099008,269.454878 C209.243476,269.856177 209.500303,270.16116 209.869498,270.369835 C210.62394,270.771134 212.293319,271.003884 214.877685,271.068092 C215.535815,271.084144 216.041444,271.100196 216.394587,271.116248 C218.513446,271.196508 220.174799,271.304857 221.378696,271.441298 C222.582593,271.57774 223.44136,271.766348 223.955023,272.007127 C225.07866,272.52079 225.877233,273.259169 226.350766,274.222286 C226.824298,275.185404 227.061061,276.581904 227.061061,278.411827 C227.061061,280.273854 226.828311,281.686406 226.362805,282.649523 C225.897298,283.612641 225.062608,284.463382 223.858711,285.201772 C223.312945,285.554915 222.422074,285.80773 221.186073,285.960223 C219.950072,286.112717 218.232539,286.188963 216.03342,286.188963 C211.538871,286.188963 208.56529,285.671295 207.112588,284.635943 C205.659886,283.600592 204.933545,281.718528 204.933545,278.989695 L204.933545,278.315516 Z M237.486757,270.706925 L251.837138,270.706925 L251.837138,269.719734 C251.837138,267.344044 251.411767,265.730846 250.561013,264.880092 C249.710259,264.029339 248.024829,263.603968 245.504671,263.603968 L243.74699,263.603968 C241.242885,263.603968 239.573506,264.029339 238.738804,264.880092 C237.904102,265.730846 237.486757,267.344044 237.486757,269.719734 L237.486757,270.706925 Z M243.795146,286.188963 C240.006883,286.188963 237.35835,285.450584 235.849465,283.973803 C234.340581,282.497023 233.58615,279.90467 233.58615,276.196668 L233.58615,270.177213 C233.58615,266.453158 234.336568,263.85278 235.837427,262.375999 C237.338285,260.899219 239.97478,260.16084 243.74699,260.16084 L245.504671,260.16084 C249.292934,260.16084 251.941467,260.899219 253.450352,262.375999 C254.959236,263.85278 255.713667,266.453158 255.713667,270.177213 L255.713667,274.005586 L237.486757,274.029664 C237.470705,274.286495 237.458666,274.571413 237.45064,274.884426 C237.442614,275.19744 237.438602,275.634849 237.438602,276.196668 C237.438602,278.813137 237.855946,280.566787 238.690648,281.457671 C239.52535,282.348555 241.210781,282.79399 243.74699,282.79399 L245.504671,282.79399 C247.767997,282.79399 249.341066,282.468943 250.223924,281.818838 C251.106782,281.168734 251.620437,280.033075 251.764904,278.411827 L255.665511,278.411827 C255.472887,281.156712 254.590043,283.139099 253.016951,284.359048 C251.443859,285.578997 248.955842,286.188963 245.552827,286.188963 L243.795146,286.188963 Z M259.710585,263.700279 L259.710585,260.497929 L263.250024,260.497929 C263.250024,260.305306 263.246011,260.084595 263.237985,259.835789 C263.229959,259.586984 263.225946,259.237859 263.225946,258.788404 C263.225946,255.56196 263.791769,253.290642 264.923433,251.974381 C266.055096,250.65812 268.017418,250 270.810459,250 C271.532798,250 272.239073,250.016052 272.929308,250.048156 C273.619542,250.08026 274.309766,250.128415 275,250.192623 L275,253.611673 C274.791325,253.595621 274.502394,253.579569 274.133198,253.563517 C273.025613,253.531413 272.263157,253.515362 271.845806,253.515362 C269.903518,253.515362 268.611355,253.808306 267.969277,254.394202 C267.327198,254.980099 267.006164,256.444818 267.006164,258.788404 L267.006164,260.497929 L275,260.497929 L275,263.700279 L267.006164,263.700279 L267.006164,285.851873 L263.274102,285.851873 L263.274102,263.700279 L259.710585,263.700279 Z" id="franz-josef" fill="#FFFFFF"></path>
            <path d="M25,326.339651 L36.0036891,326.339651 C36.1945055,327.569357 36.5920336,328.417417 37.1962855,328.883857 C37.8005373,329.350297 38.8765135,329.583514 40.4242463,329.583514 L41.8553619,329.583514 C43.5303056,329.583514 44.6804871,329.350297 45.3059407,328.883857 C45.9313944,328.417417 46.2441165,327.569357 46.2441165,326.339651 C46.2441165,325.173551 45.9525959,324.362594 45.3695459,323.906755 C44.7864958,323.450916 43.5727099,323.127593 41.7281516,322.936776 L34.8905992,322.300725 C31.9859499,322.025101 29.6749863,321.097536 27.957639,319.518 C26.2402916,317.938465 25.3816308,315.982626 25.3816308,313.650426 L25.3816308,310.97901 C25.3816308,308.031957 26.4470063,305.795199 28.5777891,304.268668 C30.7085719,302.742137 33.8092914,301.978883 37.8800407,301.978883 L44.4631726,301.978883 C48.2582982,301.978883 51.1099001,302.705035 53.0180639,304.157359 C54.9262276,305.609684 55.8802951,307.788138 55.8802951,310.692787 L55.8802951,311.424246 L45.321842,311.424246 C45.2794384,310.491366 44.934914,309.802317 44.2882585,309.357079 C43.641603,308.911841 42.6398321,308.689225 41.2829157,308.689225 L39.9154052,308.689225 C38.4524796,308.689225 37.4136061,308.933043 36.7987533,309.420684 C36.1839006,309.908326 35.8764788,310.724584 35.8764788,311.869482 C35.8764788,312.823564 36.0990946,313.502012 36.5443328,313.904847 C36.989571,314.307681 37.8058288,314.562099 38.9931306,314.668108 L46.5621422,315.399567 C50.0604424,315.717595 52.6470255,316.544453 54.3219692,317.880168 C55.9969129,319.215883 56.8343722,321.102816 56.8343722,323.541025 L56.8343722,326.403257 C56.8343722,329.498722 55.7742972,331.931594 53.6541153,333.701946 C51.5339333,335.472298 48.6081262,336.357461 44.876606,336.357461 L37.7528304,336.357461 C33.4488611,336.357461 30.2474345,335.573005 28.1484544,334.004071 C26.0494743,332.435136 25,330.028766 25,326.784887 L25,326.339651 Z M74.8028241,336.357461 C72.8310549,336.357461 71.1349348,336.081841 69.7144129,335.530594 C68.293891,334.979347 67.14901,334.131287 66.2797354,332.986389 C65.6436808,332.159518 65.1931489,331.216051 64.9281262,330.15596 C64.6631035,329.095869 64.5305941,327.537559 64.5305941,325.480982 L64.5305941,310.183946 L60.6824831,310.183946 L60.6824831,302.424119 L64.5305941,302.424119 L64.5305941,296 L75.1526523,296 L75.1526523,302.424119 L89.3365984,302.424119 L89.3365984,310.183946 L75.1526523,310.183946 L75.1526523,323.859051 C75.1526523,325.894426 75.3805685,327.187717 75.8364076,327.738965 C76.2922467,328.290212 77.2092116,328.565831 78.5873299,328.565831 C79.8806408,328.565831 80.7605031,328.322014 81.2269431,327.834372 C81.6933832,327.34673 81.9265997,326.392663 81.9265997,324.972141 L81.9265997,322.173515 L90.767714,322.173515 L90.767714,325.958021 C90.767714,329.519926 89.9355551,332.143612 88.2712123,333.829157 C86.6068695,335.514701 84.0043853,336.357461 80.4636815,336.357461 L74.8028241,336.357461 Z M97.6052665,335.912225 L97.6052665,302.424119 L107.909299,302.424119 L107.782089,307.194505 C108.630162,305.349946 109.690237,304.019552 110.962346,303.203282 C112.234455,302.387012 113.888172,301.978883 115.923547,301.978883 C119.294636,301.978883 121.637402,302.837544 122.951915,304.554891 C124.266427,306.272239 124.923674,309.473665 124.923674,314.159267 L124.923674,317.148709 L114.937667,317.148709 L114.937667,315.017937 C114.937667,313.406598 114.69915,312.282919 114.222109,311.646864 C113.745068,311.01081 112.881107,310.692787 111.6302,310.692787 C110.315687,310.692787 109.419924,311.063813 108.942883,311.805877 C108.465842,312.547941 108.227325,314.328867 108.227325,317.148709 L108.227325,335.912225 L97.6052665,335.912225 Z M142.955731,329.074672 L145.881567,329.074672 C146.941658,329.074672 147.736714,328.830855 148.26676,328.343213 C148.796805,327.855571 149.061824,327.12412 149.061824,326.148836 L149.061824,324.399695 C149.061824,323.403209 148.796805,322.661157 148.26676,322.173515 C147.736714,321.685873 146.941658,321.442056 145.881567,321.442056 L142.955731,321.442056 C141.874438,321.442056 141.05818,321.691173 140.506933,322.189416 C139.955686,322.687659 139.680066,323.424411 139.680066,324.399695 L139.680066,326.148836 C139.680066,327.12412 139.955686,327.855571 140.506933,328.343213 C141.05818,328.830855 141.874438,329.074672 142.955731,329.074672 Z M130.425518,310.947208 C130.467922,307.745733 131.358385,305.450671 133.096934,304.061951 C134.835483,302.673232 137.729488,301.978883 141.779036,301.978883 L146.835644,301.978883 C151.542448,301.978883 154.881685,302.816342 156.853454,304.491286 C158.825223,306.16623 159.811093,308.99663 159.811093,312.982572 L159.811093,335.912225 L149.125429,335.912225 L149.125429,332.859178 C148.234953,334.04648 147.174878,334.926342 145.945172,335.498792 C144.715467,336.071241 143.284366,336.357461 141.651825,336.357461 L137.803715,336.357461 C134.941469,336.357461 132.736513,335.551804 131.18878,333.940466 C129.641047,332.329127 128.867192,330.028764 128.867192,327.039308 L128.867192,323.922656 C128.867192,321.039209 129.747055,318.823652 131.506806,317.275919 C133.266557,315.728186 135.778935,314.954332 139.044015,314.954332 L141.969851,314.954332 C143.496382,314.954332 144.87448,315.21405 146.104185,315.733494 C147.333891,316.252939 148.340962,317.010893 149.125429,318.007378 L149.125429,311.487851 C149.125429,310.448962 148.897513,309.701609 148.441674,309.24577 C147.985835,308.789931 147.238482,308.562015 146.199593,308.562015 L144.386846,308.562015 C143.093535,308.562015 142.213673,308.736927 141.747233,309.086757 C141.280793,309.436587 141.047577,310.067332 141.047577,310.97901 L130.425518,310.947208 Z M198.960056,302.424119 L198.960056,335.912225 L188.656023,335.912225 L188.783234,331.141839 C187.850354,332.986398 186.641868,334.316792 185.157741,335.133062 C183.673613,335.949332 181.733676,336.357461 179.33787,336.357461 C175.288323,336.357461 172.495025,335.514701 170.957893,333.829157 C169.420762,332.143612 168.652207,328.947486 168.652207,324.240682 L168.652207,302.424119 L179.274265,302.424119 L179.274265,321.855489 C179.274265,324.293698 179.560486,325.86791 180.132935,326.578171 C180.705384,327.288432 182.009276,327.643557 184.044651,327.643557 C185.698393,327.643557 186.827373,327.256629 187.431624,326.482763 C188.035876,325.708897 188.337998,323.965073 188.337998,321.25124 L188.337998,302.424119 L198.960056,302.424119 Z M205.988424,326.339651 L216.992113,326.339651 C217.182929,327.569357 217.580457,328.417417 218.184709,328.883857 C218.788961,329.350297 219.864937,329.583514 221.41267,329.583514 L222.843786,329.583514 C224.518729,329.583514 225.668911,329.350297 226.294365,328.883857 C226.919818,328.417417 227.23254,327.569357 227.23254,326.339651 C227.23254,325.173551 226.94102,324.362594 226.35797,323.906755 C225.77492,323.450916 224.561134,323.127593 222.716575,322.936776 L215.879023,322.300725 C212.974374,322.025101 210.66341,321.097536 208.946063,319.518 C207.228715,317.938465 206.370055,315.982626 206.370055,313.650426 L206.370055,310.97901 C206.370055,308.031957 207.43543,305.795199 209.566213,304.268668 C211.696996,302.742137 214.797715,301.978883 218.868465,301.978883 L225.451596,301.978883 C229.246722,301.978883 232.098324,302.705035 234.006488,304.157359 C235.914651,305.609684 236.868719,307.788138 236.868719,310.692787 L236.868719,311.424246 L226.310266,311.424246 C226.267862,310.491366 225.923338,309.802317 225.276682,309.357079 C224.630027,308.911841 223.628256,308.689225 222.27134,308.689225 L220.903829,308.689225 C219.440904,308.689225 218.40203,308.933043 217.787177,309.420684 C217.172324,309.908326 216.864903,310.724584 216.864903,311.869482 C216.864903,312.823564 217.087518,313.502012 217.532757,313.904847 C217.977995,314.307681 218.794253,314.562099 219.981555,314.668108 L227.550566,315.399567 C231.048866,315.717595 233.635449,316.544453 235.310393,317.880168 C236.985337,319.215883 237.822796,321.102816 237.822796,323.541025 L237.822796,326.403257 C237.822796,329.498722 236.762721,331.931594 234.642539,333.701946 C232.522357,335.472298 229.59655,336.357461 225.86503,336.357461 L218.741254,336.357461 C214.437285,336.357461 211.235858,335.573005 209.136878,334.004071 C207.037898,332.435136 205.988424,330.028766 205.988424,326.784887 L205.988424,326.339651 Z M243.165628,326.339651 L254.169317,326.339651 C254.360133,327.569357 254.757661,328.417417 255.361913,328.883857 C255.966165,329.350297 257.042141,329.583514 258.589874,329.583514 L260.02099,329.583514 C261.695933,329.583514 262.846115,329.350297 263.471569,328.883857 C264.097022,328.417417 264.409744,327.569357 264.409744,326.339651 C264.409744,325.173551 264.118224,324.362594 263.535174,323.906755 C262.952124,323.450916 261.738338,323.127593 259.893779,322.936776 L253.056227,322.300725 C250.151578,322.025101 247.840614,321.097536 246.123267,319.518 C244.405919,317.938465 243.547259,315.982626 243.547259,313.650426 L243.547259,310.97901 C243.547259,308.031957 244.612634,305.795199 246.743417,304.268668 C248.8742,302.742137 251.974919,301.978883 256.045668,301.978883 L262.6288,301.978883 C266.423926,301.978883 269.275528,302.705035 271.183692,304.157359 C273.091855,305.609684 274.045923,307.788138 274.045923,310.692787 L274.045923,311.424246 L263.48747,311.424246 C263.445066,310.491366 263.100542,309.802317 262.453886,309.357079 C261.807231,308.911841 260.80546,308.689225 259.448543,308.689225 L258.081033,308.689225 C256.618107,308.689225 255.579234,308.933043 254.964381,309.420684 C254.349528,309.908326 254.042107,310.724584 254.042107,311.869482 C254.042107,312.823564 254.264722,313.502012 254.709961,313.904847 C255.155199,314.307681 255.971457,314.562099 257.158758,314.668108 L264.72777,315.399567 C268.22607,315.717595 270.812653,316.544453 272.487597,317.880168 C274.162541,319.215883 275,321.102816 275,323.541025 L275,326.403257 C275,329.498722 273.939925,331.931594 271.819743,333.701946 C269.699561,335.472298 266.773754,336.357461 263.042234,336.357461 L255.918458,336.357461 C251.614489,336.357461 248.413062,335.573005 246.314082,334.004071 C244.215102,332.435136 243.165628,330.028766 243.165628,326.784887 L243.165628,326.339651 Z" id="strauss" fill="#FFFFFF"></path>
            <path d="M159.542529,231.522556 C166.825037,230.075755 169.830516,229.323419 171.506648,228.455338 C172.778197,227.760874 173.413972,227.703002 173.529567,228.165978 C173.876353,229.207675 180.291896,224.520041 184.106542,220.468999 C185.956068,218.443478 187.978987,215.665621 188.614761,214.21882 C189.944108,211.209475 196.128459,204.901424 202.139418,200.445278 C205.722874,197.841037 206.647637,196.741468 208.323769,193.442763 C212.196214,185.687911 214.565918,175.213074 215.317288,162.539101 L215.721872,155.710202 L217.686993,155.710202 C220.692472,155.710202 220.923663,155.131481 225.952061,136.901793 C227.512598,131.172462 229.130933,124.459307 229.535517,121.97081 C230.286887,117.456792 230.286887,117.456792 228.321766,111.66959 C226.876824,107.444932 226.530038,105.593027 226.934621,104.956435 C228.148373,103.046658 225.894263,91.9352287 223.351165,87.1318506 C222.368605,85.2220737 220.981461,82.6178325 220.287888,81.344648 C219.594316,80.0714634 218.149374,76.4255257 216.993421,73.3004363 C215.837467,70.1174749 214.27693,66.5872813 213.52556,65.4877128 C212.77419,64.3302723 211.965023,62.3626234 211.618237,61.0894388 C210.115497,54.955004 208.150376,48.126105 207.341209,46.2742001 C206.243053,43.785703 202.717394,40.5448695 201.156857,40.5448695 C200.405487,40.5448695 200.000904,40.1397653 200.000904,39.387429 C200.000904,38.7508367 199.769713,38.2299885 199.422927,38.2299885 C199.133938,38.2299885 198.209176,37.246164 197.457806,35.9729795 C196.244055,34.1210746 195.550482,33.6002264 193.065182,33.0215061 C191.38905,32.6164019 189.828512,31.8640656 189.423929,31.2274733 C189.019345,30.590881 188.325773,30.1279048 187.805594,30.1279048 C187.343212,30.1279048 186.302854,29.3176965 185.609282,28.333872 C184.337733,26.6555833 184.048745,26.5398392 181.794635,26.8291993 C179.887312,27.1185595 179.135942,26.9449434 178.500167,26.2504791 C177.286416,24.7458064 174.45433,23.819854 168.096586,22.8939016 C164.108546,22.2573093 162.085627,22.1994372 161.970032,22.6045414 C161.681043,23.3568778 159.77372,23.3568778 158.328778,22.6045414 C157.461813,22.0836932 157.115027,22.1994372 156.883836,22.8939016 C156.479252,23.877726 155.092108,23.9934701 153.762761,23.1832617 C153.011392,22.7202855 153.069189,22.5466694 154.05175,21.7943331 C155.149906,20.9262527 155.149906,20.9262527 153.647166,20.8683806 C152.837999,20.8683806 151.739843,20.6947646 151.277461,20.5211485 C150.757282,20.3475324 150.352698,20.6368925 150.179305,21.3313569 C149.832519,22.5466694 147.751803,22.6045414 144.919717,21.5049729 C143.994954,21.1577408 141.567451,20.8683806 139.428937,20.8683806 C137.290423,20.8683806 133.822563,20.5790205 131.684049,20.2896604 C128.042795,19.7688121 127.464818,19.8266842 123.014397,21.5049729 C120.413501,22.4309253 117.350224,23.819854 116.252069,24.4564463 L114.286948,25.6717588 L113.246589,24.2828302 C112.379624,23.1253897 111.74385,22.8939016 109.663133,23.0096456 C106.426463,23.1253897 102.438424,25.0930385 101.744851,27.0028154 C101.455863,27.7551518 100.588898,28.6232321 99.7797304,28.9125923 C98.7393722,29.3176965 98.3347885,30.0700328 98.0458001,32.0376817 C97.8146094,33.4266103 97.0054419,35.4521312 96.1962744,36.5516997 C95.3293092,37.6512682 94.2311534,39.5610451 93.6531766,40.8342297 C92.8440091,42.5125184 91.7458532,43.6120869 89.5495415,44.8852715 C86.948646,46.3899442 86.1972762,47.2001525 84.5789412,50.5567301 C83.1339992,53.5082034 82.3826294,54.4341558 81.4578666,54.4341558 C80.301913,54.4341558 80.2441153,54.6656439 80.5331037,57.3277571 C80.7064968,58.8903018 80.6486991,60.3371025 80.301913,60.5107185 C80.0129246,60.7422067 79.7817339,60.0477423 79.7817339,59.1217899 C79.7817339,57.038397 79.3193525,56.9226529 77.2386361,58.5430697 C75.4469081,59.9319983 75.2735151,61.9575192 76.89185,62.3626234 C77.5276245,62.5362395 78.0478036,63.1149597 78.0478036,63.635808 C78.0478036,65.1404806 76.3716709,67.1660016 75.100122,67.1660016 C73.5973824,67.1660016 73.7129778,68.4391861 75.4469081,70.291091 C76.3716709,71.2749154 77.4120291,71.7957636 78.6257804,71.7957636 C79.5505432,71.7957636 80.3597107,72.0851238 80.3597107,72.3744839 C80.3597107,72.7217161 79.7817339,72.9532042 79.0881618,72.9532042 C77.0074454,72.9532042 75.9670872,73.8791566 76.7762547,74.862981 C77.1808384,75.3259572 77.3542315,76.4255257 77.1230407,77.5250942 C76.89185,78.6825348 76.9496477,79.319127 77.4120291,79.319127 C78.2789943,79.319127 78.2211966,80.8816717 77.3542315,81.1710319 C76.89185,81.344648 77.2386361,82.6178325 78.510185,85.2220737 C80.0707223,88.5207792 80.2441153,89.2152435 79.6083409,90.5463001 C79.1459595,91.5301246 78.4523873,92.0509728 77.5854222,92.0509728 C75.7358965,92.0509728 72.7304172,93.7292615 73.0194056,94.5394699 C73.135001,94.9445741 73.7707754,95.1760622 74.3487522,95.0603182 C74.926729,94.9445741 76.3138733,94.8867021 77.3542315,94.82883 C78.336792,94.82883 79.3771502,94.5973419 79.5505432,94.3079818 C79.7239362,94.0186217 80.12852,93.7871336 80.4753061,93.7871336 C80.8220921,93.7871336 80.7064968,94.2501098 80.1863177,94.82883 C78.683578,96.4492468 78.9725664,97.7224314 80.8798898,98.1275355 C82.9028085,98.5326397 84.9257272,97.4909432 85.2147156,95.8126545 C86.7174553,87.7684429 89.3183508,80.8816717 92.150437,77.6987103 C93.1329975,76.5991418 94.9825232,75.2102132 96.3118698,74.689365 C97.5834187,74.1106447 99.5485397,72.8953321 100.646696,71.9115077 C102.322828,70.464707 103.305389,70.1753469 107.235631,69.7702427 C115.905283,68.9021623 121.858443,69.1915225 126.597853,70.6961951 L130.932679,72.1429958 L133.244586,70.8698112 C134.516135,70.1753469 135.961077,69.7123707 136.423458,69.8281148 C138.330781,70.291091 148.445375,67.3396176 150.294901,65.7770729 C151.79764,64.4460163 156.710443,63.5779359 164.281939,63.2885758 C170.755279,62.9992157 171.680042,63.0570877 172.026828,63.8672961 C172.315816,64.6196324 172.604804,64.6775044 173.47177,64.2724002 C174.338735,63.809424 174.974509,64.0409121 176.708439,65.6034568 C180.234098,68.6706742 181.852433,69.4808826 183.644161,69.1336504 C184.91571,68.9021623 185.956068,69.2493945 188.094582,70.7540672 C189.655119,71.8536357 191.100061,73.0689482 191.331252,73.5319244 C191.562443,73.9949006 192.024824,74.9208531 192.313812,75.5574453 C192.660599,76.2519097 193.12298,77.6408383 193.354171,78.7404068 C193.585361,79.8399753 193.932147,81.0552878 194.163338,81.344648 C194.336731,81.6918801 194.510124,82.8493206 194.567922,83.9488891 C194.62572,85.0484576 195.088101,87.1318506 195.60828,88.5207792 C196.35965,90.4305561 196.417448,91.1828924 195.897268,91.8194847 C195.030303,92.9190532 195.60828,95.0603182 197.457806,97.2594551 C199.538522,99.6900802 204.624718,114.273831 204.624718,117.68828 C204.624718,118.440617 204.335729,119.308697 203.931146,119.713801 C203.410967,120.23465 203.410967,120.581882 203.931146,121.10273 C204.971504,122.144426 204.798111,122.723147 203.468764,122.723147 C202.83299,122.723147 202.312811,123.128251 202.312811,123.591227 C202.312811,124.864412 200.694476,124.632924 200.289892,123.359739 C200.000904,122.433787 199.711915,122.318042 198.324771,122.896763 C197.457806,123.186123 196.186257,123.301867 195.60828,123.070379 C194.62572,122.665275 194.62572,122.549531 196.128459,121.797194 C197.804592,120.871242 198.209176,119.424441 196.879829,118.903593 C196.070662,118.614233 194.278934,115.373399 193.007385,111.785334 C192.198217,109.528325 189.481726,107.67642 186.996426,107.67642 C185.551484,107.67642 182.488207,106.518979 177.922191,104.146226 C176.361653,103.336018 173.182781,103.509634 171.911232,104.493458 C171.102065,105.130051 170.986469,105.361539 171.680042,105.361539 C172.315816,105.361539 172.258018,105.535155 171.448851,105.998131 C170.813076,106.403235 169.252539,106.518979 167.576406,106.287491 C165.148904,105.940259 164.74432,106.056003 164.74432,106.924084 C164.74432,107.67642 164.570927,107.734292 164.050748,107.213444 C162.952592,106.113875 161.449853,106.403235 157.461813,108.25514 C154.745322,109.586197 153.647166,110.454277 153.415975,111.495974 C152.895796,113.463622 148.156387,116.646584 147.058231,115.720631 C146.595849,115.373399 145.84448,115.199783 145.382098,115.431271 C144.630728,115.720631 144.572931,117.10956 144.746324,124.864412 C144.919717,129.899278 145.035312,134.876272 145.035312,135.860097 C145.150907,139.737522 149.774722,140.431987 150.641687,136.728177 C150.872878,135.860097 151.393057,134.702656 151.913236,134.181808 C152.491213,133.487344 152.606808,132.677135 152.375617,131.577567 C152.144426,130.709486 151.79764,129.146942 151.624247,128.163117 L151.335259,126.369084 L156.479252,125.732492 C159.253541,125.38526 162.894795,125.269516 164.455332,125.443132 C167.865395,125.790364 168.501169,125.790364 170.986469,125.269516 C172.200221,125.038028 172.835995,125.153772 172.835995,125.558876 C172.835995,125.906108 173.356174,126.195468 173.991949,126.195468 C175.263498,126.195468 175.552486,127.468653 174.45433,128.394605 C174.049746,128.683965 172.200221,129.146942 170.408493,129.320558 C167.171823,129.725662 166.304857,130.304382 167.692002,131.172462 C168.038788,131.346079 168.154383,132.040543 168.038788,132.677135 C167.749799,133.718832 167.807597,133.776704 168.73236,132.908623 C169.425932,132.272031 170.813076,131.982671 172.95159,131.982671 C176.419451,131.982671 179.482728,131.172462 181.101063,129.783534 C182.603803,128.452477 186.071663,127.352909 188.614761,127.352909 C189.828512,127.352909 191.331252,127.121421 191.909229,126.774188 C192.487206,126.484828 195.203696,126.021852 197.86239,125.848236 C201.792632,125.558876 203.006383,125.616748 203.642157,126.311212 C204.682516,127.295037 203.873348,128.683965 201.850429,129.320558 C200.289892,129.841406 200.232094,130.593742 201.734834,131.403951 C203.121978,132.156287 202.659597,133.603088 200.752273,134.355424 C199.422927,134.8184 199.422927,134.934144 200.289892,136.554561 C201.272453,138.52221 201.445846,140.084754 200.57888,140.084754 C200.289892,140.084754 199.711915,141.126451 199.365129,142.399636 C198.902748,143.96218 198.035783,145.119621 196.533043,146.103445 C195.319292,146.913654 193.585361,148.649814 192.718396,149.980871 C190.579882,153.10596 189.712917,153.39532 189.250536,151.138311 C189.019345,150.154487 188.614761,149.170663 188.267975,148.939174 C187.516605,148.476198 186.129461,150.385975 186.129461,151.94852 C186.129461,152.585112 185.551484,153.453193 184.857912,153.916169 C183.817554,154.552761 183.586363,154.552761 183.123982,153.742553 C182.43041,152.469368 181.505647,152.585112 181.505647,153.974041 C181.505647,155.420841 179.829514,156.288922 177.055226,156.288922 C175.321295,156.288922 174.743318,155.999562 174.280937,155.015737 C173.529567,153.221704 172.084625,153.337448 171.911232,155.131481 C171.853435,155.94169 171.622244,157.09913 171.391053,157.793594 C170.986469,159.008907 171.448851,159.298267 175.321295,160.571452 C177.459809,161.265916 175.610284,162.191868 172.835995,161.844636 C170.350695,161.497404 170.003909,161.613148 168.096586,163.465053 C166.593846,164.969726 165.726881,165.37483 164.628725,165.143342 C162.952592,164.79611 160.698483,165.837806 160.698483,166.879503 C160.698483,167.631839 159.195743,167.921199 154.80312,167.979071 C153.184785,168.036943 152.028831,168.326303 152.028831,168.673535 C152.028831,169.65736 146.017873,171.162033 139.313342,171.856497 C135.961077,172.203729 130.354702,172.956065 126.771246,173.476914 C121.569455,174.22925 120.008918,174.287122 118.621773,173.708402 C117.176831,173.071809 116.656652,173.187553 114.691531,174.344994 L112.437422,175.676051 L115.327306,176.312643 C116.945641,176.717747 118.795166,177.064979 119.546536,177.064979 C120.240108,177.122851 121.858443,177.643699 123.129992,178.280292 C124.401541,178.916884 125.557495,179.437732 125.730888,179.437732 C125.904281,179.437732 126.019876,178.916884 126.019876,178.280292 C126.019876,177.643699 126.540055,176.602003 127.17583,175.965411 C128.216188,174.923714 129.140951,174.80797 135.440898,174.750098 C139.313342,174.750098 144.572931,174.51861 147.116028,174.171378 C149.659126,173.882018 153.762761,173.476914 156.248062,173.245425 L160.698483,172.898193 L160.698483,174.634354 C160.698483,176.602003 159.77372,177.701571 158.097587,177.701571 C157.404015,177.701571 156.363657,178.106676 155.727882,178.569652 C155.149906,179.032628 153.647166,179.437732 152.491213,179.437732 C151.335259,179.437732 150.237103,179.66922 150.06371,179.95858 C149.890317,180.190069 147.809601,180.537301 145.497694,180.710917 C139.255544,181.116021 138.61977,181.984101 144.226145,182.331334 C146.769242,182.50495 149.196745,182.389206 149.543531,182.099845 C149.948115,181.868357 151.046271,181.926229 152.086629,182.273462 C153.126987,182.620694 154.745322,182.910054 155.727882,182.910054 C157.51961,182.910054 162.952592,180.016453 166.073667,177.354339 C166.99843,176.602003 168.096586,175.965411 168.558967,175.965411 C169.021348,175.965411 169.830516,175.502434 170.408493,174.981586 C170.928672,174.402866 172.142423,173.419042 173.009388,172.782449 C174.223139,171.856497 174.685521,170.930544 175.147902,168.326303 C176.014867,162.886333 175.899272,163.002077 182.719398,163.175693 C193.700957,163.407181 193.989945,163.638669 193.354171,170.988416 C193.12298,173.592658 192.776194,175.791795 192.545003,175.965411 C191.100061,177.007107 189.597322,179.842836 189.597322,181.521125 C189.597322,183.08367 189.13494,183.95175 187.343212,185.572167 C186.071663,186.671736 184.742317,188.465768 184.395531,189.507465 C184.048745,190.607033 183.239577,191.93809 182.603803,192.51681 C181.91023,193.153402 181.043265,194.310843 180.580884,195.178923 C180.118502,196.104876 179.367133,196.79934 178.846954,196.79934 C178.384572,196.79934 177.748798,197.435932 177.459809,198.188269 C176.881833,199.692941 173.47177,203.165263 172.547007,203.165263 C172.200221,203.165263 171.622244,203.859727 171.21766,204.78568 C168.73236,210.22565 166.189262,213.119251 160.236101,217.054549 C155.959073,219.890279 155.612287,219.08007 159.426934,215.0869 C163.01039,211.383091 163.99295,209.589058 162.027829,210.399266 C161.449853,210.630754 160.467292,210.977987 159.831518,211.151603 C159.195743,211.267347 158.386576,211.672451 158.03979,211.961811 C157.635206,212.251171 157.115027,212.077555 156.652645,211.556707 C155.323299,209.994162 153.126987,210.51501 150.699485,213.119251 C148.618768,215.260516 148.32978,215.434133 147.694005,214.566052 C147.058231,213.697972 146.711445,213.813716 144.34174,215.897109 C141.451856,218.443478 141.047272,218.617094 141.047272,217.343909 C141.047272,216.360085 140.3537,216.244341 138.850961,216.996677 C136.770244,218.038374 133.64917,218.79071 131.337262,218.79071 C130.065714,218.79071 128.851962,219.022198 128.678569,219.253686 C128.331783,219.774534 131.741846,222.726008 135.903279,225.561737 C139.60233,228.108106 145.613289,230.943836 147.347219,231.001708 C148.156387,231.001708 149.370138,231.233196 150.005912,231.522556 C151.508652,232.159148 156.248062,232.159148 159.542529,231.522556 Z M156.606852,192.038351 C157.427671,190.948481 156.900002,188.768743 155.610142,188.255863 C154.437543,187.742983 154.320283,187.871203 154.027133,189.858612 C153.851243,191.333141 154.554803,193 155.434252,193 C155.668772,193 156.196442,192.55123 156.606852,192.038351 Z M162.41123,187.728892 C165.717188,183.68847 167.492609,180.598735 166.880395,180.063974 C166.329402,179.469794 162.350008,183.153708 161.186801,185.352173 C160.452144,186.59995 159.839929,186.956458 158.18695,186.956458 C155.738093,186.956458 155.309543,188.144817 157.084964,190.046193 C158.6155,191.709896 159.472601,191.353388 162.41123,187.728892 Z M185,184.5 C185,184.25 184.8,184 184.5,184 C184.25,184 184,184.25 184,184.5 C184,184.8 184.25,185 184.5,185 C184.8,185 185,184.8 185,184.5 Z M109.429925,166.778378 C112.516202,163.42973 114.802333,160.194595 116.059705,157.583784 C117.88861,153.781081 118.517296,151 117.54569,151 C116.859851,151 106.343649,161.727027 104.057518,164.791892 C102.914452,166.324324 102,167.913514 102,168.367568 C102,169.332432 103.657445,172 104.286131,172 C104.514744,172 106.800875,169.672973 109.429925,166.778378 Z M152.543543,166.085141 C157.256986,165.206958 157.716834,164.972776 157.716834,163.860411 C157.716834,163.274956 159.153859,161.401499 160.935771,159.762225 C164.039745,156.776403 164.154707,156.600767 163.809821,154.376037 C163.637378,153.146581 162.890125,150.921851 162.200353,149.458213 C161.510581,148.053121 161.108214,146.706574 161.280657,146.472392 C161.4531,146.296755 162.430277,146.589483 163.464935,147.116392 C164.442112,147.643302 165.591733,147.93603 165.936619,147.818939 C166.856315,147.526211 157.48691,142.725478 155.992404,142.725478 C154.440417,142.725478 154.555379,143.135297 156.567214,145.067299 C159.613708,147.93603 158.176682,153.02949 154.440417,152.561126 C152.543543,152.326944 151.681328,149.750941 152.543543,147.174938 C152.888429,146.23821 153.118353,144.891663 153.118353,144.130571 C153.118353,142.374205 150.64667,139.446929 149.669493,140.09093 C148.979721,140.559294 148.979721,141.320386 150.014379,149.224031 L150.359265,151.858579 L145.703303,155.488402 C143.059177,157.537495 140.127645,159.235315 139.035506,159.469497 C137.943367,159.645134 137.023671,160.113498 137.023671,160.406225 C137.023671,160.757498 136.218937,160.874589 135.011835,160.698953 C133.517329,160.464771 133,160.581862 133,161.225863 C133,161.694227 133.229924,162.0455 133.57481,162.0455 C133.862215,162.0455 134.954354,162.923683 135.989013,164.036047 C137.713443,165.850959 138.345734,166.085141 142.484367,166.61205 C145.013531,166.904778 147.600176,167.080414 148.232468,166.963323 C148.864759,166.787687 150.819113,166.436414 152.543543,166.085141 Z M109.97023,138.171556 C111.880543,136.770206 111.007257,136.579113 108.387399,137.853068 C106.149603,138.935929 105.057995,140.528373 107.022889,139.827698 C107.732434,139.572907 109.096944,138.808534 109.97023,138.171556 Z M123.560633,138.08035 C124.930107,136.373995 122.793727,136.800584 121.314695,138.578037 L120,140 L121.369474,139.502313 C122.13638,139.289019 123.122401,138.649136 123.560633,138.08035 Z M168.955785,135.5 C169.170752,135.2 168.579595,135 167.665988,135 C166.752382,135 166,135.25 166,135.5 C166,135.8 166.591157,136 167.289797,136 C168.042179,136 168.794561,135.8 168.955785,135.5 Z M114.473037,133.190538 C112.225756,134.491089 110.5547,135 108.710777,135 C106.463495,135 106.290627,134.886909 106.982098,134.208361 C107.443079,133.755995 109.22938,133.020901 110.958058,132.625082 C114.069679,131.833442 115.222131,130.872166 113.723944,130.306709 C113.320585,130.137072 111.822397,130.306709 110.497077,130.645983 C108.653154,131.154894 107.846437,131.098348 107.097343,130.589437 C105.080552,129.175796 104.504326,129.232341 99.9521399,131.550714 C97.3591225,132.794719 95.1694633,133.755995 95.0542181,133.642904 C94.7084824,133.30363 96.0914251,130.250163 97.0710094,129.11925 C98.6844425,127.42288 104.216213,124.93487 108.192173,124.199776 C113.147717,123.295045 113.43583,123.2385 113.090095,122.616497 C112.917227,122.333769 113.320585,121.994495 113.954434,121.824858 C115.394999,121.429038 115.106886,120.071942 113.551076,119.845759 C112.283378,119.619577 105.887269,115.66138 105.829646,115.095923 C105.829646,114.926286 106.693985,114.530466 107.731192,114.360829 C108.710777,114.134646 109.920851,113.682281 110.32421,113.343007 C111.303794,112.551367 119.60145,113.229916 122.25209,114.360829 C123.404542,114.813194 124.499371,115.717925 124.672239,116.339928 C124.960352,117.470841 124.960352,117.470841 126.631408,116.283382 L128.302464,115.152468 L128.87869,116.56611 C129.166803,117.35775 129.685406,118.036298 129.973519,118.036298 C130.261632,118.036298 130.664991,118.545209 130.895481,119.167211 C131.52933,121.14631 132.220801,126.178875 131.932688,126.913969 C131.75982,127.253243 130.376878,127.988336 128.821067,128.497247 C126.689031,129.232341 125.997559,129.741252 125.997559,130.589437 C125.997559,131.60726 125.651824,131.720351 121.848731,131.550714 C118.045639,131.381077 117.354168,131.550714 114.473037,133.190538 Z M191.779246,185.424817 C191.779246,184.980609 191.953177,184.859462 192.127108,185.182522 C192.301039,185.4652 192.243062,185.828643 192.069131,185.949791 C191.8952,186.111321 191.721269,185.869026 191.779246,185.424817 Z M175,128.5 C175,128.25 175.25,128 175.5,128 C175.8,128 176,128.25 176,128.5 C176,128.8 175.8,129 175.5,129 C175.25,129 175,128.8 175,128.5 Z M178.070379,127.5 C178.199265,127.25 178.542962,127 178.757773,127 C179.015545,127 179.058508,127.25 178.929621,127.5 C178.800735,127.8 178.457038,128 178.242227,128 C177.984455,128 177.941492,127.8 178.070379,127.5 Z M178.936553,133.493671 C178.74239,133.797468 177.577418,134 176.477166,134 C174.923869,134 174.664986,133.848101 175.376913,133.493671 C176.671328,132.835443 179.454318,132.835443 178.936553,133.493671 Z M151.70568,123.653782 C149.287762,122.688014 153.547904,117.919531 157.462628,117.255565 C160.456241,116.77268 161.377353,115.867272 160.744088,114.177177 C160.110824,112.306 160.974366,110.978068 163.219576,110.495184 C164.198257,110.253741 165.407216,109.770857 165.867772,109.348333 C166.501036,108.865449 166.731314,108.865449 166.961592,109.469054 C167.364578,110.736626 168.803815,112.004197 169.897635,112.004197 C170.47333,112.004197 171.62472,111.460952 172.488262,110.736626 C173.639651,109.770857 173.985068,109.710497 173.985068,110.374462 C173.985068,111.943837 173.294235,113.211408 172.488262,113.211408 C170.991455,113.211408 171.682289,114.901503 173.869929,116.77268 L176,118.583497 L171.912567,118.643857 C165.925341,118.643857 162.183325,119.549265 158.498879,121.963687 C155.505266,123.895224 153.432765,124.438469 151.70568,123.653782 Z M83.1799996,108.267659 C83.0600593,114.086586 82.2804475,118.365209 81.680746,116.596711 C81.5008356,116.083277 80.001582,115.798035 76.9431046,115.740987 C72.3853737,115.62689 69.3868665,114.657069 70.1065082,113.630199 C70.2864186,113.344958 71.4858215,112.660378 72.8051647,112.146944 C75.0840302,111.291219 76.0435525,109.693866 74.2444482,109.693866 C72.9850751,109.693866 73.1050154,108.781093 74.604269,106.499161 C75.8036719,104.616567 77.9026269,102.84807 78.8621493,102.84807 C79.7617014,102.84807 79.3419104,104.331326 78.1425075,105.301147 C76.8831345,106.270968 76.5233136,107.982417 77.4828359,107.982417 C78.2624478,107.982417 80.5413133,105.130002 80.5413133,104.160181 C80.5413133,103.703794 81.0810446,102.562828 81.8006863,101.650055 C83.1200295,99.8245094 84.5593129,99.368123 83.7797011,101.022524 C83.5398205,101.535959 83.2999399,104.84476 83.1799996,108.267659 Z M176.085898,112.5 C176.268718,112.25 176.573419,112 176.756239,112 C176.87812,112 177,112.25 177,112.5 C177,112.8 176.695299,113 176.329658,113 C176.024957,113 175.903077,112.8 176.085898,112.5 Z M223,106.5 C223,106.25 223.304701,106 223.670342,106 C223.975043,106 224.096923,106.25 223.914102,106.5 C223.731282,106.8 223.426581,107 223.243761,107 C223.12188,107 223,106.8 223,106.5 Z M101.079311,47.4332498 C100.906682,47.1059235 101.021768,46.5603796 101.367026,46.2330533 C101.827371,45.7966182 102,45.9602813 102,46.8331515 C102,48.1424568 101.712285,48.3606744 101.079311,47.4332498 Z M106.155795,33.2303827 C103.322794,31.7393714 103.261207,27.62418 106.094208,27.62418 C106.586904,27.62418 107.510709,27.0277755 108.126579,26.31209 L109.173557,25 L110.282123,27.0277755 C111.205927,28.7573486 111.205927,29.1151914 110.466884,29.6519554 C109.974188,30.0097982 109.604666,31.0833264 109.604666,32.0972141 C109.666253,34.18463 108.557687,34.5424727 106.155795,33.2303827 Z M164.44816,26.0798641 C162.63501,24.9787596 162.500703,24 164.179545,24 C165.589772,24 167,25.1011045 167,26.2633815 C167,27.3033135 166.261309,27.242141 164.44816,26.0798641 Z M156.779246,25.4248174 C156.779246,24.9806093 156.953177,24.8594616 157.127108,25.1825221 C157.301039,25.4652 157.243062,25.8286431 157.069131,25.9497907 C156.8952,26.111321 156.721269,25.8690256 156.779246,25.4248174 Z M134,112.341463 C134,109.746476 133.794494,108.841247 133.177977,109.022293 C132.081947,109.324036 131.670936,112.582857 132.287453,115.479587 C132.972472,118.557362 134,116.686558 134,112.341463 Z" id="Face" fill="#FFFFFF" fill-rule="nonzero"></path>
        </g>
    </g>
</svg>