<?xml version="1.0" encoding="UTF-8"?>
<svg width="2604px" height="393px" viewBox="0 0 2604 393" version="1.1" xmlns="http://www.w3.org/2000/svg" xmlns:xlink="http://www.w3.org/1999/xlink">
    <!-- Generator: Sketch 52.6 (67491) - http://www.bohemiancoding.com/sketch -->
    <title>fsf</title>
    <desc>Created with Sketch.</desc>
    <g id="Page-1" stroke="none" stroke-width="1" fill="none" fill-rule="evenodd">
        <g id="fsf" fill="#B11107" fill-rule="nonzero">
            <g id="Logo" transform="translate(0.000024, 0.018539)">
                <g id="g10">
                    <path d="M86.3958528,190.60985 L0,190.60985 L0,125.812961 L86.3958528,125.812961 L86.3958528,75.4153799 L71.996544,75.4153799 L71.996544,39.4171079 L86.3958528,39.4171079 L86.3958528,25.0177991 L122.394125,25.0177991 L122.394125,39.4171079 L338.383757,39.4171079 C398.048893,8.1516087 468.079531,2.08090011 528.609626,1.33593587 C595.419418,0.477977056 598.881252,1.22894101 626.134944,1.42393165 C741.497406,2.28289042 749.449025,2.79186598 765.731243,0.222989296 C772.294928,-0.857958816 779.493583,3.48283282 780.062555,6.71767754 C781.385492,13.8893333 766.437209,22.1949346 761.821431,23.6578644 C747.47112,28.2126457 721.780353,30.2735468 651.897707,34.3053533 L650.233787,34.3393516 C539.250115,44.8188486 476.989103,70.9845926 460.899876,78.4722332 C397.261931,108.173807 390.39226,122.001144 398.665863,130.82472 C407.433442,140.182271 456.975064,119.599259 481.268898,112.661592 C529.54858,98.8882531 558.000215,112.07862 575.972352,125.812961 L619.170278,125.812961 L619.170278,118.613306 L647.968896,118.613306 L647.968896,125.812961 L892.757146,125.812961 L892.757146,190.60985 L647.968896,190.60985 L647.968896,241.008431 L856.758874,241.008431 L856.758874,277.006703 L647.968896,277.006703 L647.968896,392.200173 L619.170278,392.200173 L619.170278,277.006703 L604.77097,277.006703 L604.77097,241.008431 L619.170278,241.008431 L619.170278,190.60985 L604.77097,190.60985 C604.521982,216.077628 597.06234,239.426507 589.923682,249.045045 C523.294881,338.545749 221.073388,350.060196 127.452882,351.588123 C103.829016,351.993104 86.9188277,348.030294 86.3958528,341.801593 M253.760819,124.245036 C257.799625,107.257851 269.085083,89.9486823 282.605434,75.5433737 L124.413028,76.1743435 L123.839055,126.009951 L252.949858,126.533926 L253.559829,127.566876 M751.918906,8.81457688 C750.273985,7.99561619 666.256018,12.6783914 661.532245,12.249412 C656.809472,11.8194326 606.195901,12.5443978 578.446233,11.8194326 C545.59781,10.9604739 511.125465,11.853431 479.042005,14.8252884 C446.623561,17.8311441 413.131169,27.9216597 385.436498,39.5151032 C359.089763,50.5455737 332.835023,64.4189077 312.225012,80.7361245 C301.670519,89.0897235 293.646904,98.3682781 286.462249,109.720733 C278.303641,122.601115 274.37083,137.315409 279.805569,149.653816 C285.664287,162.937179 298.766659,168.820896 315.015879,171.337775 C329.76917,173.631665 347.864302,172.410724 359.457745,174.772611 C366.341415,176.174543 377.639872,178.026454 378.350838,184.649136 C378.994807,190.659848 368.145328,200.711365 363.10757,203.11125 C353.661023,207.621034 340.993632,203.756219 328.756219,201.179343 C320.321624,199.408428 307.804225,195.301625 299.9866,191.731796 C294.707853,189.317912 289.060124,187.412004 287.986176,187.412004 C287.558197,187.412004 122.181135,186.984024 122.394125,187.412004 C122.394125,190.20287 122.181135,324.965401 122.394125,331.405092 C122.629114,338.51675 147.170935,336.409852 162.368206,334.933922 C191.727797,332.06106 222.267331,328.492232 251.895908,324.199438 C268.837095,321.743556 286.791233,318.562708 303.851414,315.180871 C330.903116,309.815128 363.249563,302.299489 376.699918,298.004695 C410.340303,287.27121 445.120633,277.824664 476.895108,264.084323 C491.180422,257.91162 508.240603,250.128993 519.835047,242.184375 C532.192454,233.716781 545.38282,222.003343 550.965552,209.98092 C557.164255,196.629561 559.062164,180.554333 552.68247,165.968033 C546.671758,152.227693 530.139552,139.99128 515.755243,137.628394 C507.568636,136.286458 501.155943,135.481497 493.212325,136.125466 C484.074763,136.86343 468.52251,140.20427 458.217005,141.493208 C441.275818,143.613106 421.369773,146.625962 404.757571,144.070084 C393.594107,142.351167 375.988952,127.967857 382.214653,111.221661 C386.777434,98.9432505 404.455585,86.3428553 415.063076,79.4471864 C440.826839,62.6999903 487.173615,48.080692 526.919707,38.6541445 C560.411099,30.7115258 607.428842,24.269835 647.147935,23.8408556 C650.977752,23.8008575 686.859029,21.3919731 690.515854,21.2639793 C750.844958,19.1170823 752.776865,9.24155638 751.918906,8.81257698" id="path12"></path>
                </g>
            </g>
            <g id="Text" transform="translate(1038.000000, 20.000000)">
                <g id="FEINE-SAHNE-2">
                    <path d="M33.885605,33.1628333 L33.885605,77.4326034 L100.354793,77.4326034 L100.354793,105.956275 L33.885605,105.956275 L33.885605,192.430753 L0.328344884,192.430753 L0.328344884,3.3484983 L124.877407,3.3484983 L124.877407,33.1628333 L33.885605,33.1628333 Z M188.119935,33.1628333 L188.119935,77.4326034 L250.588066,77.4326034 L250.588066,105.956275 L188.119935,105.956275 L188.119935,162.616418 L273.820015,162.616418 L273.820015,192.430753 L154.562675,192.430753 L154.562675,3.3484983 L275.239745,3.3484983 L275.239745,33.1628333 L188.119935,33.1628333 Z M305.570346,192.430753 L305.570346,3.3484983 L339.127606,3.3484983 L339.127606,192.430753 L305.570346,192.430753 Z M502.52565,195.01208 L410.75945,75.3675413 L410.75945,192.559819 L378.492854,192.559819 L378.492854,3.3484983 L394.626152,3.3484983 L483.94009,117.443183 L483.94009,3.3484983 L516.206687,3.3484983 L516.206687,195.01208 L502.52565,195.01208 Z M588.483862,33.1628333 L588.483862,77.4326034 L650.951993,77.4326034 L650.951993,105.956275 L588.483862,105.956275 L588.483862,162.616418 L674.183942,162.616418 L674.183942,192.430753 L554.926602,192.430753 L554.926602,3.3484983 L675.603673,3.3484983 L675.603673,33.1628333 L588.483862,33.1628333 Z M775.888254,181.976375 L788.278627,151.903908 C801.529509,161.196734 814.565083,165.843077 827.385742,165.843077 C847.089975,165.843077 856.941944,158.959606 856.941944,145.192456 C856.941944,138.739104 854.618772,132.587001 849.972359,126.735963 C845.325946,120.884924 835.753618,114.324115 821.255088,107.053339 C806.756558,99.7825628 796.990633,93.8025467 791.957019,89.1131113 C786.923405,84.4236759 783.051452,78.8523659 780.341044,72.3990144 C777.630636,65.9456629 776.275453,58.804061 776.275453,50.9739945 C776.275453,36.3463977 781.631654,24.2142788 792.344218,14.5772738 C803.056782,4.94026887 816.802214,0.121838668 833.580928,0.121838668 C855.436279,0.121838668 871.483372,4.2089 881.72269,12.3831453 L871.526445,41.2940156 C859.738323,32.8616362 847.305052,28.6455098 834.22626,28.6455098 C826.482238,28.6455098 820.480711,30.6890405 816.221499,34.7761631 C811.962287,38.8632857 809.832713,44.1764655 809.832713,50.7158617 C809.832713,61.5574923 821.835767,72.8291772 845.842235,84.5312546 C858.490804,90.7264721 867.611404,96.4268471 873.204308,101.632551 C878.797213,106.838254 883.056361,112.904314 885.98188,119.830911 C888.9074,126.757508 890.370138,134.479903 890.370138,142.998327 C890.370138,158.314281 884.325589,170.919639 872.23631,180.814778 C860.147032,190.709917 843.949363,195.657412 823.642816,195.657412 C806.003656,195.657412 790.085627,191.097112 775.888254,181.976375 Z M1030.40717,192.430753 L1016.59706,154.098036 L951.805737,154.098036 L938.640966,192.430753 L901.34078,192.430753 L976.715549,0.767170594 L991.429117,0.767170594 L1067.44922,192.430753 L1030.40717,192.430753 Z M984.072333,58.5889112 L961.356649,128.413826 L1006.78802,128.413826 L984.072333,58.5889112 Z M1196.25747,192.430753 L1196.25747,107.246938 L1121.01177,107.246938 L1121.01177,192.430753 L1087.45451,192.430753 L1087.45451,3.3484983 L1121.01177,3.3484983 L1121.01177,77.4326034 L1196.25747,77.4326034 L1196.25747,3.3484983 L1229.42753,3.3484983 L1229.42753,192.430753 L1196.25747,192.430753 Z M1392.18024,195.01208 L1300.41404,75.3675413 L1300.41404,192.559819 L1268.14745,192.559819 L1268.14745,3.3484983 L1284.28075,3.3484983 L1373.59468,117.443183 L1373.59468,3.3484983 L1405.86128,3.3484983 L1405.86128,195.01208 L1392.18024,195.01208 Z M1478.13846,33.1628333 L1478.13846,77.4326034 L1540.60659,77.4326034 L1540.60659,105.956275 L1478.13846,105.956275 L1478.13846,162.616418 L1563.83854,162.616418 L1563.83854,192.430753 L1444.5812,192.430753 L1444.5812,3.3484983 L1565.25827,3.3484983 L1565.25827,33.1628333 L1478.13846,33.1628333 Z" id="FEINE-SAHNE"></path>
                </g>
                <g id="FISCHFILET-2" transform="translate(0.000000, 239.000000)">
                    <path d="M15.0586431,15.7134008 L15.0586431,45.9728394 L53.3476133,45.9728394 L53.3476133,58.6119169 L15.0586431,58.6119169 L15.0586431,111.249958 L0.189140078,111.249958 L0.189140078,2.33084812 L67.4736411,2.33084812 L67.4736411,15.7134008 L15.0586431,15.7134008 Z M174.073108,111.249958 L174.073108,2.33084812 L188.942611,2.33084812 L188.942611,111.249958 L174.073108,111.249958 Z M300.300319,106.268674 L305.727688,92.5887313 C308.503342,94.6209068 311.960467,96.3184915 316.099166,97.681536 C320.237865,99.0445806 323.942812,99.7260927 327.214119,99.7260927 C333.013255,99.7260927 337.672319,98.1400283 341.191452,94.9678518 C344.710585,91.7956753 346.470126,87.7561673 346.470126,82.8492068 C346.470126,79.1813777 345.491227,75.7738174 343.533399,72.6264235 C341.575571,69.4790296 336.656293,66.046687 328.775417,62.3292927 L320.00241,58.2401794 C312.567622,54.7706113 307.375739,50.6567566 304.426606,45.8984919 C301.477473,41.1402271 300.002929,35.4155257 300.002929,28.7242159 C300.002929,20.5955137 302.877671,13.8547397 308.627241,8.50169186 C314.376811,3.14864402 321.761923,0.47216025 330.7828,0.47216025 C342.827158,0.47216025 351.203561,2.42995857 355.91226,6.34561393 L351.525757,19.2820815 C349.543146,17.8446891 346.519711,16.4568827 342.45536,15.1186207 C338.391009,13.7803587 334.624106,13.1112378 331.154538,13.1112378 C326.098881,13.1112378 322.121329,14.5486087 319.221761,17.4233937 C316.322194,20.2981786 314.872432,23.9907349 314.872432,28.5011734 C314.872432,31.2768278 315.392859,33.8046181 316.43373,36.0846199 C317.4746,38.3646218 318.924362,40.2728556 320.783059,41.8093786 C322.641756,43.3459016 326.445833,45.5019579 332.195403,48.2776124 L341.117105,52.5154207 C348.551893,56.034554 353.768558,60.2351466 356.767257,65.1173245 C359.765955,69.9995024 361.265281,76.2074578 361.265281,83.741377 C361.265281,91.9196445 357.981632,98.8586765 351.414235,104.558681 C344.846839,110.258686 336.061529,113.108645 325.058041,113.108645 C315.392816,113.108645 307.140325,110.828678 300.300319,106.268674 Z M539.31271,6.34561393 L534.331426,19.059039 C529.573162,15.5894709 522.08892,13.8547129 511.878477,13.8547129 C502.312382,13.8547129 494.642274,17.9685676 488.867921,26.1964004 C483.093569,34.4242332 480.206436,45.0310393 480.206436,58.0171368 C480.206436,70.4084513 483.167915,80.4576565 489.090964,88.1650541 C495.014012,95.8724517 502.659338,99.7260927 512.027172,99.7260927 C522.237615,99.7260927 530.093591,96.1078832 535.595334,88.8713555 L543.773561,100.246525 C535.149206,108.821315 524.046755,113.108645 510.465874,113.108645 C496.240645,113.108645 485.039065,107.978718 476.860797,97.7187098 C468.68253,87.4587014 464.593457,73.927589 464.593457,57.1249666 C464.593457,40.8675621 468.955135,27.3612319 477.67862,16.605571 C486.402105,5.84991005 497.678032,0.47216025 511.506739,0.47216025 C523.352836,0.47216025 532.6214,2.42995857 539.31271,6.34561393 Z M714.683628,111.249958 L714.683628,58.6119169 L667.101219,58.6119169 L667.101219,111.249958 L652.231716,111.249958 L652.231716,2.33084812 L667.101219,2.33084812 L667.101219,45.9728394 L714.683628,45.9728394 L714.683628,2.33084812 L729.553131,2.33084812 L729.553131,111.249958 L714.683628,111.249958 Z M858.085115,15.7134008 L858.085115,45.9728394 L896.374085,45.9728394 L896.374085,58.6119169 L858.085115,58.6119169 L858.085115,111.249958 L843.215612,111.249958 L843.215612,2.33084812 L910.500113,2.33084812 L910.500113,15.7134008 L858.085115,15.7134008 Z M1017.09958,111.249958 L1017.09958,2.33084812 L1031.96908,2.33084812 L1031.96908,111.249958 L1017.09958,111.249958 Z M1148.23373,111.249958 L1148.23373,2.33084812 L1163.10323,2.33084812 L1163.10323,97.8674048 L1212.32128,97.8674048 L1212.32128,111.249958 L1148.23373,111.249958 Z M1331.55983,15.7134008 L1331.55983,45.9728394 L1367.54403,45.9728394 L1367.54403,58.6119169 L1331.55983,58.6119169 L1331.55983,97.8674048 L1380.92658,97.8674048 L1380.92658,111.249958 L1316.69033,111.249958 L1316.69033,2.33084812 L1381.7444,2.33084812 L1381.7444,15.7134008 L1331.55983,15.7134008 Z M1529.30935,15.7134008 L1529.30935,111.249958 L1514.43985,111.249958 L1514.43985,15.7134008 L1479.7939,15.7134008 L1479.7939,2.33084812 L1565.51659,2.33084812 L1565.51659,15.7134008 L1529.30935,15.7134008 Z" id="FISCHFILET"></path>
                </g>
            </g>
        </g>
    </g>
</svg>