<svg xmlns="http://www.w3.org/2000/svg" width="2604" height="393"><g fill="#B11107" fill-rule="nonzero"><path d="M86.4 190.63H0v-64.8h86.4v-50.4H72v-36h14.4v-14.4h36v14.4h215.98C398.05 8.18 468.08 2.1 528.61 1.36c66.8-.85 70.27-.1 97.52.1C741.5 2.3 749.45 2.8 765.73.24c6.56-1.09 13.76 3.25 14.33 6.49 1.33 7.17-13.62 15.47-18.24 16.94-14.35 4.55-40.04 6.61-109.92 10.64l-1.67.04C539.25 44.84 477 71 460.9 78.49c-63.64 29.7-70.5 43.53-62.23 52.35 8.76 9.36 58.3-11.22 82.6-18.16 48.28-13.77 76.73-.58 94.7 13.15h43.2v-7.2h28.8v7.2h244.79v64.8h-244.8v50.4h208.8v36h-208.8v115.19h-28.79v-115.2h-14.4v-36h14.4v-50.4h-14.4c-.25 25.48-7.7 48.83-14.85 58.44-66.63 89.5-368.85 101.02-462.47 102.55-23.62.4-40.53-3.56-41.05-9.79m167.36-217.56c4.04-16.98 15.33-34.3 28.85-48.7l-158.2.63-.57 49.84 129.11.52.61 1.04M751.92 8.83c-1.65-.82-85.66 3.87-90.39 3.44-4.72-.43-55.33.3-83.08-.43-32.85-.86-67.32.03-99.4 3-32.43 3.01-65.92 13.1-93.61 24.7-26.35 11.02-52.6 24.9-73.21 41.21-10.56 8.36-18.58 17.64-25.77 28.99-8.16 12.88-12.09 27.6-6.65 39.93 5.85 13.29 18.96 19.17 35.2 21.69 14.76 2.29 32.85 1.07 44.45 3.43 6.88 1.4 18.18 3.25 18.9 9.88.63 6-10.21 16.06-15.25 18.46-9.45 4.51-22.12.64-34.35-1.93a161.09 161.09 0 0 1-28.77-9.45c-5.28-2.41-10.93-4.32-12-4.32-.43 0-165.8-.43-165.6 0 0 2.8-.2 137.55 0 144 .24 7.1 24.78 5 39.98 3.52 29.36-2.87 59.9-6.44 89.53-10.73 16.94-2.46 34.9-5.64 51.95-9.02 27.05-5.37 59.4-12.88 72.85-17.18 33.64-10.73 68.42-20.18 100.2-33.92 14.28-6.17 31.34-13.95 42.94-21.9 12.35-8.46 25.54-20.18 31.13-32.2 6.2-13.35 8.1-29.43 1.71-44.01-6-13.74-22.54-25.98-36.92-28.34-8.2-1.35-14.6-2.15-22.55-1.5-9.14.73-24.69 4.07-35 5.36-16.93 2.12-36.84 5.13-53.45 2.58-11.17-1.72-28.77-16.1-22.55-32.85 4.57-12.28 22.25-24.88 32.85-31.77 25.77-16.75 72.11-31.37 111.86-40.8 33.5-7.94 80.5-14.38 120.23-14.81 3.83-.04 39.7-2.45 43.37-2.58 60.32-2.14 62.26-12.02 61.4-12.45M1071.89 53.16v44.27h66.46v28.53h-66.46v86.47h-33.56V23.35h124.55v29.81h-91Zm154.23 0v44.27h62.47v28.53h-62.47v56.66h85.7v29.81h-119.26V23.35h120.68v29.81h-87.12Zm117.45 159.27V23.35h33.56v189.08h-33.56Zm196.96 2.58-91.77-119.64v117.19h-32.27V23.35h16.14l89.31 114.1V23.34h32.27V215h-13.68Zm85.95-161.85v44.27h62.47v28.53h-62.47v56.66h85.7v29.81h-119.25V23.35h120.67v29.81h-87.12Zm187.4 148.82 12.4-30.08c13.25 9.3 26.29 13.94 39.1 13.94 19.71 0 29.56-6.88 29.56-20.65 0-6.45-2.32-12.6-6.97-18.45-4.64-5.86-14.22-12.42-28.71-19.69-14.5-7.27-24.27-13.25-29.3-17.94a47.93 47.93 0 0 1-11.62-16.71c-2.7-6.45-4.06-13.6-4.06-21.43 0-14.62 5.35-26.76 16.06-36.4 10.72-9.63 24.46-14.45 41.24-14.45 21.86 0 37.9 4.09 48.14 12.26l-10.2 28.91c-11.78-8.43-24.21-12.64-37.3-12.64-7.74 0-13.74 2.04-18 6.13-4.26 4.08-6.39 9.4-6.39 15.94 0 10.84 12 22.1 36.01 33.81 12.65 6.2 21.77 11.9 27.36 17.1a52.55 52.55 0 0 1 12.78 18.2c2.93 6.93 4.39 14.65 4.39 23.17 0 15.31-6.04 27.92-18.13 37.81-12.1 9.9-28.3 14.85-48.6 14.85-17.64 0-33.55-4.56-47.75-13.68Zm254.53 10.45-13.81-38.33h-64.8l-13.16 38.33h-37.3l75.38-191.66h14.7l76.03 191.66h-37.04ZM2022.07 78.6l-22.71 69.82h45.43l-22.72-69.82Zm212.19 133.84v-85.18H2159v85.18h-33.56V23.35h33.56v74.08h75.25V23.35h33.17v189.08h-33.17Zm195.92 2.58-91.77-119.64v117.19h-32.26V23.35h16.13l89.31 114.1V23.34h32.27V215h-13.68Zm85.96-161.85v44.27h62.47v28.53h-62.47v56.66h85.7v29.81h-119.26V23.35h120.68v29.81h-87.12ZM1053.06 274.71v30.26h38.29v12.64h-38.3v52.64h-14.86V261.33h67.28v13.38h-52.41Zm159.01 95.54V261.33h14.87v108.92h-14.87Zm126.23-4.98 5.43-13.68a37.13 37.13 0 0 0 10.37 5.1c4.14 1.35 7.84 2.04 11.11 2.04 5.8 0 10.46-1.59 13.98-4.76a15.6 15.6 0 0 0 5.28-12.12 19 19 0 0 0-2.94-10.22c-1.95-3.15-6.87-6.58-14.75-10.3l-8.78-4.09c-7.43-3.47-12.62-7.58-15.57-12.34-2.95-4.76-4.43-10.48-4.43-17.18 0-8.12 2.88-14.87 8.63-20.22 5.75-5.35 13.13-8.03 22.15-8.03 12.05 0 20.42 1.96 25.13 5.88l-4.38 12.93c-1.99-1.44-5.01-2.82-9.07-4.16a36.3 36.3 0 0 0-11.3-2c-5.06 0-9.04 1.43-11.94 4.3-2.9 2.88-4.35 6.57-4.35 11.08 0 2.78.52 5.3 1.56 7.58a15.85 15.85 0 0 0 4.35 5.73c1.86 1.54 5.67 3.7 11.42 6.47l8.92 4.24c7.43 3.51 12.65 7.72 15.65 12.6s4.5 11.09 4.5 18.62c0 8.18-3.29 15.12-9.86 20.82-6.56 5.7-15.35 8.55-26.35 8.55-9.67 0-17.92-2.28-24.76-6.84Zm239.01-99.92-4.98 12.7c-4.76-3.46-12.24-5.2-22.45-5.2-9.57 0-17.24 4.12-23.01 12.35-5.78 8.22-8.66 18.83-8.66 31.82 0 12.39 2.96 22.44 8.88 30.15 5.92 7.7 13.57 11.56 22.94 11.56 10.2 0 18.06-3.62 23.57-10.86l8.17 11.38c-8.62 8.57-19.72 12.86-33.3 12.86-14.23 0-25.43-5.13-33.6-15.4-8.19-10.25-12.28-23.78-12.28-40.59 0-16.25 4.37-29.76 13.09-40.51 8.72-10.76 20-16.14 33.83-16.14 11.84 0 21.11 1.96 27.8 5.88Zm175.37 104.9v-52.64h-47.58v52.64h-14.87V261.33h14.87v43.64h47.58v-43.64h14.87v108.92h-14.87Zm143.4-95.54v30.26h38.3v12.64h-38.3v52.64h-14.86V261.33h67.28v13.38h-52.41Zm159.02 95.54V261.33h14.87v108.92h-14.87Zm131.13 0V261.33h14.87v95.54h49.22v13.38h-64.09Zm183.33-95.54v30.26h35.98v12.64h-35.98v39.26h49.37v13.38h-64.24V261.33h65.05v13.38h-50.18Zm197.75 0v95.54h-14.87v-95.54h-34.65v-13.38h85.73v13.38h-36.21Z"/></g></svg>