<?xml version="1.0" encoding="UTF-8"?>
<!DOCTYPE svg PUBLIC "-//W3C//DTD SVG 1.1//EN" "http://www.w3.org/Graphics/SVG/1.1/DTD/svg11.dtd">
<svg version="1.1" xmlns="http://www.w3.org/2000/svg" xmlns:xlink="http://www.w3.org/1999/xlink" x="0" y="0" width="700" height="262.156" viewBox="0, 0, 700, 262.156">
  <g id="Ebene_1" transform="translate(0, -218.922)">
    <g>
      <path d="M12.355,450.008 L13.046,442.799 L17.612,439.737 L20.375,444.311 L19.608,445.706 L16.461,444.349 L13.008,450.396 z M12.202,449.97 L11.55,450.357 L5.717,446.132 L5.372,440.628 L10.667,440.473 L11.473,441.869 L8.749,443.923 z M-0,451.753 L2.571,447.063 L4.144,447.063 L4.528,450.474 L11.435,450.474 L11.435,451.249 L4.911,454.233 z M21.948,454.737 L20.375,454.737 L19.991,451.326 L13.046,451.326 L13.046,450.551 L19.608,447.528 L24.481,450.008 z M12.125,451.753 L11.435,459.001 L6.868,462.024 L4.106,457.451 L4.873,456.094 L8.02,457.451 L11.473,451.404 z M19.109,461.172 L13.814,461.288 L13.008,459.931 L15.732,457.838 L12.279,451.83 L12.931,451.443 L18.802,455.629 z" fill="#B20000"/>
      <g>
        <path d="M65.192,450.036 L63.657,450.612 L58.439,442.937 L54.218,442.937 L54.218,467.725 L58.324,468.991 L57.365,470.91 L44.932,470.91 L44.932,469.337 L48.539,466.497 L48.539,442.937 L44.434,442.937 L39.215,450.612 L37.68,450.036 L37.68,440.06 L40.021,440.75 L62.852,440.75 L65.192,440.06 z" fill="#000000"/>
        <path d="M79.351,470.871 Q77.586,471.294 75.015,471.294 Q72.368,471.294 70.276,469.97 Q68.185,468.646 66.996,466.363 Q65.806,464.08 65.806,461.317 Q65.806,458.324 67.667,455.734 Q69.528,453.144 72.329,451.59 Q75.13,450.036 77.74,450.036 Q81.538,450.036 83.649,452.991 Q85.759,455.945 85.721,460.933 L71.639,460.933 Q71.946,463.85 73.385,465.653 Q74.823,467.456 77.279,467.456 Q79.85,467.456 84.646,464.041 L85.759,465.806 z M71.562,458.976 L79.888,458.976 Q79.581,457.096 79.217,456.041 Q78.852,454.986 77.989,454.353 Q77.126,453.72 75.553,453.72 Q71.754,453.72 71.562,458.976 z" fill="#000000"/>
        <path d="M98.997,456.367 L98.997,467.38 L104.561,468.991 L103.602,470.91 L90.21,470.91 L90.21,469.337 L93.625,466.574 L93.625,456.597 L90.21,454.525 L90.21,452.952 L97.347,449.691 L98.652,454.218 L102.451,450.343 Q103.141,450.036 104.446,450.036 Q106.019,450.036 107.17,450.803 Q108.321,451.571 108.859,452.952 L105.866,456.712 L104.024,456.712 Q103.909,455.6 103.544,455.12 Q103.18,454.64 102.451,454.64 L102.451,454.602 Q100.762,454.602 98.997,456.367 z" fill="#000000"/>
        <path d="M147.268,470.91 L139.402,470.91 L139.402,458.055 Q139.402,456.137 138.807,455.389 Q138.212,454.64 136.716,454.64 Q135.68,454.64 134.625,455.024 Q133.569,455.408 132.227,456.482 L132.227,467.763 L135.565,468.991 L134.606,470.91 L126.855,470.91 L126.855,458.055 Q126.855,456.137 126.26,455.389 Q125.665,454.64 124.169,454.64 Q123.094,454.64 122.039,455.024 Q120.984,455.408 119.641,456.482 L119.641,467.763 L123.017,468.991 L122.058,470.91 L110.854,470.91 L110.854,469.337 L114.269,466.574 L114.269,456.597 L110.854,454.525 L110.854,452.952 L117.991,449.691 L119.334,454.41 L124.245,450.343 Q124.974,450.036 126.356,450.036 Q128.62,450.036 130.116,451.168 Q131.613,452.3 132.073,454.295 L136.831,450.343 Q137.56,450.036 138.941,450.036 Q141.627,450.036 143.22,451.628 Q144.812,453.221 144.812,455.945 L144.812,467.725 L148.227,468.991 z" fill="#000000"/>
        <path d="M161.715,464.694 Q160.583,463.85 158.28,462.622 Q155.288,461.01 153.676,459.725 Q152.064,458.439 152.064,456.713 Q152.064,455.331 153.292,453.758 Q154.52,452.185 156.304,451.11 Q158.089,450.036 159.585,450.036 Q161.427,450.036 163.863,450.477 Q166.3,450.919 167.413,451.456 L167.413,457.557 L165.571,457.557 Q164.458,455.37 162.904,454.142 Q161.35,452.914 159.739,452.914 Q158.703,452.914 158.089,453.47 Q157.475,454.027 157.475,454.832 Q157.475,455.868 158.645,456.751 Q159.815,457.633 162.194,458.9 Q164.19,459.974 165.36,460.722 Q166.53,461.471 167.374,462.449 Q168.219,463.427 168.219,464.617 Q168.219,466.037 166.933,467.591 Q165.648,469.145 163.825,470.219 Q162.002,471.294 160.468,471.294 Q158.472,471.294 155.767,470.852 Q153.062,470.411 151.911,469.874 L151.911,463.658 L153.753,463.658 Q155.019,465.922 156.803,467.169 Q158.587,468.416 160.391,468.416 Q161.465,468.416 162.156,467.84 Q162.847,467.265 162.847,466.459 Q162.847,465.538 161.715,464.694 z" fill="#000000"/>
        <path d="M203.597,470.91 L195.731,470.91 L195.731,467.572 L191.395,470.987 Q190.627,471.294 189.476,471.294 Q186.023,471.294 184.469,469.586 Q182.915,467.879 182.915,465.461 Q182.915,464.041 183.893,462.679 Q184.872,461.317 186.675,460.089 L195.731,460.089 L195.731,458.324 Q195.731,453.95 191.049,453.95 Q188.594,453.95 184.756,456.521 L183.605,454.794 L189.054,450.458 Q190.666,450.036 193.083,450.036 Q196.882,450.036 198.992,451.839 Q201.102,453.643 201.102,457.096 L201.102,467.648 L204.556,468.991 z M195.731,465.308 L195.731,462.046 L189.169,462.046 Q188.402,462.967 188.402,464.272 Q188.402,465.538 189.112,466.401 Q189.821,467.265 190.973,467.265 Q193.121,467.265 195.731,465.308 z" fill="#000000"/>
        <path d="M231.569,470.91 L223.703,470.91 L223.703,458.247 Q223.703,456.214 223.089,455.427 Q222.475,454.64 220.94,454.64 Q219.789,454.64 218.638,455.024 Q217.487,455.408 216.029,456.482 L216.029,467.725 L219.482,468.991 L218.523,470.91 L207.242,470.91 L207.242,469.337 L210.657,466.574 L210.657,456.597 L207.242,454.525 L207.242,452.952 L214.379,449.691 L215.722,454.449 L220.902,450.343 Q221.708,450.036 223.127,450.036 Q225.852,450.036 227.463,451.628 Q229.075,453.221 229.075,455.945 L229.075,467.725 L232.528,468.991 z" fill="#000000"/>
        <path d="M258.889,470.91 L251.023,470.91 L251.023,468.109 L247.416,470.987 Q246.188,471.294 244.5,471.294 Q241.968,471.294 239.953,469.97 Q237.939,468.646 236.807,466.363 Q235.675,464.08 235.675,461.317 Q235.675,458.324 237.536,455.734 Q239.397,453.144 242.198,451.59 Q244.999,450.036 247.608,450.036 Q249.45,450.036 251.023,451.072 L251.023,444.012 L247.608,441.671 L247.608,440.098 L254.553,437.412 L256.395,437.412 L256.395,467.725 L259.849,468.991 z M248.798,466.938 Q249.834,466.651 251.023,465.883 L251.023,457.672 Q250.793,455.945 249.354,454.832 Q247.915,453.72 245.383,453.72 Q241.43,453.72 241.43,459.514 Q241.43,462.814 242.773,465.039 Q244.116,467.265 246.611,467.265 L246.611,467.226 Q247.762,467.226 248.798,466.938 z" fill="#000000"/>
        <path d="M295.227,440.558 Q298.028,441.134 299.294,441.786 L299.294,449.499 L296.992,449.499 Q293.615,443.666 288.09,443.666 Q285.711,443.666 283.773,445.086 Q281.835,446.506 280.703,449.019 Q279.571,451.532 279.571,454.679 Q279.571,458.247 280.684,461.202 Q281.797,464.156 284.061,465.941 Q286.324,467.725 289.663,467.725 Q292.963,467.725 299.256,463.236 L300.56,465.346 L293.5,470.833 Q291.965,471.332 290.545,471.505 Q289.126,471.677 287.514,471.677 Q283.37,471.677 280.166,469.72 Q276.962,467.763 275.197,464.329 Q273.432,460.895 273.432,456.521 Q273.432,452.031 276.099,448.213 Q278.765,444.395 282.737,442.189 Q286.708,439.983 290.315,439.983 Q292.425,439.983 295.227,440.558 z" fill="#000000"/>
        <path d="M321.856,451.36 Q323.966,452.684 325.137,454.947 Q326.307,457.211 326.307,459.974 Q326.307,462.967 324.446,465.576 Q322.585,468.185 319.784,469.74 Q316.983,471.294 314.374,471.294 Q311.726,471.294 309.635,469.97 Q307.544,468.646 306.354,466.363 Q305.165,464.08 305.165,461.317 Q305.165,458.324 307.026,455.734 Q308.887,453.144 311.688,451.59 Q314.489,450.036 317.098,450.036 Q319.746,450.036 321.856,451.36 z M311.976,455.178 Q310.997,456.636 310.997,459.475 Q310.997,462.967 312.455,465.269 Q313.913,467.572 316.599,467.572 Q320.513,467.572 320.513,461.778 Q320.513,458.324 319.055,456.022 Q317.597,453.72 314.873,453.72 Q312.954,453.72 311.976,455.178 z" fill="#000000"/>
        <path d="M355.047,470.91 L347.181,470.91 L347.181,458.247 Q347.181,456.214 346.567,455.427 Q345.953,454.64 344.418,454.64 Q343.267,454.64 342.116,455.024 Q340.965,455.408 339.507,456.482 L339.507,467.725 L342.96,468.991 L342.001,470.91 L330.72,470.91 L330.72,469.337 L334.135,466.574 L334.135,456.597 L330.72,454.525 L330.72,452.952 L337.857,449.691 L339.2,454.449 L344.38,450.343 Q345.186,450.036 346.605,450.036 Q349.33,450.036 350.941,451.628 Q352.553,453.221 352.553,455.945 L352.553,467.725 L356.006,468.991 z" fill="#000000"/>
        <path d="M382.367,470.91 L374.501,470.91 L374.501,468.109 L370.894,470.987 Q369.666,471.294 367.978,471.294 Q365.446,471.294 363.431,469.97 Q361.417,468.646 360.285,466.363 Q359.153,464.08 359.153,461.317 Q359.153,458.324 361.014,455.734 Q362.875,453.144 365.676,451.59 Q368.477,450.036 371.086,450.036 Q372.928,450.036 374.501,451.072 L374.501,444.012 L371.086,441.671 L371.086,440.098 L378.031,437.412 L379.873,437.412 L379.873,467.725 L383.326,468.991 z M372.276,466.938 Q373.312,466.651 374.501,465.883 L374.501,457.672 Q374.271,455.945 372.832,454.832 Q371.393,453.72 368.861,453.72 Q364.908,453.72 364.908,459.514 Q364.908,462.814 366.251,465.039 Q367.594,467.265 370.088,467.265 L370.088,467.226 Q371.24,467.226 372.276,466.938 z" fill="#000000"/>
        <path d="M397.293,470.91 L386.012,470.91 L386.012,469.337 L389.427,466.574 L389.427,456.29 L386.012,453.95 L386.012,452.377 L392.958,449.691 L394.799,449.691 L394.799,467.725 L398.253,468.991 z M394.224,439.081 Q395.106,440.021 395.106,441.402 Q395.106,442.362 394.473,443.225 Q393.84,444.088 392.9,444.587 Q391.96,445.086 391.077,445.086 Q389.734,445.086 388.852,444.165 Q387.969,443.244 387.969,441.863 Q387.969,440.865 388.602,440.021 Q389.236,439.177 390.176,438.659 Q391.116,438.141 391.998,438.141 Q393.341,438.141 394.224,439.081 z" fill="#000000"/>
        <path d="M412.987,470.987 Q411.951,471.293 410.455,471.293 Q407.04,471.293 405.486,469.624 Q403.932,467.955 403.932,464.463 L403.932,453.528 L399.788,453.528 L399.788,451.763 L407.462,443.091 L409.304,443.091 L409.304,451.571 L416.21,451.571 L416.21,453.528 L409.304,453.528 L409.304,464.617 Q409.304,466.152 410.052,466.842 Q410.8,467.533 412.297,467.533 Q413.102,467.533 413.851,467.245 Q414.599,466.958 415.712,466.152 L416.863,467.917 z" fill="#000000"/>
        <path d="M430.6,470.91 L419.318,470.91 L419.318,469.337 L422.733,466.574 L422.733,456.29 L419.318,453.95 L419.318,452.377 L426.264,449.691 L428.105,449.691 L428.105,467.725 L431.559,468.991 z M427.53,439.081 Q428.412,440.021 428.412,441.402 Q428.412,442.362 427.779,443.225 Q427.146,444.088 426.206,444.587 Q425.266,445.086 424.383,445.086 Q423.04,445.086 422.158,444.165 Q421.275,443.244 421.275,441.863 Q421.275,440.865 421.909,440.021 Q422.542,439.177 423.482,438.659 Q424.422,438.141 425.304,438.141 Q426.647,438.141 427.53,439.081 z" fill="#000000"/>
        <path d="M451.819,451.36 Q453.929,452.684 455.099,454.947 Q456.27,457.211 456.27,459.974 Q456.27,462.967 454.409,465.576 Q452.548,468.185 449.747,469.74 Q446.946,471.294 444.336,471.294 Q441.689,471.294 439.598,469.97 Q437.506,468.646 436.317,466.363 Q435.127,464.08 435.127,461.317 Q435.127,458.324 436.988,455.734 Q438.849,453.144 441.65,451.59 Q444.451,450.036 447.061,450.036 Q449.708,450.036 451.819,451.36 z M441.938,455.178 Q440.96,456.636 440.96,459.475 Q440.96,462.967 442.418,465.269 Q443.876,467.572 446.562,467.572 Q450.476,467.572 450.476,461.778 Q450.476,458.324 449.018,456.022 Q447.56,453.72 444.835,453.72 Q442.917,453.72 441.938,455.178 z" fill="#000000"/>
        <path d="M485.01,470.91 L477.144,470.91 L477.144,458.247 Q477.144,456.214 476.53,455.427 Q475.916,454.64 474.381,454.64 Q473.23,454.64 472.079,455.024 Q470.927,455.408 469.469,456.482 L469.469,467.725 L472.923,468.991 L471.964,470.91 L460.682,470.91 L460.682,469.337 L464.097,466.574 L464.097,456.597 L460.682,454.525 L460.682,452.952 L467.819,449.691 L469.162,454.449 L474.342,450.343 Q475.148,450.036 476.568,450.036 Q479.292,450.036 480.904,451.628 Q482.516,453.221 482.516,455.945 L482.516,467.725 L485.969,468.991 z" fill="#000000"/>
        <path d="M499.418,464.694 Q498.286,463.85 495.984,462.622 Q492.991,461.01 491.379,459.725 Q489.768,458.439 489.768,456.713 Q489.768,455.331 490.995,453.758 Q492.223,452.185 494.008,451.11 Q495.792,450.036 497.288,450.036 Q499.13,450.036 501.567,450.477 Q504.003,450.919 505.116,451.456 L505.116,457.557 L503.274,457.557 Q502.161,455.37 500.607,454.142 Q499.053,452.914 497.442,452.914 Q496.406,452.914 495.792,453.47 Q495.178,454.027 495.178,454.832 Q495.178,455.868 496.348,456.751 Q497.519,457.633 499.898,458.9 Q501.893,459.974 503.063,460.722 Q504.233,461.471 505.078,462.449 Q505.922,463.427 505.922,464.617 Q505.922,466.037 504.636,467.591 Q503.351,469.145 501.528,470.219 Q499.706,471.294 498.171,471.294 Q496.176,471.294 493.47,470.852 Q490.765,470.411 489.614,469.874 L489.614,463.658 L491.456,463.658 Q492.722,465.922 494.506,467.169 Q496.291,468.416 498.094,468.416 Q499.168,468.416 499.859,467.84 Q500.55,467.265 500.55,466.459 Q500.55,465.538 499.418,464.694 z" fill="#000000"/>
        <path d="M541.3,470.91 L533.434,470.91 L533.434,467.572 L529.098,470.987 Q528.331,471.294 527.179,471.294 Q523.726,471.294 522.172,469.586 Q520.618,467.879 520.618,465.461 Q520.618,464.041 521.596,462.679 Q522.575,461.317 524.378,460.089 L533.434,460.089 L533.434,458.324 Q533.434,453.95 528.753,453.95 Q526.297,453.95 522.46,456.521 L521.309,454.794 L526.757,450.458 Q528.369,450.036 530.786,450.036 Q534.585,450.036 536.695,451.839 Q538.806,453.643 538.806,457.096 L538.806,467.648 L542.259,468.991 z M533.434,465.308 L533.434,462.046 L526.872,462.046 Q526.105,462.967 526.105,464.272 Q526.105,465.538 526.815,466.401 Q527.525,467.265 528.676,467.265 Q530.825,467.265 533.434,465.308 z" fill="#000000"/>
        <path d="M553.732,470.219 L553.732,477.164 L559.296,478.737 L558.337,480.656 L544.945,480.656 L544.945,479.083 L548.36,476.358 L548.36,456.597 L544.945,454.525 L544.945,452.952 L552.082,449.691 L553.425,454.449 L558.644,450.343 Q559.872,450.036 561.445,450.036 Q563.632,450.036 565.378,451.36 Q567.124,452.684 568.121,454.947 Q569.119,457.211 569.119,459.974 Q569.119,462.967 567.258,465.576 Q565.397,468.185 562.596,469.739 Q559.795,471.293 557.186,471.293 L557.147,471.293 Q555.267,471.293 553.732,470.219 z M556.591,454.813 Q555.305,455.293 553.694,456.597 L553.694,462.929 Q553.694,464.924 555.171,466.248 Q556.648,467.572 559.373,467.572 Q563.325,467.572 563.325,461.816 Q563.325,458.631 562.289,456.482 Q561.253,454.333 559.296,454.333 Q557.876,454.333 556.591,454.813 z" fill="#000000"/>
        <path d="M582.318,470.219 L582.318,477.164 L587.882,478.737 L586.923,480.656 L573.531,480.656 L573.531,479.083 L576.947,476.358 L576.947,456.597 L573.531,454.525 L573.531,452.952 L580.669,449.691 L582.012,454.449 L587.23,450.343 Q588.458,450.036 590.031,450.036 Q592.218,450.036 593.964,451.36 Q595.71,452.684 596.708,454.947 Q597.705,457.211 597.705,459.974 Q597.705,462.967 595.844,465.576 Q593.983,468.185 591.182,469.739 Q588.381,471.293 585.772,471.293 L585.734,471.293 Q583.853,471.293 582.318,470.219 z M585.177,454.813 Q583.892,455.293 582.28,456.597 L582.28,462.929 Q582.28,464.924 583.757,466.248 Q585.235,467.572 587.959,467.572 Q591.911,467.572 591.911,461.816 Q591.911,458.631 590.875,456.482 Q589.839,454.333 587.882,454.333 Q586.463,454.333 585.177,454.813 z" fill="#000000"/>
        <path d="M612.516,470.91 L601.235,470.91 L601.235,469.337 L604.65,466.574 L604.65,444.012 L601.235,441.671 L601.235,440.098 L608.181,437.412 L610.022,437.412 L610.022,467.725 L613.476,468.991 z" fill="#000000"/>
        <path d="M637.611,452.031 L627.827,470.948 L619.423,481.078 L617.581,479.658 Q619.654,477.318 620.785,475.553 Q621.917,473.788 622.397,472.003 Q622.877,470.219 622.915,467.917 L618.272,456.636 L614.627,454.487 L614.627,452.914 L621.956,449.691 L623.414,455.485 L627.903,466.42 L633.007,456.06 L627.711,452.338 L628.671,450.42 L637.611,450.458 z" fill="#000000"/>
        <path d="M645.151,465.269 Q646.014,466.19 646.014,467.572 Q646.014,468.569 645.381,469.413 Q644.748,470.257 643.808,470.775 Q642.868,471.293 641.985,471.293 Q640.642,471.293 639.76,470.353 Q638.877,469.413 638.877,468.032 Q638.877,467.073 639.51,466.209 Q640.144,465.346 641.084,464.847 Q642.024,464.348 642.906,464.348 Q644.288,464.348 645.151,465.269 z" fill="#000000"/>
      </g>
    </g>
    <g>
      <g>
        <g>
          <path d="M52.555,228.934 Q59.599,232.852 63.438,239.817 Q67.277,246.782 67.277,255.568 Q67.277,264.591 61.499,272.229 Q55.721,279.867 47.133,284.339 Q38.546,288.81 30.789,288.81 Q27.306,288.81 23.745,288.415 Q17.809,288.019 14.643,288.019 L1.425,288.019 L1.425,282.953 L8.865,277.096 L8.865,234.198 L0,231.507 L2.849,225.808 L14.563,225.808 Q21.845,225.808 28.81,225.333 Q34.034,225.016 36.409,225.016 Q45.511,225.016 52.555,228.934 z M41.791,278.284 Q45.748,275.434 48.004,270.487 Q50.26,265.541 50.26,259.367 Q50.26,252.006 48.083,245.951 Q45.906,239.896 41.435,236.295 Q36.963,232.694 30.314,232.694 Q27.227,232.694 24.536,234.277 L24.536,279.708 Q28.177,281.054 33.005,281.054 L33.084,281.133 Q37.833,281.133 41.791,278.284 z" fill="#000000"/>
          <path d="M100.598,288.019 L74.638,288.019 L74.638,282.953 L81.682,276.938 L81.682,260.079 L74.638,255.41 L74.638,250.423 L90.705,243.696 L96.324,243.696 L96.324,279.946 L103.448,282.241 z M95.018,222.127 Q97.353,224.462 97.353,227.866 Q97.353,230.319 95.652,232.417 Q93.95,234.514 91.378,235.781 Q88.805,237.047 86.431,237.047 Q82.79,237.047 80.376,234.712 Q77.962,232.377 77.962,228.974 Q77.962,226.52 79.664,224.423 Q81.365,222.325 83.977,221.059 Q86.589,219.793 88.964,219.793 Q92.684,219.793 95.018,222.127 z" fill="#000000"/>
          <path d="M148.127,250.859 Q152.837,257.309 152.679,269.023 L124.422,269.023 Q125.293,273.218 127.667,275.711 Q130.042,278.204 133.841,278.204 Q139.461,278.204 150.225,273.376 L152.599,278.284 L141.202,287.465 Q136.216,288.81 129.25,288.81 Q123.314,288.81 118.565,286.08 Q113.816,283.349 111.165,278.6 Q108.513,273.851 108.513,267.994 Q108.513,261.662 112.629,256.241 Q116.745,250.819 122.918,247.613 Q129.092,244.408 134.87,244.408 Q143.418,244.408 148.127,250.859 z M125.728,256.478 Q124.106,258.655 123.947,263.166 L138.036,263.166 Q137.561,258.655 135.899,256.478 Q134.237,254.301 130.596,254.301 Q127.351,254.301 125.728,256.478 z" fill="#000000"/>
          <path d="M242.038,273.851 L244.175,278.996 L229.611,287.94 Q225.575,289.048 221.855,289.365 Q218.135,289.681 213.861,289.681 Q204.125,289.681 196.646,285.645 Q189.166,281.608 185.011,274.524 Q180.856,267.44 180.856,258.417 Q180.856,249.157 186.99,241.282 Q193.124,233.406 202.265,228.855 Q211.407,224.304 219.639,224.304 Q224.783,224.304 231.59,225.491 Q238.397,226.679 241.563,228.024 L241.563,247.89 L232.777,247.89 Q226.208,234.198 215.048,234.198 Q210.299,234.198 206.381,236.849 Q202.463,239.501 200.208,244.17 Q197.952,248.84 197.952,254.618 Q197.952,261.504 200.168,267.203 Q202.384,272.902 206.975,276.305 Q211.565,279.708 218.293,279.708 Q218.689,279.708 221.103,279.708 Q223.517,279.708 226.287,279.392 L226.287,264.67 L213.465,261.583 L216.314,255.885 L249.478,255.885 L249.478,260.871 L242.038,267.44 z" fill="#000000"/>
          <path d="M295.661,250.859 Q300.371,257.309 300.212,269.023 L271.956,269.023 Q272.827,273.218 275.201,275.711 Q277.576,278.204 281.375,278.204 Q286.994,278.204 297.759,273.376 L300.133,278.284 L288.736,287.465 Q283.749,288.81 276.784,288.81 Q270.848,288.81 266.099,286.08 Q261.35,283.349 258.699,278.6 Q256.047,273.851 256.047,267.994 Q256.047,261.662 260.163,256.241 Q264.279,250.819 270.452,247.613 Q276.626,244.408 282.404,244.408 Q290.952,244.408 295.661,250.859 z M273.262,256.478 Q271.64,258.655 271.481,263.166 L285.57,263.166 Q285.095,258.655 283.433,256.478 Q281.771,254.301 278.13,254.301 Q274.885,254.301 273.262,256.478 z" fill="#000000"/>
          <path d="M359.337,288.099 L340.42,288.098 L340.42,282.162 L332.822,288.256 Q330.289,288.89 326.965,288.89 Q321.741,288.89 317.586,286.159 Q313.43,283.428 311.095,278.64 Q308.76,273.851 308.76,268.073 Q308.76,261.742 312.876,256.32 Q316.992,250.898 323.166,247.693 Q329.339,244.487 335.117,244.487 Q337.966,244.487 340.42,245.833 L340.42,235.306 L333.376,230.636 L333.376,225.57 L349.443,218.922 L355.063,218.922 L355.063,279.946 L362.186,282.32 z M340.42,275.118 L340.42,260.871 Q339.945,258.022 337.412,256.201 Q334.88,254.381 330.526,254.381 Q324.194,254.381 324.194,264.353 Q324.194,269.894 326.213,273.495 Q328.231,277.096 332.109,277.096 L332.03,277.017 Q336.621,277.017 340.42,275.118 z" fill="#000000"/>
          <path d="M413,288.019 L394.083,288.019 L394.083,281.133 L385.139,288.177 Q383.556,288.81 381.182,288.81 Q373.346,288.81 369.864,284.972 Q366.381,281.133 366.381,275.751 Q366.381,272.664 368.281,269.656 Q370.18,266.649 373.663,264.116 L394.083,264.116 L394.083,263.799 Q394.083,259.684 391.827,257.665 Q389.572,255.647 385.852,255.647 Q380.39,255.647 370.576,259.446 L368.201,254.539 L379.124,245.753 Q383.319,244.408 389.018,244.408 Q398.357,244.408 403.541,248.603 Q408.726,252.798 408.726,260.792 L408.726,279.471 L415.849,282.241 z M394.083,273.93 L394.083,269.894 L381.657,269.894 Q380.786,271.319 380.786,272.981 Q380.786,274.801 382.092,275.87 Q383.398,276.938 385.693,276.938 Q389.413,276.938 394.083,273.93 z" fill="#000000"/>
          <path d="M472.52,287.94 L453.603,287.94 L453.603,263.087 Q453.603,259.525 452.535,258.022 Q451.466,256.518 448.854,256.518 Q445.134,256.518 441.335,258.655 L441.335,279.867 L448.458,282.162 L445.609,287.94 L419.648,287.94 L419.648,282.874 L426.692,276.859 L426.692,260.238 L419.648,255.726 L419.648,250.661 L437.061,243.696 L440.227,252.56 L449.567,245.041 Q451.704,244.408 454.553,244.408 Q460.806,244.408 464.526,247.693 Q468.246,250.977 468.246,256.597 L468.246,279.946 L475.369,282.162 z" fill="#000000"/>
          <path d="M506.396,282.241 L503.546,288.019 L477.585,288.019 L477.585,282.953 L484.63,276.938 L484.63,235.306 L477.585,230.636 L477.585,225.57 L493.653,218.922 L499.272,218.922 L499.272,279.946 z M531.723,288.019 L514.469,288.019 L502.201,266.728 L515.735,256.122 L505.525,250.977 L508.374,245.199 L532.436,245.199 L532.436,250.265 L516.685,262.929 L526.579,279.154 L534.573,282.241 z" fill="#000000"/>
          <path d="M578.382,250.859 Q583.091,257.309 582.933,269.023 L554.677,269.023 Q555.547,273.218 557.922,275.711 Q560.296,278.204 564.095,278.204 Q569.715,278.204 580.479,273.376 L582.854,278.284 L571.456,287.465 Q566.47,288.81 559.505,288.81 Q553.568,288.81 548.819,286.08 Q544.071,283.349 541.419,278.6 Q538.768,273.851 538.768,267.994 Q538.768,261.662 542.883,256.241 Q546.999,250.819 553.173,247.613 Q559.346,244.408 565.124,244.408 Q573.672,244.408 578.382,250.859 z M555.982,256.478 Q554.36,258.655 554.202,263.166 L568.29,263.166 Q567.815,258.655 566.153,256.478 Q564.491,254.301 560.85,254.301 Q557.605,254.301 555.982,256.478 z" fill="#000000"/>
          <path d="M643.165,287.94 L624.248,287.94 L624.248,263.087 Q624.248,259.525 623.18,258.022 Q622.111,256.518 619.5,256.518 Q615.78,256.518 611.98,258.655 L611.98,279.867 L619.104,282.162 L616.254,287.94 L590.294,287.94 L590.294,282.874 L597.338,276.859 L597.338,260.238 L590.294,255.726 L590.294,250.661 L607.706,243.696 L610.872,252.56 L620.212,245.041 Q622.349,244.408 625.198,244.408 Q631.451,244.408 635.171,247.693 Q638.891,250.977 638.891,256.597 L638.891,279.946 L646.014,282.162 z" fill="#000000"/>
        </g>
        <g>
          <path d="M266.139,377.734 Q264.279,376.349 260.005,373.896 Q255.889,371.521 253.277,369.78 Q250.665,368.039 248.805,365.823 Q246.945,363.606 246.945,361.074 Q246.945,358.224 249.755,354.979 Q252.565,351.734 256.68,349.518 Q260.796,347.302 264.279,347.302 Q268.474,347.302 274.054,348.212 Q279.634,349.122 282.166,350.23 L282.166,363.686 L276.626,363.686 Q274.647,360.045 271.758,357.987 Q268.869,355.929 265.862,355.929 Q264.516,355.929 263.764,356.681 Q263.012,357.433 263.012,358.62 Q263.012,360.124 264.951,361.548 Q266.891,362.973 271.323,365.506 Q275.36,367.801 277.892,369.503 Q280.425,371.205 282.246,373.342 Q284.066,375.479 284.066,377.932 Q284.066,380.861 281.137,384.066 Q278.209,387.272 273.974,389.488 Q269.74,391.704 266.257,391.704 Q261.746,391.704 255.612,390.794 Q249.478,389.884 246.866,388.776 L246.866,374.687 L252.406,374.687 Q254.702,378.645 258.065,380.861 Q261.429,383.077 264.754,383.077 Q266.178,383.077 267.088,382.325 Q267.999,381.573 267.999,380.465 Q267.999,379.12 266.139,377.734 z" fill="#000000"/>
          <path d="M315.963,390.913 L290.002,390.913 L290.002,385.847 L297.046,379.832 L297.046,362.973 L290.002,358.303 L290.002,353.317 L306.069,346.589 L311.689,346.589 L311.689,382.84 L318.812,385.135 z M310.383,325.021 Q312.718,327.356 312.718,330.76 Q312.718,333.213 311.016,335.311 Q309.314,337.408 306.742,338.674 Q304.17,339.941 301.795,339.941 Q298.154,339.941 295.74,337.606 Q293.326,335.271 293.326,331.868 Q293.326,329.414 295.028,327.317 Q296.73,325.219 299.342,323.953 Q301.954,322.686 304.328,322.686 Q308.048,322.686 310.383,325.021 z" fill="#000000"/>
          <path d="M375.562,390.834 L356.646,390.833 L356.646,365.981 Q356.646,362.419 355.577,360.915 Q354.509,359.411 351.897,359.411 Q348.177,359.411 344.378,361.548 L344.378,382.76 L351.501,385.056 L348.652,390.833 L322.691,390.834 L322.691,385.768 L329.735,379.753 L329.735,363.131 L322.691,358.62 L322.691,353.554 L340.103,346.589 L343.269,355.454 L352.609,347.935 Q354.746,347.302 357.595,347.302 Q363.848,347.302 367.568,350.586 Q371.288,353.871 371.288,359.491 L371.288,382.84 L378.412,385.056 z" fill="#000000"/>
          <path d="M433.341,390.992 L414.424,390.992 L414.424,385.056 L406.826,391.15 Q404.293,391.783 400.969,391.783 Q395.745,391.783 391.59,389.053 Q387.435,386.322 385.1,381.534 Q382.765,376.745 382.765,370.967 Q382.765,364.635 386.881,359.214 Q390.996,353.792 397.17,350.586 Q403.344,347.381 409.121,347.381 Q411.971,347.381 414.424,348.726 L414.424,338.2 L407.38,333.53 L407.38,328.464 L423.447,321.816 L429.067,321.816 L429.067,382.84 L436.19,385.214 z M414.424,378.012 L414.424,363.765 Q413.95,360.915 411.417,359.095 Q408.884,357.274 404.531,357.274 Q398.199,357.274 398.199,367.247 Q398.199,372.788 400.217,376.389 Q402.235,379.99 406.114,379.99 L406.035,379.911 Q410.625,379.911 414.424,378.012 z" fill="#000000"/>
          <path d="M497.293,321.855 Q501.093,322.686 502.755,323.636 L502.755,338.437 L497.214,338.437 Q495.236,334.796 492.465,332.699 Q489.695,330.601 486.846,330.601 Q484.234,330.601 482.73,332.817 Q481.226,335.034 481.226,339.228 L481.226,350.468 L494.207,350.468 L494.207,356.325 L481.226,356.325 L481.226,382.048 L493.573,385.135 L490.724,390.913 L459.539,390.913 L459.539,385.847 L466.584,379.832 L466.584,356.325 L458.431,356.325 L458.431,350.468 L466.584,350.468 L466.584,344.611 Q466.584,338.358 470.343,332.897 Q474.103,327.435 479.722,324.23 Q485.342,321.024 490.487,321.024 Q493.494,321.024 497.293,321.855 z" fill="#000000"/>
          <path d="M518.426,361.39 L518.426,381.969 L530.774,385.056 L527.924,390.834 L496.739,390.834 L496.739,385.768 L503.784,379.753 L503.784,363.131 L496.739,358.62 L496.739,353.554 L514.152,346.589 L517.16,355.137 L524.125,347.935 Q525.787,347.302 527.845,347.302 Q532.515,347.302 535.72,349.32 Q538.926,351.338 540.192,354.9 L531.961,365.268 L526.341,365.268 Q526.262,362.103 525.589,360.797 Q524.917,359.491 523.413,359.491 Q520.801,359.491 518.426,361.39 z" fill="#000000"/>
          <path d="M582.497,353.752 Q587.207,360.203 587.048,371.917 L558.792,371.917 Q559.663,376.112 562.037,378.605 Q564.412,381.098 568.211,381.098 Q573.831,381.098 584.595,376.27 L586.969,381.177 L575.572,390.359 Q570.585,391.704 563.62,391.704 Q557.684,391.704 552.935,388.974 Q548.186,386.243 545.535,381.494 Q542.883,376.745 542.883,370.888 Q542.883,364.556 546.999,359.134 Q551.115,353.713 557.288,350.507 Q563.462,347.302 569.24,347.302 Q577.788,347.302 582.497,353.752 z M560.098,359.372 Q558.476,361.548 558.317,366.06 L572.406,366.06 Q571.931,361.548 570.269,359.372 Q568.607,357.195 564.966,357.195 Q561.721,357.195 560.098,359.372 z" fill="#000000"/>
          <path d="M619.737,390.913 L593.776,390.913 L593.776,385.847 L600.82,379.832 L600.82,362.973 L593.776,358.303 L593.776,353.317 L609.843,346.589 L615.463,346.589 L615.463,382.84 L622.586,385.135 z M614.157,325.021 Q616.492,327.356 616.492,330.76 Q616.492,333.213 614.79,335.311 Q613.089,337.408 610.516,338.674 Q607.944,339.941 605.569,339.941 Q601.929,339.941 599.514,337.606 Q597.1,335.271 597.1,331.868 Q597.1,329.414 598.802,327.317 Q600.504,325.219 603.116,323.953 Q605.728,322.686 608.102,322.686 Q611.822,322.686 614.157,325.021 z" fill="#000000"/>
          <path d="M643.64,376.785 Q646.015,379.12 646.015,382.523 Q646.015,384.977 644.313,387.074 Q642.611,389.172 640.039,390.438 Q637.466,391.704 635.092,391.704 Q631.53,391.704 629.077,389.369 Q626.623,387.035 626.623,383.71 Q626.623,381.257 628.325,379.12 Q630.026,376.983 632.638,375.716 Q635.25,374.45 637.625,374.45 Q641.266,374.45 643.64,376.785 z" fill="#000000"/>
        </g>
      </g>
      <path d="M674.989,347.539 L676.572,330.126 L685.832,326.565 L692.164,334.796 L689.711,339.149 L682.271,337.962 L676.334,348.331 z M674.672,347.46 L673.327,348.251 L659.001,338.12 L660.584,328.385 L670.873,326.96 L673.406,331.314 L668.736,337.091 z M696.043,357.195 L691.056,357.195 L688.365,350.23 L676.414,350.23 L676.414,348.647 L692.323,341.366 L700,347.539 z M657.18,357.354 L649.503,351.101 L653.46,341.524 L658.447,341.524 L661.138,348.489 L673.089,348.489 L673.089,350.072 z M674.514,351.101 L672.931,368.593 L663.671,372.075 L657.339,363.923 L659.792,359.57 L667.153,360.757 L673.169,350.388 z M690.502,360.599 L688.919,370.334 L678.63,371.759 L676.097,367.406 L680.846,361.548 L674.831,351.259 L676.176,350.468 z" fill="#B20000"/>
    </g>
  </g>
</svg>
