<svg xmlns="http://www.w3.org/2000/svg" width="700" height="700"><g fill="none" fill-rule="evenodd"><path fill="#FFF" d="M0 0h700v700H0z"/><g fill-rule="nonzero"><path fill="#ED3338" d="M348.53 657.63c-3.76-4.58-14.47-15.75-20.97-21.97-20.4-19.5-38.35-34.33-67.18-55.57-5.77-4.2-17.03-12.08-39.46-27.37-46.04-31.4-67.92-49.88-79.63-67.28-6.69-9.97-11.9-22.15-15.75-37.16-2.38-9.15-3.11-15.47-3.2-26.27-.1-12.45 1.28-22.15 4.57-33.23 3.76-12.72 10.44-25.9 18.13-35.6 11.62-14.93 28.74-26.65 47.78-32.96 16.84-5.59 36.16-8.06 52.27-6.87 22.33 1.74 40.92 9.07 60.6 23.9 12.17 9.15 25.35 22.33 39.72 39.63 2.48 2.93 4.58 5.4 4.76 5.5.19 0 1.29-1.29 2.57-2.85 10.52-13.36 29.38-32.67 40-40.73 19.77-15.1 35.97-22.06 57.76-25.08 5.58-.73 22.52-.64 28.74.27 20.6 2.75 36.25 7.88 50.35 16.48 20.5 12.45 35.51 32.22 43.3 56.85 5.3 16.84 6.59 35.33 3.75 52.35-1.1 6.78-4.58 19.04-7.6 26.73-1.83 4.76-6.5 13.92-9.34 18.13-10.16 15.38-27.46 31.03-60.32 54.37-8.33 5.95-11.72 8.24-24.8 17.21-5.87 4.03-22.52 15.47-29.3 20.23-5.58 3.94-16.38 12-31.4 23.62-2.56 2.01-11.99 9.7-16.75 13.73-14.37 12.17-34.78 31.85-42.93 41.46-2.1 2.48-3.84 4.4-4.03 4.4 0-.1-.82-.92-1.64-1.92Z"/><path fill="#383433" d="M289.42 69.21c-8.48 0-11.45 2.72-11.45 10.96v37.32c0 8.24 2.97 10.96 11.45 10.96h29c5.35 0 8.07-2.47 8.07-7 0-4.78-2.88-7.42-8.32-7.42H297v-9.14h16.56c4.78 0 7.33-2.4 7.33-6.92 0-4.78-2.47-6.68-7.74-6.68H297v-7.9h20.27c5.35 0 8.07-2.48 8.07-6.93 0-4.7-2.88-7.25-8.32-7.25h-27.6Zm65 51V77.04c0-5.6-3.3-8.65-9.47-8.65-6.02 0-9.48 3.3-9.48 8.98v43.17c0 5.68 3.3 8.65 9.48 8.65 6.01 0 9.47-3.3 9.47-8.98Zm30.32.33v-19.86c0-2.63-.08-5.27-.5-8.07a38.83 38.83 0 0 0 4.2 9.89l12.2 19.93c3.05 5.03 6.42 6.76 11.78 6.76 6.59 0 10.05-3.38 10.05-10.05v-42.1c0-5.68-3.13-8.65-9.06-8.65-5.69 0-9.06 3.3-9.06 8.98v19.77c0 2.56 0 5.27.49 8.08-1.48-4.12-2.97-7.5-4.61-10.14l-12.2-20.02c-2.8-4.61-6.1-6.67-10.79-6.67-6.67 0-10.54 3.62-10.54 9.72v42.1c0 5.68 3.37 8.98 9.06 8.98 5.93 0 8.98-2.97 8.98-8.65Zm-246.2 67.3v14.75c0 5.69 3.54 8.98 9.55 8.98 6.18 0 9.48-3.05 9.48-8.65v-43.17c0-5.68-3.55-8.98-9.56-8.98-6.18 0-9.47 3.05-9.47 8.65v12.28h-17.72v-12.28c0-5.6-3.3-8.65-9.47-8.65-6.02 0-9.48 3.3-9.48 8.98v43.17c0 5.69 3.3 8.65 9.48 8.65 6.01 0 9.47-3.3 9.47-8.98v-14.74h17.72Zm41.68-36.24c-8.48 0-11.45 2.72-11.45 10.95v37.32c0 8.24 2.97 10.96 11.45 10.96h29c5.36 0 8.07-2.47 8.07-7 0-4.78-2.88-7.42-8.32-7.42H187.8v-9.14h16.56c4.78 0 7.33-2.39 7.33-6.92 0-4.78-2.47-6.67-7.74-6.67H187.8v-7.91h20.27c5.35 0 8.07-2.47 8.07-6.92 0-4.7-2.88-7.25-8.32-7.25h-27.6Zm64.75 51.49V190.4h8.08c5.77 0 7.33 1.65 7.99 7.58.58 5.52.5 9.3 3.3 11.62 1.73 1.4 3.87 2.06 6.5 2.06 5.93 0 9.31-2.72 9.31-7.17 0-1.9-.5-4.12-.82-6.76-.41-3.54-.5-5.85-.82-6.84-1.32-4.44-3.8-6.42-9.48-7.57 7.09-2.64 10.3-7.34 10.3-14.83 0-12.53-7.91-16.9-24.8-16.9h-16.89c-8.48 0-11.45 2.73-11.45 10.96v40.2c0 5.7 3.46 8.99 9.31 8.99 6.01 0 9.47-3.13 9.47-8.65Zm0-26.04v-11.12h8.16c5.6 0 8.49.9 8.49 5.27 0 4.78-2.4 5.85-8 5.85h-8.65ZM291.7 167h10.54v35.6c0 5.68 3.54 8.97 9.56 8.97 6.18 0 9.47-3.05 9.47-8.65V167h10.55c5.43 0 8.24-2.63 8.24-7.33 0-5.27-2.8-8.07-8.33-8.07h-39.87c-5.44 0-8.4 2.72-8.4 7.74 0 5.03 2.8 7.66 8.24 7.66Zm74.47 28.59 23.97-27.1c2.8-3.13 4.54-5.6 4.54-9.15 0-4.7-3.55-7.74-10.14-7.74H350.6c-5.6 0-8.32 2.55-8.32 7.66 0 5.02 2.8 7.66 8.24 7.66h18.37l-23.4 27.1c-2.63 3.05-4.61 5.44-4.61 9.07 0 5.1 3.38 7.74 10.13 7.74h36.17c5.44 0 8.24-2.63 8.24-7.33 0-5.36-2.64-7.91-8.32-7.91h-20.93Zm82.63-5.6H461c5.68 0 8.4-2.23 8.4-7 0-5.03-2.56-7.34-7.91-7.34h-12.69v-9.14h17.63c5.27 0 8.08-2.55 8.08-7.25 0-5.03-2.8-7.66-8.33-7.66h-24.96c-8.48 0-11.45 2.72-11.45 10.95v40.2c0 5.7 3.54 8.99 9.56 8.99 6.18 0 9.47-2.97 9.47-8.65v-13.1Zm32.87-.41c0 14.58 9.97 22.9 27.19 22.9s27.1-8.32 27.1-22.9v-29.83c0-5.68-3.54-8.98-9.47-8.98-6.18 0-9.56 3.05-9.56 8.65v28.67c0 6.26-2.14 9.23-8.07 9.23-6.1 0-8.16-2.88-8.16-9.23v-28.67c0-5.6-3.37-8.65-9.55-8.65-5.93 0-9.48 3.3-9.48 8.98v29.83Zm14.17-49.6a5.75 5.75 0 0 0 5.52 5.52 5.52 5.52 0 0 0 5.52-5.52 5.42 5.42 0 0 0-5.52-5.52 5.52 5.52 0 0 0-5.52 5.52Zm15 0a5.75 5.75 0 0 0 5.52 5.52 5.52 5.52 0 0 0 5.52-5.52 5.42 5.42 0 0 0-5.52-5.52 5.52 5.52 0 0 0-5.52 5.52Zm55.03 63.1V190.4h8.07c5.77 0 7.33 1.65 8 7.58.57 5.52.49 9.3 3.29 11.62 1.73 1.4 3.87 2.06 6.5 2.06 5.94 0 9.32-2.72 9.32-7.17 0-1.9-.5-4.12-.83-6.76-.4-3.54-.5-5.85-.82-6.84-1.32-4.44-3.79-6.42-9.47-7.57 7.08-2.64 10.3-7.34 10.3-14.83 0-12.53-7.92-16.9-24.8-16.9h-16.9c-8.48 0-11.44 2.73-11.44 10.96v40.2c0 5.7 3.46 8.99 9.3 8.99 6.02 0 9.48-3.13 9.48-8.65Zm0-26.03v-11.12h8.16c5.6 0 8.48.9 8.48 5.27 0 4.78-2.39 5.85-8 5.85h-8.64Zm-496.6 95.32h12.18c5.69 0 8.4-2.22 8.4-7 0-5.03-2.55-7.33-7.9-7.33H69.25v-9.15h17.63c5.27 0 8.07-2.55 8.07-7.25 0-5.02-2.8-7.66-8.32-7.66H61.67c-8.48 0-11.45 2.72-11.45 10.96v40.2c0 5.69 3.54 8.98 9.56 8.98 6.18 0 9.47-2.96 9.47-8.65v-13.1Zm51.81 13.1v-12.69h8.07c5.77 0 7.34 1.65 8 7.58.57 5.52.49 9.31 3.29 11.62 1.73 1.4 3.87 2.06 6.5 2.06 5.94 0 9.32-2.72 9.32-7.17 0-1.9-.5-4.12-.83-6.75-.4-3.55-.49-5.85-.82-6.84-1.32-4.45-3.79-6.43-9.47-7.58 7.08-2.64 10.3-7.33 10.3-14.83 0-12.52-7.91-16.89-24.8-16.89h-16.9c-8.48 0-11.44 2.72-11.44 10.96v40.2c0 5.69 3.46 8.98 9.3 8.98 6.02 0 9.48-3.13 9.48-8.65Zm0-26.03v-11.12h8.16c5.6 0 8.48.9 8.48 5.27 0 4.78-2.39 5.85-7.99 5.85h-8.65Zm55.53-25.46c-8.49 0-11.45 2.72-11.45 10.96v37.32c0 8.24 2.96 10.95 11.45 10.95h29c5.35 0 8.07-2.47 8.07-7 0-4.78-2.88-7.41-8.32-7.41h-21.17v-9.15h16.55c4.78 0 7.34-2.39 7.34-6.92 0-4.78-2.47-6.67-7.75-6.67h-16.14v-7.9h20.26c5.36 0 8.08-2.48 8.08-6.93 0-4.7-2.89-7.25-8.32-7.25h-27.6Zm77.77 46.14c-1.07.33-2.23.49-3.46.49-8.57 0-12.2-5.44-12.2-16.97 0-11.53 3.71-16.97 12.11-16.97 8.74 0 12.03 5.68 12.03 17.88 0 2.38-.33 4.86-.9 7.25l-3.3-3.55a4.47 4.47 0 0 0-3.3-1.23c-3.2 0-6.17 3.05-6.17 6.01 0 1.15.4 2.14.99 2.8l4.2 4.29Zm15.65 16.39c1.32 1.32 2.47 2.06 3.79 2.06 3.38 0 6.5-3.13 6.5-6.1 0-1.23-.57-2.72-1.72-3.95l-3.87-4.2c4.53-5.85 6.83-12.69 6.83-20.68 0-19.28-11.7-31.22-30.73-31.22s-30.8 12.1-30.8 31.55c0 18.62 11.94 30.9 30.4 30.9 5.92 0 10.87-1.16 14.74-3.22l4.86 4.86Zm20.1-24.55c0 14.58 9.97 22.9 27.19 22.9s27.1-8.32 27.1-22.9v-29.82c0-5.69-3.54-8.98-9.47-8.98-6.18 0-9.56 3.05-9.56 8.65v28.67c0 6.26-2.14 9.22-8.07 9.22-6.1 0-8.16-2.88-8.16-9.22V241.8c0-5.6-3.38-8.65-9.55-8.65-5.94 0-9.48 3.3-9.48 8.98v29.82ZM367 233.98c-8.49 0-11.46 2.72-11.46 10.96v37.32c0 8.24 2.97 10.95 11.46 10.95h29c5.35 0 8.07-2.47 8.07-7 0-4.78-2.89-7.41-8.32-7.41h-21.18v-9.15h16.56c4.78 0 7.34-2.39 7.34-6.92 0-4.78-2.48-6.67-7.75-6.67h-16.15v-7.9h20.27c5.36 0 8.07-2.48 8.07-6.93 0-4.7-2.88-7.25-8.32-7.25h-27.6Zm64 51.33v-19.86c0-2.63-.08-5.27-.49-8.07a38.83 38.83 0 0 0 4.2 9.88l12.2 19.94c3.05 5.03 6.42 6.76 11.78 6.76 6.59 0 10.05-3.38 10.05-10.05v-42.1c0-5.69-3.13-8.65-9.06-8.65-5.69 0-9.07 3.3-9.07 8.98v19.77c0 2.55 0 5.27.5 8.07-1.48-4.12-2.97-7.5-4.61-10.13l-12.2-20.02c-2.8-4.61-6.1-6.67-10.79-6.67-6.67 0-10.54 3.62-10.54 9.72v42.1c0 5.68 3.37 8.98 9.06 8.98 5.93 0 8.98-2.97 8.98-8.65Zm69.54-7.34 23.97-27.1c2.8-3.13 4.53-5.6 4.53-9.14 0-4.7-3.54-7.75-10.13-7.75h-33.94c-5.6 0-8.32 2.55-8.32 7.66 0 5.03 2.8 7.66 8.24 7.66h18.37l-23.4 27.1c-2.64 3.06-4.61 5.45-4.61 9.07 0 5.1 3.37 7.74 10.13 7.74h36.17c5.43 0 8.24-2.63 8.24-7.33 0-5.35-2.64-7.9-8.33-7.9h-20.92Zm47.95-43.99c-8.49 0-11.46 2.72-11.46 10.96v37.32c0 8.24 2.97 10.95 11.46 10.95h29c5.35 0 8.07-2.47 8.07-7 0-4.78-2.88-7.41-8.32-7.41h-21.17v-9.15h16.55c4.78 0 7.34-2.39 7.34-6.92 0-4.78-2.47-6.67-7.75-6.67h-16.14v-7.9h20.26c5.36 0 8.08-2.48 8.08-6.93 0-4.7-2.89-7.25-8.33-7.25h-27.6Zm64 51.33v-19.86c0-2.63-.07-5.27-.49-8.07a38.83 38.83 0 0 0 4.2 9.88l12.2 19.94c3.05 5.03 6.42 6.76 11.78 6.76 6.59 0 10.05-3.38 10.05-10.05v-42.1c0-5.69-3.13-8.65-9.06-8.65-5.69 0-9.06 3.3-9.06 8.98v19.77c0 2.55 0 5.27.49 8.07-1.48-4.12-2.97-7.5-4.61-10.13l-12.2-20.02c-2.8-4.61-6.1-6.67-10.79-6.67-6.67 0-10.54 3.62-10.54 9.72v42.1c0 5.68 3.37 8.98 9.06 8.98 5.93 0 8.98-2.97 8.98-8.65Z"/></g></g></svg>