<?xml version="1.0" encoding="UTF-8"?>
<svg width="500px" height="500px" viewBox="0 0 500 500" version="1.1" xmlns="http://www.w3.org/2000/svg" xmlns:xlink="http://www.w3.org/1999/xlink">
    <!-- Generator: Sketch 58 (84663) - https://sketch.com -->
    <title>Artboard</title>
    <desc>Created with Sketch.</desc>
    <g id="Artboard" stroke="none" stroke-width="1" fill="none" fill-rule="evenodd">
        <g id="Logo" fill-rule="nonzero">
            <g id="Background" fill="#FFFFFF">
                <path d="M250,500 C111.928571,500 0,388.071429 0,250 C0,111.928571 111.928571,0 250,0 C388.071429,0 500,111.928571 500,250 C500,388.071429 388.071429,500 250,500 Z" id="Path"></path>
            </g>
            <g id="Flaggen" transform="translate(63.000000, 116.000000)">
                <path d="M264.458,305.123 L355.978,51.843 L348.57,47.485 C326.342,27.437 316.752,14.797 293.216,5.644 C257.013,-8.437 226.968,19.154 196.022,27.437 C148.473,40.161 104.705,36.834 64.607,10.248 C60.299,7.391 58.818,4.585 55.454,0.658 C27.124,32.042 5.237,72.438 1.013,119.139 C0.89,120.503 1.226,121.273 1.449,122.624 C11.038,130.469 80.093,195.289 176.416,160.857 C215.372,146.932 241.357,162.599 274.919,183.521 C280.379,186.926 280.045,186.871 283.199,189.186 L241.793,314.711 L252.69,311.661 L264.458,305.123" id="Black" fill="#22B573"></path>
                <path d="M118.545455,89.6363636 L118.545455,79.9090909 L50.4545455,79.9090909 L50.4545455,89.6363636 L40.7272727,89.6363636 L40.7272727,118.818182 L50.4545455,118.818182 L50.4545455,128.545455 L60.1818182,128.545455 L60.1818182,138.272727 L108.818182,138.272727 L108.818182,128.545455 L118.545455,128.545455 L118.545455,118.818182 L128.272727,118.818182 L128.272727,89.6363636 L118.545455,89.6363636 Z M79.6363636,109.090909 L79.6363636,118.818182 L89.3636364,118.818182 L89.3636364,109.090909 L99.0909091,109.090909 L99.0909091,128.545455 L69.9090909,128.545455 L69.9090909,109.090909 L79.6363636,109.090909 Z M60.1818182,99.3636364 L60.1818182,109.090909 L50.4545455,109.090909 L50.4545455,99.3636364 L60.1818182,99.3636364 Z M118.545455,99.3636364 L118.545455,109.090909 L108.818182,109.090909 L108.818182,99.3636364 L118.545455,99.3636364 Z M138,128.545455 L128.272727,128.545455 L128.272727,138.272727 L118.545455,138.272727 L118.545455,148 L50.4545455,148 L50.4545455,138.272727 L40.7272727,138.272727 L40.7272727,128.545455 L31,128.545455 L31,89.6363636 L31,50.7272727 L40.7272727,50.7272727 L40.7272727,41 L60.1818182,41 L60.1818182,50.7272727 L69.9090909,50.7272727 L69.9090909,60.4545455 L99.0909091,60.4545455 L99.0909091,50.7272727 L108.818182,50.7272727 L108.818182,41 L128.272727,41 L128.272727,50.7272727 L138,50.7272727 L138,89.6363636 L138,128.545455 Z" id="Jugend-Hackt" fill="#FFFFFF" transform="translate(84.500000, 94.500000) rotate(23.000000) translate(-84.500000, -94.500000) "></path>
                <path d="M234.385,170.88 L179.773,321.729 C177.076,321.84 175.543,321.859 172.856,321.613 C168.065,321.174 165.342,320.578 160.798,318.998 L188.62,236.694 L184.261,233.643 C168.135,227.542 160.852,222.347 139.369,226.234 C93.605,234.515 33.768,213.128 11.388,166.334 C6.594,156.309 3.93,151.704 2.32,141.533 C1.659,137.344 1.445,134.934 1.44889174,130.693 C45.461,167.131 89.966,185.575 150.701,175.24 C179.239,170.384 197.433,155.459 224.359,166.087 C228.391,167.68 230.627,168.721 234.385,170.88" id="Red" fill="#F86D14"></path>
            </g>
            <path d="M249.997,500 C112.264,500 0,387.737 0,250.003 C0,112.269 112.264,0 249.997,0 C387.731,0 500,112.269 500,250.003 C500,387.737 387.731,500 249.997,500 Z M249.997,443.168 C357.018,443.168 443.168,357.024 443.168,250.003 C443.168,142.982 357.018,56.832 249.997,56.832 C142.978,56.832 56.832,142.982 56.832,250.003 C56.832,357.024 142.978,443.168 249.997,443.168 Z" id="Circles" fill="#00A5DC"></path>
            <path d="M128.295772,43.2543816 L121.971601,46.9996931 L134.170355,67.5947964 L134.891461,68.7808386 C136.339825,71.206743 138.193206,74.815992 135.669273,76.3107195 C134.636756,76.922199 132.83028,76.4230526 131.968607,75.6549261 L130.676236,82.6962171 C133.261689,83.431361 136.486203,83.381266 138.852389,81.9799589 C141.777856,80.2474339 143.731801,77.4631746 143.957378,74.0172909 C144.210108,70.3228859 142.767452,67.6906349 140.983971,64.6791248 L128.295772,43.2543816 Z M152.682864,30.319945 L159.989352,51.6534336 L160.204696,52.2621095 C163.25187,60.6023151 169.136591,65.5915343 178.466897,62.3960059 C187.909616,59.1619772 189.424794,51.4685692 186.582196,42.8878996 L179.17234,21.2475874 L172.218853,23.6290813 L179.195042,44.0021603 L179.472606,44.8533803 C180.818885,49.1212125 181.760245,54.5031192 176.393215,56.3412686 C170.662319,58.3040383 168.136801,52.6650035 166.614991,48.3106911 L159.636352,27.9384511 L152.682864,30.319945 Z M225.796581,29.602737 L226.309915,35.5807373 L234.280583,34.8962912 C234.520411,39.4424415 231.026751,43.7571647 226.443617,44.1507212 C219.36965,44.7581671 215.238054,38.1373731 214.703331,31.9102894 C214.168607,25.6832058 217.035495,18.1603436 224.109462,17.5528977 C227.995162,17.2192302 231.405874,19.5359185 233.191263,22.7951184 L239.367985,18.7518391 C235.986673,13.2710338 230.129149,10.5120626 223.752616,11.0596195 C212.543865,12.0221219 206.211472,21.8499294 207.131197,32.5605133 C208.020977,42.9223804 215.741162,51.5936683 226.70083,50.6525549 C238.232585,49.6623159 242.879244,39.9814045 242.095748,29.5009982 L241.986998,28.2124558 L225.796581,29.602737 Z M285.822226,18.9863211 L286.722677,12.6499824 L267.416645,9.90642105 L262.112426,47.2314162 L281.418458,49.9749776 L282.318909,43.6386389 L270.289766,41.9291891 L271.72486,31.8306493 L283.308479,33.4767861 L284.20893,27.1404474 L272.625311,25.4943106 L273.793083,17.2768713 L285.822226,18.9863211 Z M300.905731,53.3600511 L307.758422,56.0177069 L317.015019,32.1498328 L317.108253,32.1859914 L326.087392,63.9305981 L331.028788,65.8470029 L344.931763,29.9985749 L338.079072,27.3409191 L328.912872,50.9757085 L328.819638,50.9395499 L319.840498,19.1949432 L314.899103,17.2785384 L300.905731,53.3600511 Z M349.82126,73.0293654 L358.348748,79.0696011 C367.121044,85.2832407 377.980958,82.9269121 384.107895,74.2770199 C390.321535,65.5047235 389.075339,54.6346041 380.180639,48.3342625 L371.612349,42.2651262 L349.82126,73.0293654 Z M373.910869,51.7360981 L374.890102,52.4297136 C381.703932,57.2561221 382.674693,63.1518938 377.934986,69.8433198 C373.62879,75.9227252 367.882628,77.9798176 360.497579,72.7488 L359.518346,72.0551845 L373.910869,51.7360981 Z" id="Jugend" fill="#000000"></path>
            <path d="M166.883459,451.037658 L171.684373,436.985124 L164.729078,434.608914 L152.5409,470.284372 L159.496194,472.660582 L164.943696,456.71545 L177.813357,461.112247 L172.365856,477.057378 L179.321151,479.433588 L191.509329,443.75813 L184.554034,441.38192 L179.75312,455.434455 L166.883459,451.037658 Z M220.290725,480.176179 L222.174601,488.42624 L229.963076,489.407139 L220.610923,449.223595 L214.955598,448.51135 L195.535041,485.071191 L203.2243,486.039594 L207.293397,478.539265 L220.290725,480.176179 Z M219.006523,473.967046 L210.12667,472.848697 L215.956031,459.774636 L216.055248,459.787132 L219.006523,473.967046 Z M269.599266,452.863701 C266.957976,451.644648 264.009312,451.048508 261.066472,451.253909 C250.043289,452.02329 243.16959,461.976042 243.914602,472.650074 C244.638726,483.024834 253.106764,491.606053 263.681038,490.868004 C266.723636,490.655641 269.400816,489.516472 272.053627,488.028152 L271.444388,479.299387 C269.562988,481.78642 266.535517,483.651741 263.393162,483.871067 C256.559787,484.348014 251.927846,478.305859 251.485713,471.97127 C251.033136,465.487045 254.62073,458.72083 261.65362,458.229958 C264.795975,458.010632 267.992893,459.291147 270.211986,461.642344 L269.599266,452.863701 Z M293.427052,464.413739 L293.330385,464.439343 L289.259491,449.069312 L282.154477,450.95114 L291.806847,487.394545 L298.911861,485.512717 L294.572135,469.127685 L294.668802,469.102082 L310.656884,482.40194 L319.791902,479.982447 L299.997777,464.225144 L309.366197,443.743867 L300.617847,446.060948 L293.427052,464.413739 Z M333.997116,441.640979 L347.152748,470.042024 L340.483494,473.131285 L327.327862,444.730241 L320.431761,447.924579 L317.741792,442.117337 L338.203247,432.639398 L340.893217,438.44664 L333.997116,441.640979 Z" id="Hackt" fill="#000000"></path>
        </g>
    </g>
</svg>