<?xml version="1.0" encoding="UTF-8"?>
<svg width="420px" height="420px" viewBox="0 0 420 420" version="1.1" xmlns="http://www.w3.org/2000/svg" xmlns:xlink="http://www.w3.org/1999/xlink">
    <!-- Generator: Sketch 51.3 (57544) - http://www.bohemiancoding.com/sketch -->
    <title>kss</title>
    <desc>Created with Sketch.</desc>
    <defs></defs>
    <g id="Page-1" stroke="none" stroke-width="1" fill="none" fill-rule="evenodd">
        <g id="kss" fill="#000000" fill-rule="nonzero">
            <path d="M20,420 L0,420 L0,0 L20,0 L400,0 L420,0 L420,400 L420,420 L20,420 Z M20,400 L400,400 L400,20 L20,20 L20,400 Z M20,100 L400,100 L400,120 L20,120 L20,100 Z M20,200 L400,200 L400,220 L20,220 L20,200 Z M20,300 L400,300 L400,320 L20,320 L20,300 Z" id="frame"></path>
            <g id="text" transform="translate(36.000000, 20.000000)">
                <path d="M149,0 L163.856091,0 L163.856091,43.5397734 L181.683399,22.8555241 L198.48221,22.8555241 L177.569405,46.1681586 L200.310652,79.9943343 L184.197507,79.9943343 L168.770028,55.3103683 L163.856091,61.0242493 L163.856091,79.9943343 L149,79.9943343 L149,0 Z M252.649802,76.451728 C245.412183,79.2705901 238.707963,80.68 232.536941,80.68 C214.633357,80.68 205.6817,71.0045916 205.6817,51.6534844 C205.6817,41.8255599 207.852953,34.3785428 212.195524,29.3122096 C216.538095,24.2458765 222.861394,21.7127479 231.165609,21.7127479 C238.022301,21.7127479 243.507571,23.8459088 247.621586,28.1122946 C251.735601,32.3786804 253.792578,38.7019789 253.792578,47.0823796 C253.792578,50.4345399 253.640209,53.3676362 253.335467,55.8817564 L220.309235,55.8817564 C220.309235,60.3766986 221.528184,63.6907164 223.966119,65.8239093 C226.404054,67.9571023 229.679979,69.0236827 233.793994,69.0236827 C237.908009,69.0236827 243.355188,68.1094709 250.135694,66.2810198 L252.649802,76.451728 Z M239.507875,45.3682153 L239.507875,44.568272 C239.507875,41.0637407 238.746032,38.244921 237.222323,36.111728 C235.698614,33.9785351 233.298808,32.9119547 230.022833,32.9119547 C226.746858,32.9119547 224.30896,34.0928116 222.709065,36.4545609 C221.10917,38.8163102 220.271143,41.7874986 220.194958,45.3682153 L239.507875,45.3682153 Z M282.01915,14.2847025 L267.163059,14.2847025 L267.163059,0 L282.01915,0 L282.01915,14.2847025 Z M282.01915,79.9943343 L267.163059,79.9943343 L267.163059,22.8555241 L282.01915,22.8555241 L282.01915,79.9943343 Z M348.528725,79.9943343 L333.444079,79.9943343 L333.444079,45.8253258 C333.444079,42.7017219 332.834605,40.1685933 331.615637,38.225864 C330.39667,36.2831348 328.377786,35.3117847 325.558924,35.3117847 C322.740061,35.3117847 319.235583,37.064024 315.045382,40.5685552 L315.045382,79.9943343 L300.075014,79.9943343 L300.075014,22.8555241 L312.645552,22.8555241 L315.045382,27.998017 C318.321357,25.5600822 321.159223,23.9030733 323.559065,23.0269405 C325.958907,22.1508077 328.758681,21.7127479 331.95847,21.7127479 C337.062896,21.7127479 341.100665,23.407849 344.071898,26.798102 C347.043131,30.188355 348.528725,35.1974739 348.528725,41.8256091 L348.528725,79.9943343 Z" id="kein"></path>
                <path d="M35.2458101,164.886872 C40.4236758,167.514445 45.7367046,168.828212 51.1850559,168.828212 C56.6334071,168.828212 59.3575419,166.818921 59.3575419,162.800279 C59.3575419,159.090764 56.2663251,156.347309 50.0837989,154.569832 C47.4562252,153.874298 44.8480111,153.043534 42.2590782,152.077514 C39.6701453,151.111494 37.4676534,149.527246 35.6515363,147.324721 C33.8354192,145.122196 32.9273743,142.28214 32.9273743,138.804469 C32.9273743,133.162914 34.6661837,128.81589 38.1438547,125.763268 C41.6215258,122.710646 46.4708721,121.184358 52.6920391,121.184358 C58.9132062,121.184358 64.8058381,122.266283 70.3701117,124.430168 L67.9357542,136.486034 C62.83517,134.399431 57.850583,133.356145 52.9818436,133.356145 C49.5814541,133.356145 47.8812849,134.515352 47.8812849,136.833799 C47.8812849,139.229528 50.1610573,141.045618 54.7206704,142.282123 C59.5121282,143.518628 63.7625513,145.296078 67.472067,147.614525 C69.4041065,148.773749 71.0269953,150.512558 72.3407821,152.831006 C73.654569,155.149453 74.3114525,157.931548 74.3114525,161.177374 C74.3114525,167.282619 72.2635214,172.112645 68.1675978,175.667598 C64.0716741,179.22255 58.4302035,181 51.2430168,181 C44.05583,181 37.6415552,179.338471 32,176.015363 L35.2458101,164.886872 Z M123.694134,167.668994 L125.548883,178.101955 C118.825385,180.033995 113.493036,181 109.551676,181 C99.9687603,181 93.0521628,178.488386 88.801676,173.465084 C84.5511892,168.441781 82.4259777,161.119462 82.4259777,151.497905 C82.4259777,141.876349 84.6284696,134.418788 89.0335196,129.125 C93.4385695,123.831212 99.8528443,121.184358 108.276536,121.184358 C113.222557,121.184358 118.864028,122.111723 125.201117,123.96648 L119.752793,134.515363 C115.502306,133.201576 111.986047,132.544693 109.203911,132.544693 C106.421774,132.544693 104.238602,133.085656 102.65433,134.167598 C101.070057,135.24954 99.9301711,136.795148 99.2346369,138.804469 C98.0754132,142.127577 97.4958101,146.667802 97.4958101,152.425279 C97.4958101,158.182757 98.6936566,162.41386 101.089385,165.118715 C103.485114,167.82357 106.962733,169.175978 111.522346,169.175978 C116.081959,169.175978 120.139181,168.673655 123.694134,167.668994 Z M186.639665,180.304469 L171.569832,180.304469 L171.569832,145.643855 C171.569832,142.47531 170.951589,139.905736 169.715084,137.935056 C168.478579,135.964376 166.392007,134.97905 163.455307,134.97905 C160.518607,134.97905 156.925068,136.7565 152.674581,140.311453 L152.674581,180.304469 L137.604749,180.304469 L137.604749,99.1592179 L152.674581,99.1592179 L152.674581,127.560056 C155.997689,125.087045 158.876384,123.406196 161.310754,122.517458 C163.745124,121.62872 166.585179,121.184358 169.831006,121.184358 C175.008871,121.184358 179.104734,122.903847 182.118715,126.342877 C185.132697,129.781907 186.639665,134.863095 186.639665,141.586592 L186.639665,180.304469 Z M247.614525,176.710894 C240.272775,179.570312 233.472098,181 227.212291,181 C209.05112,181 199.97067,171.185387 199.97067,151.555866 C199.97067,141.586542 202.173162,134.032381 206.578212,128.893156 C210.983262,123.753931 217.397537,121.184358 225.821229,121.184358 C232.776571,121.184358 238.340761,123.348209 242.513966,127.675978 C246.687172,132.003746 248.773743,138.418021 248.773743,146.918994 C248.773743,150.319384 248.619182,153.29468 248.310056,155.844972 L214.808659,155.844972 C214.808659,160.404585 216.045146,163.766283 218.518156,165.930168 C220.991167,168.094052 224.314225,169.175978 228.48743,169.175978 C232.660635,169.175978 238.186185,168.248613 245.064246,166.393855 L247.614525,176.710894 Z M234.28352,145.180168 L234.28352,144.368715 C234.28352,140.813762 233.510715,137.954387 231.965084,135.790503 C230.419452,133.626619 227.985119,132.544693 224.662011,132.544693 C221.338903,132.544693 218.86593,133.742539 217.243017,136.138268 C215.620104,138.533997 214.770019,141.547933 214.692737,145.180168 L234.28352,145.180168 Z M277.406425,113.649441 L262.336592,113.649441 L262.336592,99.1592179 L277.406425,99.1592179 L277.406425,113.649441 Z M277.406425,180.304469 L262.336592,180.304469 L262.336592,122.343575 L277.406425,122.343575 L277.406425,180.304469 Z M348.234637,157.351955 C348.234637,165.002832 345.626423,170.856823 340.409916,174.914106 C335.19341,178.971389 327.755169,181 318.094972,181 C316.781185,181 315.544699,180.806799 314.385475,180.420391 L314.385475,168.480447 C326.518683,168.480447 332.585196,164.345945 332.585196,156.076816 C332.585196,152.830989 331.406669,149.913654 329.049581,147.324721 C326.692493,144.735788 323.350115,143.441341 319.022346,143.441341 L315.776536,143.441341 L315.776536,130.226257 L318.906425,130.226257 C321.533998,130.226257 323.929691,129.144331 326.093575,126.980447 C328.25746,124.816563 329.339385,122.304949 329.339385,119.445531 C329.339385,116.586112 328.566581,114.32566 327.02095,112.664106 C325.475318,111.002552 323.350107,110.171788 320.645251,110.171788 C315.853794,110.171788 312.723937,111.176433 311.255587,113.185754 C309.787237,115.195075 309.053073,118.324932 309.053073,122.575419 L309.053073,180.304469 L294.562849,180.304469 L294.562849,118.634078 C294.562849,111.524173 296.51418,106.307745 300.416899,102.984637 C304.319619,99.661529 310.502053,98 318.964385,98 C327.426718,98 333.879633,100.009291 338.323324,104.027933 C342.767015,108.046575 344.988827,112.953882 344.988827,118.75 C344.988827,129.02845 341.008885,134.785841 333.048883,136.022346 C337.453933,136.717881 341.086112,138.978333 343.945531,142.803771 C346.804949,146.629209 348.234637,151.478555 348.234637,157.351955 Z" id="scheiß"></path>
                <path d="M3.19977337,264.795411 C8.30419927,267.385716 13.5418712,268.68085 18.9129462,268.68085 C24.2840212,268.68085 26.9695184,266.700058 26.9695184,262.738414 C26.9695184,259.081511 23.9221457,256.376968 17.8273088,254.624703 C15.2370031,253.939033 12.6657824,253.120052 10.1135694,252.167734 C7.56135646,251.215415 5.39010338,249.653637 3.59974504,247.482351 C1.8093867,245.311066 0.914220963,242.511292 0.914220963,239.082946 C0.914220963,233.521408 2.62836813,229.23604 6.05671388,226.226714 C9.48505963,223.217388 14.2656256,221.712748 20.3985552,221.712748 C26.5314849,221.712748 32.3405391,222.779328 37.8258924,224.912521 L35.4260623,236.797394 C30.3978219,234.740386 25.4839333,233.711898 20.6842493,233.711898 C17.332089,233.711898 15.656034,234.854663 15.656034,237.140227 C15.656034,239.501976 17.9034714,241.292307 22.3984136,242.511275 C27.1219122,243.730242 31.3120497,245.482481 34.9689518,247.768045 C36.8735884,248.910827 38.4734591,250.624974 39.7686119,252.910538 C41.0637647,255.196102 41.7113314,257.938738 41.7113314,261.138527 C41.7113314,267.157178 39.692447,271.918698 35.6546176,275.423229 C31.6167881,278.927761 26.0553329,280.68 18.970085,280.68 C11.8848371,280.68 5.56153867,279.042037 0,275.766062 L3.19977337,264.795411 Z M90.3935977,267.538074 L92.2220397,277.823059 C85.5939045,279.727696 80.3371866,280.68 76.451728,280.68 C67.0047309,280.68 60.1862344,278.20401 55.996034,273.251955 C51.8058336,268.2999 49.7107649,261.081436 49.7107649,251.596346 C49.7107649,242.111256 51.8820179,234.759469 56.2245892,229.540765 C60.5671605,224.322061 66.890459,221.712748 75.1946742,221.712748 C80.0705437,221.712748 85.631999,222.62696 91.8792068,224.455411 L86.5081586,234.854674 C82.3179583,233.559521 78.8515718,232.911955 76.1088952,232.911955 C73.3662186,232.911955 71.2140116,233.445245 69.6522096,234.511841 C68.0904077,235.578438 66.966689,237.102124 66.2810198,239.082946 C65.1382379,242.358921 64.5668555,246.83475 64.5668555,252.510567 C64.5668555,258.186383 65.7477125,262.357475 68.1094618,265.023966 C70.4712111,267.690457 73.8995054,269.023683 78.3944476,269.023683 C82.8893898,269.023683 86.8890665,268.528485 90.3935977,267.538074 Z M152.446346,279.994334 L137.590255,279.994334 L137.590255,245.825326 C137.590255,242.701722 136.98078,240.168593 135.761813,238.225864 C134.542846,236.283135 132.485869,235.311785 129.590822,235.311785 C126.695774,235.311785 123.153203,237.064024 118.963003,240.568555 L118.963003,279.994334 L104.106912,279.994334 L104.106912,200 L118.963003,200 L118.963003,227.998017 C122.238978,225.560082 125.076844,223.903073 127.476686,223.026941 C129.876528,222.150808 132.676301,221.712748 135.876091,221.712748 C140.980517,221.712748 145.018285,223.407849 147.989518,226.798102 C150.960751,230.188355 152.446346,235.197474 152.446346,241.825609 L152.446346,279.994334 Z M185.3583,214.284703 L170.50221,214.284703 L170.50221,200 L185.3583,200 L185.3583,214.284703 Z M185.3583,279.994334 L170.50221,279.994334 L170.50221,222.855524 L185.3583,222.855524 L185.3583,279.994334 Z M223.755581,253.253371 L197.35745,253.253371 L197.35745,240.111445 L223.755581,240.111445 L223.755581,253.253371 Z" id="schi-"></path>
                <path d="M14.9714286,380 L0,380 L0,322.857143 L12.5714286,322.857143 L14.5142857,328 C17.7904926,325.561893 20.6285594,323.904766 23.0285714,323.028571 C25.4285834,322.152377 28.2285554,321.714286 31.4285714,321.714286 C37.2190766,321.714286 41.4476057,324.342831 44.1142857,329.6 C48.3809737,326.476175 51.8285583,324.380958 54.4571429,323.314286 C57.0857274,322.247614 59.9618891,321.714286 63.0857143,321.714286 C67.8095474,321.714286 71.5428434,323.447602 74.2857143,326.914286 C77.0285851,330.38097 78.4,335.466633 78.4,342.171429 L78.4,380 L63.4285714,380 L63.4285714,346.171429 C63.4285714,339.16187 61.3333543,335.657143 57.1428571,335.657143 C54.019032,335.657143 50.4381154,337.409506 46.4,340.914286 L46.4,380 L31.5428571,380 L31.5428571,346.171429 C31.5428571,339.16187 29.4857349,335.657143 25.3714286,335.657143 C22.3237943,335.657143 18.8571623,337.295222 14.9714286,340.571429 L14.9714286,380 Z M127.2,380 L124.914286,374.285714 C122.247606,376.723822 119.885725,378.419043 117.828571,379.371429 C115.771418,380.323814 113.295253,380.8 110.4,380.8 C105.523785,380.8 101.276209,379.104779 97.6571429,375.714286 C94.0380771,372.323793 92.2285714,367.809552 92.2285714,362.171429 C92.2285714,356.533305 94.4380731,352.095254 98.8571429,348.857143 C103.276213,345.619031 109.942813,344 118.857143,344 L123.542857,344 C123.542857,340.723793 122.761913,338.095248 121.2,336.114286 C119.638087,334.133323 117.257159,333.142857 114.057143,333.142857 C108.49521,333.142857 102.857171,333.904754 97.1428571,335.428571 L94.6285714,325.371429 C102.171466,322.933321 109.752343,321.714286 117.371429,321.714286 C131.238165,321.714286 138.171429,328.190411 138.171429,341.142857 L138.171429,380 L127.2,380 Z M123.314286,354.971429 L118.4,354.971429 C114.133312,354.971429 111.238103,355.542851 109.714286,356.685714 C108.190469,357.828577 107.428571,359.485703 107.428571,361.657143 C107.428571,363.828582 107.999994,365.599993 109.142857,366.971429 C110.28572,368.342864 111.771419,369.028571 113.6,369.028571 C116.190489,369.028571 119.428552,366.971449 123.314286,362.857143 L123.314286,354.971429 Z M202.857143,380 L187.771429,380 L187.771429,345.828571 C187.771429,342.704746 187.161911,340.171438 185.942857,338.228571 C184.723803,336.285705 182.704776,335.314286 179.885714,335.314286 C177.066653,335.314286 173.561926,337.066649 169.371429,340.571429 L169.371429,380 L154.4,380 L154.4,322.857143 L166.971429,322.857143 L169.371429,328 C172.647635,325.561893 175.485702,323.904766 177.885714,323.028571 C180.285726,322.152377 183.085698,321.714286 186.285714,321.714286 C191.390502,321.714286 195.428557,323.409507 198.4,326.8 C201.371443,330.190493 202.857143,335.199967 202.857143,341.828571 L202.857143,380 Z M220.342857,364.8 C225.447645,367.390489 230.685687,368.685714 236.057143,368.685714 C241.428598,368.685714 244.114286,366.704782 244.114286,362.742857 C244.114286,359.085696 241.066697,356.380961 234.971429,354.628571 C232.380939,353.942854 229.809537,353.123814 227.257143,352.171429 C224.704749,351.219043 222.533342,349.657154 220.742857,347.485714 C218.952372,345.314275 218.057143,342.514303 218.057143,339.085714 C218.057143,333.523782 219.771411,329.23811 223.2,326.228571 C226.628589,323.219033 231.409493,321.714286 237.542857,321.714286 C243.676221,321.714286 249.485687,322.780942 254.971429,324.914286 L252.571429,336.8 C247.542832,334.742847 242.628595,333.714286 237.828571,333.714286 C234.476174,333.714286 232.8,334.857131 232.8,337.142857 C232.8,339.504774 235.047597,341.295232 239.542857,342.514286 C244.26669,343.733339 248.457125,345.485703 252.114286,347.771429 C254.019057,348.914291 255.619041,350.62856 256.914286,352.914286 C258.20953,355.200011 258.857143,357.942841 258.857143,361.142857 C258.857143,367.161935 256.838115,371.923792 252.8,375.428571 C248.761885,378.933351 243.200035,380.685714 236.114286,380.685714 C229.028536,380.685714 222.70479,379.047635 217.142857,375.771429 L220.342857,364.8 Z M272.114286,300 L286.971429,300 L286.971429,343.542857 L304.8,322.857143 L321.6,322.857143 L300.685714,346.171429 L323.428571,380 L307.314286,380 L291.885714,355.314286 L286.971429,361.028571 L286.971429,380 L272.114286,380 L272.114286,300 Z M348.571429,314.285714 L333.714286,314.285714 L333.714286,300 L348.571429,300 L348.571429,314.285714 Z M348.571429,380 L333.714286,380 L333.714286,322.857143 L348.571429,322.857143 L348.571429,380 Z" id="manski"></path>
            </g>
        </g>
    </g>
</svg>