<svg xmlns="http://www.w3.org/2000/svg" viewBox="0 0 1000 600"><defs/><g fill="none" fill-rule="evenodd"><g transform="translate(0 515)"><path fill="#B20" d="M0 0h1000v35a50 50 0 0 1-50 50H50A50 50 0 0 1 0 35V0z"/><path fill="#FFF" fill-rule="nonzero" d="M135 16.25h11.56v52.57H135V16.25zm56.62 17.67a9.44 9.44 0 0 0-1.33-3.64 11.62 11.62 0 0 0-6.07-4.86c-1.3-.47-2.66-.7-4.09-.7-2.6 0-4.8.5-6.62 1.5a12.41 12.41 0 0 0-4.42 4.06 17.74 17.74 0 0 0-2.47 5.78 28.77 28.77 0 0 0 0 13.14 17.41 17.41 0 0 0 2.47 5.63c1.13 1.67 2.6 3 4.42 4.02 1.81 1 4.02 1.5 6.62 1.5 3.54 0 6.3-1.08 8.29-3.23 1.98-2.16 3.2-5.01 3.64-8.55h11.2a26.72 26.72 0 0 1-2.29 8.91 20.66 20.66 0 0 1-11.93 11.04 25.9 25.9 0 0 1-8.9 1.48c-4.03 0-7.65-.7-10.87-2.1a23.27 23.27 0 0 1-8.13-5.78 25.59 25.59 0 0 1-5.08-8.65 31.75 31.75 0 0 1-1.77-10.71c0-3.93.59-7.57 1.77-10.94a26.26 26.26 0 0 1 5.08-8.8c2.2-2.5 4.92-4.46 8.13-5.88A26.55 26.55 0 0 1 180.13 15c2.9 0 5.64.42 8.21 1.25 2.58.84 4.89 2.05 6.92 3.65a19.7 19.7 0 0 1 5.05 5.92 21.19 21.19 0 0 1 2.5 8.1h-11.19zm19.36-17.67h11.56v20.18h21.28V16.25h11.56v52.57h-11.56V46.14h-21.28v22.68h-11.56V16.25zm74.74 0h11.56v21.8l20.54-21.8h14.43L311.7 37.01l22.53 31.81h-14.5L303.9 45.2l-6.62 6.7v16.93h-11.56V16.25zm66.26 32.25h13.62l-6.62-19.29h-.15l-6.85 19.3zm1.1-32.25h11.86l19.66 52.57h-12l-3.98-11.7h-19.66l-4.12 11.7H333.2l19.88-52.57zm80.55 32.7c0 7.11-1.98 12.4-5.96 15.86-3.98 3.46-9.47 5.19-16.5 5.19-7.1 0-12.62-1.72-16.52-5.15-3.9-3.44-5.85-8.74-5.85-15.9v-32.7h11.55v32.7c0 1.42.13 2.81.37 4.19a8.52 8.52 0 0 0 1.55 3.64 8.53 8.53 0 0 0 3.28 2.58c1.4.66 3.27 1 5.63 1 4.12 0 6.97-.93 8.54-2.77 1.57-1.84 2.35-4.72 2.35-8.65V16.25h11.56v32.7zm9.8-32.7h36.96v9.72h-25.4v12.15H477v8.98h-22v21.72h-11.56V16.25zm43.51 0h39.32v9.72H498.5v11.27h25.48v8.98H498.5V59.1h28.35v9.72h-39.9V16.25zm67.89 0h11.56v20.18h21.27V16.25h11.56v52.57h-11.56V46.14H566.4v22.68h-11.56V16.25zm54.4 0h11.57v52.57h-11.56V16.25zm21.58 0h39.32v9.72h-27.76v11.27h25.47v8.98h-25.47V59.1h28.35v9.72H630.8V16.25zm59.12 23.78h12.67c2.65 0 4.64-.59 5.96-1.76 1.33-1.18 1.99-3.1 1.99-5.75 0-2.55-.66-4.4-1.99-5.56-1.32-1.15-3.31-1.73-5.96-1.73h-12.67v14.8zm-11.56-23.78h28.35c2.36 0 4.48.38 6.37 1.14 1.89.76 3.5 1.8 4.86 3.13a13.58 13.58 0 0 1 3.1 4.6 14.75 14.75 0 0 1 1.06 5.64c0 3.09-.65 5.76-1.95 8.02-1.3 2.26-3.43 3.98-6.37 5.16v.14a8.92 8.92 0 0 1 5.82 4.68c.58 1.1 1.01 2.32 1.28 3.64.27 1.33.46 2.65.56 3.98.04.83.1 1.81.14 2.94.05 1.13.14 2.29.26 3.46.12 1.18.32 2.3.59 3.35a7.74 7.74 0 0 0 1.21 2.7H712.1a20.38 20.38 0 0 1-1.18-5.97c-.15-2.3-.37-4.52-.67-6.63-.39-2.75-1.22-4.76-2.5-6.04-1.28-1.27-3.36-1.91-6.26-1.91h-11.56v20.54h-11.56V16.25zm73.34 0h39.31v9.72h-27.75v11.27h25.47v8.98h-25.47V59.1h28.34v9.72h-39.9V16.25zm47.56 0h11.56v52.57h-11.56V16.25zm21.57 0h11.49l21.94 35.27h.15V16.25h10.82v52.57h-11.56l-21.87-35.2h-.14v35.2h-10.83V16.25z"/></g><path fill="#B20" d="M50 0h900a50 50 0 0 1 50 50v150H0V50A50 50 0 0 1 50 0z"/><path fill="#FFF" fill-rule="nonzero" d="M281 17.28h21.02v36.68h38.69V17.28h21.01v95.58h-21.01V71.63H302v41.23h-21V17.28zM404.03 75.9h24.76l-12.05-35.07h-.26L404.03 75.9zm2-58.63h21.56l35.74 95.58H441.5l-7.23-21.29h-35.74l-7.5 21.29h-21.15l36.14-95.58zm65.33 0h21.02v77.9h46.59v17.68h-67.6V17.28zm79.12 0h21.02v77.9h46.58v17.68h-67.6V17.28zm95.98 48.19a49 49 0 0 0 1.4 11.71c.94 3.8 2.44 7.2 4.5 10.24a22.98 22.98 0 0 0 8.02 7.3c3.3 1.83 7.32 2.74 12.05 2.74s8.75-.91 12.05-2.74a22.98 22.98 0 0 0 8.03-7.3A31.66 31.66 0 0 0 697 77.18c.93-3.8 1.4-7.7 1.4-11.71 0-4.2-.47-8.26-1.4-12.18a32.26 32.26 0 0 0-4.49-10.51 22.75 22.75 0 0 0-8.03-7.37c-3.3-1.82-7.32-2.74-12.05-2.74s-8.74.92-12.05 2.74a22.75 22.75 0 0 0-8.03 7.37 32.26 32.26 0 0 0-4.48 10.5 52.3 52.3 0 0 0-1.4 12.19zm-21.02 0c0-7.14 1.08-13.77 3.22-19.88a47.75 47.75 0 0 1 9.23-16 42.23 42.23 0 0 1 14.8-10.7c5.84-2.6 12.42-3.89 19.74-3.89 7.41 0 14.01 1.3 19.81 3.88a42.39 42.39 0 0 1 14.73 10.71 47.75 47.75 0 0 1 9.24 16 59.72 59.72 0 0 1 3.21 19.88c0 6.96-1.07 13.45-3.21 19.48a46.52 46.52 0 0 1-9.24 15.73 42.46 42.46 0 0 1-14.73 10.5c-5.8 2.55-12.4 3.82-19.8 3.82-7.33 0-13.9-1.27-19.75-3.82a42.31 42.31 0 0 1-14.8-10.5 46.52 46.52 0 0 1-9.23-15.73 57.73 57.73 0 0 1-3.22-19.48zM221 131.25h16.27l12.3 36.15h.14l11.64-36.15h16.27v52.57H266.8v-37.25h-.15l-12.89 37.25h-8.9l-12.89-36.89h-.15v36.9H221v-52.58zm66.63 0h39.32v9.72h-27.76v11.27h25.48v8.98h-25.48v12.88h28.35v9.72h-39.9v-52.57zm47.57 0h11.56v52.57H335.2v-52.57zm21.57 0h11.49l21.94 35.27h.14v-35.27h10.83v52.57H389.6l-21.87-35.2h-.15v35.2h-10.82v-52.57zm74.73 0H443l21.94 35.27h.15v-35.27h10.82v52.57h-11.56l-21.87-35.2h-.14v35.2H431.5v-52.57zm67.67 32.25h13.62l-6.63-19.29h-.15l-6.84 19.3zm1.1-32.25h11.85l19.66 52.57h-12l-3.97-11.7h-19.66l-4.13 11.7H480.4l19.88-52.57zm35.93 0h16.27l12.3 36.15h.15l11.63-36.15h16.27v52.57H582v-37.25h-.15l-12.88 37.25h-8.91l-12.89-36.89h-.15v36.9H536.2v-52.58zm66.63 0h39.32v9.72H614.4v11.27h25.48v8.98H614.4v12.88h28.35v9.72h-39.9v-52.57zm67.89 0h11.56v52.57h-11.56v-52.57zm29.45 35.12c0 1.77.32 3.27.96 4.5a8.36 8.36 0 0 0 2.54 2.98 11 11 0 0 0 3.72 1.69c1.42.37 2.9.55 4.41.55 1.03 0 2.14-.08 3.32-.26 1.17-.17 2.28-.5 3.31-1a7.23 7.23 0 0 0 2.58-2.02 5.08 5.08 0 0 0 1.03-3.27c0-1.43-.46-2.58-1.36-3.46a10.8 10.8 0 0 0-3.58-2.21 35.64 35.64 0 0 0-5-1.55c-1.87-.44-3.76-.93-5.67-1.47-1.97-.5-3.88-1.1-5.74-1.8a19.73 19.73 0 0 1-5.01-2.76 13 13 0 0 1-3.57-4.24 12.85 12.85 0 0 1-1.36-6.15c0-2.7.57-5.04 1.73-7.03a15.68 15.68 0 0 1 4.52-4.97 19.73 19.73 0 0 1 6.34-2.94c2.35-.64 4.7-.96 7.06-.96 2.75 0 5.4.3 7.92.92 2.53.61 4.77 1.6 6.74 2.98a15.08 15.08 0 0 1 4.67 5.27 16.14 16.14 0 0 1 1.73 7.76h-11.19a9.3 9.3 0 0 0-1-3.9 6.5 6.5 0 0 0-2.24-2.43c-.93-.59-2-1-3.2-1.25-1.2-.24-2.52-.37-3.94-.37-.93 0-1.87.1-2.8.3-.93.2-1.78.54-2.54 1.03a6.4 6.4 0 0 0-1.88 1.84 4.94 4.94 0 0 0-.73 2.8c0 1.03.2 1.86.59 2.5a5.2 5.2 0 0 0 2.32 1.77c1.15.54 2.74 1.08 4.78 1.62s4.7 1.22 7.99 2.06c.98.2 2.34.55 4.09 1.07 1.74.51 3.47 1.33 5.19 2.46a15.68 15.68 0 0 1 4.45 4.53c1.25 1.89 1.88 4.3 1.88 7.25 0 2.4-.47 4.64-1.4 6.7a14.56 14.56 0 0 1-4.16 5.34 20 20 0 0 1-6.85 3.5 32.37 32.37 0 0 1-9.46 1.25c-2.9 0-5.7-.36-8.43-1.07a21.2 21.2 0 0 1-7.21-3.35 16.55 16.55 0 0 1-4.97-5.81 17.36 17.36 0 0 1-1.77-8.4h11.19zm51.4-25.4H735.8v-9.72h43.07v9.72h-15.76v42.85h-11.56v-42.85z"/><path fill="#FFF" d="M0 200h1000v315H0z"/><path stroke="#000" stroke-linecap="round" stroke-width="30" d="M148.6 192.3c-1.61 4.65-3.68 9.19-4.85 13.98-5 20.62-15.18 81.07-28 110.45-13.8 31.62-20.54 123.53-43.2 97.5-13.34-17.17-20.69-33.84-21.99-50-.21-2.67 2.95-8.33 9.5-17 4-6.83 74.45 41.22 117.74 47.15 8.68 1.2 50.79 12.22 71.43 3.97.86-.34 1.1-1.47 1.65-2.2m111.5-144.62c-34.25 28.85-25.64 17.66-52.34 86.34-5.96 15.3-8.3 31.8-11.4 47.92a14 14 0 0 0 .7 8.03 10.74 10.74 0 0 0 5.03 5.24c63.02 30.42 94.95-35.08 103.24-86.2 3.02-18.61 4.55-51.8-18.86-59.76-7.86-2.66-17.62 1.98-24.8-2.17-6.89-3.98 15.84 1.83 23.8 1.6 6.97-.22 13.82-1.97 20.73-2.95m75.88.21c-7.1 75.43-5.8 119.07-30.59 182.63m113.99-184.35c-5.82 57.73-12 115.42-17.42 173.19a19.1 19.1 0 0 0 .5 6.77c1.02 3.7 1.33 8.2 4.26 10.67 2.42 2.03 6.35 1.47 9.44.82 3-.62 5.58-2.62 8.03-4.45.86-.65 1.08-1.85 1.62-2.77m-118.27-90.03c36.85 12.78 81.14 15.73 120.57 13.34m199.7-54.64c-15.58-30.45-59.82-34.44-86.3-15.69-9.46 6.7-23.63 28.87-20.37 41.47.86 3.35 3.65 6.33 6.74 7.87 20.33 10.16 42.09 17.19 62.68 26.83 14.88 6.96 15.85 26.88 14.03 40.36-.84 6.15-2.07 12.63-5.54 17.78-32.24 47.79-81.15 25.52-120.32-2.54m218.56-114.74c-21.5 32.3-32.66 72.67-31.77 111.49.7 30.43 31.1 43.76 57.23 39.2 13.58-2.37 26.16-8.68 39.23-13.01m-97.86-53.16l83.65 7.32m-48.27-88.17c33.23 10.63 67.6 13.18 102.18 16.2"/></g></svg>