<?xml version="1.0" encoding="UTF-8"?>
<!DOCTYPE svg PUBLIC "-//W3C//DTD SVG 1.1//EN" "http://www.w3.org/Graphics/SVG/1.1/DTD/svg11.dtd">
<svg version="1.1" xmlns="http://www.w3.org/2000/svg" xmlns:xlink="http://www.w3.org/1999/xlink" x="0" y="0" width="519.2" height="507" viewBox="0, 0, 519.2, 507">
  <g id="Ebene_1" transform="translate(-42, -36)">
    <g>
      <g>
        <path d="M461.193,346.218 C453.516,341.04 449.481,332.669 448.732,320.364 C448.174,311.194 449.09,304.284 453.034,287.933 C456.556,273.33 457.027,270.407 457.252,261.755 L457.447,254.234 L456.357,252.231 C455.757,251.129 455.162,250.239 455.035,250.254 C454.639,250.297 449.837,255.994 446.919,259.882 C440.557,268.358 436.946,276.72 436.288,284.498 L436.034,287.508 L433.981,287.934 C429.845,288.793 429.746,288.764 429.163,286.558 C428.384,283.61 428.752,276.246 429.84,273.008 C431.316,268.617 434.63,262.466 439.366,255.325 C444.623,247.397 448.051,241.136 449.313,237.156 C450.346,233.897 450.47,233.822 455.372,233.474 L458.773,233.233 L459.989,236.33 C462.886,243.706 463.952,248.894 464.299,257.298 C464.695,266.899 463.682,275.47 459.681,296.377 C456.213,314.498 456.256,314.084 457.286,319.72 C459.067,329.453 461.514,335.091 466.107,340.036 C467.214,341.228 467.248,341.376 466.972,343.768 C466.814,345.137 466.534,346.656 466.35,347.142 C465.824,348.532 464.189,348.24 461.193,346.218 z M425.984,307.281 L424.267,307.128 L424.478,305.554 C424.802,303.139 426.354,301.131 428.835,299.917 C430.76,298.975 431.654,298.826 437.201,298.519 C440.617,298.329 444.075,298.168 444.885,298.16 L446.358,298.145 L446.358,301.868 C446.358,306.27 447.485,305.66 437.299,306.774 C430.137,307.557 429.439,307.588 425.984,307.281 z M461.44,302.252 C461.115,300.958 461.532,298.384 462.309,296.88 C463.24,295.08 465.872,292.388 469.138,289.895 C472.504,287.326 475.425,284.328 476.4,282.442 C478.5,278.382 479.922,264.953 478.992,257.973 C477.724,248.465 472.804,237.88 466.388,230.86 C465.308,229.679 464.425,228.538 464.425,228.325 C464.425,228.112 466.31,226.193 468.614,224.06 C471.567,221.326 472.858,220.356 472.99,220.771 C473.51,222.406 480.064,234.633 481.537,236.715 C484.722,241.218 488.951,244.428 493.103,245.495 C494.072,245.744 495.53,246.204 496.345,246.517 C498.489,247.341 501.432,247.22 506.374,246.104 C513.768,244.435 516.121,244.909 517.816,248.41 C519.221,251.312 518.939,251.824 515.259,253.059 C508.807,255.224 500.304,255.317 491.783,253.317 C489.158,252.701 488.198,252.612 487.855,252.955 C487.34,253.469 487.312,256.855 487.778,262.404 C488.039,265.516 487.949,266.872 487.237,270.584 C485.074,281.866 480.846,290.123 473.911,296.612 C471.176,299.171 470.181,299.846 468.384,300.364 C467.179,300.711 465.18,301.504 463.942,302.125 L461.691,303.254 L461.44,302.252 z M439.196,232.948 C438.605,232.77 437.5,232.241 436.741,231.772 C435.608,231.072 435.361,230.683 435.361,229.607 L435.361,228.296 L438.012,228.036 C444.635,227.388 449.982,225.201 455.249,220.987 C460.868,216.491 465.735,210.011 473.655,196.48 C476.204,192.126 477.811,189.765 478.235,189.757 C479.029,189.74 480.832,191.806 481.158,193.105 C481.684,195.199 478.666,205.283 475.785,211.057 C470.222,222.211 460.882,229.802 449.304,232.58 C446.082,233.353 441.138,233.533 439.196,232.948 z M243.497,227.451 L179.87,227.252 L178.591,226.339 C176.982,225.192 174.526,220.201 173.433,215.862 C171.547,208.371 170.455,200.171 169.848,188.957 C169.621,184.745 169.067,175.643 168.617,168.73 C167.725,155.007 167.789,146.419 168.88,133.578 C170.526,114.201 173.517,102.58 177.538,99.945 C178.644,99.221 190.238,98.515 227.87,96.883 C263.269,95.347 301.513,96.61 323.012,100.024 C327.86,100.794 328.751,101.475 331.079,106.194 C333.432,110.965 334.78,116.387 335.131,122.488 C335.513,129.126 335.357,130.697 334.287,130.984 C332.918,131.351 328.54,131.255 327.766,130.84 C326.647,130.242 325.845,127.699 325.193,122.688 C323.81,112.058 321.931,109.559 313.897,107.661 C304.923,105.54 291.275,104.748 264.117,104.773 C237.725,104.797 217.34,105.609 196.886,107.452 C191.832,107.907 190.387,108.18 188.819,108.974 C184.755,111.034 181.719,115.845 179.859,123.173 C178.434,128.789 178.146,132.476 177.724,150.502 C177.116,176.418 178.103,188.968 181.802,202.392 C184.038,210.504 185.896,213.257 190.721,215.611 C196.086,218.228 193.985,218.135 247.229,218.119 C293.376,218.104 308.615,217.815 314.604,216.841 C320.177,215.934 323.372,210.153 325.206,197.657 C326.061,191.828 326.164,191.476 327.3,190.46 C329.605,188.401 332.626,188.648 333.912,191.003 C335.067,193.118 334.825,199.958 333.346,207.024 C331.439,216.135 329.691,222.302 328.674,223.512 C326.688,225.871 320.834,227.281 312.034,227.518 C309.334,227.591 278.492,227.561 243.497,227.451 z M422.596,221.004 C420.037,220.372 418.498,219.542 416.648,217.797 L415.141,216.376 L416.06,215.631 C417.483,214.479 420.557,213.707 426.131,213.103 C428.939,212.798 432.032,212.291 433.004,211.975 C443.687,208.506 450.349,204.236 458.984,195.324 C463.209,190.962 471.907,180.174 472.551,178.496 C472.682,178.155 473.389,177.96 474.49,177.96 C476.516,177.96 476.513,177.727 474.572,183.642 C470.189,197 461.146,208.055 448.227,215.85 C445.322,217.602 444.771,217.77 435.896,219.62 C425.91,221.702 425.564,221.738 422.596,221.004 z M232.836,212.727 C233.214,211.74 247.626,191.735 250.832,187.746 C257.432,179.532 267.075,169.42 270.723,166.888 C273.437,165.003 278.235,163.454 282.924,162.949 C288.508,162.347 334.414,162.369 369.966,162.99 C400.127,163.517 399.301,163.448 407.906,166.174 C410.571,167.018 412.826,167.634 412.917,167.543 C413.008,167.452 412.601,166.745 412.012,165.973 C410.626,164.156 407.548,162.135 404.329,160.929 C398.952,158.914 397.129,158.79 366.431,158.336 C338.75,157.927 326.298,157.633 293.182,156.608 L277.668,156.128 L275.365,154.979 C271.308,152.956 268.066,149.389 252.07,129.349 C243.575,118.707 236.624,109.905 236.624,109.789 C236.624,109.393 245.459,110.114 246.02,110.555 C246.327,110.797 250.454,116.179 255.19,122.516 C265.391,136.163 268.438,139.858 273.13,144.275 C277.777,148.649 279.407,149.726 282.31,150.337 C287.902,151.514 303.108,151.789 337.106,151.328 C376.52,150.793 389.731,151.077 395.888,152.592 C400.805,153.801 406.843,155.898 410.616,157.706 C412.208,158.469 413.58,159.025 413.664,158.941 C414.03,158.574 412.493,156.383 410.676,154.684 C404.978,149.354 396.492,146.034 385.873,144.979 C381.619,144.557 357.207,144.362 341.295,144.623 C336.326,144.705 326.429,144.768 319.3,144.763 C307.657,144.755 305.847,144.665 301.5,143.883 C295.743,142.847 289.305,140.78 285.517,138.753 C283.246,137.537 282.624,136.982 281.906,135.529 C279.839,131.351 279.622,119.976 281.435,110.896 L281.847,108.834 L284.961,108.834 C286.674,108.834 288.104,108.879 288.138,108.933 C288.172,108.987 288.312,113.361 288.449,118.653 C288.721,129.187 288.851,129.841 291.227,132.547 C292.959,134.519 294.049,135.017 297.721,135.51 C305.497,136.556 311.454,136.727 339.784,136.72 C357.267,136.716 371.708,136.883 374.543,137.123 C387.839,138.247 398.479,140.903 407.742,145.41 C412.233,147.595 412.734,147.959 415.937,151.361 C421.964,157.761 427.799,166.314 431.137,173.64 L432.658,176.978 L432.516,174.585 C432.199,169.248 424.339,156.236 412.035,140.681 C409.743,137.783 407.868,135.274 407.868,135.106 C407.868,134.541 409.605,133.578 410.624,133.578 C412.418,133.578 417.045,136.701 419.147,139.332 C429.876,152.753 436.578,163.683 439.702,172.854 C440.401,174.906 441.389,177.024 441.899,177.559 L442.825,178.533 L444.013,177.345 L445.201,176.157 L444.185,172.64 C441.916,164.786 439.44,159.93 429.899,144.611 C422.619,132.922 422.573,132.793 425.753,132.793 C427.13,132.793 427.969,133.153 430.32,134.753 C431.904,135.831 433.481,136.935 433.824,137.207 C434.828,138.005 442.694,151.344 445.423,156.876 C446.802,159.672 448.565,164.014 449.339,166.523 C451.393,173.176 451.399,173.184 453.635,171.221 C455.065,169.966 455.089,169.898 454.86,167.764 C454.327,162.789 451.468,153.858 448.077,146.58 C447.132,144.55 446.358,142.653 446.358,142.364 C446.358,142.075 446.87,141.266 447.495,140.566 C448.59,139.34 448.674,139.315 449.754,139.872 C451.58,140.816 454.711,144.239 456.046,146.751 C456.731,148.039 458.303,152.495 459.54,156.653 C460.777,160.811 461.93,164.214 462.103,164.214 C462.276,164.214 463.001,163.48 463.715,162.583 C467.012,158.445 468.207,157.869 469.855,159.624 C470.921,160.759 470.939,162.243 469.924,165.195 C468.874,168.246 468.915,169.092 470.138,169.649 C470.689,169.9 471.396,170.105 471.71,170.105 C472.481,170.105 472.427,171.126 471.515,173.776 C468.818,181.617 463.001,188.535 453.82,194.82 C445.1,200.79 433.785,204.522 423.055,204.967 C417.732,205.188 414.635,204.57 411.992,202.76 C409.96,201.369 409.887,200.149 411.76,198.887 C413.807,197.508 416.511,196.864 422.158,196.41 C439.693,195.003 452.962,188.631 462.595,176.993 C464.106,175.166 464.14,175.076 463.05,175.792 C451.089,183.64 438.056,189.37 428.182,191.122 C425.22,191.648 423.02,191.758 418.56,191.603 C412.433,191.391 408.775,190.655 404.541,188.783 C402.2,187.748 401.901,187.211 402.073,184.349 L402.173,182.687 L369.966,182.489 C352.253,182.38 333.614,182.292 328.546,182.292 C316.827,182.294 305.43,183.048 295.735,184.462 C291.158,185.13 290.357,185.726 288.827,189.601 C287.796,192.212 287.594,197.269 288.229,204.555 C288.625,209.092 288.143,211.764 286.754,212.736 C286.248,213.091 284.994,213.309 283.462,213.309 C280.52,213.309 280.521,213.31 279.868,207.986 C278.912,200.188 279.502,191.712 281.398,186.015 C282.158,183.73 282.484,183.288 284.429,181.894 C288.53,178.958 295.382,176.996 304.96,176.015 C307.307,175.774 317.108,175.601 327.74,175.612 C338.003,175.622 356.387,175.515 368.592,175.374 C382.801,175.21 394.726,175.276 401.745,175.559 C407.775,175.801 412.784,175.924 412.877,175.83 C413.268,175.44 408.676,173.233 405.93,172.493 C400.523,171.034 398.044,170.879 374.287,170.515 C361.325,170.316 340.293,169.945 327.548,169.692 C292.34,168.992 289.129,169.003 286.112,169.832 C280.781,171.296 276.119,173.54 272.169,176.541 C268.178,179.574 263.577,184.741 252.631,198.482 L240.82,213.309 L236.716,213.309 C233.253,213.309 232.647,213.218 232.836,212.727 z" fill="#000000" id="path2161"/>
        <path d="M220.228,120.657 L242.445,189.034 L184.28,146.775 L256.176,146.775 L198.011,189.034 z" fill="#000000" id="s"/>
      </g>
      <path d="M345.018,36 L340.941,82.271 L317.042,42.44 L359.789,60.617 L314.522,71.037 z" fill="#000000" id="s"/>
      <path d="M401.831,90.31 L380.117,131.373 L373.548,85.389 L405.891,118.729 L360.128,110.767 z" fill="#000000" id="s"/>
      <path d="M407.243,204.251 L370.667,232.883 L383.428,188.22 L399.356,231.854 L360.822,205.916 z" fill="#000000" id="s"/>
      <path d="M344.078,238.616 L341.923,285.016 L316.393,246.21 L359.857,262.599 L315.061,274.887 z" fill="#000000" id="s"/>
    </g>
    <g>
      <g>
        <path d="M107,363 L107,288 L110.9,288 L146.5,323.5 L182,288 L190.4,288 L190.4,363 L173.7,363 L173.7,317.2 L144.5,346.4 L115.4,317.2 L115.4,363 z" fill="#000000"/>
        <path d="M240.4,329.7 L240.4,321.3 Q240.4,317.9 237.95,315.45 Q235.5,313 232,313 L223.7,313 Q216.3,313 215.4,321.3 L207,321.3 Q209,304.7 223.7,304.7 L240.4,304.7 Q247.2,304.7 252.1,309.6 Q257,314.5 257,321.3 L257,363 L240.4,363 L240.4,354.7 Q239.4,363 232,363 L223.7,363 Q216.9,363 211.95,358.1 Q207,353.2 207,346.3 Q207,339.5 211.95,334.6 Q216.9,329.7 223.7,329.7 z M240.4,338 L232,338 Q228.6,338 226.15,340.45 Q223.7,342.9 223.7,346.3 Q223.7,349.7 226.15,352.2 Q228.6,354.7 232,354.7 Q235.5,354.7 237.95,352.2 Q240.4,349.7 240.4,346.3 z" fill="#000000"/>
        <path d="M290.4,304.7 L307.1,304.7 Q313.9,304.7 318.8,309.6 Q323.7,314.5 323.7,321.3 L323.7,346.3 Q323.7,353.1 318.8,358.05 Q313.9,363 307.1,363 L290.4,363 Q283.6,363 278.65,358.1 Q273.7,353.2 273.7,346.3 L273.7,321.3 Q273.7,314.5 278.65,309.6 Q283.6,304.7 290.4,304.7 z M290.4,321.3 L290.4,346.3 Q290.4,349.7 292.85,352.2 Q295.3,354.7 298.7,354.7 Q302.2,354.7 304.65,352.2 Q307.1,349.7 307.1,346.3 L307.1,321.3 Q307.1,317.9 304.65,315.45 Q302.2,313 298.7,313 Q295.3,313 292.85,315.45 Q290.4,317.9 290.4,321.3 z" fill="#000000"/>
        <path d="M382.1,321.3 L373.8,321.3 Q372.7,313 365.9,313 Q361.5,313 359.3,314.75 Q357.1,316.5 357.1,319.9 Q357.1,323.5 369.2,330 Q379.1,335.3 380.6,338.8 Q382.1,342.3 382.1,346.3 Q382.1,353.2 377.2,358.1 Q372.3,363 365.4,363 L357.1,363 Q340.4,363 340.4,346.3 L348.8,346.3 Q349.8,354.7 356.6,354.7 Q361.1,354.7 363.3,352.95 Q365.5,351.2 365.5,347.7 Q365.5,344.2 353.4,337.7 Q343.5,332.4 341.95,328.9 Q340.4,325.4 340.4,321.4 Q340.4,314.5 345.35,309.6 Q350.3,304.7 357.1,304.7 L365.4,304.7 Q381.1,304.7 382.1,321.3 z" fill="#000000"/>
      </g>
      <g>
        <path d="M92,427.25 Q91,443.95 75.4,443.95 L58.7,443.95 Q51.9,443.95 46.95,439.05 Q42,434.15 42,427.25 L42,385.65 Q42,378.85 46.85,373.9 Q51.7,368.95 58.7,368.95 L75.4,368.95 Q91.1,368.95 92,385.65 L83.7,385.65 Q82.7,377.25 75.4,377.25 L67,377.25 Q63.6,377.25 61.15,379.7 Q58.7,382.15 58.7,385.65 L58.7,427.25 Q58.7,430.65 61.15,433.15 Q63.6,435.65 67,435.65 L75.4,435.65 Q82.8,435.65 83.7,427.25 z" fill="#000000"/>
        <path d="M119.4,385.65 L136.1,385.65 Q142.9,385.65 147.8,390.55 Q152.7,395.45 152.7,402.25 L152.7,427.25 Q152.7,434.05 147.8,439 Q142.9,443.95 136.1,443.95 L119.4,443.95 Q112.6,443.95 107.65,439.05 Q102.7,434.15 102.7,427.25 L102.7,402.25 Q102.7,395.45 107.65,390.55 Q112.6,385.65 119.4,385.65 z M119.4,402.25 L119.4,427.25 Q119.4,430.65 121.85,433.15 Q124.3,435.65 127.7,435.65 Q131.2,435.65 133.65,433.15 Q136.1,430.65 136.1,427.25 L136.1,402.25 Q136.1,398.85 133.65,396.4 Q131.2,393.95 127.7,393.95 Q124.3,393.95 121.85,396.4 Q119.4,398.85 119.4,402.25 z" fill="#000000"/>
        <path d="M219.4,443.95 L202.8,443.95 L202.8,402.25 Q202.8,398.85 200.35,396.4 Q197.9,393.95 194.4,393.95 Q191,393.95 188.55,396.4 Q186.1,398.85 186.1,402.25 L186.1,443.95 L169.4,443.95 L169.4,385.65 L186.1,385.65 L186.1,393.95 Q186.6,389.75 188.7,387.7 Q190.8,385.65 194.4,385.65 L202.8,385.65 Q211.3,385.65 215.3,391.55 Q217.3,388.55 220.4,387.1 Q223.5,385.65 227.8,385.65 L236.1,385.65 Q242.9,385.65 247.85,390.55 Q252.8,395.45 252.8,402.25 L252.8,443.95 L236.1,443.95 L236.1,402.25 Q236.1,398.95 233.65,396.45 Q231.2,393.95 227.8,393.95 Q224.4,393.95 221.9,396.4 Q219.4,398.85 219.4,402.25 z" fill="#000000"/>
        <path d="M269.4,385.65 L286.1,385.65 L286.1,393.95 Q286.1,389.75 288.2,387.7 Q290.3,385.65 294.4,385.65 L302.8,385.65 Q309.6,385.65 314.5,390.55 Q319.4,395.45 319.4,402.25 L319.4,427.25 Q319.4,434.15 314.5,439.05 Q309.6,443.95 302.8,443.95 L286.1,443.95 L286.1,460.65 L269.4,460.65 z M286.1,435.65 L294.4,435.65 Q297.9,435.65 300.35,433.2 Q302.8,430.75 302.8,427.25 L302.8,402.25 Q302.8,398.85 300.35,396.4 Q297.9,393.95 294.4,393.95 Q291,393.95 288.55,396.4 Q286.1,398.85 286.1,402.25 z" fill="#000000"/>
        <path d="M386.1,385.65 L386.1,443.95 L369.5,443.95 L369.5,435.65 Q368.5,443.95 361.1,443.95 L352.8,443.95 Q346,443.95 341.05,439.05 Q336.1,434.15 336.1,427.25 L336.1,385.65 L352.8,385.65 L352.8,427.25 Q352.8,430.65 355.25,433.15 Q357.7,435.65 361.1,435.65 Q364.6,435.65 367.05,433.15 Q369.5,430.65 369.5,427.25 L369.5,385.65 z" fill="#000000"/>
        <path d="M411.2,368.95 L427.8,368.95 L427.8,385.65 L436.2,385.65 L436.2,393.95 L427.8,393.95 L427.8,427.25 Q427.8,431.35 430.5,433.5 Q433.2,435.65 435.4,435.65 L436.2,435.65 L436.2,443.95 L427.8,443.95 Q421,443.95 416.1,439.05 Q411.2,434.15 411.2,427.25 L411.2,393.95 L402.8,393.95 L402.8,385.65 L411.2,385.65 z" fill="#000000"/>
        <path d="M502.8,418.95 L469.5,418.95 L469.5,427.25 Q469.5,430.65 471.95,433.15 Q474.4,435.65 477.8,435.65 L486.2,435.65 Q494.5,435.65 494.5,427.25 L502.8,427.25 Q500.9,443.95 486.2,443.95 L469.5,443.95 Q462.7,443.95 457.75,439.05 Q452.8,434.15 452.8,427.25 L452.8,402.25 Q452.8,395.45 457.75,390.55 Q462.7,385.65 469.5,385.65 L486.2,385.65 Q493,385.65 497.9,390.55 Q502.8,395.45 502.8,402.25 z M469.5,410.65 L486.2,410.65 L486.2,402.25 Q486.2,398.85 483.75,396.4 Q481.3,393.95 477.8,393.95 Q474.4,393.95 471.95,396.4 Q469.5,398.85 469.5,402.25 z" fill="#000000"/>
        <path d="M536.2,443.95 L519.5,443.95 L519.5,385.65 L536.2,385.65 L536.2,402.25 Q537.2,393.95 541.35,389.8 Q545.5,385.65 552.9,385.65 L561.2,385.65 L561.2,402.25 L544.5,402.25 Q541.1,402.25 538.65,404.7 Q536.2,407.15 536.2,410.65 z" fill="#000000"/>
      </g>
      <g>
        <path d="M356.7,526.3 Q355.7,543 340.1,543 L323.4,543 Q316.6,543 311.65,538.1 Q306.7,533.2 306.7,526.3 L306.7,484.7 Q306.7,477.9 311.55,472.95 Q316.4,468 323.4,468 L340.1,468 Q355.8,468 356.7,484.7 L348.4,484.7 Q347.4,476.3 340.1,476.3 L331.7,476.3 Q328.3,476.3 325.85,478.75 Q323.4,481.2 323.4,484.7 L323.4,526.3 Q323.4,529.7 325.85,532.2 Q328.3,534.7 331.7,534.7 L340.1,534.7 Q347.5,534.7 348.4,526.3 z" fill="#000000"/>
        <path d="M373.4,543 L373.4,468 L390.1,468 L390.1,543 z" fill="#000000"/>
        <path d="M456.7,484.7 L456.7,543 L440.1,543 L440.1,534.7 Q439.1,543 431.7,543 L423.4,543 Q416.6,543 411.65,538.1 Q406.7,533.2 406.7,526.3 L406.7,484.7 L423.4,484.7 L423.4,526.3 Q423.4,529.7 425.85,532.2 Q428.3,534.7 431.7,534.7 Q435.2,534.7 437.65,532.2 Q440.1,529.7 440.1,526.3 L440.1,484.7 z" fill="#000000"/>
        <path d="M473.4,543 L473.4,468 L490.1,468 L490.1,493 Q490.6,488.8 492.7,486.75 Q494.8,484.7 498.4,484.7 L506.8,484.7 Q513.6,484.7 518.5,489.6 Q523.4,494.5 523.4,501.3 L523.4,526.3 Q523.4,533.1 518.5,538.05 Q513.6,543 506.8,543 z M490.1,534.7 L498.4,534.7 Q501.9,534.7 504.35,532.2 Q506.8,529.7 506.8,526.3 L506.8,501.3 Q506.8,497.9 504.35,495.45 Q501.9,493 498.4,493 Q495,493 492.55,495.45 Q490.1,497.9 490.1,501.3 z" fill="#000000"/>
      </g>
    </g>
  </g>
</svg>
