<svg xmlns="http://www.w3.org/2000/svg" width="700" height="700"><g fill="none" fill-rule="evenodd"><path fill="#EE1C25" d="M0 0h700v700H0z"/><g fill="#FF0" fill-rule="nonzero"><path d="M534.43 415.495c-8.872-5.983-13.535-15.657-14.4-29.877-.646-10.597.413-18.583 4.97-37.478 4.07-16.876 4.615-20.254 4.875-30.252l.226-8.692-1.26-2.314c-.693-1.274-1.381-2.302-1.528-2.285-.457.05-6.007 6.633-9.379 11.126-7.352 9.795-11.525 19.459-12.285 28.447l-.294 3.479-2.372.492c-4.78.993-4.894.96-5.568-1.59-.9-3.407-.475-11.917.782-15.659 1.706-5.074 5.536-12.182 11.009-20.435 6.075-9.162 10.036-16.397 11.495-20.996 1.193-3.766 1.337-3.853 7.002-4.255l3.93-.279 1.405 3.58c3.348 8.523 4.58 14.518 4.98 24.23.459 11.095-.712 21-5.336 45.16-4.008 20.942-3.958 20.464-2.768 26.977 2.059 11.247 4.886 17.763 10.194 23.477 1.28 1.378 1.319 1.549 1 4.313-.183 1.582-.506 3.338-.719 3.9-.608 1.605-2.497 1.268-5.96-1.069ZM493.74 370.5l-1.984-.177.244-1.819c.374-2.79 2.168-5.111 5.035-6.514 2.224-1.089 3.258-1.261 9.668-1.616 3.947-.22 7.944-.405 8.88-.415l1.702-.017v4.302c0 5.088 1.302 4.383-10.469 5.67-8.277.905-9.083.94-13.076.586Zm40.974-5.812c-.376-1.495.106-4.47 1.004-6.208 1.076-2.08 4.118-5.19 7.892-8.072 3.89-2.969 7.265-6.433 8.392-8.613 2.427-4.692 4.07-20.21 2.995-28.277-1.465-10.987-7.15-23.22-14.565-31.332-1.248-1.365-2.269-2.683-2.269-2.93 0-.246 2.179-2.463 4.841-4.928 3.413-3.16 4.905-4.28 5.057-3.801.601 1.89 8.175 16.02 9.878 18.425 3.68 5.204 8.567 8.913 13.365 10.146 1.12.288 2.805.82 3.747 1.182 2.478.952 5.879.812 11.59-.478 8.544-1.929 11.264-1.38 13.222 2.665 1.624 3.354 1.298 3.945-2.955 5.373-7.456 2.502-17.282 2.609-27.129.298-3.033-.712-4.143-.815-4.54-.419-.594.594-.627 4.507-.088 10.92.301 3.596.197 5.163-.625 9.453-2.5 13.038-7.386 22.58-15.4 30.078-3.16 2.958-4.31 3.738-6.387 4.336-1.393.401-3.703 1.318-5.134 2.035l-2.601 1.305-.29-1.158Zm-25.706-80.09c-.683-.205-1.96-.816-2.837-1.358-1.31-.81-1.595-1.259-1.595-2.502v-1.515l3.064-.3c7.654-.75 13.833-3.277 19.92-8.147 6.493-5.195 12.117-12.684 21.27-28.32 2.946-5.032 4.803-7.76 5.293-7.77.917-.02 3 2.368 3.378 3.87.607 2.42-2.88 14.073-6.21 20.745-6.428 12.89-17.222 21.662-30.602 24.873-3.723.893-9.437 1.1-11.68.425Zm-226.154-6.352-73.53-.23-1.477-1.055c-1.86-1.325-4.698-7.093-5.96-12.107-2.18-8.657-3.442-18.133-4.144-31.092-.262-4.868-.902-15.386-1.422-23.375-1.031-15.859-.957-25.783.304-40.623 1.902-22.392 5.358-35.822 10.005-38.867 1.278-.836 14.676-1.652 58.165-3.538 40.908-1.775 85.103-.316 109.948 3.63 5.603.89 6.632 1.676 9.323 7.13 2.719 5.513 4.277 11.78 4.682 18.83.442 7.67.261 9.486-.975 9.818-1.582.424-6.641.313-7.536-.167-1.293-.69-2.22-3.63-2.973-9.42-1.599-12.285-3.77-15.172-13.054-17.366-10.37-2.45-26.143-3.366-57.527-3.337-30.5.027-54.057.966-77.694 3.096-5.84.525-7.51.84-9.322 1.759-4.697 2.38-8.205 7.94-10.355 16.408-1.647 6.49-1.98 10.751-2.467 31.582-.703 29.95.438 44.452 4.713 59.966 2.584 9.374 4.73 12.555 10.307 15.276 6.2 3.024 3.772 2.917 65.302 2.898 53.328-.017 70.939-.351 77.86-1.477 6.44-1.048 10.132-7.729 12.252-22.17.988-6.735 1.107-7.142 2.42-8.316 2.663-2.38 6.154-2.094 7.64.627 1.335 2.444 1.056 10.349-.654 18.514-2.203 10.53-4.223 17.656-5.399 19.054-2.295 2.726-9.06 4.356-19.23 4.63-3.12.084-38.761.05-79.202-.078Zm206.97-7.45c-2.956-.73-4.735-1.69-6.873-3.706l-1.741-1.642 1.062-.861c1.644-1.331 5.197-2.224 11.638-2.922 3.245-.352 6.82-.938 7.943-1.303 12.345-4.009 20.044-8.943 30.023-19.242 4.882-5.041 14.934-17.508 15.678-19.447.151-.394.968-.62 2.24-.62 2.342 0 2.339-.269.096 6.567-5.065 15.436-15.516 28.212-30.445 37.22-3.357 2.025-3.994 2.219-14.25 4.357-11.54 2.406-11.94 2.447-15.37 1.6Zm-219.29-9.565c.436-1.14 17.091-24.259 20.796-28.869 7.627-9.492 18.771-21.178 22.987-24.104 3.136-2.178 8.68-3.968 14.1-4.552 6.453-.695 59.503-.67 100.587.048 34.855.609 33.9.529 43.845 3.68 3.08.975 5.685 1.686 5.79 1.581.106-.105-.365-.922-1.045-1.814-1.602-2.1-5.159-4.435-8.879-5.829-6.214-2.329-8.32-2.472-43.796-2.997-31.989-.472-46.378-.812-84.648-1.996l-17.928-.555-2.662-1.328c-4.688-2.338-8.435-6.46-26.92-29.619-9.817-12.298-17.85-22.47-17.85-22.604 0-.457 10.21.376 10.858.886.355.28 5.124 6.499 10.597 13.822 11.789 15.77 15.31 20.04 20.732 25.145 5.37 5.055 7.254 6.3 10.609 7.006 6.462 1.36 24.035 1.678 63.324 1.145 45.547-.618 60.814-.29 67.93 1.46 5.682 1.398 12.66 3.821 17.02 5.91 1.84.882 3.425 1.525 3.522 1.428.423-.425-1.353-2.957-3.453-4.92-6.585-6.16-16.392-9.996-28.663-11.215-4.916-.488-33.127-.713-51.516-.412-5.742.095-17.179.168-25.417.162-13.455-.01-15.547-.113-20.57-1.017-6.653-1.197-14.093-3.586-18.47-5.928-2.625-1.405-3.344-2.047-4.174-3.726-2.389-4.828-2.64-17.973-.544-28.466l.476-2.383h3.599c1.98 0 3.632.052 3.671.114.04.063.201 5.117.36 11.233.314 12.173.464 12.929 3.21 16.056 2.001 2.279 3.26 2.854 7.504 3.424 8.986 1.209 15.87 1.407 48.61 1.398 20.203-.004 36.891.189 40.168.466 15.365 1.3 27.66 4.368 38.365 9.577 5.19 2.525 5.77 2.946 9.47 6.877 6.966 7.396 13.709 17.28 17.566 25.746l1.758 3.858-.164-2.766c-.367-6.167-9.45-21.204-23.669-39.18-2.648-3.35-4.815-6.249-4.815-6.443 0-.653 2.007-1.766 3.185-1.766 2.073 0 7.42 3.61 9.85 6.65 12.398 15.51 20.143 28.14 23.753 38.739.808 2.371 1.95 4.819 2.539 5.437l1.07 1.126 1.373-1.373 1.373-1.373-1.174-4.065c-2.622-9.076-5.484-14.688-16.51-32.39-8.413-13.509-8.466-13.658-4.79-13.658 1.59 0 2.56.416 5.277 2.265 1.83 1.246 3.653 2.522 4.05 2.836 1.16.922 10.25 16.337 13.403 22.73 1.594 3.231 3.631 8.25 4.526 11.149 2.373 7.688 2.38 7.697 4.964 5.429 1.653-1.45 1.68-1.53 1.416-3.995-.616-5.75-3.92-16.07-7.839-24.481-1.092-2.346-1.986-4.538-1.986-4.872 0-.334.592-1.27 1.314-2.078 1.265-1.417 1.362-1.446 2.61-.802 2.11 1.09 5.729 5.047 7.272 7.95.791 1.488 2.608 6.637 4.037 11.443 1.43 4.805 2.762 8.737 2.962 8.737.2 0 1.038-.848 1.863-1.885 3.81-4.782 5.191-5.447 7.096-3.42 1.231 1.312 1.252 3.027.08 6.439-1.214 3.526-1.167 4.503.247 5.147.636.29 1.453.527 1.816.527.891 0 .829 1.18-.225 4.242-3.117 9.062-9.84 17.056-20.449 24.32-10.077 6.898-23.153 11.211-35.553 11.725-6.151.256-9.73-.458-12.784-2.55-2.349-1.608-2.433-3.017-.268-4.476 2.365-1.593 5.49-2.338 12.016-2.862 20.264-1.626 35.598-8.99 46.73-22.44 1.746-2.11 1.785-2.214.526-1.387-13.823 9.07-28.884 15.691-40.295 17.716-3.423.608-5.965.735-11.12.556-7.08-.245-11.307-1.096-16.2-3.26-2.705-1.195-3.05-1.816-2.852-5.123l.116-1.921-37.22-.229c-20.47-.126-42.009-.227-47.866-.227-13.542.002-26.713.873-37.917 2.507-5.289.772-6.215 1.461-7.983 5.939-1.191 3.017-1.425 8.861-.69 17.281.457 5.243-.1 8.331-1.705 9.454-.585.41-2.034.663-3.805.663-3.4 0-3.398 0-4.153-6.152-1.105-9.011-.423-18.806 1.768-25.39.878-2.64 1.255-3.151 3.503-4.762 4.739-3.393 12.657-5.66 23.726-6.794 2.712-.279 14.038-.479 26.325-.466 11.86.012 33.105-.112 47.21-.275 16.42-.19 30.2-.113 38.312.214 6.968.28 12.757.422 12.864.313.452-.45-4.854-3.001-8.028-3.856-6.248-1.686-9.113-1.866-36.567-2.286-14.98-.23-39.284-.659-54.013-.951-40.687-.81-44.398-.797-47.884.161-6.16 1.692-11.548 4.286-16.113 7.754-4.612 3.505-9.93 9.476-22.579 25.355l-13.649 17.135h-4.743c-4.001 0-4.702-.106-4.483-.673Z"/><path d="m255.965 154.832 25.674 79.018-67.217-48.836h83.085L230.29 233.85zM400.175 57l-4.712 53.472-27.618-46.03 49.4 21.006-52.312 12.042zM465.829 119.762l-25.093 47.453-7.591-53.14 37.376 38.529-52.885-9.201zM472.084 251.435l-42.269 33.088 14.747-51.614 18.407 50.425-44.531-29.975zM399.089 291.148l-2.491 53.621-29.503-44.845 50.228 18.939-51.767 14.201zM125.116 434.89v-86.673h4.506l41.14 41.025 41.025-41.025h9.708v86.672h-19.3v-52.928l-33.744 33.745-33.628-33.745v52.928h-9.707Zm154.16-38.483V386.7c0-2.62-.944-4.873-2.831-6.76-1.888-1.888-4.18-2.832-6.876-2.832h-9.592c-5.701 0-8.898 3.197-9.592 9.592h-9.707c1.54-12.79 7.974-19.184 19.299-19.184h19.299c5.239 0 9.746 1.888 13.52 5.663 3.776 3.775 5.663 8.282 5.663 13.52v48.19h-19.183v-9.592c-.77 6.395-4.006 9.592-9.707 9.592h-9.592c-5.239 0-9.765-1.887-13.579-5.662-3.813-3.776-5.72-8.321-5.72-13.637 0-5.239 1.907-9.746 5.72-13.52 3.814-3.776 8.34-5.663 13.579-5.663h19.299Zm0 9.591h-9.707c-2.62 0-4.873.944-6.76 2.832-1.888 1.887-2.832 4.14-2.832 6.76s.944 4.892 2.831 6.818c1.888 1.926 4.141 2.89 6.76 2.89 2.697 0 4.989-.964 6.877-2.89 1.887-1.926 2.83-4.198 2.83-6.818v-9.592Zm57.781-38.482h19.299c5.239 0 9.746 1.888 13.52 5.663 3.776 3.775 5.663 8.282 5.663 13.52v28.891c0 5.239-1.887 9.765-5.662 13.579-3.775 3.813-8.282 5.72-13.521 5.72h-19.299c-5.239 0-9.765-1.887-13.579-5.662-3.813-3.776-5.72-8.321-5.72-13.637V386.7c0-5.24 1.907-9.746 5.72-13.521 3.814-3.775 8.34-5.663 13.579-5.663Zm0 19.184v28.89c0 2.62.944 4.892 2.831 6.818 1.888 1.926 4.141 2.89 6.76 2.89 2.697 0 4.99-.964 6.877-2.89 1.887-1.926 2.83-4.198 2.83-6.818V386.7c0-2.62-.943-4.873-2.83-6.76-1.888-1.888-4.18-2.832-6.876-2.832-2.62 0-4.873.944-6.76 2.831-1.888 1.888-2.832 4.141-2.832 6.76Zm105.97 0h-9.59c-.848-6.395-3.892-9.592-9.13-9.592-3.39 0-5.933.674-7.627 2.022-1.695 1.348-2.543 3.332-2.543 5.952 0 2.773 4.661 6.664 13.983 11.671 7.627 4.084 12.019 7.474 13.174 10.17 1.156 2.696 1.734 5.585 1.734 8.667 0 5.316-1.888 9.861-5.663 13.637-3.775 3.775-8.32 5.662-13.636 5.662h-9.592c-12.866 0-19.299-6.433-19.299-19.299h9.707c.77 6.472 3.775 9.707 9.014 9.707 3.467 0 6.048-.674 7.743-2.022 1.695-1.348 2.542-3.37 2.542-6.067 0-2.696-4.66-6.549-13.983-11.556-7.627-4.083-12.037-7.473-13.232-10.17-1.194-2.696-1.79-5.585-1.79-8.667 0-5.316 1.906-9.861 5.72-13.636 3.813-3.775 8.34-5.663 13.578-5.663h9.592c12.095 0 18.528 6.395 19.299 19.184ZM107.781 509.138c-.77 12.866-7.165 19.299-19.183 19.299h-19.3c-5.238 0-9.764-1.888-13.578-5.663C51.907 519 50 514.454 50 509.138v-48.074c0-5.239 1.868-9.765 5.605-13.579 3.736-3.813 8.301-5.72 13.694-5.72h19.299c12.095 0 18.49 6.433 19.183 19.299H98.19c-.77-6.472-3.968-9.707-9.592-9.707H78.89c-2.62 0-4.873.943-6.76 2.831-1.888 1.888-2.832 4.18-2.832 6.876v48.074c0 2.62.944 4.892 2.831 6.818 1.888 1.926 4.141 2.89 6.76 2.89h9.708c5.7 0 8.898-3.237 9.592-9.708h9.591Zm31.664-48.074h19.3c5.238 0 9.745 1.887 13.52 5.663 3.775 3.775 5.663 8.281 5.663 13.52v28.89c0 5.24-1.888 9.766-5.663 13.58-3.775 3.813-8.282 5.72-13.52 5.72h-19.3c-5.239 0-9.765-1.888-13.578-5.663-3.814-3.775-5.72-8.32-5.72-13.636v-28.89c0-5.24 1.906-9.746 5.72-13.521 3.813-3.776 8.34-5.663 13.578-5.663Zm0 19.183v28.89c0 2.62.944 4.893 2.832 6.82 1.887 1.925 4.14 2.888 6.76 2.888 2.696 0 4.988-.963 6.876-2.889 1.887-1.926 2.831-4.199 2.831-6.818v-28.89c0-2.62-.944-4.874-2.831-6.761-1.888-1.888-4.18-2.831-6.876-2.831-2.62 0-4.873.943-6.76 2.83-1.888 1.888-2.832 4.142-2.832 6.761Zm115.563 48.19h-19.184v-48.19c0-2.62-.943-4.873-2.83-6.76-1.888-1.888-4.18-2.831-6.877-2.831-2.62 0-4.873.943-6.76 2.83-1.888 1.888-2.832 4.142-2.832 6.761v48.19h-19.298v-67.373h19.298v9.592c.386-3.236 1.387-5.644 3.005-7.223 1.618-1.58 3.814-2.37 6.587-2.37h9.707c6.549 0 11.364 2.274 14.446 6.82 1.54-2.312 3.505-4.026 5.893-5.143 2.389-1.118 5.24-1.676 8.552-1.676h9.592c5.238 0 9.765 1.887 13.578 5.663 3.814 3.775 5.72 8.281 5.72 13.52v48.19h-19.298v-48.19c0-2.542-.944-4.776-2.832-6.702-1.887-1.926-4.14-2.89-6.76-2.89s-4.892.944-6.818 2.832c-1.926 1.887-2.89 4.14-2.89 6.76v48.19Zm57.78-67.373h19.3v9.592c0-3.236.809-5.644 2.427-7.223 1.618-1.58 4.006-2.37 7.165-2.37h9.707c5.239 0 9.746 1.888 13.52 5.664 3.776 3.775 5.663 8.281 5.663 13.52v28.89c0 5.317-1.887 9.862-5.662 13.637-3.775 3.775-8.282 5.663-13.521 5.663h-19.3v19.299H312.79v-86.672Zm19.3 57.781h9.592c2.696 0 4.988-.944 6.875-2.831 1.888-1.888 2.832-4.18 2.832-6.876v-28.89c0-2.62-.944-4.874-2.832-6.761-1.887-1.888-4.179-2.831-6.875-2.831-2.62 0-4.873.943-6.76 2.83-1.888 1.888-2.832 4.142-2.832 6.761v38.598Zm115.562-57.781v67.373h-19.183v-9.592c-.77 6.395-4.006 9.592-9.707 9.592h-9.592c-5.239 0-9.765-1.888-13.579-5.663-3.813-3.775-5.72-8.32-5.72-13.636v-48.074h19.299v48.074c0 2.62.944 4.892 2.831 6.818 1.888 1.926 4.141 2.89 6.76 2.89 2.697 0 4.99-.964 6.877-2.89 1.887-1.926 2.83-4.199 2.83-6.818v-48.074h19.184Zm29.006-19.299h19.184v19.299h9.707v9.592h-9.707v38.482c0 3.159 1.04 5.566 3.12 7.223 2.08 1.656 3.968 2.484 5.662 2.484h.925v9.592h-9.707c-5.24 0-9.746-1.888-13.521-5.663-3.775-3.775-5.663-8.32-5.663-13.636v-38.482h-9.707v-9.592h9.707v-19.299Zm105.856 57.781h-38.483v9.592c0 2.62.944 4.892 2.832 6.818 1.887 1.926 4.14 2.89 6.76 2.89h9.707c6.395 0 9.592-3.237 9.592-9.708h9.592c-1.464 12.866-7.859 19.299-19.184 19.299H544.03c-5.239 0-9.765-1.888-13.578-5.663-3.814-3.775-5.72-8.32-5.72-13.636v-28.89c0-5.24 1.906-9.746 5.72-13.521 3.813-3.776 8.34-5.663 13.578-5.663h19.3c5.238 0 9.745 1.887 13.52 5.663 3.775 3.775 5.663 8.281 5.663 13.52v19.3Zm-38.483-9.591h19.3v-9.708c0-2.62-.945-4.873-2.832-6.76-1.888-1.888-4.18-2.831-6.876-2.831-2.62 0-4.873.943-6.76 2.83-1.888 1.888-2.832 4.142-2.832 6.761v9.708Zm77.08 38.482H601.81v-67.373h19.3v19.183c.77-6.394 2.754-11.19 5.95-14.387 3.198-3.197 7.647-4.796 13.348-4.796H650v19.183h-19.299c-2.62 0-4.873.944-6.76 2.832-1.888 1.887-2.832 4.18-2.832 6.876v38.482ZM413.675 623.602c-.77 12.866-7.165 19.3-19.183 19.3h-19.3c-5.238 0-9.764-1.888-13.578-5.663-3.814-3.775-5.72-8.32-5.72-13.637V575.53c0-5.24 1.868-9.766 5.604-13.58 3.737-3.813 8.302-5.72 13.695-5.72h19.299c12.095 0 18.49 6.434 19.183 19.3h-9.592c-.77-6.472-3.967-9.708-9.591-9.708h-9.708c-2.62 0-4.873.944-6.76 2.832-1.888 1.887-2.831 4.179-2.831 6.876v48.073c0 2.62.943 4.893 2.83 6.819 1.888 1.926 4.142 2.889 6.761 2.889h9.708c5.7 0 8.898-3.236 9.591-9.708h9.592Zm19.299 19.3V556.23h19.299V642.9h-19.3Zm96.263-67.373V642.9h-19.183v-9.591c-.77 6.394-4.006 9.591-9.707 9.591h-9.592c-5.239 0-9.765-1.887-13.579-5.662-3.813-3.775-5.72-8.32-5.72-13.637V575.53h19.299v48.073c0 2.62.944 4.893 2.831 6.819 1.888 1.926 4.141 2.889 6.76 2.889 2.697 0 4.99-.963 6.877-2.89 1.887-1.925 2.83-4.198 2.83-6.818V575.53h19.184Zm19.3 67.372V556.23h19.298v28.89c.385-3.236 1.387-5.643 3.005-7.222 1.618-1.58 3.813-2.37 6.587-2.37h9.707c5.239 0 9.746 1.888 13.52 5.663 3.776 3.775 5.663 8.282 5.663 13.52v28.891c0 5.24-1.887 9.765-5.662 13.579s-8.282 5.72-13.52 5.72h-38.599Zm19.298-9.591h9.592c2.696 0 4.988-.963 6.876-2.89 1.887-1.925 2.831-4.198 2.831-6.818v-28.89c0-2.62-.944-4.873-2.831-6.76-1.888-1.888-4.18-2.832-6.876-2.832-2.62 0-4.873.944-6.76 2.831-1.888 1.888-2.832 4.141-2.832 6.76v38.599Z"/></g></g></svg>