<svg xmlns="http://www.w3.org/2000/svg" xmlns:xlink="http://www.w3.org/1999/xlink" width="374" height="603"><defs><linearGradient id="c" x1="50%" x2="50%" y1="0%" y2="100%"><stop offset="0%" stop-color="#6364FF"/><stop offset="100%" stop-color="#563ACC"/></linearGradient><path id="a" d="M78.21 196.14c15.2 0 35.58-3 61.1-9 26.89-6 47.26-9 61.1-9 13.86 0 34.22 3 61.11 9V9c-26.89-6-47.25-9-61.1-9-13.85 0-34.22 3-61.1 9-25.53 6-45.9 9-61.1 9C63 18 25.53 9.96 17.1 9A75.7 75.7 0 0 0 0 9v178.14h17.1c30.6 6 50.97 9 61.11 9Z"/></defs><g fill="none" fill-rule="evenodd"><path fill="#141414" fill-rule="nonzero" d="M117.01 325.26c1.68 4.8 1.71 11.9-2.45 17.03-5.24 5.63-10.18 8.61-19.35 6.73-3.93-1.88-8.13-3.33-10-8.54a19.76 19.76 0 0 0-9.39 6.25c-5.63 7.3-12.08 16.89-6.66 26.28 6.45 9.16 19.28 10.88 30.33 8.38 17.1-3.93 30.39-11.79 46.59-18.4 8.88-3.63 22.9-11.14 26.89-12.09 3.91-.73 7.9-.94 11.87-.63 9.86-11.05 21.13-20.36 28.5-20.36 8.2 0 21.75 5.36 26.54 9.31 1.63-.85 3.22-2.08 5.24-1.83 18.02 2.08 51.61 14.14 59.74 28.52a135.66 135.66 0 0 1 12.3 67.56c-4.17 9.6-13.56 13.97-21.27 18.97l-11.26 5c18.76 24.4 34.6 52.55 28.98 86.12 6.46 3.34 13.09-.42 17.51-4.59 6.26-6.67 6.83-20.1 16.57-22.26 3.4-.76 12.79-.7 12.79-.7a17.6 17.6 0 0 0 7.33-2.03s4.6-2.24 5.63-1.31c.3.69-5.24 3.75-8.34 4.6 3.44 2.06 8.12 6.54 7.51 7.5-.6.95-5.43-4.8-9.16-5.43.21 3.34.84 8.14-2.5 10-1.13-.33.78-2.54.76-5.12 0-1.92.44-4.5-1.64-5.35-6.85-.39-14.4-.94-18.33 6.37-4.58 9.39-7.85 20.15-19.23 22.68-3.39.7-6.86.88-10.3.5-2.2 4.4-3.19 7.47-7.28 11.78 1.03 7.3 7.7 16.68 1.03 22.93-7.08 6.47-16.16 9.59-24.87 12.91-11.79 2.8-15.98 4.69-32.74 3.75-8.48-.98-19.91-2.27-24.5-10.4-10.62 1.66-22.51.63-32.51-.84-16.26 5.24-30.12 13.9-49.06 13.9-10.83-1.67-17.02-12.22-22.26-21.2-6.05 2.5-14.58 7.5-22.1 3.56-12.02-6.32-19.8-22.54-23.26-38.06-2.62-11.97-3.15-25.62 3.24-32.63 10.63-7.3 24.88-10.48 39.41-9.17-2.1-8.74-2.3-19.17-1.88-28.14 0-1.46-1.88-1.05-2.92-1.3-31.27-5.25-57.76-22.44-73.8-51.7-16.28-36-6.97-60.06-1.83-69.83 8.66-16.49 19.55-30.47 34.78-37.56 7.85-3.92 18.22-7.51 29.06-5.23 8.19 2.68 12.96 6.05 16.29 13.97"/><path fill="#FCB762" fill-rule="nonzero" d="M113.46 325.63c1.87 3.34 1.18 11.06-.98 13.85-5.63 6.1-9.77 7.26-16.64 5.6-2.71-1.31-6.26-3.34-7.1-6.68-.82-2.92.42-5.42 1.47-7.5 2.5-3.54 7.3-2.72 10-5.43 0-1.03-.63-2.29-1.87-2.08-5.42.42-10.84 2.08-13.1 7.5-.56 1.82-1 3.68-1.3 5.56-12.62 6.9-20.61 19.47-20.2 31.35.42 8.55 8.14 13.97 14.6 16.89 22.75 6.17 41.46-6.44 59.62-14.4 11.05-4.85 21.7-10.12 32.94-14.82a19.64 19.64 0 0 1 7.4-1.8c9.78-1.08 21.36.76 29.5 5.56-2.09 3.75-6.9 7.09-7.5 12.09.6.84 2.07.42 2.7 0a102.87 102.87 0 0 1 40.37-30.03c12.29-.82 52.7 13.23 58.32 25.75 8.55 19.64 13.88 43.28 11.79 66.41-14.81 17.96-51.61 29.57-81.73 29.94-11.89-8.76-23.1-22.83-30.6-36.59-3.33-6.24-4.8-13.55-6.46-20.43l-1.31-1.04c-2.3 3.54-.21 7.92.2 11.89 3.94 17.3 15.64 30.23 27.32 42.74 4.18 3.93 4.06 4.78 10.67 7.96 16.05-.4 34.77-4.41 48.74-8.59 14.59 16.9 26.27 36.91 30.02 59.63.83 12.72.62 26.7-6.46 37.12-7.5-20.43-19.64-39.83-33.35-57.12-1.47-1.68-3.34-3.34-5.63-2.92-1.05.61-.42 2.08.2 2.7 10.01 10.64 16.68 23.98 25.02 36.49l9.16 21.27c-2.3 2.29-2.71 6.25-2.5 9.6-3.13-2.72-6.89-5.64-11.26-3.14a13.84 13.84 0 0 0-5.63 9.59c-1.87-2.92-5.24-4.16-8.55-4.58-6.03.62-10.03 2.3-13.55 9.37a71.8 71.8 0 0 0-1.24 18.98c-10.48.2-20.85-1.46-28.8-6.88-.77-10.1-.58-13.46-6.1-33.17a195.56 195.56 0 0 0-15.7-37.75s-.44-1.87-2.26-.59c-1.82 1.28 0 3.12 0 3.12 9.8 20.02 18.55 40.66 19.64 64.42-7.71 2.1-17.1.63-23.76.21 1.24-1.03 3.93-.61 4.37-2.92-.61-1.87-3.32-.82-4.8-.82-13.08 2.92-23.64 8.25-36.89 12.92 0 0-9.6 2.92-11.46 3.34 4.21-9.8.62-23.36-2.3-33.78 6.55-2.74 15.5-7.64 15.22-18.34-.1-3.56-2.92-6.67-5.42-8.55-3.54-2.29-7.92-2.92-12.92-2.5 1.46-1.87 3.54-4.37 2.08-7.08a10.96 10.96 0 0 0-3.54-3.93c13.55-2.71 27.1-.42 39.82 1.68.2-.42 1.66-.63.83-1.47-4.6-2.92-10.84-3.34-16.26-4.37-12.93-2.3-27.7.58-38.75 4.13-9.17-13.34-11.7-31.24-10.87-47.14 9.39.84 18.55-1.05 27.31-2.08 2.3 3.33 7.03 7.4 8.68 7.74 3.57.73 1.72-2.7 1.72-2.7-4.16-3.13-8.73-4.83-8.1-11.72l1.79-6.65c-.42-1.25-1.17-1.31-2.21-1.31-2.32 2.46-2.52 4.62-2.92 10.74-10.84 2.35-25.64 2.62-34.82.31-27.92-5.63-50.65-22.1-66.91-47.32-9.38-16.27-12.93-38.58-6.88-57.56 4.59-15.63 14.01-30.3 26.27-39.82a61.96 61.96 0 0 1 25.63-11.89c11.89-2.08 20.14 2.25 25.14 11"/><path fill="#FCB762" fill-rule="nonzero" d="M236.24 340.83c-4.34 2.39-20.46 11.55-24.72 15.48a137.54 137.54 0 0 0-21.05-6.47c8.34-8.13 12.07-14.4 22.26-16.03 8.65-1.3 19.15 3.93 23.57 7"/><path fill="#141414" fill-rule="nonzero" d="M169.24 370.52A12.04 12.04 0 0 1 171.5 381c-4.17 10.63-12.93 16.57-22.93 18.87-3.76.62-8.97 1.3-12.09-1.04a10.94 10.94 0 0 1-4.18-8.97c.75-9.17 8.28-14.4 15.62-18.33 6.9-3.62 16.51-5.45 21.3-1.08"/><path fill="#FFFDEB" fill-rule="nonzero" d="M167.34 375.95c.95 4.12-1.31 7.26-3.93 9.4-.77-2.63-4.36-3.05-7.07-2.01-1.87 1.05-4.82 3.55-4.28 6.55s2.18 3.57 2.18 3.57c-4.18 2-9.16 4.17-14.6 2.5-3.52-1.97-4.1-6.47-2.38-9.69 5.02-9.44 13.74-12.32 21.03-13.93 3.82-.47 7.42-.56 9.09 3.6"/><path fill="#FCB762" fill-rule="nonzero" d="M118.55 508.96a86.84 86.84 0 0 0 7.42 16.2c-3.93 2.29-9.7 3.2-12.2 7.99-5 14.8.2 30.64 4.16 44.4l-5.83 2.5c2.97-14.7-3.76-29.6-9.16-42.74 4.79-4.58 13.97-8.13 12.5-17.3-.42-2.1-1.66-4.6-3.75-5.24l-4.17-.83c2.1-1.05 2.62-4.13 2.92-5.43 3.34-.62 4.84-.77 8.13.42"/><path fill="#FFFDEB" fill-rule="nonzero" d="M107.09 510.2c-1.64 3.06-6.46 4.4-10.48 6.05l-5.63 2.3a18.94 18.94 0 0 0-6.13-3.93l.92-.46c6.26-2.71 13.87-5.4 21.17-5.6 0 0 .96 0 .1 1.63"/><path fill="#AF6959" fill-rule="nonzero" d="M94.37 528.86c8.88 15.2 16.56 33.14 15.23 48.7-.45 3.36-2.51 5.23-5.42 5-13.36-1.67-19.18-15.63-24.29-27.98-4.1-9.94-5.73-24.35-1.57-34.57.84-2.1 3.13-4.17 5.63-2.5 4.16 2.3 7.86 6.97 10.48 11.35"/><path fill="#FFFDEB" fill-rule="nonzero" d="M112.5 520c1.47 7.71-6.66 10.84-10.83 14.4-2.51-4.6-5.3-9.06-8.33-13.34 16.4-8.15 19.17-1.03 19.17-1.03M133.98 538.15c-3.33-2.08-6.67-6.26-11.25-7.5 5.62-1.88 16.96-9.4 21.73-3.03 0 0 3.13 4.4-10.47 10.48"/><path fill="#AF6959" fill-rule="nonzero" d="M145.83 567.7c6.3 19.73 3.35 29.78-.6 31.12-13.75 1.6-21.45-15.95-25.89-28.43-3.74-10.48-6.64-30.49-1-36.67 8.95-4.71 23.17 20.43 27.5 33.93"/><path fill="#FFFDEB" fill-rule="nonzero" d="M160.25 544.2c2.09 6.66-3.05 11.72-7.72 14.59l-5.24 2.7a91.21 91.21 0 0 0-11.03-20.42c10.47-5.7 21.26-2.92 23.97 3.13M305.35 576.73l-1.05 1.87a26.2 26.2 0 0 1-3.93-18.33c2.32 5.27 4 10.8 5 16.47M301.38 581.55c-4.8 3.34-9.38 6.46-15 7.85-2.1-6.68-5.84-15-1.47-21.9a5.96 5.96 0 0 1 4.45-2.45c7.3 1.04 10.47 10 12.08 16.47M280.12 577.97c.89 4.23 2 8.4 3.33 12.5a218.03 218.03 0 0 1-23.76 5.24c-.42-7.72-1.46-17.3 5-22.52 5.24-3.93 12.72-1.66 15.43 4.8"/><path fill="#532301" stroke="#141414" stroke-linejoin="round" stroke-width="2.8" d="M99.43 347.6c-7.14-1.9-11.24-4.57-12.3-8-1.57-5.16.76-10.52 2.65-11.93 1.26-.94 3.6-1.8 7.01-2.6l-5.77-123.82c-3.87.53-6.85.85-8.94.96-2.1.1-5.21.1-9.35 0l8.42 160.61c3.72 1.55 6.81 2.26 9.28 2.14 2.47-.13 5.47-1.16 9-3.1V347.6Z"/><g transform="rotate(-3 339.59 -1196.7)"><mask id="b" fill="#fff"><use xlink:href="#a"/></mask><use xlink:href="#a" fill="#17063B" stroke="#141414" stroke-linejoin="round" stroke-width="3"/><g fill-rule="nonzero" mask="url(#b)"><path fill="url(#c)" d="M99.6 23.6C98.06 12.13 88.08 3.11 76.25 1.36c-2-.3-9.56-1.37-27.07-1.37h-.13C31.52 0 27.77 1.08 25.77 1.37c-11.5 1.7-22 9.8-24.55 21.4C0 28.46-.14 34.78.1 40.6c.33 8.32.39 16.62 1.15 24.9.52 5.51 1.43 10.97 2.72 16.35 2.42 9.93 12.23 18.19 21.83 21.56a58.55 58.55 0 0 0 31.95 1.69c1.16-.28 2.31-.6 3.45-.95 2.58-.82 5.6-1.73 7.81-3.34a.25.25 0 0 0 .1-.2V92.6a.24.24 0 0 0-.29-.23 88.53 88.53 0 0 1-20.72 2.42c-12.02 0-15.25-5.7-16.17-8.07a25.03 25.03 0 0 1-1.4-6.37.23.23 0 0 1 .17-.24h.11a86.84 86.84 0 0 0 20.4 2.43c1.64 0 3.29 0 4.94-.05 6.9-.2 14.19-.54 20.99-1.87l.48-.1c10.72-2.07 20.92-8.53 21.96-24.89.04-.64.13-6.74.13-7.41 0-2.27.73-16.11-.1-24.62Z" transform="translate(81.34 51.2)"/><path fill="#FFF" d="M163.95 87.65v28.44h-11.27V88.5c0-5.82-2.42-8.78-7.35-8.78-5.42 0-8.13 3.5-8.13 10.43v15.11H126v-15.1c0-6.93-2.72-10.44-8.14-10.44-4.9 0-7.34 2.96-7.34 8.78v27.6H99.25V87.65c0-5.81 1.49-10.43 4.46-13.85 3.06-3.42 7.07-5.17 12.06-5.17 5.77 0 10.13 2.22 13.03 6.65l2.8 4.7 2.82-4.7c2.9-4.43 7.26-6.65 13.02-6.65 4.98 0 9 1.75 12.07 5.17 2.96 3.42 4.44 8.03 4.44 13.85Z"/></g></g><path fill="#FFFDEB" stroke="#141414" stroke-width="3.5" d="M122.73 475.37c2.16 6.51-.6 9.77-8.28 9.77-11.51 0-29.67-21.86-33.55-28.68-4.43-7.8-6.57 6.61 0 23.48 4.8 12.3 15.22 25.53 33.55 25.53 19.32-1.3 28.99-11.95 28.99-31.96l-20.7 1.86Z"/><path fill="#141414" fill-rule="nonzero" d="M127.2 337.83c-2.26 1.8-2.55 5.3-4.32 7.62-2.5 4.32-7.24 6.02-11.15 8.8a1.26 1.26 0 0 0 1.84 1.42c7.05-2.7 13.57-8.35 15.43-15.43-.1-1.44-1.14-1.66-1.85-2.42M125.94 353.11c-1.78.03-1.15 1.64-1.68 2.61-2.29 2.8-4.67 5.27-8.26 6.45-.33 1.08.61.97 1.24 1.44 4.15-2.02 11.42-5.11 8.7-10.53M19.12 320.95c-1.25 1.88-3.54 3.34-5.42 5.24-5.24 6.88-10.48 14.18-11.26 22.93-.62.63-1.46.21-2.3.21-1.3-10.21 6.47-18.33 12.1-25.85 2.3-1.05 4.17-5.84 6.88-2.5M40.17 323.39a55 55 0 0 0-25 34.23c-1.47.63-1.05 0-2.3-.42 2.08-15 13.34-29.4 25.64-35.64l1.66.2v1.63Z"/></g></svg>