<svg xmlns="http://www.w3.org/2000/svg" width="506" height="462"><g fill="none" fill-rule="evenodd"><path fill="#141414" fill-rule="nonzero" d="M120.75 13.21c-8.93 6.33-18.29 15.12-23 25.62 2.5 12.85 7.77 25.73 11.91 37.46-8.27.6-16.5 1.75-24.61 3.45.47-12.69 0-22.88-.31-34.8-2.67-4.86-7.53-7.52-11.45-10.66l-13.16-8.15c-10.35-2-20.07 2.51-27.28 8.62-3.76 3.77-1.73 9.57-1.73 14.43.63 6.9 1.42 13.8 4.08 19.75 8.31 6.74 16.46 13.48 25.08 19.75-14.88 8.78-28.21 26.78-30.09 45.78-1.72 13.17-.15 26.81 1.41 40.13-2.35 0-4.38-1.88-6.89-2.35a1.34 1.34 0 0 0 0 2c1.88 2 4.86 2.2 7.21 3.6l2.19 15.37c-4.7-.32-8.78-2-13.48-3-1.25-.32-2.82-1.1-4.39-.63-.78.47-.15 1.41 0 1.88 6 1.88 12.54 3.38 18.81 4.8.21 2.86.79 4.92.94 7.27-1.56 2.35-1.72 5.33-3.44 7.53-.48-.47-2.36-.63-2.83.15-.62 1.57.94 2.2 1.88 2.51-13 28.06-24 56.75-29.62 87.8-1.57 14.72-5.8 34 6.58 44.2 5.49 4.07 15.21 2.34 20.54-.64 6.35-3.88 9.72-11.9 8.62-20.06-.16-5.65-1.73-12.07.78-17.4 3.76 19.28 13 38.72 29.32 48.91 4.23 23.35 7.52 47.81 10.19 71.8l-8.31 6.58c-1.26 1.41-1.57 3.76-1.41 5.64-7.69 8.31-25.24 6-34.8 2-3.77-1.88-7.69-3.45-11-6.59-1.25.47-.31 1.57.16 2.2 11.76 10 30.41 18.65 46.87 9.87.63 1.57.47 4.55 3 4.24 9.4.47 17.71-.79 26.18-1.26l13.48-.3c.59-.16 3.45.3 3.6-1.74-.47-16.77 0-31.66-.47-48.75a78.94 78.94 0 0 0 9.1-23.5h.31c3.13 23.35 4.7 47.8 6.58 71.78 1.1.94 4 1.56 5.61 1.72 8.15.62 35.53 1.48 38.83-1.18 2-4.39 2.75-9.94 3.06-15l-1.1-2.19c-4-3.14-7.72-6.61-11.13-10.39 1.1-22.26 1.57-46.25 2.35-68.66 19.13-12.08 30-36.37 29.79-60.2 1.1-23.5-3.45-45.46-7.37-67.56 10.19-.16 19.75-1.1 30.26-1.26l1.45-.23c10.34-.78 20.32-2.24 31.15-3.53 12.24-1.45 24.24-4.8 36.68-7.52 3.78-.9 7.39-2.44 10.66-4.55 6.27-6.27 13.48-15.05 9.41-24.92-2-4.24-3.92-8.63-8.62-9.88-9.88-3.92-20.07.78-27.12 6.74-7.06 1.41-14.27 2.82-21.64 2.51-9.88.62-16.48.46-26.35.3l-3-.3c-4.39.16-33.7-2.67-39-3.29a26.41 26.41 0 0 1-.47-8.62c5.64-2.5 11-5.49 16.46-8.47.47-.94-.32-1.72-1.26-1.88-5.33 2.35-9.87 5.8-15.52 7.68l-.78-17.09c2.19-1.88 4.39-3.44 6.43-5.48-2-3.76-3.92 2-6.43 2.35-2.66-22.26-9.88-44.05-26.49-58.32-5.8-5.32-13.33-8-20.38-10.8 2.64-3.35 5.09-7 8-10.67 4.16-5.3 7.92-10.19 10.82-16-.63-12.07-5.33-23-9.72-33.7-6.74-4.7-15.88-5.56-25.13-4.93"/><path fill="#734413" fill-rule="nonzero" d="M101.25 38.9a326.92 326.92 0 0 0 11.23 36.78c6.93.01 13.85.53 20.7 1.55 7.22-7.52 13.17-17.4 19.44-25.39l.32-1.57c-1.42-10.34-4.86-20.38-8.94-29.78a35.56 35.56 0 0 0-22.12-4.34c-2.64.37-18.44 16.63-20.63 22.74M34 39.32c-.54 7.17 1.38 21.93 3.73 27.73 8.27 7.41 16.92 13.8 25.54 20.41 6-2.84 12.23-5.18 18.62-7v-1.53c.94-11 .28-21.89-.36-32.8-6.42-7.83-14.85-12.19-23-17.52-9.29-1.4-24.29 6.76-24.58 10.68"/><path fill="#DC5F1E" fill-rule="nonzero" d="M85.06 82.76c-20.69 4.7-39.5 16.3-48.44 38.1-5.8 17.08-4.39 36.83-1.88 55.17 12.85 3.76 25.86 7.68 40.13 8.78 0 0 14.42 1.57 15.83.47.63-.16.63.31 1.1.63.31 3.45-3.45 1.88-5.17 2.35-18.19 0-35.54-4.43-51.68-8.8.5 4.85 1.27 9.67 2.3 14.44a146.4 146.4 0 0 0 25.08.94c-.47-1.4-1.41-2.66-.94-4.23a1.4 1.4 0 0 1 1.72-.16l2 4.24c9.11-.31 18.18-1.36 27.12-3.14.55.69.55 1.67 0 2.35-5 1.26-10.35 2-15.68 2.82l9.88 3.77c1.57-1.26 4.23-1.57 5.8-3.3.94-.15 1.41.63 1.41 1.42-.16 2.2-2.66 2.2-3.92 3.3 8.94 4.85 24 6.73 34 2.34a67.08 67.08 0 0 0 18.53-11.54c-3 0-6.46-.06-8.81-1.47-.21-.7.03-1.45.62-1.88 4 .57 6 1.1 10.86.67l7.8-6.94c-6.05 1.37-12.79 3.37-18.72 3.37a2.24 2.24 0 0 1-.47-2c2.61-.56 5.5-1 8.93-1.73a98.53 98.53 0 0 0 20.85-6.42c.63-1.73.16-4.08 1.88-5 .57-.2 1.2 0 1.57.47-.16 1.25-1 2.51-.63 3.61 5.14-1.69 10.15-3.73 15-6.12.47-4.7-.31-10.5-.31-15.83-12.54 9.4-25.4 17.87-39.66 24.3a31.94 31.94 0 0 1-8.94 3.13c-.62-.47-1.09-1.57-.31-2.19a191.42 191.42 0 0 0 48.75-28.85c-1.41-19.75-7.52-38.09-19.44-52.82a60.33 60.33 0 0 0-24.9-15.55 88.42 88.42 0 0 0-21.38-2 158.71 158.71 0 0 0-29.88 3.3Z"/><path fill="#000" fill-rule="nonzero" d="M121.43 108.74a173.62 173.62 0 0 0-11.92 22.58c.2.86 1 1.45 1.88 1.41l3-.79c.63 8.78 3.14 19 11.13 22.9 5.8 3.75 13.5 4.4 21.41 2.22 6.6-1.8 12.85-9.32 13.79-16.68.36-1.85.5-3.74.39-5.62 1.75.16 6.24 2.1 4.53-2-3.49-7.57-7.91-17-14-23.1-8-4.38-23.14-6.27-30.19-.94"/><path fill="#141414" d="M32.5 173.36c-4.33-29.9 0-53.02 13-69.34 19.5-24.47 54-24.47 54-24.47s32.5-6.63 52 8.16c19.5 14.78 23.5 31.1 25 34.67 1.5 3.57 5 22.43 5 23.96 0 .75-18.9 17.74-72 27.02-13.02 2.28-38.68 2.28-77 0Z"/><path fill="#DC5F1E" fill-rule="nonzero" d="M123.78 110.62c-3.61 5.8-7.37 11.92-10 18.34 8.93-3.44 21.94-3.4 31.66-1.52 3.54.4 8.55 2 15.83 4.2a61.27 61.27 0 0 0-10.66-18.67c-7.05-3.76-16.38-5.59-24.84-3.39l-1.99 1.04Z"/><path fill="#141414" fill-rule="nonzero" d="M53.77 122.52c-2.69 7.4-3.2 17.73-4 25.57.16 1.25 1.73 2 4.07.16 1.52 7 6.07 12.97 12.42 16.3 6.74 3.91 17.61 2.18 23.52-1.72 5.75-3.78 8.11-9.25 9.21-15.68.51-4.93-.47-9.9-2.82-14.27 1.25-.62 6.34.33 4.74-2.66l-1-1.1c-6-6-13.89-15.16-19.45-17.94-13.36-1.28-22.67 4.5-26.73 11.34"/><path fill="#DC5F1E" fill-rule="nonzero" d="M57.51 122.46c-3 7.17-3 11.12-4 18.15l-.47 4.24c11.44-10.5 26.81-13.95 43.27-15-5.18-5-10.48-12-16.6-15.47-7.83-.47-17.53 2.46-22.24 8.13"/><path fill="#EBEBEB" fill-rule="nonzero" d="M124.09 149.81c5.65 5 15.12 6.82 23.46 3.61 5.83-2.24 11.23-9.84 10.59-19.14-6-2.67-6.63-2.35-10.22-3.12 2.31 3.76 1.28 9.23-1.54 12.21a9.76 9.76 0 0 1-8.24 2.57c-4.69-.67-6.37-2.4-8.09-5.22a12.42 12.42 0 0 1-.16-11.28c-4.14-.02-8.25.56-12.22 1.72-.16 6.74 1.09 14.11 6.42 18.65ZM86 139.63c.97 3.18.33 6.63-1.72 9.25-2.49 2.84-5.27 4-9.41 3.77-4-.93-5.8-2.5-7.21-5.8a11.36 11.36 0 0 1-.94-7.22c-4.61 2.15-5.57 2.57-10.28 7.28 1.1 6.43 7.93 13.26 12.79 15.45a22.5 22.5 0 0 0 22.88-5.33c5.18-6.58 5.49-16.93 1.1-24.14-3.6.47-7.84.47-11.13 1.57 1.73 1.41 3.29 2.82 3.92 5.17Z"/><path fill="#DC5F1E" fill-rule="nonzero" d="M166.8 178.34c-.47 2 6.52 2.78 1.5 4.38-1.57-.94-3.14-1.56-4.08-3.44a53 53 0 0 0-15.36 11.18c11.2.8 22.46.33 33.55-1.4l-.79-16.78-14.82 6.06Z"/><path fill="#734413" fill-rule="nonzero" d="M275.52 182.9c-5 .77-10.35 1.71-15.68 2-17.08 1.71-31.82 0-48.9 0-8.94-.8-16.62-1.89-25.71-2.52l.31 6.11c3.14-.62 6.43-.94 9.56-1.88.63.63 1.57 2 .47 2.67-2.82 1.56-7.05.78-9.87 2-.32 10.51 3.29 20.23 4.86 30.26l20.22-.16c-.16-.15 0-.3.16-.3l.94.3v-.15c2.82-.16 7.21-.32 10.66-.63v-.16c25.63-2.73 45.9-5.15 57.4-8.92 8.78-1.88 18.78-1.74 23.8-10.36a26.35 26.35 0 0 0 5.17-11c-4.86 1.25-9.41 3.13-13 6.9-.78-.48-1.57-1.89-.63-2.83 3.45-4.07 8.15-5.8 13.33-7.05.31-3.29-2-5.8-3.3-8.62-5.8 1.25-11.75 2.66-15.67 7.52a2 2 0 0 1-1.26-2.35c3.61-4.23 8.31-6 13.49-7.37-.79-1.4-3.3-.94-4.55-1.88-9.09-.63-15.21 4.23-21.79 8.31"/><path fill="#141414" fill-rule="nonzero" d="M102.46 186.34c0 1.29.16 7.52 3.76 8.62 5 1.1 13 .78 16.93-3.45.94-3.13-.31-6.27-1.25-9.09-6-2-13.92-.44-18.94 2.23-.33.27-.5.84-.5 1.7Z"/><path fill="#DC5F1E" fill-rule="nonzero" d="m170.34 192.92-4.18.4c-7.68-.17-12.41.63-20.43.1-9.87 8.46-18.5 15-33.15 16h-1.81c-8.45.01-16.79-2-24.3-5.87-8.31 2.51-15.36 5.8-24.14 7.21-7.21 1.73-15.05 2.35-22.57 2.82 1.09 25.87 1.09 51.11.78 77.3 0 13.15 2.82 25.22 7 36.82 6.59 13.8 16.31 26.5 30.73 29.63 7.52 1.25 14.58 3.3 22.42 4.08 10.14.65 20.3.44 30.41-.63 3.45-.47 6.89-1.1 10.34-1.57 17.56-3.76 34-10.19 43.74-27.12 18.18-30.4 9.4-71.48 3.76-105-2.51-11.6-6.74-23.05-6.58-35.28a74.9 74.9 0 0 1-12.07 1.1M37.88 196.68c.62 5 1.09 9.57 1.72 14.27 15-.79 29.63-3.76 42.33-9.09-5.34-1.88-10.19-4.7-16.94-3.92-.31 1.88-2.19 3-3.29 4.23-.94.31-2.41-.49-1.94-1.27.75-1.82 2.1-2 2.26-3.43-6.95.72-13.96.58-20.87-.42l-1.5-.1-1.77-.27Z"/><path fill="#734413" fill-rule="nonzero" d="M34.27 215.02c-12.7 27.91-24.45 56.28-29.63 87.16-1.41 13.48-5.95 31.67 6 41.4-1.41-4.4-3.61-9.26-3-14.75.94-.47 2.67 0 2.35 1.41a25.58 25.58 0 0 0 5.18 14.42c3 .94 6.11.16 8.78-.78-2.36-4.86-4.08-10-3.77-16.15.63-.3 1.41-.78 2-.15 1.25 1.72.47 4.23.94 6.42 1.26 3 1.41 6.27 3.29 8.94 9.56-5.49 8.31-18.34 7.53-29.16.62-6.74 3.13-12.69 3.6-19.75v-53.77c-.15-8.46-.47-18.18-1.25-26.65-.94.16-1.88.32-2 1.41M126.44 364.26l-.31.62 6.11 59.42 1.89 22.41c3.91.94 17.24 1.57 20.22 1.1h5c1.26-4.39.94-9.25.16-13.79.47-.63 1.57-.32 2.19-.16 1.89 4.23 1.1 9.4.47 14 2.2-.16 4.71.31 6.43-.47 1.08-4.14 1.3-8.47.63-12.7.16-.78 1.57-.78 1.88-.15 1.88 3.44 1.1 8.62.47 12.38v.47c.47-.3 1.25 0 1.88-.16 1.88-3.92 2.51-8.78 2.51-13.32-4.23-4.23-9.88-6.27-12.7-12.23 2-22.26 1.57-45.46 2.67-66.93-12.23 4.86-24.77 8.93-39.51 9.56M70.79 358.3c4.55 23 6.9 47 10.35 70.54l-.31 1.1-9.41 7.68c-.05 3.93.48 7.83 1.57 11.6l1.57.31c-.63-3.89-.63-7.86 0-11.75.31-.63 1.41-.32 1.88-.16.78 2.51.15 6.11.62 9.1-1.41 4.85 4.08 2 6.28 2.81-.47-3.76-1.41-7.83-.47-11.75 4.54-.63 1.09 5.64 2.66 8.15 0 1.25.63 2.2.63 3.3 5.64-.48 11.75-.48 17.55-.64v-.3c.47.93 2.51-.95 3.92.3 1.26-.78 3.3-.15 4.86-.62 1.1-28.06-.31-54.24-.15-82.93-3.14-.47-6.59.16-9.25-.63-3.92.8-7.68-1.25-12.23-1.09-6.74-1.73-13.8-2.5-20.07-5"/><path fill="#141414" fill-rule="nonzero" d="M324.2 203.83c-2.26 1.8-2.55 5.3-4.32 7.62-2.5 4.32-7.24 6.02-11.15 8.8a1.26 1.26 0 0 0 1.84 1.42c7.05-2.7 13.57-8.35 15.43-15.43-.1-1.44-1.14-1.66-1.85-2.42M322.94 219.11c-1.78.03-1.15 1.64-1.68 2.61-2.29 2.8-4.67 5.27-8.26 6.45-.33 1.08.61.97 1.24 1.44 4.15-2.02 11.41-5.11 8.7-10.53M309.36 250.22c1.28 3.66 1.31 9.08-1.87 13-4 4.3-7.78 6.58-14.78 5.14-3-1.43-6.21-2.54-7.64-6.52-2.8.86-5.3 2.52-7.17 4.77-4.3 5.58-9.23 12.9-5.09 20.07 4.93 7 14.73 8.31 23.17 6.4 13.06-3 23.21-9 35.58-14.05 6.79-2.77 17.49-8.51 20.54-9.23 2.99-.56 6.04-.72 9.07-.48 7.53-8.44 16.14-15.55 21.76-15.55 6.27 0 16.62 4.09 20.28 7.11 1.24-.65 2.46-1.59 4-1.4 13.76 1.59 39.42 10.8 45.63 21.78a103.58 103.58 0 0 1 9.39 51.59c-3.18 7.33-10.35 10.67-16.24 14.49l-8.6 3.82c14.33 18.63 26.43 40.13 22.13 65.76 4.94 2.55 10-.32 13.38-3.5 4.78-5.1 5.21-15.35 12.65-17 2.6-.58 9.77-.53 9.77-.53 1.96-.1 3.87-.64 5.6-1.56 0 0 3.51-1.71 4.3-1 .23.53-4 2.87-6.37 3.51 2.63 1.58 6.2 5 5.74 5.73-.46.73-4.15-3.66-7-4.14.16 2.55.64 6.21-1.91 7.64-.86-.26.6-1.95.58-3.92 0-1.46.34-3.44-1.25-4.08-5.23-.3-11-.72-14 4.86-3.5 7.17-6 15.39-14.69 17.32a25 25 0 0 1-7.87.38c-1.68 3.36-2.43 5.71-5.56 9 .79 5.57 5.89 12.74.79 17.51-5.41 4.94-12.34 7.32-19 9.86-9 2.13-12.2 3.58-25 2.86-6.48-.75-15.21-1.73-18.71-7.94-8.12 1.27-17.2.48-24.84-.64-12.42 4-23 10.61-37.47 10.61-8.27-1.27-13-9.33-17-16.18-4.62 1.91-11.14 5.72-16.88 2.71-9.18-4.82-15.12-17.21-17.77-29.06-2-9.14-2.4-19.57 2.48-24.92 8.12-5.57 19-8 30.1-7-1.6-6.68-1.76-14.64-1.44-21.49 0-1.12-1.43-.8-2.23-1-23.88-4-44.11-17.13-56.36-39.48-12.44-27.49-5.33-45.86-1.4-53.32 6.61-12.59 14.93-23.27 26.56-28.68 6-3 13.92-5.74 22.2-4 6.25 2.05 9.9 4.62 12.44 10.67"/><path fill="#624797" fill-rule="nonzero" d="M306.65 250.5c1.43 2.55.9 8.45-.75 10.58-4.3 4.65-7.46 5.54-12.71 4.27-2.07-1-4.78-2.55-5.42-5.1-.63-2.23.32-4.14 1.12-5.73 1.91-2.7 5.57-2.07 7.64-4.14 0-.79-.48-1.75-1.43-1.59-4.14.32-8.28 1.59-10 5.73-.44 1.39-.77 2.8-1 4.24-9.64 5.27-15.74 14.87-15.42 23.94.31 6.53 6.21 10.67 11.14 12.9 17.38 4.71 31.67-4.92 45.54-11 8.44-3.7 16.58-7.72 25.16-11.31a15 15 0 0 1 5.65-1.37c7.47-.83 16.32.57 22.53 4.24-1.59 2.86-5.26 5.41-5.73 9.23.47.64 1.59.32 2.07 0a78.57 78.57 0 0 1 30.83-22.93c9.39-.63 40.25 10.1 44.55 19.66 6.53 15 10.6 33.05 9 50.72C448.11 346.55 420 355.42 397 355.7c-9.08-6.69-17.64-17.43-23.38-27.94-2.54-4.77-3.66-10.35-4.93-15.6l-1-.8c-1.75 2.71-.16 6.05.16 9.08 3 13.22 11.94 23.09 20.86 32.64 3.19 3 3.1 3.65 8.15 6.08 12.26-.31 26.56-3.37 37.23-6.56 11.14 12.9 20.06 28.19 22.93 45.54.63 9.71.47 20.38-4.94 28.34-5.73-15.6-15-30.41-25.47-43.62-1.12-1.28-2.55-2.55-4.3-2.23-.8.47-.32 1.59.16 2.07 7.64 8.12 12.73 18.31 19.1 27.86l7 16.24c-1.75 1.75-2.07 4.78-1.91 7.33-2.39-2.07-5.26-4.3-8.6-2.39a10.57 10.57 0 0 0-4.3 7.32c-1.43-2.23-4-3.18-6.53-3.5-4.61.48-7.66 1.76-10.35 7.16a54.82 54.82 0 0 0-.95 14.49c-8 .16-15.92-1.11-22-5.25-.58-7.71-.44-10.28-4.65-25.33-2.98-10-7-19.67-12-28.83 0 0-.33-1.43-1.72-.45s0 2.38 0 2.38c7.49 15.29 14.17 31.05 15 49.2-5.89 1.6-13.06.48-18.15.16.95-.79 3-.47 3.34-2.23-.47-1.43-2.54-.63-3.66-.63-10 2.23-18.06 6.3-28.18 9.87 0 0-7.33 2.23-8.76 2.55 3.22-7.48.48-17.84-1.75-25.8 5-2.09 11.83-5.83 11.62-14-.07-2.72-2.23-5.1-4.14-6.53-2.7-1.75-6.05-2.23-9.87-1.91 1.12-1.43 2.71-3.34 1.59-5.41a8.37 8.37 0 0 0-2.7-3c10.35-2.07 20.7-.32 30.41 1.28.16-.32 1.27-.48.64-1.12-3.51-2.23-8.28-2.55-12.42-3.34-9.88-1.75-21.16.45-29.6 3.16-7-10.19-8.94-23.86-8.3-36 7.17.64 14.17-.8 20.86-1.59 1.75 2.54 5.37 5.65 6.63 5.91 2.72.56 1.31-2.06 1.31-2.06-3.18-2.39-6.67-3.69-6.19-8.95l1.37-5.08c-.32-.95-.89-1-1.69-1-1.77 1.88-1.92 3.53-2.23 8.2-8.28 1.8-19.58 2-26.59.24-21.33-4.3-38.69-16.88-51.11-36.14-7.16-12.42-9.87-29.46-5.25-43.95 3.5-11.94 10.7-23.14 20.06-30.41a47.33 47.33 0 0 1 19.58-9.08c9.08-1.59 15.38 1.72 19.2 8.4"/><path fill="#141414" fill-rule="nonzero" d="M234.59 246.93c-.95 1.43-2.7 2.55-4.14 4-4 5.25-8 10.83-8.6 17.51-.47.48-1.11.16-1.75.16-1-7.8 4.94-14 9.24-19.74 1.75-.8 3.18-4.46 5.25-1.91M250.67 248.79a42 42 0 0 0-19.1 26.14c-1.12.48-.8 0-1.75-.32 1.59-11.46 10.19-22.45 19.58-27.22l1.27.16v1.24Z"/><path fill="#624797" fill-rule="nonzero" d="M400.43 262.11c-3.32 1.82-15.63 8.82-18.88 11.82a105.07 105.07 0 0 0-16.08-4.94c6.37-6.21 9.22-11 17-12.24 6.61-1 14.63 3 18 5.34"/><path fill="#141414" fill-rule="nonzero" d="M349.25 284.78a9.19 9.19 0 0 1 1.74 8c-3.19 8.12-9.88 12.66-17.52 14.41-2.87.48-6.85 1-9.23-.79a8.35 8.35 0 0 1-3.19-6.85c.57-7 6.32-11 11.93-14 5.27-2.76 12.61-4.16 16.27-.82"/><path fill="#EBEBEB" fill-rule="nonzero" d="M347.8 288.93c.73 3.14-1 5.54-3 7.17-.59-2-3.33-2.32-5.4-1.53-1.43.8-3.68 2.71-3.27 5 .41 2.29 1.67 2.73 1.67 2.73-3.2 1.52-7 3.18-11.15 1.91-2.69-1.51-3.13-4.94-1.82-7.4 3.83-7.21 10.49-9.41 16.06-10.64 2.92-.36 5.67-.43 6.94 2.75"/><path fill="#624797" fill-rule="nonzero" d="M310.54 390.5a66.31 66.31 0 0 0 5.66 12.37c-3 1.75-7.41 2.44-9.32 6.1-3.82 11.3.16 23.4 3.18 33.91l-4.45 1.91c2.27-11.23-2.87-22.61-7-32.64 3.66-3.5 10.67-6.21 9.55-13.21-.32-1.6-1.27-3.51-2.86-4l-3.19-.64c1.6-.8 2-3.15 2.23-4.14 2.55-.48 3.7-.59 6.21.32"/><path fill="#EEC900" fill-rule="nonzero" d="M301.78 391.45c-1.25 2.33-4.93 3.35-8 4.62l-4.3 1.75a14.47 14.47 0 0 0-4.68-3l.7-.35c4.78-2.07 10.59-4.12 16.17-4.28 0 0 .73 0 .07 1.25"/><path fill="#7865D2" fill-rule="nonzero" d="M292.07 405.7c6.78 11.6 12.65 25.3 11.63 37.18-.34 2.57-1.92 4-4.14 3.82-10.2-1.27-14.65-11.93-18.55-21.36-3.14-7.59-4.38-18.6-1.2-26.4.64-1.6 2.39-3.19 4.3-1.91 3.18 1.75 6 5.32 8 8.67"/><path fill="#EEC900" fill-rule="nonzero" d="M305.92 398.93c1.12 5.89-5.09 8.28-8.28 11a100.67 100.67 0 0 0-6.36-10.19c12.53-6.22 14.64-.79 14.64-.79M322.32 412.79c-2.54-1.59-5.09-4.78-8.59-5.73 4.29-1.43 12.95-7.18 16.6-2.31 0 0 2.39 3.36-8 8"/><path fill="#7865D2" fill-rule="nonzero" d="M331.37 435.36c4.81 15.06 2.56 22.74-.45 23.76-10.51 1.22-16.39-12.18-19.78-21.71-2.86-8-5.07-23.28-.76-28 6.83-3.6 17.69 15.6 21 25.91"/><path fill="#EEC900" fill-rule="nonzero" d="M342.39 417.41c1.59 5.09-2.33 8.95-5.9 11.14l-4 2.07a69.65 69.65 0 0 0-8.43-15.6c8-4.35 16.24-2.23 18.31 2.39M453.21 442.25l-.8 1.43a20 20 0 0 1-3-14 55.14 55.14 0 0 1 3.82 12.58M450.18 445.93c-3.66 2.55-7.16 4.94-11.46 6-1.6-5.1-4.46-11.46-1.12-16.72.8-1.1 2.04-1.8 3.4-1.88 5.57.8 8 7.64 9.23 12.58M433.94 443.2a92.32 92.32 0 0 0 2.55 9.55c-5.97 1.67-12.03 3-18.15 4-.32-5.9-1.12-13.22 3.82-17.2 4-3 9.71-1.27 11.78 3.66"/><path fill="#141414" d="M352.5 271c7.01-1.24 14.26-.8 14.5 0 .15.49 15.58 3.82 14 4.5-10.5 4.5-16 23.5-16.5 31.5-.33 5.33 3.5 14.83 9.5 25.5l-.26-.47c.98 1.4 1.92 2.74 2.76 3.97 6.5 9.5 9.9 11.74 13.7 16.81 3.79 5.08-4.99 12.26-16.31 21.11-19.97 15.6-62.48 22.8-63.39 8.58-.17-2.62-.31-8.25-.84-12.64-.12-.98 22.93 7.57 32.47 2.83 1.76-.88 2.4-5.04 1.92-12.49-1.24-6.53-4.29-9.8-9.13-9.8-5.88 0-22.38 8.72-28.65 11.87l-.65.33a8.09 8.09 0 0 1-1.8.79c-1.28-.96-10.42-1.87-23.32-8.39-7.4-3.74-13.62-10.9-20-16-1.05-.84-3.72-3.95-6.16-7.25l-.36-.5c-3.5-4.79-6.31-9.75-2.8-8.53 2.67.93 6.38-.72 12.24-6.22s8.58-25.23 7.63-28.57c-.96-3.35 9.34 7.07 15.45 7.57 4.07.33 11.24-1.17 21.5-4.5 19.19 26.14 34.6 34.7 46.24 25.7 1.2-3.8 1.45-8.03 1.66-12.3l.06-1.14.04-.76c.67-12.67-6.33-20.83-11-28.5 3.23-.53 4.58-2.48 7.5-3Z"/><path fill="#532301" stroke="#141414" stroke-linejoin="round" stroke-width="2.8" d="M296.04 267.4c-5.46-1.45-8.6-3.49-9.4-6.12-1.21-3.94.57-8.04 2.02-9.11.96-.72 2.75-1.39 5.36-2l-4.42-94.69c-3.01 1.08-5.32 1.67-6.92 1.75-1.6.08-3.95-.25-7.06-1.01l6.44 122.83c2.84 1.18 5.2 1.73 7.1 1.63 1.88-.1 4.17-.89 6.88-2.37v-10.9Z"/><path fill="#141414" d="M335.67 159.2c11.62-.61 27.05-3.72 46.3-9.32 20.3-5.66 35.73-8.76 46.31-9.32 10.58-.55 26.25.92 47.03 4.43L468.18 8.94c-30.55 17.36-50.9 30.27-61.06 38.75-34.5 28.78-73.13 54.13-95.4 71.09-32.13 24.43-43.01 36.52-32.66 36.25l10.54.45c22.97 2.88 38.33 4.12 46.07 3.72Z"/><path fill="#F23213" d="M468.22 9.82c-20.77-3.5-36.44-4.98-47.02-4.43-10.58.55-26.01 3.66-46.3 9.32-19.26 5.6-34.7 8.7-46.31 9.31-11.62.61-40.55-4.02-47.03-4.42a57.9 57.9 0 0 0-13.06.68l7.13 136.06c10.7-13.64 25.48-27.64 44.36-42 16.2-12.32 75.77-36.35 108.34-63.26 10.35-8.55 23.65-22.31 39.9-41.26Z"/><path stroke="#141414" stroke-linejoin="round" stroke-width="2.8" d="M335.7 159.58c11.6-.61 27.04-3.72 46.3-9.32 20.29-5.66 35.72-8.76 46.3-9.32 10.58-.55 26.25.92 47.03 4.43L468.2 9.32c-20.78-3.5-36.45-4.98-47.03-4.43-10.58.56-26.01 3.66-46.3 9.32-19.26 5.6-34.7 8.7-46.3 9.32-11.62.6-40.56-4.03-47.03-4.43a57.9 57.9 0 0 0-13.07.68l7.13 136.06 13.07-.69c23.6 3.36 39.28 4.83 47.02 4.43Z"/></g></svg>