<svg xmlns="http://www.w3.org/2000/svg" xmlns:xlink="http://www.w3.org/1999/xlink" viewBox="0 0 400 400"><defs/><defs><path id="prefix__nürburgring-b" d="M9.56 272.05l4.4-22.84c1.53-.23 2.8-.35 3.79-.35h1.31c2.64 0 3.69 1.28 3.15 3.84l-3.72 19.35h9.56L32 251.73c1.37-7.18-1.8-10.77-9.5-10.77h-2.06c-5.35 0-10.27.58-14.77 1.72L0 272.05h9.56zm41.79-34.92a4.5 4.5 0 0 0 2.95-1.12 4.46 4.46 0 0 0 1.63-2.66 3.16 3.16 0 0 0-.6-2.66 3 3 0 0 0-2.5-1.12c-1.1 0-2.1.37-2.97 1.12a4.5 4.5 0 0 0-1.6 2.66c-.2 1.03 0 1.92.57 2.66.57.75 1.41 1.12 2.52 1.12zm10.76 0a4.5 4.5 0 0 0 2.95-1.12 4.46 4.46 0 0 0 1.63-2.66 3.16 3.16 0 0 0-.6-2.66 3 3 0 0 0-2.49-1.12c-1.1 0-2.1.37-2.98 1.12a4.5 4.5 0 0 0-1.6 2.66c-.2 1.03 0 1.92.57 2.66.58.75 1.41 1.12 2.52 1.12zM49.3 272.56c5.23 0 10.15-.55 14.77-1.66l5.72-29.42h-9.56l-4.4 22.9c-1.34.19-2.6.28-3.78.28h-1.1c-2.59 0-3.66-1.26-3.2-3.77l3.78-19.41h-9.56l-3.95 20.38c-1.37 7.14 1.8 10.7 9.5 10.7h1.78zm32.17-.51l3.9-20.04c.41-2.36 1.84-3.55 4.29-3.55h9.1l1.26-6.7a53.6 53.6 0 0 0-9.68-.8h-1.08c-7.56 0-12.03 3.53-13.4 10.6l-3.95 20.49h9.56zm35.1.51c7.7 0 12.24-3.56 13.62-10.7l2-10.13c1.37-7.18-1.8-10.77-9.5-10.77h-1.83c-1.3 0-3.06.16-5.27.46l2.12-10.7h-9.56l-7.85 40.18a55.43 55.43 0 0 0 14.14 1.66h2.12zm-.35-7.9h-1.38c-1.6 0-2.82-.1-3.66-.28l2.92-15.17a22.6 22.6 0 0 1 4.07-.35h1.08c1.5 0 2.45.39 2.87 1.15.41.76.45 1.98.1 3.66l-1.42 7.22c-.46 2.51-1.99 3.77-4.58 3.77zm32.51 7.9a63 63 0 0 0 14.77-1.66l5.73-29.42h-9.56l-4.41 22.9c-1.34.19-2.6.28-3.78.28h-1.09c-2.6 0-3.66-1.26-3.2-3.77l3.78-19.41h-9.56l-3.95 20.38c-1.38 7.14 1.8 10.7 9.5 10.7h1.77zm32.18-.51l3.89-20.04c.42-2.36 1.85-3.55 4.3-3.55h9.1l1.25-6.7a53.6 53.6 0 0 0-9.67-.8h-1.09c-7.55 0-12.02 3.53-13.4 10.6l-3.94 20.49h9.56zm31.42 11.22c4.28 0 7.58-.92 9.9-2.75 2.34-1.83 3.86-4.62 4.59-8.36l5.72-29.48a51.92 51.92 0 0 0-14.08-1.72h-2.12c-7.7 0-12.25 3.6-13.62 10.77l-1.95 9.73c-1.34 7.1 1.83 10.65 9.5 10.65h2c1.84 0 3.54-.14 5.1-.4l-.06.28c-.26 1.38-.76 2.35-1.48 2.92-.73.57-1.76.86-3.1.86h-11.84l-1.32 6.64c2.82.57 6.52.86 11.1.86h1.66zm3.38-19h-2c-2.64 0-3.68-1.29-3.15-3.84l1.49-7.73c.53-2.56 2.08-3.84 4.63-3.84h1.38c1.41 0 2.63.12 3.66.35l-2.86 14.77c-.95.19-2 .28-3.15.28zm28.74 7.78l3.9-20.04c.41-2.36 1.84-3.55 4.29-3.55h9.1l1.26-6.7a53.6 53.6 0 0 0-9.68-.8h-1.09c-7.55 0-12.02 3.53-13.4 10.6l-3.94 20.49h9.56zm30-33.6c1.71 0 3.14-.45 4.29-1.35a5.54 5.54 0 0 0 2.12-3.35 3.94 3.94 0 0 0-.83-3.4c-.79-.9-2.04-1.35-3.75-1.35-1.68 0-3.1.45-4.27 1.35a5.28 5.28 0 0 0-2.09 3.4 3.7 3.7 0 0 0 .8 3.35c.8.9 2.05 1.35 3.73 1.35zm-1.72 33.6l5.9-30.57h-9.57l-5.9 30.57h9.57zm17.74 0l4.41-22.84a26.5 26.5 0 0 1 3.78-.35h1.32c2.63 0 3.68 1.28 3.15 3.84l-3.73 19.35h9.56l3.95-20.32c1.38-7.18-1.79-10.77-9.5-10.77h-2.06c-5.34 0-10.26.58-14.77 1.72l-5.67 29.37h9.56zm39.33 11.22c4.28 0 7.58-.92 9.9-2.75 2.33-1.83 3.86-4.62 4.59-8.36l5.72-29.48a51.92 51.92 0 0 0-14.08-1.72h-2.12c-7.71 0-12.25 3.6-13.62 10.77l-1.95 9.73c-1.34 7.1 1.83 10.65 9.5 10.65h2c1.84 0 3.54-.14 5.1-.4l-.06.28c-.26 1.38-.76 2.35-1.49 2.92-.72.57-1.75.86-3.09.86h-11.85l-1.31 6.64c2.82.57 6.52.86 11.1.86h1.66zm3.38-19h-2c-2.64 0-3.69-1.29-3.15-3.84l1.49-7.73c.53-2.56 2.08-3.84 4.63-3.84h1.38c1.4 0 2.63.12 3.66.35l-2.86 14.77c-.96.19-2 .28-3.15.28z"/><filter id="prefix__nürburgring-a" width="104.8%" height="127.6%" x="-2.4%" y="-13.8%" filterUnits="objectBoundingBox"><feMorphology in="SourceAlpha" operator="dilate" radius="2.5" result="shadowSpreadOuter1"/><feOffset in="shadowSpreadOuter1" result="shadowOffsetOuter1"/><feColorMatrix in="shadowOffsetOuter1" values="0 0 0 0 1   0 0 0 0 1   0 0 0 0 1  0 0 0 1 0"/></filter></defs><g fill="none" fill-rule="evenodd"><path fill="#FFF" d="M0 0h400v400H0z"/><g fill-rule="nonzero" transform="translate(25 28)"><path fill="#FFF" stroke="#1A171B" stroke-width="4" d="M98.91 31.34a73.36 73.36 0 0 0 0 0zm.01 0s0 0 0 0 0 0 0 0zm-28.55-17.2c.04.49.03 1 0 1.93l-.01 1c0 1.74.3 2.45 1.34 2.94.93.43 2.69.39 5.1-.15.88-.19 1.8-.44 2.91-.76l2.25-.68c.85-.25 1.43-.4 1.93-.52 6.4-1.4 15.19 3.92 13.4 9.17.46.1 1.12.19 2.08.3a465.34 465.34 0 0 1 1.91.23c4.34.58 6.85 1.7 7.62 4.7 1.66 6.4-.09 9.95-4.34 11.83-.34.15-.68.28-1.1.44l-.91.34c-.53.2-.76.33-.73.3-1.85 2.4-5.34 4.65-10.35 7.04-2.6 1.23-9.7 4.2-10.13 4.45-1.77 1.01-8.8 7.85-10.58 10.13-1.56 2-3.77 8.42-5.62 16.07a114 114 0 0 0-1.89 9.35 35.8 35.8 0 0 0-.36 3.15 7.4 7.4 0 0 0 0 .86c0 .04 0 .04-.03-.02a57.78 57.78 0 0 0 4.58 7.47c1.14 1.54 1.5 2.52 2.1 4.88.33 1.26.51 1.62 1.06 2 2.54 1.75 4.04 5.12 4.87 9.64.54 2.9.74 5.87.74 8.57 0 2.13.7 4.57 1.89 6.95a20.8 20.8 0 0 0 1.94 3.15l.04.05c3.38 2.06 4.78 5.57 5.65 11.53.1.66.11.77.33 2.44.2 1.57.33 2.42.5 3.27a4.8 4.8 0 0 0 1.27 2.45c.8.93 6.16 5.49 6.41 5.72 1.86 1.67 4.33 2.8 7.44 3.54 2.29.54 3.16.64 8.16 1.12l1.59.17c1.03.13 2.37.49 4.52 1.16.58.17 4.76 1.52 6.11 1.93 2.66.82 4.92 1.44 7.06 1.92 4.22.96 7.68 1.28 10.35.87 1.74-.26 4.2-.85 9.48-2.23l.18-.05c8.36-2.18 10.43-2.66 11.89-2.48.55.07 1.35-.12 5.56-1.29.81-.23 1.47-.4 2.1-.56 5.15-1.29 8.33-1.37 10.35.78 1.76 1.87 2.15 4.02 1.28 6.16-.57 1.43-1.52 2.61-3.22 4.31l-1.31 1.31a11.3 11.3 0 0 0-1.1 1.3c1.13 2.56-1.29 6.04-5.1 9.22-3.3 2.76-6.51 4.3-8.79 3.43l-.61.91c-.5.72-.94 1.32-1.42 1.9a15.17 15.17 0 0 1-3.05 2.86c-3.87 2.69-7.56 4.12-11.44 4.1a194.13 194.13 0 0 0 .21 1.88c.3 2.88.16 4.48-1.16 5.64-5.21 4.58-9.87 4.84-15.87 2.18-.87-.38-1.25-.57-3.17-1.52-2.83-1.4-4.33-2.04-6.07-2.45-.21-.05-.58-.11-1.12-.18l-3.2-.36c-1.5-.18-2.8-.38-4.05-.63-4.75-.96-8.08-2.55-9.71-5.4a56.6 56.6 0 0 0-7.02-9.26 12.8 12.8 0 0 0-1.95-.32c-1.44-.13-3.3-.17-5.24-.1-1.98.06-3.9.24-5.45.5a8.92 8.92 0 0 0-2.82.78c-.31.24-.88 2.7-.88 4.06 0 .07 0 .25.03.55l.09 1.11c.09 1.14.13 2.09.13 3.02 0 2.44-.3 4.23-1.2 5.47-1.51 2.03-4.17 3.62-9.12 5.91l-3.41 1.56a46 46 0 0 0-2.83 1.4 9.1 9.1 0 0 0-1.57 1.04c.42 2.65.37 4.28-.5 5.12.88 3.75.87 5.81.29 8.1l-.07.29-.07.26c-.18.73-.2 1.2-.02 2.05.93 4.52 1.9 11.78 1.44 13.36-.69 2.4-.07 3.58 2.37 5.6l1.06.88c.74.63 1.26 1.13 1.71 1.7a5 5 0 0 1 1.07 2.7 7.84 7.84 0 0 1-.52 3.57l-.1.29c-.28.83.93 3.14 3.42 6.36 1.64 2.11 2.04 3.64 1.33 5.32-.1.23-.5 1-.42.87-.22.43-.3.75-.33 1.23-.18 4.6.6 13.6 1.5 15.81.92 2.24 1.92 3.21 4.29 4.61l.33.2a14.27 14.27 0 0 1 3.62 2.7c2.53 2.69 3.28 10.5 2.28 15.88-1.03 5.47-.04 8.98 2.65 12.7.38.53 1.66 2.2 1.8 2.4.73.98 1.2 1.73 1.53 2.54.21.52.35 1.03.41 1.55.56 4.67-1.3 8.48-4.92 9.27-3.6.78-7.65-1.74-11.2-6.92-1.21-1.77-4.93-6.69-5.63-7.76a19 19 0 0 1-2.38-5.02 191.32 191.32 0 0 1-2.8-10.05c-1.28-5.18-1.86-8.83-1.49-10.84.23-1.27-4.77-18.35-6.51-22.7-1-2.47-1.8-5.73-2.62-10.15-.2-1.05-1.57-9.2-1.92-10.79a13.44 13.44 0 0 0-.5-1.77c-1.73-1.37-2.86-5.87-4.92-16.31-.44-2.23-.9-4.67-1.39-7.37-.46-2.53-.92-5.14-1.5-8.44l-1.27-7.3a224.82 224.82 0 0 0-1.1-5.81 2.5 2.5 0 0 1-.46-.84c-.14-.38-.27-.89-.4-1.57a89.09 89.09 0 0 1-.77-5.22c-.53-4.13-1.14-9.96-1.78-16.71-1.18-12.46-2.24-25.95-2.24-28.6 0-5.43 1.78-18.79 4.45-34.87 1.1-6.56 2.24-12.95 3.16-17.64.45-2.32.83-4.15 1.13-5.37.15-.66.29-1.15.4-1.49.1-.31.2-.53.37-.78.4-.57.94-.98 1.9-.87.67-3.07 1.64-10.19 3.09-22.37 2.22-18.7 3.09-24.32 4.74-26.28 1.2-1.4 1.8-6.08 2.04-14.34-.4-3.27.22-6.22 1.75-10.45 1.55-4.34 1.65-4.65 1.6-5.56-.48-10.1 2.1-16.71 8.43-19.85h0c4.22-2.1 5.8-2.73 7.74-2.9 1.2-.11 2.37 0 4.07.35.7.14 4.42 1 5.69 1.26 2.31.5 4.11.46 7.56.05 3.67-.44 5.04-.5 7.04-.04 1.11.25 3.57.42 6.85.5a212.59 212.59 0 0 0 8.09.01l.7-.01.57.44c.35.27.81.7 1.29 1.25a5.55 5.55 0 0 1 1.47 3.03c.16 1.57-.64 2.95-2.2 3.8-5.28 2.9-9.03 3.75-13.01 3.11-1.98-.32-1.48-.16-7.75-2.35-1.13-.4-1.38-.28-2.46.86l-.1.11c-1.67 1.78-2.93 2.5-5.11 2.13-2.18-.37-6.52-.3-10.12.21-1.9.27-3.48.64-4.5 1.06-.3.12-.51.23-.67.33zm-.5 261.95a4.6 4.6 0 0 1 0 0zm.01-.02a8.04 8.04 0 0 1 0 0z"/><use fill="#000" filter="url(#prefix__nürburgring-a)" xlink:href="#prefix__nürburgring-b"/><use fill="#000" xlink:href="#prefix__nürburgring-b"/></g></g></svg>