<svg xmlns="http://www.w3.org/2000/svg" width="601" height="601"><g fill="none" fill-rule="evenodd" transform="translate(0 .9)"><circle cx="300" cy="300.1" r="300" fill="#FFF"/><path fill="#000" fill-rule="nonzero" d="m393 505.35-14.12 7.84-13.08 3.66 49.69-150.63c-3.79-2.77-3.38-2.7-9.94-6.8-40.27-25.1-71.45-43.9-118.2-27.2-115.59 41.33-198.45-36.46-209.96-45.87-.27-1.62-.67-2.55-.52-4.18 5.06-56.04 31.33-104.52 65.33-142.18 4.03 4.71 5.8 8.08 10.98 11.5 48.12 31.91 100.64 35.9 157.7 20.63 37.13-9.94 73.19-43.04 116.63-26.15 28.24 10.99 39.75 26.15 66.42 50.21l8.9 5.23L393 505.35Z"/><path fill="#FF0202" fill-rule="nonzero" d="m356.91 344.26-65.53 181.01c-3.24.14-5.08.16-8.3-.13A52.42 52.42 0 0 1 268.6 522l33.38-98.77-5.23-3.66c-19.35-7.32-28.09-13.55-53.87-8.89-54.91 9.94-126.72-15.73-153.57-71.88-5.76-12.03-8.95-17.56-10.89-29.76a71.09 71.09 0 0 1-1.04-13c52.81 43.72 106.22 65.85 179.1 53.45 34.25-5.83 56.08-23.74 88.4-10.99a78.7 78.7 0 0 1 12.02 5.76Z"/><path fill="#FFF" fill-rule="nonzero" d="m373.95 255 1.72 2.05c4.1 4.9 6.25 8.59 8.7 14.94l.43 1.15.21.58c2.39 6.68 3.8 13.72 6.02 29.44 1.4 9.92 1.83 13.04 2.64 15.24l.08.22.12.3.1.21c.11.27.24.54.38.82l.1.2.84 1.53c3.87 6.99 7.18 10.66 11.93 13.24 1.15.62 1.21.73 1.62 2.63.24 1.1.42 2.33.41 2.75-.04 1.2-1.34 1.41-4.13.66-7.14-1.95-12.35-7.3-16.12-16.53-2.8-6.88-3.9-12.42-5.18-26-1.13-12.11-1.54-14.48-3.61-21.17l-1.81-5.82-1.34-1.24a5.7 5.7 0 0 0-1.51-1.17c-.21.1-1.39 3.08-2.48 6.14l-.19.54c-.35.98-.68 1.97-.96 2.84-2.6 8.18-3.15 15.54-1.62 21.67l.59 2.38-1.44.87c-2.9 1.75-2.98 1.75-4 .21-1.34-2.05-2.98-7.8-3-10.56-.03-3.76.87-9.34 2.6-16.07 1.9-7.46 2.86-13.16 2.78-16.55-.07-2.77 0-2.86 3.61-4.42l2.5-1.08ZM235.6 189.31c3.89-.69 4.74-.4 7.75 2.6a33.97 33.97 0 0 1 7.34 11.42c2.03 4.99 2.32 6.23 1.58 6.74-.94.64-4.3 1.72-4.99 1.6-1-.16-2.28-1.9-4.1-5.56-3.83-7.79-5.9-9.2-12.51-8.54-5.99.6-14.08 2.69-27.94 7.29l-1.15.38c-2.91.98-6.07 2.06-9.51 3.25-20.06 6.99-35.34 12.99-50.41 19.8-3.72 1.68-4.75 2.27-5.74 3.3-2.55 2.65-3.6 7.13-3.1 13.24l.05.52.04.34c.05.51.1 1 .17 1.5l.05.34c.53 3.58 1.71 7.67 5.23 18.81 6.32 20.03 10.36 29.39 16.68 38.7 3.83 5.62 5.96 7.24 10.24 7.77l1.17.15.24.03c3.51.34 6.19-.65 42.2-13.17 35.09-12.19 46.6-16.43 50.9-18.76 4-2.16 4.91-7.44 3.03-17.5-.87-4.7-.89-4.99-.29-6.07 1.22-2.18 3.58-2.8 5.17-1.32 1.43 1.31 3.04 6.62 3.76 12.42.94 7.49 1.22 12.68.77 13.87-.9 2.34-4.98 4.96-11.6 7.47-2.04.76-25.5 8.88-52.12 18.03l-48.43 16.64-1.2-.36c-1.53-.46-4.7-3.63-6.67-6.67-3.4-5.24-6.37-11.24-9.77-19.68-.9-2.23-2.56-6.3-4.22-10.31l-.41-1-1.6-3.86a168.96 168.96 0 0 1-9-27.01c-3.82-15.29-4.6-24.99-2.22-28.07.52-.67 6.14-3.11 22.8-9.79l1.27-.5c3.88-1.56 8.31-3.32 13.39-5.34 26.5-10.52 55.91-19.64 73.15-22.7ZM382.33 307.8l1 2.7c1.17 3.18 1.87 2.46-5.72 5.8-5.33 2.35-5.87 2.54-8.62 3.18l-1.37.32-.26-1.2c-.4-1.82.27-3.66 1.87-5.15 1.24-1.16 1.9-1.5 6.1-3.1l.29-.1.55-.21c2.3-.88 4.46-1.68 5.02-1.86l1.14-.38Zm-.97-65.96c.81 1.12 8.94 8.73 10.6 9.93 3.57 2.6 7.6 3.94 11.01 3.66.8-.06 2.02-.1 2.72-.07 1.83.07 4.02-.8 7.46-2.95 5.15-3.22 7.06-3.47 9.24-1.25 1.82 1.85 1.74 2.31-.72 4.23-4.3 3.34-10.7 5.65-17.66 6.37-2.14.21-2.89.4-3.06.75-.25.53.6 3.12 2.4 7.24 1 2.3 1.29 3.36 1.72 6.38 1.3 9.19.25 16.6-3.3 23.38-1.4 2.68-1.97 3.46-3.2 4.32-.82.58-2.12 1.72-2.9 2.52l-1.4 1.45-.45-.7c-.58-.9-.94-2.98-.74-4.33.24-1.62 1.52-4.37 3.34-7.13 1.87-2.85 3.3-5.9 3.55-7.6.53-3.65-1.89-14.28-4.4-19.37-3.44-6.92-9.9-13.71-16.57-17.39a9.35 9.35 0 0 1-2.15-1.42c-.05-.16.87-2.12 2.06-4.36 1.52-2.86 2.24-3.94 2.45-3.66Zm-38.2-55.18c1.62.24 4.88 2.02 6.55 3.59.85.8 3.2 3.79 5.22 6.63 2.02 2.85 3.78 5.14 3.9 5.1.14-.05.5-.8.8-1.67 1.42-4.02 2.17-4.78 3.88-3.87 1.1.58 1.5 1.71 1.5 4.23 0 2.6.25 3.23 1.32 3.34.49.05 1.07.02 1.31-.07.59-.2.81.6.81 2.85 0 6.69-2.6 13.5-7.9 20.7a48.54 48.54 0 0 1-20.64 15.8c-3.97 1.57-6.47 1.92-8.95 1.23-1.9-.53-2.27-1.44-1.18-2.9 1.19-1.58 3.07-2.78 7.22-4.61 12.9-5.68 21.28-14.02 25.54-25.42.67-1.8.67-1.87.03-1.04-7 9.13-15.37 16.92-22.39 20.85-2.1 1.18-3.74 1.84-7.15 2.89-4.7 1.45-7.65 1.85-11.35 1.53-2.04-.18-2.4-.5-3.02-2.73l-.36-1.3-24.42 8.3-1.03.36-3.1 1.06-1.04.35c-11.71 3.99-22.87 7.8-26.22 8.96a185.77 185.77 0 0 0-24.26 10.27c-3.29 1.71-3.74 2.38-3.89 5.73-.1 2.26 1.07 6.17 3.45 11.56 1.48 3.36 1.81 5.52 1.01 6.63-.29.4-1.18.9-2.34 1.3-2.22.77-2.22.77-4.1-3.12-2.76-5.7-4.52-12.31-4.57-17.15-.02-1.94.11-2.37 1.22-3.94 2.34-3.31 7.01-6.6 14-9.87 1.72-.8 9.09-3.5 17.13-6.29 7.77-2.69 21.65-7.6 30.85-10.9a583.59 583.59 0 0 1 25.13-8.57c4.63-1.4 8.45-2.62 8.5-2.71.2-.4-3.86-.88-6.13-.73l-.4.03-.25.02-.5.05-.26.02-.24.03-.75.09-.25.04c-3.34.5-7.53 1.82-21.8 6.52a9754.3 9754.3 0 0 1-35.59 11.65c-17.7 5.75-24.77 8.07-28.13 9.4l-.3.11a13.5 13.5 0 0 0-2.88 1.47 32.59 32.59 0 0 0-8.8 8.78c-2.23 3.36-4.37 8.5-9.07 21.86l-5.07 14.4-3.1 1.08c-2.63.91-3.11 1-3.1.57.02-.42 1.41-5.27 3-10.55l.22-.77.24-.78c1.48-4.93 3.02-9.89 3.65-11.67 2.86-8 7.52-18.23 9.62-21.12 1.56-2.15 4.79-4.6 8.2-6.2 2.95-1.4 22.05-8.12 42.64-15.09l1.33-.45 1.33-.45 1.34-.45.67-.22 1.71-.58c.57-.2 1.15-.38 1.72-.57l1.71-.58 13.42-4.44c15.85-5.19 20.45-6.71 24.15-7.22l.32-.05 1.27-.12.32-.02c1.02-.07 2.1-.09 3.48-.12 2.24-.06 4.1-.18 4.15-.27.05-.1-.45-.53-1.1-.96-1.52-1.03-4.37-1.76-7.12-1.83l-.93-.02h-.74l-.22.02h-.23l-.22.02-.34.03-.23.02c-.94.1-1.99.28-3.38.62l-.36.1c-3.76.95-9.97 2.97-22.7 7.18-7.83 2.59-14.06 4.63-20.1 6.59l-1.25.4-1.24.4-2.16.7-1.08.35c-8.32 2.66-17.12 5.44-30.05 9.47l-11.86 3.71-2.04-.27-.11-.02-.22-.03-.21-.03-.11-.02-.22-.05-.22-.04c-3.32-.75-7.62-3.26-23.22-13.24-7.33-4.69-13.62-8.75-15.88-10.24l-.22-.15c-.44-.29-.67-.45-.68-.47-.1-.3 6.77-2.07 7.31-1.88.13.05 1.13.7 2.68 1.72l.6.4c1.81 1.2 4.2 2.83 6.78 4.6 9.5 6.5 13.31 8.96 17.1 10.85l.38.2.77.37.4.18c.19.1.39.18.59.27 4.65 2.12 6.17 2.51 8.52 2.22 4.54-.57 16.12-4.36 41.72-13.63 29.68-10.76 39.76-14.01 44.8-14.47 4.04-.37 9.16-.36 12.48.03 1.4.16 2.6.23 2.63.14.18-.37-1.55-1.64-3.37-2.46-5.7-2.57-12.98-2.87-21.3-.89l-.24.06c-2.61.68-11.53 3.63-20.66 6.8l-.94.32c-.32.1-.63.22-.95.33l-.93.32-.92.33-.92.32c-2.9 1.02-5.73 2.03-8.26 2.95-3.73 1.37-11.2 4.02-16.6 5.89-8.81 3.05-10.2 3.45-13.7 4-4.62.72-10.03.83-13.43.28-2.03-.33-2.65-.59-3.57-1.5-2.65-2.65-5.78-11.27-6.77-18.67l-.23-1.68 2.36-.81c1.3-.45 2.39-.8 2.43-.76.04.03 1.28 3.33 2.76 7.33 2.95 7.96 3.22 8.42 5.72 9.86 1.83 1.05 2.78 1.14 5.7.55l.18-.03.36-.08.55-.11.36-.08 1.08-.24.37-.1.18-.03.37-.1.17-.04.35-.08c4.95-1.26 11.39-3.4 28.16-9.23 6.62-2.3 12.67-4.36 17.34-5.92l1.05-.35c4.11-1.36 7-2.28 8.02-2.54 10.35-2.64 19.1-3.4 27.28-2.4 3.97.49 4.44.63 7.75 2.38a71.14 71.14 0 0 1 17.3 13l2.02 2.15-.73-1.8c-1.63-3.98-10.97-11.83-24.33-20.46a55.34 55.34 0 0 1-4.6-3.16c-.15-.43.91-1.62 1.69-1.89 1.35-.47 5.67.7 7.94 2.15 11.62 7.42 19.54 14 24.29 20.16 1.06 1.38 2.36 2.74 2.89 3.01l.95.5 1.18-2.43-1.68-2.42c-3.77-5.39-6.9-8.44-18.12-17.62-8.55-7-8.62-7.09-6.21-7.92 1.04-.36 1.77-.3 3.96.3 1.48.4 2.96.83 3.3.95.33.12 1.7 1.18 3.5 2.67l.49.42c1.1.92 2.32 1.97 3.55 3.04l.57.5a140.5 140.5 0 0 1 5.79 5.32 64.25 64.25 0 0 1 5.47 6.33c3.29 4.53 3.3 4.53 4.48 2.45.75-1.33.75-1.4.02-2.96-1.7-3.65-6.19-9.71-10.65-14.37a22.82 22.82 0 0 1-2.4-2.76c-.07-.22.1-.97.4-1.67.5-1.22.56-1.26 1.52-1.12Zm37.53 32.95c.94 1.46 1.28 9.94.6 15.1-1.3 9.96-6.37 18.2-14.4 23.35-2.23 1.44-5.91 2.87-7.53 2.94-.5.02-1.47-.1-2.16-.25-1.04-.24-1.33-.47-1.6-1.3l-.35-1 1.94-.89c4.83-2.23 8.3-5.3 11.18-9.9 3.08-4.9 5.07-11.11 7.53-23.5.8-4 1.4-6.21 1.71-6.33.6-.22 2.5.88 3.08 1.78Zm-9.02-11.15c1.57-.53 1.5-.71 1.58 4.31.16 11.35-3.88 22.16-11.79 31.5-1.77 2.1-2.15 2.37-8.52 6.12-7.16 4.21-7.41 4.33-9.9 4.55a9.75 9.75 0 0 1-5.45-.89l-1.54-.69.51-.8c.8-1.26 2.96-2.65 7.1-4.58a41.21 41.21 0 0 0 5.02-2.67c7.32-5.45 11.33-10.46 15.63-19.53.76-1.6 1.75-4 2.71-6.5l.27-.7c1.58-4.15 3-8.33 3.03-9.2 0-.3.5-.63 1.35-.92Z"/><path fill="#000" fill-rule="nonzero" d="M300.05 600c-165.28 0-300-134.72-300-300S134.77 0 300.05 0s300 134.72 300 300-134.72 300-300 300Zm0-68.2A231.29 231.29 0 0 0 531.85 300a231.3 231.3 0 0 0-231.8-231.8A231.29 231.29 0 0 0 68.25 300a231.28 231.28 0 0 0 231.8 231.8ZM143.26 93.15l3.46-2.54c7.29-5.38 8.68-12.1 3.1-19.68-5.96-8.1-13.03-7.48-20.51-1.97l-9.47 6.98 26.3 35.69 6.96-5.13-9.84-13.35Zm-12.2-16.56 1.22-.91c3.89-2.86 7.03-4.15 10.4.44 3.43 4.64 1.87 7.18-2.25 10.21L139 87.38l-7.96-10.8Zm73.08-24.85c-5.75-11.84-18-17.14-29.9-11.36-11.9 5.78-15.31 18.68-9.56 30.53 5.7 11.74 17.79 17.38 29.96 11.47 12.16-5.91 15.2-18.9 9.5-30.64Zm-8.2 3.6c2.99 6.13 3.6 15.18-5.03 19.37-8.62 4.18-15.36-1.89-18.34-8.02-3.14-6.46-1.96-15.07 5.4-18.64 7.35-3.57 14.84.83 17.98 7.28Zm23.84-31.25-8.3 2.4 12.37 42.58 20.05-5.82-2.1-7.23-11.75 3.41-10.27-35.34Zm33.4-7.64-8.5 1.53 7.84 43.64 8.51-1.53-7.84-43.64Zm31.94 4.15 8.91-.6-.5-7.5-26.46 1.77.5 7.5 8.92-.6 2.46 36.73 8.63-.57-2.46-36.73Zm31.06-7.44-8.63-.37-1.87 44.3 8.64.36 1.86-44.3Zm41.5 8.9c-2.2-3.4-7.29-6.18-11.18-6.8-7.37-1.2-13.71 3.8-14.88 11.06-1.1 6.79 2.57 10.3 7.83 13.52 3.2 1.9 7.18 3.84 6.45 8.37-.54 3.37-3.17 5.98-6.65 5.42-3.66-.59-6.25-4.1-6.87-7.66L326 50.5c2.2 5.53 6.06 9.72 12.1 10.7 8.94 1.44 15.4-3.9 16.8-12.66 2.37-14.69-15.49-14.4-14.3-21.78.46-2.84 3.4-4.51 6.14-4.07 2.84.45 4.7 2.18 5.98 4.65l4.96-5.28Zm46.9 11.4a20.64 20.64 0 0 0-8.56-5.57c-12.34-4.08-24.26 3.67-28.22 15.62-3.85 11.6 1.53 24.72 13.36 28.65 3.4 1.12 6.83 1.08 10.38.65l3.24-9.77c-3.16 1.86-7.29 2.54-10.8 1.38-7.65-2.54-10-11.18-7.64-18.27 2.4-7.25 9.33-13.01 17.2-10.4a12.8 12.8 0 0 1 7.78 7.53l3.26-9.82Zm17.82 25.81 8.37-15.33-7.59-4.14-21.23 38.92 7.58 4.14 9.5-17.4 14.03 7.67-9.49 17.4 7.6 4.13 21.23-38.92-7.6-4.14-8.36 15.33-14.04-7.66Zm59.62 27.9 4.66-5.9-18.02-14.2-27.43 34.84 18.02 14.19 4.66-5.92-11.23-8.84 7.42-9.42 10.81 8.51 4.66-5.91L464.76 86l6.03-7.67 11.23 8.84ZM190.35 556.23l-.82 9.92 8.39 3.86 3.77-48.37-6.09-2.8-34.74 34.1 8.27 3.8 7.23-6.96 13.99 6.45Zm.76-7.42-9.56-4.4 11.18-12.6.1.06-1.72 16.94Zm41.15 4.71-.11-.02 4.45-18.16-8.4-2.06-10.55 43.06 8.4 2.05 4.74-19.35.12.02 9.01 22.74 10.8 2.64-11.57-27.41 21.21-15.87-10.34-2.53-17.76 14.9Zm55.6-2.57 8.91.59.5-7.51-26.46-1.75-.5 7.51 8.92.59-2.42 36.73 8.62.57 2.42-36.73Zm33.22-8.12-8.63.6 3.08 44.23 8.63-.6-3.08-44.23Zm62.64 10.3c-3.1-12.8-13.93-20.6-26.79-17.48-12.86 3.11-18.94 14.99-15.84 27.79 3.07 12.69 13.68 20.77 26.82 17.59 13.15-3.18 18.88-15.22 15.81-27.9Zm-8.77 1.75c1.6 6.63.27 15.6-9.04 17.86-9.32 2.26-14.61-5.11-16.22-11.74-1.68-6.98 1.3-15.14 9.25-17.06 7.94-1.92 14.33 3.97 16.01 10.94Zm34.93 12.02 7.77-3.8-13.25-27.03.1-.06 34.6 17.56 5.6-2.75-19.9-40.6-7.76 3.8 13.12 26.77-.1.06-34.6-17.56-5.6 2.74 20.02 40.87Z"/></g></svg>