<svg xmlns="http://www.w3.org/2000/svg" xmlns:xlink="http://www.w3.org/1999/xlink" viewBox="0 0 400 400"><defs/><defs><path id="prefix__sylt-b" d="M169.52 254.66v-.32c.54 0 1.11.03 1.71.08.6.05 1.17.03 1.71-.08a31.84 31.84 0 0 0 12.38-3.06 23.48 23.48 0 0 0 4.48-3.06 15.78 15.78 0 0 0 3.34-4.02 8.35 8.35 0 0 0 1.3-7.08 21.78 21.78 0 0 0-2.12-5.31 40.47 40.47 0 0 0-2.44-3.95 25.47 25.47 0 0 0-2.93-3.46c-1.3-1.39-2.6-2.76-3.91-4.1a93.9 93.9 0 0 0-4.07-3.94 72.2 72.2 0 0 1-10.91-12.07 45.3 45.3 0 0 1-4.24-7.16 33.46 33.46 0 0 1-2.6-7.97c-.33-1.82-.6-3.6-.82-5.31-.22-1.72-.16-3.49.16-5.31 1.3-7.3 4.4-13.84 9.29-19.64a16.8 16.8 0 0 1 5.86-4.66c1.85-.86 3.53-.75 5.05.32a8.1 8.1 0 0 1 2.6 2.41 20.08 20.08 0 0 1 4.08 8.37c.54 1.82.76 3.7.65 5.63a48.86 48.86 0 0 1-.65 5.64c-.55 3.64-1.5 7.1-2.85 10.38a31.92 31.92 0 0 1-5.79 9.09l-1.46 1.93c-1.2 1.61-.87 2.68.98 3.22a7.5 7.5 0 0 0 2.6.64c3.58.22 6.57-.75 8.96-2.9a29.9 29.9 0 0 0 5.3-6.1 26.58 26.58 0 0 0 3.33-7.57 37 37 0 0 0 1.14-5.88l.65-5.87c.11-1.4 0-2.9-.32-4.5a22.18 22.18 0 0 0-2.2-7.41 43.13 43.13 0 0 0-4.16-6.6 11 11 0 0 0-4.23-3.54c-4.67-2.36-9.34-3.33-14-2.9-3.26.33-6.36 1.1-9.29 2.34a30.74 30.74 0 0 0-8.14 5.07 47.45 47.45 0 0 0-9.93 11.74 37.17 37.17 0 0 0-4.97 12.72 34.2 34.2 0 0 0 .4 13.84 41.23 41.23 0 0 0 3.34 9.17 38.34 38.34 0 0 0 5.46 8.05 87.88 87.88 0 0 0 4.72 5.23 144.8 144.8 0 0 0 5.05 4.9 77.7 77.7 0 0 1 9.28 9.83 54.32 54.32 0 0 1 3.91 5.79 26.85 26.85 0 0 1 1.47 3.54c.43 1.5.21 3.11-.65 4.83a7.48 7.48 0 0 1-4.56 3.7c-3.91 1.29-6.57 0-7.98-3.86-.98-3-.66-5.74.97-8.21 1.3-1.72.93-2.9-1.14-3.54a13.81 13.81 0 0 0-6.02-.32 6.54 6.54 0 0 0-5.38 5.3 6.5 6.5 0 0 0-.32 2.1c0 .75.05 1.45.16 2.1 1.09 5.79 4.67 9.43 10.75 10.94 1.2.21 2.36.34 3.5.4 1.14.05 2.3.19 3.5.4zm40.9 38.33c6.92 1.52 12.86-.05 17.83-4.7a63.55 63.55 0 0 0 9.47-11.2 47.94 47.94 0 0 0 6.08-13.48c1.19-4.11 2.16-8.28 2.91-12.5.76-4.22 1.4-8.44 1.95-12.66l.97-10.72c.22-1.51.7-2.6 1.46-3.25a88.74 88.74 0 0 0 4.13-3.73 88.74 88.74 0 0 1 4.13-3.73 23.7 23.7 0 0 1 2.1-1.87c.76-.6 1.52-1.22 2.28-1.87a8 8 0 0 0 1.21-1.13c.38-.44.57-.92.57-1.46-.43-.55-.9-.82-1.38-.82-.49 0-1 .11-1.54.33-1.4.54-2.64 1.19-3.72 1.95-1.2.97-2.4 1.97-3.65 3a101.89 101.89 0 0 0-3.65 3.16c-.21.11-.4.25-.56.41-.16.16-.46.14-.9-.08 0-.43-.02-.87-.07-1.3a9.36 9.36 0 0 1-.09-1.3v-4.14c0-1.35-.05-2.73-.16-4.14a25.2 25.2 0 0 0-2.43-9.9 6.35 6.35 0 0 0-5.67-3.9c-.86-.1-1.67-.1-2.43 0-2.27 0-3.83 1.09-4.7 3.25a6.53 6.53 0 0 0-.72 1.79c-.17.65-.36 1.3-.57 1.94l-.33 1.55c-.1.48-.27.94-.48 1.38l-5.35 12.17a20.56 20.56 0 0 1-2.35 4.14 93.98 93.98 0 0 1-2.83 3.65l-.49.5c-.1.1-.32.05-.65-.17a5.35 5.35 0 0 1-.32-1.62v-2.44c0-.76.05-1.57.16-2.43.22-3.25.38-6.5.49-9.74.1-3.25.05-6.44-.16-9.58a20.96 20.96 0 0 0-.65-5.2c-.65-3.14-2.6-4.7-5.83-4.7h-1.62c-2.49.32-4.05 1.56-4.7 3.73-.33.97-.57 1.97-.73 3a49.35 49.35 0 0 1-.57 3 62.12 62.12 0 0 0-.32 10.96c.21 3.63.6 7.23 1.13 10.8.32 2.16.97 4.22 1.95 6.17 2.05 3.79 5.34 5.57 9.88 5.35a6.9 6.9 0 0 0 5.18-2.76 69.67 69.67 0 0 0 2.43-3.57 24.5 24.5 0 0 0 1.95-3.73l2.59-5.84h.65c0 .43.02.83.08 1.21.05.38.08.79.08 1.22-.11 3.03-.2 6.06-.24 9.1-.06 3.02-.2 6.1-.41 9.24a5.2 5.2 0 0 1-1.3 3.25 186.08 186.08 0 0 0-4.37 5.2c-1.4 1.73-2.86 3.46-4.37 5.2a87.1 87.1 0 0 0-6.57 8.84c-2 3.08-3.91 6.25-5.75 9.5a37.25 37.25 0 0 0-4.7 15.1c-.32 1.72-.27 3.35.17 4.86a5.3 5.3 0 0 0 2.91 3.74c.87.54 1.73.86 2.6.97zm3.74-3.64c-.9-.44-1.46-1.02-1.68-1.73-.23-.7-.4-1.5-.5-2.38a25 25 0 0 1 1-9.18 44.5 44.5 0 0 1 1.52-4.1 62.13 62.13 0 0 1 1.85-3.94 96.73 96.73 0 0 1 6.4-10.17c2.36-3.28 4.83-6.45 7.42-9.52.22-.21.42-.46.58-.73.17-.28.48-.36.93-.25.23.88.25 1.72.09 2.54a51.2 51.2 0 0 1-.6 2.55c-.44 2.3-.84 4.59-1.17 6.89-.34 2.3-.79 4.59-1.35 6.89a46.44 46.44 0 0 1-4.3 10.74 60.29 60.29 0 0 1-6.65 9.6c-.56.54-1.1 1.09-1.6 1.64-.5.54-1.15.93-1.94 1.15zm60.1-43.35c2.26 2.72 5.4 3.81 9.39 3.27a6.47 6.47 0 0 0 4.85-3.27c.54-1.1 1.06-2.15 1.54-3.19.49-1.04 1-2.1 1.54-3.19l3.16-8.26c1.02-2.67 2.02-5.42 3-8.25a108.6 108.6 0 0 0 3.4-11.61c.1-.22.13-.41.08-.58a2.5 2.5 0 0 1-.08-.73c-.22.22-.44.32-.65.32-.22 0-.43.11-.65.33-.22.33-.4.68-.57 1.06l-.56 1.4a68 68 0 0 1-2.1 4.5 36.43 36.43 0 0 0-1.95 4.49c-.76 2.07-1.57 4.11-2.43 6.13l-2.6 6.13a70.61 70.61 0 0 1-4.36 7.52l-.65.66c-.22.22-.43.49-.65.82-.22-.44-.38-.8-.49-1.07a9.8 9.8 0 0 0-.32-.73l-.97-6.63a147.59 147.59 0 0 1-1.3-13.08l-.32-6.46c-.1-2.4-.16-4.77-.16-7.1v-7.12a8.3 8.3 0 0 1 1.62-5.24 68.42 68.42 0 0 0 5.66-9.56 88.32 88.32 0 0 0 4.21-10.22 79.05 79.05 0 0 1 1.62-4.74c1.4-4.36 2.7-8.75 3.9-13.17a94.44 94.44 0 0 0 2.58-13.49c.65-6.1.6-11.93-.16-17.5-.32-1.63-.81-3-1.46-4.08-.75-1.86-2.26-2.9-4.53-3.1-2.92-.45-5.72.26-8.42 2.12a14.06 14.06 0 0 0-3 2.94 54.39 54.39 0 0 0-2.35 3.43 96.05 96.05 0 0 0-7.28 16.68 129.38 129.38 0 0 0-4.53 18.48c-.87 4.14-1.6 8.31-2.2 12.51-.59 4.2-1 8.42-1.2 12.67a189.9 189.9 0 0 0 0 25.02c.2 4.14.75 8.23 1.61 12.27.86 4.03 2 8 3.4 11.93a20.65 20.65 0 0 0 4.37 7.69zm7.18-59.66c0-.21-.03-.35-.08-.4-.06-.06-.09-.14-.09-.25.33-7.57.96-15.04 1.88-22.4.93-7.36 2.32-14.67 4.17-21.92a50.76 50.76 0 0 1 2.13-6.74c.87-2.22 1.75-4.4 2.62-6.57.43-.65.76-1.2.98-1.63.43.54.7 1.03.82 1.46l.32 1.46c1.1 6.6.98 13.32-.32 20.14a156.81 156.81 0 0 1-4.1 16.4c-1.63 5.3-3.54 10.6-5.72 15.9a9.13 9.13 0 0 1-.9 2.12c-.38.65-.73 1.3-1.06 1.95 0 .1-.22.27-.65.48zm30.9 58.43c2.6 1.4 5.1 1.81 7.48 1.22 2.38-.6 4.44-2.14 6.17-4.62a35.96 35.96 0 0 0 5.2-11.36l1.95-7.3c.43-1.4.84-2.75 1.22-4.05.38-1.3.84-2.6 1.38-3.9a6.09 6.09 0 0 0 0-4.37c-.98-.22-1.57-.32-1.79-.32-.21 0-.49.27-.81.8-.54.87-.98 1.74-1.3 2.6-.33.87-.6 1.73-.81 2.6-.76 2.8-1.6 5.6-2.52 8.35a61.14 61.14 0 0 1-3.33 8.03 18.49 18.49 0 0 1-2.44 4.13 30.36 30.36 0 0 1-3.41 3.65c-.22-.32-.43-.7-.65-1.14l-.49-1.94a81.35 81.35 0 0 1-2.6-20.76c0-2.27.08-4.6.24-6.97.17-2.38.3-4.7.41-6.98.22-5.5.6-10.89 1.14-16.13l1.62-15.97c.11-.76.2-1.5.25-2.2.05-.7.19-1.43.4-2.18a4.9 4.9 0 0 1 1.47-.17l8.28-.64a1241.22 1241.22 0 0 1 16.33-1.22c2.66-.16 5.28-.35 7.88-.57 1.09-.21 2-.43 2.77-.65 1.08-.43 1.62-.97 1.62-1.62 0-.54-.19-.94-.57-1.21a9.08 9.08 0 0 0-1.22-.73 4.02 4.02 0 0 0-1.3-.41 23.1 23.1 0 0 1-1.46-.24 5.27 5.27 0 0 0-1.3-.17h-1.46c-2.28.11-4.55.17-6.83.17-2.27 0-4.55.1-6.82.32-2.5.1-4.96.22-7.4.33-2.43.1-4.9.27-7.39.48-.32.11-.65.11-.97 0a3.6 3.6 0 0 0-1.14-.16v-5.68a13.94 13.94 0 0 0-.32-3.08c-.11-1.19-.87-1.89-2.28-2.1a6.88 6.88 0 0 0-3.82.4 5.48 5.48 0 0 0-2.68 2.51c-.54.87-1 1.81-1.38 2.84a21.4 21.4 0 0 1-1.38 3 91.5 91.5 0 0 0-.65 2.03c-.22.7-.49 1.38-.81 2.03-.65.1-1.28.21-1.87.32-.6.1-1.22.22-1.87.32-2.5.54-4.93 1.09-7.31 1.63a863.6 863.6 0 0 1-7.31 1.62c-.98.21-1.95.54-2.93.97l-.81.4c-.33.17-.38.47-.16.9.21.54.65.92 1.3 1.13.54.11 1.13.2 1.78.25.65.05 1.25.02 1.8-.08a132.02 132.02 0 0 0 9.42-.98c.97-.1 1.92-.19 2.84-.24.92-.05 1.81-.14 2.68-.24.1 0 .38.1.81.32-.1.22-.16.43-.16.65 0 .22-.05.43-.16.65a183.8 183.8 0 0 1-1.06 4.62c-.38 1.57-.73 3.1-1.06 4.62-.65 4.11-1.1 8.2-1.38 12.25-.27 4.05-.51 8.13-.73 12.24-.21 4.1-.13 8.13.25 12.08.38 3.95.84 7.97 1.38 12.08a40.13 40.13 0 0 0 4.7 12.65c.66 1.2 1.42 2.22 2.28 3.08.87.87 1.9 1.57 3.1 2.11z"/><filter id="prefix__sylt-a" width="107%" height="108.7%" x="-3.5%" y="-4.3%" filterUnits="objectBoundingBox"><feMorphology in="SourceAlpha" operator="dilate" radius="2.5" result="shadowSpreadOuter1"/><feOffset in="shadowSpreadOuter1" result="shadowOffsetOuter1"/><feColorMatrix in="shadowOffsetOuter1" values="0 0 0 0 1   0 0 0 0 1   0 0 0 0 1  0 0 0 1 0"/></filter></defs><g fill="none" fill-rule="evenodd"><path fill="#FFF" d="M0 0h400v400H0z"/><g transform="translate(21 53)"><path stroke="#000" stroke-width="4" d="M108.08 246.97c-2.12-3.2-1.59-4-3.92-4.15-1.08-.07-2.42.01-3.9 2.65a13.07 13.07 0 0 1-2.84 3.66c-2.4 2.13-4.94 3.9-8.08 3.9-3.25-.01-4.31-1.66-8.16-2.88-2.64-.84-7.27-1.04-8.74-.35-1.18.56-1 .65-1.93.76-1.2.15-2.3-.52-3.18-1.46-1.36-1.45-1.93-2.49-3.25-4.21-.96-1.26-2.54-2.04-3.39-3.51-.57-.98-.35-1.51-1.66-2.52-.93-.7-4.95-.64-7.63-1.57-2.08-.73-1.9-3.5-3.28-5.62-1.36-2.1-8.35-6.24-12.34-9.58-4.73-4.98-4.94-5.48-6.84-7.6-1.9-2.14-3.56-3.8-5.09-5.92a8.85 8.85 0 0 1-1.75-6.13c.65-5.55 3.8-10 3.86-16.32.04-4.33.35-6.32-.65-13.45-.4-2.87-1.37-4.84-2.45-7.54a171.34 171.34 0 0 0-8.54-18.36c-1.22-2.25-3-4-5.03-5.2-2.27-1.35-5.05-2.47-7.6-3.75a3.16 3.16 0 0 1-1.64-3.38c.5-2.54 4.09-2.71 8.31-4.68 5.12-2.4 7.4-3.78 10.3-6.32 3.57-3.15 6.77-5.32 10.28-8.71 2.44-2.37 4.55-3.86 6.5-7.72a27.45 27.45 0 0 0 2.44-6.49c.88-3.69.09-6.9.65-8.9.67-2.36 3.36-2.77 3.74-4.55.35-1.64-1.62-3.57-.7-5.97.56-1.46 4.32-3.4 7.02-5.78 2.16-1.9 1.87-2.36 3.97-4.62 4.03-4.33 4.32-3.7 8.66-8.6 1.81-2.04 3.1-3.9 3.63-6.49.68-3.36-.88-6.37-2.05-9.06-.39-.88-1.06-1.4-2.17-1.81-.93-.35-2.43.1-3.45-.3a15.6 15.6 0 0 1-4.44-2.51c-2.02-1.58-2.89-2.98-2.98-4.21-.12-1.52.8-2.06 1.93-2.58 2.5-1.11 6.15-3.17 8.7-5.78 1.45-1.48.73-3.34 1.53-5.32a13.15 13.15 0 0 1 2.75-4.22 6.6 6.6 0 0 1 7.77-1.28 32.39 32.39 0 0 1 9.3 6.2c.88.82.56 3.4 2.4 3.33 2.43-.1 1.2-1.69 3.74-2.92 4.02-1.95 9.46-2.15 13.5-1.11 1.9.46 4.1 1.58 6.03 1.28a4.42 4.42 0 0 0 3.62-3.45c.49-2.22-.07-5.47 1.17-7.07 1.28-1.64 1.9-2.5 9.89-5.09 7.57-2.44 10.3-1.05 14.2-2.57 4.48-1.75 8.05-7.35 11.53-7.13 1.83.11 3.57 1.08 3.91 3.21.62 3.85-.32 7.65-.35 11.17-.05 7.9 2.23 12.32 3.8 14.03 3.11 3.39 6.43 5.41 10.24 7.2 2.86 1.34 5.14 2.63 9.12 2.68 7.51.1 13.21.06 18.94 1.35 3.7.83 7.51 1.78 10.64 3.92 2.4 1.64 3.72 3.19 6.03 4.61 4.26 2.64 7.34 3.86 10.87 3.34 2.79-.4 6.72-3 9.7-5.5 2.52-2.1 4.83-5.32 8.08-6.02 4.85-1.05 7.24-.43 10.47-1.76 2.85-1.17 4.3-1.2 5.08-.46 2.02 1.86.53 3.97-.87 5.03-3.28 2.45-8.82 6.91-10.42 7.3-3.84.95-3.1 4.18-2.25 5.03 2 1.98 5.01.56 5.4-.9.29-1.07 1.11-1.75 2.75-2.92 1.87-1.33 3.82-2.37 7.36-3.62 1.54-.54 2.58-1.1 6.73-1.58 3-.35 6.05-4.25 8.48-7.73 3.12-4.47.18-5.23.89-7.8.59-2.15 1.16-4.36 3.92-6.26 2.39-1.65 14.97 2.59 15.9 3.16 2.23 1.38 3.31 4 5.38 4.97 2.4 1.1 3.38 1.12 5.38 2.04 1.4.64 5.8 6.95 5.85 8.66.09 2.81-4.77 10.52-1.87 13.04 2.56 2.23 3.31 1.6 6.2 3.04 1.98.99 1.98 4.21 2.1 6.43.11 2.16.06 5.03-1.7 5.96-3.5 1.88-8.25-.99-12.22.12-2.1.6-1.4 3.34-4.03 6.66-3.06 3.88-4.5 8.19-4.5 10.6 0 3.56.35 8.12.06 11.33-.16 1.73-1.14 3.67-2.7 4.45-2.57 1.28-5 1.05-7.13 2.57-2.28 1.62-3.62 3.41-5.73 5.73-2.05 2.26-2.4 3.6-3.68 6.38-1.12 2.39-2.05 3.38-3.33 4.9-1.15 1.36-2.92 2-4.39 2.99-1.4.93-2.67 2.48-5.03 3.1-6.38 1.68-12.42 4.42-18.54 4.85-4.02.29-5.37-4.73-9.35-4.68-1.67.03-3.25.93-4.68 1.93-2.42 1.71-4.86 2.88-4.67 4.91.58 6.5 12.68 6.09 15.9 11.12 1.05 1.64 2.6 3.98 2.33 7.95-.14 2.16-1.89 3.95-3.5 5.26-3.77 3.04-16.96 10.52-25.62 15.73l-42.68 26.49c-7.83 4.9-20.27 12.26-23.62 14.8-8.07 6.08-15.03 17.57-16.86 20.2-1.14 1.62-5.02 4.36-5.45 5.6-.5 1.44-.35 4.18-1.78 5.2-1.74 1.24-2.65.74-4.43.77-1.54.02-1.11.38-2.76.73-1.32.28-3.86.12-6.14-3.05l-.97-1.3z"/><g fill-rule="nonzero"><use fill="#000" filter="url(#prefix__sylt-a)" xlink:href="#prefix__sylt-b"/><use fill="#000" xlink:href="#prefix__sylt-b"/></g></g></g></svg>