<?xml version="1.0" encoding="UTF-8"?>
<!DOCTYPE svg PUBLIC "-//W3C//DTD SVG 1.1//EN" "http://www.w3.org/Graphics/SVG/1.1/DTD/svg11.dtd">
<svg version="1.1" xmlns="http://www.w3.org/2000/svg" xmlns:xlink="http://www.w3.org/1999/xlink" x="0" y="0" width="559.627" height="110.216" viewBox="0, 0, 559.627, 110.216">
  <g id="Ebene_1" transform="translate(-180, -288)">
    <g>
      <path d="M263.644,349.352 L263.644,322.491 Q263.644,315.798 262.411,313.684 Q260.782,310.866 257.788,310.866 Q253.076,310.866 250.346,316.326 Q248.981,319.056 248.585,321.919 Q248.1,325.177 248.1,329.316 L248.1,339.268 Q248.144,344.332 249.201,345.477 Q250.082,346.534 252.68,346.578 L254.133,346.578 L254.133,349.352 L234.45,349.352 L234.45,346.578 L235.903,346.578 Q238.501,346.534 239.382,345.477 Q240.438,344.376 240.482,339.268 L240.482,299.241 Q240.438,294.221 239.382,293.12 Q238.501,292.063 235.903,292.019 L234.89,292.019 L234.89,289.245 L248.1,288.629 L248.1,315.313 Q252.152,306.991 259.681,306.991 Q265.494,306.991 268.356,310.91 Q270.514,313.86 270.91,317.471 Q271.262,320.465 271.262,324.693 L271.262,339.268 Q271.306,344.332 272.363,345.477 Q273.244,346.534 275.842,346.578 L276.855,346.578 L276.855,349.352 z" fill="#E2007A"/>
      <path d="M294.16,307.255 L294.16,339.268 Q294.204,344.332 295.261,345.477 Q296.142,346.534 298.74,346.578 L300.193,346.578 L300.193,349.352 L280.509,349.352 L280.509,346.578 L281.963,346.578 Q284.561,346.534 285.441,345.477 Q286.498,344.376 286.542,339.268 L286.542,317.867 Q286.498,312.848 285.441,311.747 Q284.561,310.69 281.963,310.69 L280.95,310.69 L280.95,307.872 z M289.757,288.805 Q291.738,288.805 293.147,290.258 Q294.6,291.711 294.6,293.737 Q294.6,295.762 293.191,297.215 Q291.738,298.669 289.669,298.669 Q287.599,298.669 286.19,297.215 Q284.737,295.762 284.737,293.737 Q284.737,291.623 286.234,290.214 Q287.687,288.805 289.757,288.805 z" fill="#E2007A"/>
      <path d="M338.018,328.304 L313.359,328.304 Q313.403,337.022 315.164,341.206 Q317.63,347.106 323.619,347.106 Q328.286,347.106 331.413,343.407 Q333.13,341.382 334.848,337.815 L337.534,339.224 Q331.853,350.629 322.21,350.629 Q315.12,350.629 310.585,345.785 Q304.948,339.752 304.948,328.348 Q304.948,317.867 310.585,311.571 Q315.032,306.595 321.285,306.595 Q330.576,306.595 335.244,315.93 Q337.754,320.906 338.018,328.304 z M329.696,325.133 Q329.696,319.629 328.507,316.062 Q326.349,309.765 321.725,309.765 Q316.529,309.765 314.372,317.515 Q313.491,320.642 313.447,325.133 z" fill="#E2007A"/>
      <path d="M370.471,307.872 L370.471,320.994 L367.741,320.994 Q365.539,309.589 357.217,309.589 Q354.223,309.589 352.373,311.394 Q350.436,313.244 350.436,315.93 Q350.436,319.012 353.122,320.818 Q354.443,321.698 357.921,322.843 Q365.407,325.221 367.961,327.115 Q372.893,330.858 372.893,336.934 Q372.893,343.099 368.622,347.018 Q365.011,350.277 359.331,350.277 Q356.116,350.277 353.386,349.132 Q351.845,348.515 349.291,346.93 Q348.63,346.534 348.234,346.534 Q347.353,346.534 346.517,349.352 L343.963,349.352 L343.963,334.072 L346.517,334.072 Q348.058,339.664 349.863,342.262 Q353.43,347.37 359.331,347.37 Q362.721,347.37 364.703,345.036 Q366.596,342.879 366.596,340.017 Q366.596,335.877 362.897,333.588 Q360.916,332.399 354.927,330.461 Q349.555,328.7 346.979,325.75 Q344.403,322.799 344.403,318.352 Q344.403,313.112 348.102,309.897 Q351.448,306.991 356.556,306.991 Q361.092,306.991 365.099,309.413 Q365.892,309.897 366.42,309.897 Q367.301,309.897 367.741,307.872 z" fill="#E2007A"/>
    </g>
    <path d="M180,327.251 L180,316.679 L190.571,316.679 L190.571,327.251 L180,327.251 z" fill="#E20074"/>
    <path d="M218.084,327.251 L218.084,316.679 L228.656,316.679 L228.656,327.251 L218.084,327.251 z" fill="#E20074"/>
    <path d="M386.45,327.251 L386.45,316.679 L397.022,316.679 L397.022,327.251 L386.45,327.251 z" fill="#E20074"/>
    <path d="M419.123,327.251 L419.123,316.679 L429.694,316.679 L429.694,327.251 L419.123,327.251 z" fill="#E20074"/>
    <g>
      <path d="M478.023,309.092 C476.941,303.742 475.538,299.796 473.813,297.252 C471.065,293.189 467.557,291.157 463.289,291.157 C460.687,291.157 458.495,291.946 456.711,293.525 C454.548,295.455 453.466,297.998 453.466,301.155 C453.466,304.488 454.635,307.119 456.974,309.048 C458.407,310.247 461.169,311.548 465.262,312.951 C471.255,315.027 475.275,316.825 477.321,318.345 C481.677,321.561 483.855,326.034 483.855,331.764 C483.855,337.26 482.072,341.85 478.505,345.534 C475.231,348.954 471.182,350.664 466.358,350.664 C463.785,350.664 461.403,350.196 459.21,349.261 C458.274,348.881 456.74,348.019 454.606,346.674 C453.904,346.236 453.217,346.017 452.545,346.017 C451.756,346.017 451.04,346.425 450.397,347.245 C450.105,347.654 449.71,348.312 449.213,349.219 L446.45,349.219 L446.45,327.51 L449.301,327.51 C450.353,333.006 451.801,337.201 453.642,340.096 C456.741,344.978 460.819,347.418 465.876,347.418 C468.829,347.418 471.284,346.557 473.243,344.831 C475.728,342.609 476.97,339.555 476.97,335.666 C476.97,331.047 475.041,327.627 471.182,325.405 C469.954,324.703 466.578,323.417 461.052,321.546 C457.135,320.231 454.065,318.593 451.843,316.635 C448.569,313.77 446.932,309.823 446.932,304.795 C446.932,299.357 448.715,295.06 452.282,291.902 C455.176,289.3 458.699,288 462.85,288 C465.101,288 467.323,288.438 469.516,289.315 C470.422,289.695 471.84,290.47 473.769,291.639 C474.383,291.99 474.938,292.165 475.435,292.165 C476.342,292.165 477.248,291.229 478.155,289.359 L480.61,289.359 L480.61,309.092 C480.61,309.092 478.023,309.092 478.023,309.092 z" fill="#E20074"/>
      <path d="M486.267,307.908 L504.992,307.908 L504.992,310.671 L503.369,310.671 C500.943,310.671 499.729,311.329 499.729,312.644 C499.729,313.17 499.934,313.975 500.343,315.056 L509.332,338.56 L517.138,316.81 C517.694,315.29 517.971,314.106 517.971,313.258 C517.971,311.533 516.656,310.671 514.025,310.671 L512.051,310.671 L512.051,307.908 L526.785,307.908 L526.785,310.671 L525.82,310.671 C524.884,310.671 524.11,310.985 523.496,311.614 C522.882,312.243 522.283,313.317 521.698,314.837 L506.834,354.829 C505.431,358.542 503.881,361.217 502.186,362.854 C500.432,364.549 498.268,365.397 495.696,365.397 C493.504,365.397 491.662,364.768 490.171,363.511 C488.358,361.962 487.452,360.032 487.452,357.723 C487.452,356.29 487.861,355.092 488.68,354.127 C489.557,353.045 490.756,352.504 492.277,352.504 C493.943,352.504 495.215,353.118 496.091,354.346 C496.617,355.077 496.88,355.91 496.88,356.846 C496.88,358.191 496.399,359.316 495.434,360.222 C494.849,360.778 494.075,361.128 493.11,361.275 C493.782,362.035 494.703,362.416 495.873,362.416 C497.598,362.416 499.103,361.728 500.39,360.354 C501.559,359.097 502.86,356.452 504.292,352.416 L505.257,349.61 L492.935,316.458 C491.97,313.944 491.152,312.38 490.48,311.766 C489.719,311.035 488.565,310.67 487.015,310.67 L486.27,310.67 L486.27,307.908 C486.27,307.908 486.267,307.908 486.267,307.908 z" fill="#E20074"/>
      <path d="M556.297,307.908 L556.297,320.976 L553.578,320.976 C552.116,313.404 548.623,309.619 543.098,309.619 C541.11,309.619 539.502,310.218 538.275,311.417 C536.988,312.645 536.345,314.15 536.345,315.934 C536.345,317.98 537.237,319.603 539.02,320.802 C539.897,321.386 541.491,322.059 543.799,322.819 C548.77,324.398 552.102,325.816 553.798,327.072 C557.071,329.557 558.709,332.817 558.709,336.85 C558.709,340.944 557.291,344.291 554.455,346.893 C552.058,349.056 548.974,350.137 545.202,350.137 C543.068,350.137 541.095,349.757 539.282,348.997 C538.26,348.588 536.9,347.857 535.204,346.805 C534.766,346.541 534.415,346.41 534.152,346.41 C533.567,346.41 532.997,347.346 532.441,349.217 L529.898,349.217 L529.898,334 L532.441,334 C533.464,337.713 534.576,340.432 535.774,342.156 C538.142,345.547 541.285,347.243 545.202,347.243 C547.453,347.243 549.237,346.469 550.553,344.919 C551.81,343.486 552.439,341.82 552.439,339.92 C552.439,337.172 551.21,335.037 548.755,333.518 C547.44,332.729 544.793,331.691 540.817,330.405 C537.251,329.235 534.612,327.672 532.902,325.713 C531.192,323.755 530.337,321.299 530.337,318.346 C530.337,314.867 531.565,312.061 534.021,309.927 C536.243,307.998 539.049,307.033 542.44,307.033 C545.452,307.033 548.288,307.837 550.948,309.445 C551.474,309.766 551.913,309.927 552.263,309.927 C552.848,309.927 553.286,309.255 553.578,307.91 L556.297,307.91 L556.297,307.908 z" fill="#E20074"/>
      <path d="M573.969,310.978 L573.969,335.842 C573.969,339.029 574.189,341.381 574.627,342.903 C575.299,345.212 576.717,346.367 578.881,346.367 C580.868,346.367 582.286,345.358 583.134,343.341 C583.952,341.411 584.363,339.059 584.363,336.281 L584.363,335.053 L587.344,335.053 L587.344,336.719 C587.344,345.664 583.807,350.137 576.732,350.137 C573.224,350.137 570.623,349.129 568.926,347.112 C567.669,345.592 566.909,343.764 566.646,341.631 C566.471,340.023 566.383,338.094 566.383,335.843 L566.383,310.978 L559.893,310.978 L559.893,308.435 C563.956,307.529 566.778,305.892 568.357,303.524 C569.994,300.922 571.003,297.194 571.382,292.342 L573.969,292.342 L573.969,307.909 L586.029,307.909 L586.029,310.979 L573.969,310.978 L573.969,310.978 L573.969,310.978 z" fill="#E20074"/>
      <path d="M622.996,328.256 L598.439,328.256 C598.468,334.044 599.067,338.326 600.237,341.104 C601.874,345.022 604.68,346.981 608.656,346.981 C611.755,346.981 614.343,345.752 616.418,343.297 C617.559,341.951 618.698,340.096 619.839,337.727 L622.514,339.131 C618.743,346.702 613.656,350.488 607.253,350.488 C602.547,350.488 598.688,348.88 595.677,345.664 C591.935,341.659 590.064,335.871 590.064,328.299 C590.064,321.341 591.935,315.773 595.677,311.592 C598.629,308.289 602.181,306.637 606.332,306.637 C612.501,306.637 617.135,309.736 620.233,315.933 C621.899,319.237 622.82,323.344 622.996,328.256 z M614.708,325.098 C614.708,321.444 614.313,318.432 613.524,316.064 C612.091,311.884 609.84,309.793 606.77,309.793 C603.321,309.793 600.879,312.366 599.447,317.511 C598.863,319.587 598.555,322.115 598.526,325.097 L614.708,325.097 L614.708,325.098 L614.708,325.098 z" fill="#E20074"/>
      <path d="M674.87,349.217 L674.87,323.958 C674.87,318.754 674.507,315.392 673.775,313.872 C672.782,311.884 671.232,310.89 669.128,310.89 C666.613,310.89 664.579,312.308 663.03,315.143 C662.182,316.693 661.627,318.388 661.363,320.23 C661.159,321.575 661.058,324.118 661.058,327.861 L661.058,339.174 C661.087,342.536 661.451,344.598 662.153,345.358 C662.737,346.059 663.894,346.424 665.619,346.454 L666.889,346.454 L666.889,349.218 L653.471,349.218 L653.471,325.362 C653.471,321.269 653.383,318.609 653.207,317.381 C652.594,313.025 650.711,310.847 647.554,310.847 C645.011,310.847 643.006,312.294 641.544,315.188 C640.814,316.591 640.316,318.068 640.053,319.617 C639.761,321.196 639.615,323.944 639.615,327.862 L639.615,339.175 C639.644,342.537 639.98,344.599 640.626,345.359 C641.24,346.06 642.422,346.425 644.176,346.455 L645.45,346.455 L645.45,349.219 L626.022,349.219 L626.022,346.455 L627.469,346.455 C629.135,346.426 630.276,346.06 630.889,345.359 C631.62,344.629 632,342.567 632.03,339.175 L632.03,317.863 C632.001,314.501 631.621,312.454 630.889,311.724 C630.276,311.022 629.135,310.671 627.469,310.671 L626.46,310.671 L626.46,307.908 L639.047,307.294 L639.047,314.573 C639.629,313.111 640.45,311.81 641.502,310.67 C643.751,308.244 646.44,307.03 649.571,307.03 C652.902,307.03 655.575,308.243 657.592,310.67 C658.469,311.723 659.287,313.213 660.047,315.143 C662.65,309.735 666.35,307.031 671.144,307.031 C673.044,307.031 674.798,307.448 676.407,308.281 C678.014,309.114 679.284,310.261 680.22,311.723 C681.273,313.36 681.915,315.231 682.15,317.336 C682.354,319.031 682.459,320.902 682.459,322.949 L682.459,339.174 C682.488,342.536 682.852,344.598 683.554,345.358 C684.139,346.059 685.295,346.424 687.02,346.454 L688.027,346.454 L688.027,349.218 L674.87,349.217 L674.87,349.217 z" fill="#E20074"/>
      <path d="M718.637,307.908 L718.637,320.976 L715.918,320.976 C714.456,313.404 710.961,309.619 705.436,309.619 C703.448,309.619 701.84,310.218 700.612,311.417 C699.326,312.645 698.683,314.15 698.683,315.934 C698.683,317.98 699.577,319.603 701.36,320.802 C702.237,321.386 703.828,322.059 706.137,322.819 C711.107,324.398 714.44,325.816 716.135,327.072 C719.409,329.557 721.047,332.817 721.047,336.85 C721.047,340.944 719.631,344.291 716.795,346.893 C714.398,349.056 711.312,350.137 707.54,350.137 C705.406,350.137 703.435,349.757 701.622,348.997 C700.6,348.588 699.238,347.857 697.542,346.805 C697.104,346.541 696.753,346.41 696.49,346.41 C695.905,346.41 695.337,347.346 694.781,349.217 L692.238,349.217 L692.238,334 L694.781,334 C695.804,337.713 696.916,340.432 698.114,342.156 C700.482,345.547 703.623,347.243 707.54,347.243 C709.791,347.243 711.574,346.469 712.891,344.919 C714.148,343.486 714.779,341.82 714.779,339.92 C714.779,337.172 713.55,335.037 711.095,333.518 C709.78,332.729 707.131,331.691 703.156,330.405 C699.59,329.235 696.95,327.672 695.242,325.713 C693.529,323.755 692.678,321.299 692.678,318.346 C692.678,314.867 693.906,312.061 696.362,309.927 C698.584,307.998 701.39,307.033 704.781,307.033 C707.793,307.033 710.629,307.837 713.289,309.445 C713.815,309.766 714.254,309.927 714.604,309.927 C715.189,309.927 715.627,309.255 715.919,307.91 L718.637,307.91 L718.637,307.908 z" fill="#E20074"/>
      <path d="M729.056,327.249 L729.056,316.677 L739.627,316.677 L739.627,327.249 L729.056,327.249 z" fill="#E20074"/>
    </g>
    <path d="M209.242,292.3 L209.242,337.554 C209.242,340.828 209.415,342.846 209.762,343.606 C210.362,345.389 212.381,346.31 215.818,346.369 L218.089,346.369 L218.089,349.263 L191.451,349.263 L191.451,346.369 L193.722,346.369 C196.214,346.369 197.918,345.916 198.832,345.01 C199.464,344.454 199.857,343.621 200.016,342.51 C200.204,341.37 200.3,339.718 200.3,337.555 L200.3,292.3 L198.312,292.3 C195.19,292.3 192.382,293.148 189.891,294.843 C186.137,297.415 183.96,302.575 183.361,310.322 L180.522,310.19 L181.043,289.404 L228.783,289.404 L229.162,310.19 L226.275,310.322 C225.613,305.41 224.509,301.595 222.963,298.877 C221.575,296.45 219.841,294.726 217.759,293.703 C215.898,292.797 213.547,292.329 210.709,292.3 C210.709,292.3 209.242,292.3 209.242,292.3 z" fill="#E20074"/>
    <g>
      <path d="M654.684,397.267 L652.643,397.267 Q652.212,394.823 651.033,394.823 Q650.63,394.823 649.624,395.599 Q646.203,398.216 642.148,398.216 Q635.19,398.216 630.504,391.516 Q626.45,385.737 626.45,378.262 Q626.45,369.952 631.021,363.656 Q633.293,360.522 636.297,358.825 Q639.302,357.129 642.609,357.129 Q644.851,357.129 646.95,357.934 Q647.784,358.279 649.452,359.256 Q650.688,360.004 651.148,360.004 Q652.241,360.004 653.017,358.02 L654.541,358.02 L654.541,371.476 L652.557,371.649 Q651.694,366.387 650.199,363.799 Q647.583,359.314 642.896,359.314 Q640.74,359.314 638.842,360.335 Q636.944,361.355 635.823,363.167 Q632.747,368.112 632.747,377.485 Q632.747,385.852 635.248,390.941 Q637.721,395.973 642.839,395.973 Q646.461,395.973 648.186,393.242 Q649.423,391.258 649.423,387.52 L649.423,385.421 Q649.394,382.546 648.474,381.424 Q647.554,380.332 645.139,380.303 L643.557,380.303 L643.557,378.434 L659.486,378.434 L659.486,380.303 L658.652,380.303 Q656.352,380.303 655.49,381.166 Q654.943,381.654 654.799,382.546 Q654.684,383.351 654.684,384.731 z" fill="#E2007A"/>
      <path d="M669.578,374.006 Q670.527,371.85 672.295,370.729 Q674.063,369.607 676.536,369.607 Q680.82,369.607 683.552,372.626 Q687.088,376.565 687.088,383.236 Q687.088,389.59 683.925,393.874 Q680.964,397.871 676.134,397.871 Q673.517,397.871 671.332,396.462 Q670.872,396.174 669.377,394.938 Q668.802,394.478 668.371,394.478 Q667.853,394.478 667.22,395.398 Q666.645,396.203 665.984,397.267 L664.029,397.267 Q664.288,396.462 664.345,396.261 Q664.604,395.427 664.604,391.459 L664.604,364.547 Q664.575,361.269 663.885,360.55 Q663.31,359.86 661.614,359.832 L661.182,359.832 L661.182,358.02 L669.578,357.618 z M675.674,371.677 Q674.294,371.677 672.971,372.554 Q671.648,373.431 670.814,374.898 Q669.089,377.945 669.089,383.61 Q669.089,389.216 670.556,392.35 Q671.303,393.96 672.626,394.88 Q673.948,395.801 675.53,395.801 Q681.367,395.801 681.367,383.466 Q681.367,371.677 675.674,371.677 z" fill="#E2007A"/>
      <path d="M700.717,378.06 L700.717,389.59 Q700.717,392.782 701.033,393.558 Q701.551,395.312 704.713,395.369 L705.633,395.369 L705.633,397.267 L690.481,397.267 L690.481,395.369 L691.286,395.369 Q693.557,395.369 694.391,394.478 Q694.966,393.96 695.11,392.839 Q695.283,391.689 695.283,389.59 L695.283,365.697 Q695.283,362.477 694.966,361.729 Q694.449,359.975 691.286,359.889 L690.481,359.889 L690.481,358.02 L706.381,358.02 Q711.873,358.02 715.294,360.177 Q719.406,362.736 719.406,367.767 Q719.406,372.224 716.099,375.013 Q713.627,377.112 709.889,377.514 Q709.572,377.572 708.336,377.658 Q711.47,378.032 713.77,379.872 Q715.524,381.338 716.3,383.495 Q716.732,384.645 717.134,387.261 Q717.681,390.74 718.399,392.293 Q719.693,394.88 722.913,395.398 L722.913,397.267 L721.821,397.267 Q718.428,397.267 717.077,396.893 Q713.339,395.916 712.189,392.437 Q711.671,390.625 711.068,385.594 Q710.32,380.159 706.438,378.607 Q705.173,378.118 703.247,378.089 Q702.557,378.089 700.717,378.06 z M700.717,376.192 L702.787,376.192 Q706.352,376.192 707.502,375.99 Q713.569,374.955 713.569,368.428 Q713.569,364.173 711.326,361.93 Q709.4,360.004 705.145,360.004 Q701.953,360.004 701.234,361.212 Q700.889,361.729 700.803,362.448 Q700.717,363.023 700.717,365.697 z" fill="#E2007A"/>
    </g>
  </g>
</svg>
